<svg xmlns="http://www.w3.org/2000/svg" xmlns:xlink="http://www.w3.org/1999/xlink" width="500" zoomAndPan="magnify" viewBox="0 0 375 374.999991" height="500" preserveAspectRatio="xMidYMid meet" version="1.0"><defs><clipPath id="263fe68580"><path d="M 18.460938 267 L 356.535156 267 L 356.535156 339 L 18.460938 339 Z M 18.460938 267 " clip-rule="nonzero"/></clipPath><clipPath id="fa4520581f"><path d="M 77 39 L 341 39 L 341 339 L 77 339 Z M 77 39 " clip-rule="nonzero"/></clipPath></defs><path fill="#f8becb" d="M 267.152344 166.335938 C 267.019531 164.679688 271.019531 165.871094 273.90625 166.945312 C 273.59375 163.585938 272.878906 160.289062 271.78125 157.183594 C 269.601562 158.9375 265.777344 160.621094 259.828125 158.800781 C 261.796875 163.023438 262.472656 167.566406 262.371094 171.742188 C 264.347656 173.210938 269.246094 177.050781 267.148438 177.535156 C 266.34375 177.722656 265.210938 177.640625 264.027344 177.441406 C 264.371094 177.894531 264.550781 178.140625 264.550781 178.140625 C 264.402344 178.566406 264.222656 179.007812 264.03125 179.457031 L 268.898438 184.542969 C 268.898438 184.542969 270.179688 184.609375 271.863281 184.761719 C 271.941406 184.535156 272.019531 184.3125 272.09375 184.082031 C 272.84375 181.726562 273.378906 179.304688 273.707031 176.863281 C 271.214844 174.996094 268.230469 172.519531 269.015625 171.878906 C 269.859375 171.1875 272.402344 171.863281 274.078125 172.417969 C 274.082031 172.339844 274.082031 172.257812 274.085938 172.171875 C 271.6875 170.859375 267.308594 168.21875 267.152344 166.335938 Z M 220.191406 215.140625 C 221.34375 215.882812 222.46875 216.320312 223.152344 215.847656 C 224.410156 214.976562 222.761719 212.460938 221.542969 210.902344 C 221.585938 210.792969 221.632812 210.683594 221.675781 210.574219 C 223.160156 211.628906 225.671875 213.019531 227.402344 211.839844 C 229.019531 210.742188 226.160156 208.230469 223.769531 206.484375 C 225.652344 203.425781 228.289062 200.46875 231.941406 197.914062 C 234.792969 195.921875 237.238281 194.472656 239.378906 193.402344 L 247.503906 201.53125 C 247.503906 201.53125 248.035156 200.984375 248.902344 200.046875 C 249.570312 200.535156 250.351562 201.117188 251.195312 201.765625 C 249.003906 202.125 246.757812 202.617188 243.210938 204.601562 C 241.664062 202.722656 239.511719 200.5625 238.128906 201.113281 C 236.617188 201.722656 238.011719 204.917969 239.203125 207.113281 C 239.054688 207.214844 238.90625 207.320312 238.75 207.425781 C 236.371094 204.992188 232.1875 201.101562 230.703125 202.175781 C 229.121094 203.320312 233.511719 207.742188 235.839844 209.917969 C 232.15625 213.839844 231.125 218.632812 230.941406 222.132812 C 227.734375 221.832031 224.5 222.507812 221.683594 224.023438 C 221.425781 224.160156 221.175781 224.304688 220.925781 224.457031 C 220.925781 224.429688 220.921875 224.402344 220.917969 224.371094 C 220.65625 221.414062 220.390625 218.433594 220.121094 215.464844 C 220.148438 215.355469 220.167969 215.25 220.191406 215.140625 Z M 302.082031 278.710938 C 303.265625 277.683594 303.527344 275.996094 303.636719 274.519531 C 303.707031 273.613281 303.683594 272.703125 303.585938 271.800781 C 304.210938 272.601562 305.09375 273.207031 306.085938 273.433594 C 307.351562 273.71875 308.683594 273.308594 309.214844 272.054688 C 309.785156 270.707031 309.574219 268.972656 309.386719 267.566406 C 309.339844 267.214844 309.273438 266.871094 309.207031 266.523438 C 311.691406 266.96875 314.363281 267.304688 317.238281 267.488281 C 318.210938 274.4375 318.550781 280.515625 318.582031 285.464844 C 316.957031 284.296875 315.214844 283.359375 314.164062 283.710938 C 312.394531 284.300781 316.328125 288.417969 318.511719 290.53125 C 318.507812 290.632812 318.503906 290.734375 318.5 290.828125 C 316.65625 289.578125 313.488281 287.671875 312.914062 288.90625 C 311.214844 287.695312 309.25 286.589844 306.964844 285.632812 C 304.007812 284.390625 301.117188 283.675781 298.316406 283.351562 L 298.316406 278.554688 C 298.363281 278.605469 298.398438 278.65625 298.449219 278.703125 C 299.472656 279.683594 301.039062 279.621094 302.082031 278.710938 Z M 299.863281 278.828125 C 300.082031 278.84375 300.332031 278.84375 300.613281 278.828125 C 300.367188 278.875 300.113281 278.871094 299.863281 278.828125 Z M 220.980469 225.054688 C 222.921875 247.0625 224.597656 267.890625 225.195312 275.386719 C 225.414062 275.335938 225.625 275.277344 225.851562 275.230469 C 228.867188 274.566406 231.710938 274.292969 234.386719 274.3125 C 235.730469 271.1875 236.523438 267.824219 236.699219 264.414062 C 236.839844 261.691406 236.601562 258.945312 235.941406 256.296875 C 235.257812 253.554688 234.101562 250.859375 232.191406 248.742188 C 230.136719 246.460938 227.1875 244.921875 224.074219 245.042969 C 223.71875 245.058594 223.722656 244.507812 224.074219 244.496094 C 226.828125 244.386719 229.480469 245.527344 231.535156 247.324219 C 233.699219 249.214844 235.121094 251.820312 236.003906 254.523438 C 237.773438 259.941406 237.667969 265.964844 236.03125 271.402344 C 235.734375 272.394531 235.378906 273.371094 234.976562 274.324219 C 243.867188 274.546875 250.839844 278.097656 255.847656 281.96875 C 256.167969 278.636719 256.421875 275.296875 256.59375 271.949219 C 256.6875 270.101562 256.761719 268.253906 256.8125 266.40625 C 256.824219 266.054688 257.371094 266.054688 257.363281 266.40625 C 257.285156 269.121094 257.152344 271.835938 256.980469 274.550781 C 261.21875 273.972656 268.484375 273.203125 271.148438 274.3125 C 275.007812 275.914062 269.046875 277.335938 261.269531 278.808594 C 259.097656 279.21875 257.617188 279.484375 256.605469 279.648438 C 256.601562 279.683594 256.597656 279.71875 256.597656 279.75 C 260.5 279.554688 268.59375 279.363281 268.8125 281.15625 C 268.988281 282.617188 263.15625 283.746094 258.710938 284.390625 C 258.929688 284.589844 259.136719 284.789062 259.34375 284.988281 C 262.039062 285.113281 264.75 285.488281 264.980469 286.480469 C 265.121094 287.082031 263.910156 287.558594 262.152344 287.941406 C 262.488281 288.328125 262.800781 288.703125 263.082031 289.050781 C 265.285156 291.773438 270.234375 289.394531 277 286.886719 C 277 286.878906 278.601562 281.917969 279.65625 277.902344 C 279.65625 277.902344 283.292969 262.699219 283.53125 255.046875 C 282.238281 254.289062 280.980469 253.46875 279.785156 252.566406 C 279.175781 252.105469 278.582031 251.621094 278.007812 251.113281 C 276.433594 249.734375 275.015625 248.1875 273.828125 246.460938 C 273.574219 246.085938 273.324219 245.707031 273.089844 245.316406 C 273.046875 245.242188 273.042969 245.171875 273.058594 245.109375 C 272.96875 245.054688 272.914062 244.957031 272.964844 244.824219 C 274.191406 241.578125 275.417969 238.332031 276.644531 235.085938 C 275.015625 236.070312 270.375 238.660156 265.78125 239.265625 C 263.554688 243.570312 256.761719 256.15625 255.089844 252.898438 C 253.542969 249.875 257.054688 241.539062 258.742188 237.894531 C 257.5625 237.128906 256.148438 236.011719 254.542969 234.722656 C 252.546875 238.007812 245.597656 248.957031 243.222656 246.429688 C 240.957031 244.019531 246.957031 234.1875 249.285156 230.585938 C 248.292969 229.847656 247.261719 229.109375 246.191406 228.394531 C 244.195312 231.496094 237.699219 241.140625 235.242188 239.140625 C 233.015625 237.324219 238.515625 229.230469 241.253906 225.484375 C 238.347656 224.007812 235.246094 222.902344 232.023438 222.511719 C 231.996094 222.652344 231.871094 222.792969 231.683594 222.765625 C 227.984375 222.210938 224.128906 223.054688 220.980469 225.054688 Z M 268.539062 252.179688 C 268.527344 252.035156 268.675781 251.898438 268.8125 251.902344 C 268.976562 251.910156 269.074219 252.023438 269.089844 252.179688 C 269.144531 252.746094 269.203125 253.3125 269.257812 253.875 C 269.273438 254.019531 269.125 254.15625 268.984375 254.152344 C 268.824219 254.144531 268.726562 254.03125 268.710938 253.875 C 268.652344 253.3125 268.597656 252.746094 268.539062 252.179688 Z M 267.046875 252.753906 C 267.070312 252.605469 267.253906 252.527344 267.386719 252.5625 C 267.542969 252.605469 267.597656 252.753906 267.578125 252.898438 C 267.496094 253.425781 267.582031 254.027344 267.8125 254.519531 C 267.875 254.65625 267.847656 254.816406 267.710938 254.894531 C 267.59375 254.964844 267.402344 254.933594 267.335938 254.796875 C 267.035156 254.152344 266.9375 253.457031 267.046875 252.753906 Z M 254.53125 279.878906 C 254.53125 279.878906 254.9375 279.84375 255.621094 279.804688 C 254.144531 280.023438 254.53125 279.878906 254.53125 279.878906 Z M 247.796875 265.945312 C 247.867188 265.890625 247.902344 265.867188 247.980469 265.796875 C 248.050781 265.738281 248.117188 265.675781 248.183594 265.609375 C 248.25 265.542969 248.308594 265.476562 248.371094 265.40625 C 248.398438 265.375 248.425781 265.339844 248.453125 265.304688 C 248.433594 265.332031 248.464844 265.289062 248.472656 265.28125 C 248.484375 265.261719 248.5 265.242188 248.511719 265.222656 C 248.617188 265.074219 248.710938 264.921875 248.789062 264.761719 C 248.832031 264.675781 248.863281 264.609375 248.886719 264.546875 C 248.921875 264.457031 248.953125 264.367188 248.980469 264.273438 C 249.023438 264.132812 249.171875 264.042969 249.316406 264.082031 C 249.457031 264.121094 249.550781 264.277344 249.511719 264.417969 C 249.265625 265.226562 248.757812 265.925781 248.074219 266.417969 C 247.953125 266.503906 247.769531 266.4375 247.699219 266.316406 C 247.617188 266.179688 247.675781 266.03125 247.796875 265.945312 Z M 245.375 265.65625 C 246.234375 265.46875 246.945312 264.890625 247.308594 264.078125 C 247.367188 263.945312 247.566406 263.910156 247.683594 263.980469 C 247.820312 264.0625 247.839844 264.21875 247.78125 264.355469 C 247.371094 265.273438 246.5 265.972656 245.523438 266.183594 C 245.378906 266.214844 245.226562 266.140625 245.183594 265.992188 C 245.144531 265.855469 245.230469 265.6875 245.375 265.65625 Z M 242.949219 264.878906 C 242.949219 264.726562 243.074219 264.609375 243.222656 264.601562 C 243.539062 264.59375 243.890625 264.511719 244.175781 264.375 C 244.5 264.21875 244.753906 264.027344 244.988281 263.757812 C 245.089844 263.648438 245.277344 263.660156 245.378906 263.757812 C 245.488281 263.867188 245.476562 264.035156 245.378906 264.144531 C 244.839844 264.761719 244.042969 265.128906 243.222656 265.152344 C 243.074219 265.15625 242.949219 265.023438 242.949219 264.878906 Z M 230.550781 250.71875 C 230.496094 250.648438 230.4375 250.582031 230.375 250.519531 C 230.3125 250.453125 230.25 250.390625 230.179688 250.332031 C 230.101562 250.265625 230.082031 250.25 229.988281 250.1875 C 229.867188 250.101562 229.8125 249.945312 229.890625 249.8125 C 229.960938 249.691406 230.140625 249.628906 230.265625 249.714844 C 230.941406 250.175781 231.429688 250.894531 231.578125 251.703125 C 231.605469 251.84375 231.539062 252.007812 231.386719 252.042969 C 231.253906 252.074219 231.078125 252 231.050781 251.851562 C 230.980469 251.480469 230.871094 251.203125 230.671875 250.894531 C 230.648438 250.859375 230.625 250.824219 230.601562 250.789062 C 230.585938 250.769531 230.574219 250.75 230.558594 250.734375 C 230.558594 250.730469 230.554688 250.722656 230.550781 250.71875 Z M 229.738281 250.789062 C 230.003906 251.664062 230.261719 252.535156 230.527344 253.40625 C 230.628906 253.746094 230.097656 253.890625 229.996094 253.554688 C 229.734375 252.679688 229.472656 251.808594 229.210938 250.9375 C 229.109375 250.597656 229.636719 250.453125 229.738281 250.789062 Z M 284.027344 254.699219 C 285.402344 251.398438 288.367188 245.820312 292.882812 242.558594 C 291.636719 242.226562 290.347656 242.070312 289.054688 242.109375 C 288.703125 242.117188 288.703125 241.570312 289.054688 241.558594 C 290.550781 241.519531 292.035156 241.726562 293.457031 242.164062 C 294.144531 241.710938 294.863281 241.308594 295.617188 240.980469 C 294.027344 239.710938 292.210938 238.738281 290.253906 238.136719 C 289.917969 238.035156 290.0625 237.503906 290.402344 237.609375 C 292.527344 238.261719 294.496094 239.339844 296.203125 240.753906 C 297.800781 240.152344 299.542969 239.867188 301.429688 240.03125 C 300.847656 239.082031 300.421875 238.214844 300.660156 237.976562 C 301.242188 237.390625 308.257812 239.394531 308.589844 240.648438 C 308.707031 241.09375 308.097656 241.515625 307.265625 241.875 C 308.851562 242.757812 310.144531 243.851562 311.191406 245.074219 C 313.152344 245.117188 315.09375 245.484375 316.9375 246.164062 C 317.265625 246.285156 317.121094 246.816406 316.789062 246.695312 C 315.136719 246.082031 313.410156 245.730469 311.660156 245.640625 C 312.179688 246.316406 312.636719 247.023438 313.03125 247.753906 C 314.320312 248.101562 315.546875 248.65625 316.65625 249.421875 C 316.945312 249.621094 316.671875 250.097656 316.378906 249.894531 C 315.453125 249.253906 314.4375 248.753906 313.367188 248.414062 C 315.863281 253.527344 315.664062 259.472656 315.402344 262.15625 C 315.96875 262.070312 316.53125 261.972656 317.089844 261.851562 C 317.175781 261.832031 317.25 261.851562 317.308594 261.894531 C 324.71875 260.347656 330.648438 257.15625 331.320312 255.21875 C 331.578125 254.464844 331.824219 252.945312 332.035156 251.003906 C 329.414062 249.039062 326.0625 246.152344 326.488281 244.496094 C 327.039062 242.355469 330.914062 244.671875 332.457031 245.691406 L 332.457031 245.65625 C 330.828125 244.402344 326.636719 240.917969 326.949219 238.425781 C 327.175781 236.601562 330.222656 238.203125 332.667969 239.8125 C 332.714844 236.78125 332.640625 233.996094 332.40625 232.191406 C 332.328125 231.929688 332.28125 231.632812 332.261719 231.296875 C 331.847656 223.839844 324.558594 218.050781 324.558594 218.050781 C 324.558594 218.050781 316.789062 210.347656 300.640625 208.589844 C 300.640625 208.589844 293.613281 209.039062 287.523438 213.1875 C 287.523438 213.1875 287.519531 213.1875 287.519531 213.191406 C 287.40625 213.410156 283.515625 220.929688 279.882812 228.792969 C 282.957031 228.691406 287.492188 228.84375 286.578125 230.722656 C 285.402344 233.136719 279.292969 233.703125 277.640625 233.8125 C 277.640625 233.816406 277.640625 233.816406 277.640625 233.820312 C 279.160156 233.785156 284.410156 233.816406 283.65625 236.066406 C 283.140625 237.609375 279.148438 238.222656 275.953125 238.464844 C 275.3125 240.160156 274.671875 241.855469 274.03125 243.550781 C 273.851562 244.019531 273.675781 244.496094 273.496094 244.964844 C 273.519531 244.984375 273.542969 245.007812 273.5625 245.039062 C 273.613281 245.121094 273.664062 245.199219 273.714844 245.277344 C 276.21875 249.320312 279.945312 252.339844 284.027344 254.699219 Z M 310.910156 218.582031 C 305.945312 217.277344 302.15625 215.316406 302.449219 214.207031 C 302.742188 213.101562 307.003906 213.261719 311.96875 214.570312 C 316.933594 215.875 320.71875 217.832031 320.429688 218.941406 C 320.136719 220.050781 315.875 219.890625 310.910156 218.582031 Z M 316.871094 236.453125 C 317.824219 236.191406 318.8125 236.753906 319.074219 237.707031 C 319.335938 238.664062 318.777344 239.648438 317.820312 239.914062 C 316.867188 240.175781 315.878906 239.613281 315.617188 238.660156 C 315.355469 237.703125 315.914062 236.714844 316.871094 236.453125 Z M 301.082031 219.410156 C 301.371094 218.300781 305.632812 218.464844 310.597656 219.769531 C 315.5625 221.078125 319.351562 223.035156 319.058594 224.144531 C 318.765625 225.253906 314.503906 225.089844 309.539062 223.785156 C 304.578125 222.476562 300.789062 220.519531 301.082031 219.410156 Z M 295.328125 231.089844 C 296.285156 230.828125 297.269531 231.390625 297.53125 232.34375 C 297.796875 233.300781 297.234375 234.285156 296.277344 234.550781 C 295.324219 234.8125 294.335938 234.25 294.074219 233.296875 C 293.8125 232.339844 294.375 231.351562 295.328125 231.089844 Z M 295.328125 231.089844 " fill-opacity="1" fill-rule="nonzero"/><path fill="#f8becb" d="M 264.03125 179.457031 C 260.90625 186.707031 252.292969 196.394531 248.902344 200.046875 C 249.570312 200.535156 250.351562 201.117188 251.195312 201.765625 C 254.261719 204.113281 258.113281 207.292969 259.941406 209.707031 C 263.238281 214.058594 266.21875 221.128906 269.269531 220.152344 C 272.320312 219.179688 268.792969 211.957031 268.453125 210.855469 C 268.453125 210.855469 275.175781 220.894531 277.878906 219.792969 C 280.578125 218.691406 280.53125 217.082031 279.320312 215.175781 C 278.113281 213.273438 273.667969 206.992188 273.667969 206.992188 C 273.667969 206.992188 282.121094 216.257812 284.289062 214.742188 C 286.457031 213.222656 285.039062 211.230469 284.335938 210.261719 C 283.632812 209.296875 276.882812 201.140625 276.882812 201.140625 C 276.882812 201.140625 282.144531 205.8125 284.886719 207.019531 C 284.894531 206.738281 284.914062 206.453125 284.960938 206.160156 C 285.164062 204.820312 285.683594 203.582031 286.441406 202.535156 C 284.359375 200.171875 278.132812 193.859375 276.96875 192.679688 C 275.085938 192.796875 273.207031 192.917969 271.328125 193.035156 C 270.84375 194.667969 268.867188 195.0625 267.363281 195 C 265.582031 194.921875 263.882812 194.230469 262.53125 193.074219 C 262.261719 192.84375 262.652344 192.457031 262.917969 192.6875 C 264.078125 193.679688 265.542969 194.304688 267.070312 194.429688 C 268.445312 194.546875 270.503906 194.351562 270.851562 192.703125 C 270.878906 192.578125 271 192.507812 271.117188 192.5 C 273.257812 192.363281 275.402344 192.230469 277.546875 192.09375 C 277.816406 192.078125 277.878906 192.390625 277.734375 192.550781 C 279.582031 192.648438 283.472656 192.671875 283.769531 191.136719 C 284.15625 189.117188 281.269531 186.566406 278.257812 185.71875 C 276.597656 185.253906 273.929688 184.945312 271.867188 184.757812 C 270.183594 184.609375 268.898438 184.539062 268.898438 184.539062 Z M 70.316406 222.042969 C 70.722656 220.933594 77.175781 211.273438 78.242188 209.679688 C 80.109375 209.441406 81.980469 209.203125 83.851562 208.964844 C 84.660156 210.476562 86.644531 210.496094 88.15625 210.132812 C 89.847656 209.726562 91.375 208.742188 92.457031 207.382812 C 92.675781 207.109375 92.289062 206.71875 92.070312 206.996094 C 91.160156 208.136719 89.945312 209.003906 88.550781 209.453125 C 87.230469 209.878906 84.945312 210.203125 84.269531 208.597656 C 84.226562 208.492188 84.132812 208.378906 84.003906 208.394531 C 81.875 208.667969 79.742188 208.9375 77.613281 209.210938 C 77.34375 209.242188 77.285156 209.578125 77.429688 209.707031 C 75.625 210.152344 71.847656 210.894531 71.269531 209.449219 C 70.507812 207.542969 72.859375 204.488281 75.660156 203.089844 C 78.457031 201.691406 84.625 200.164062 84.625 200.164062 L 88.746094 193.789062 C 92.332031 200.535156 102.925781 208.300781 107.40625 211.386719 C 104.851562 214.121094 99.929688 219.621094 98.171875 223.1875 C 95.753906 228.082031 94.164062 235.589844 90.984375 235.207031 C 87.804688 234.824219 89.90625 227.066406 90.03125 225.921875 C 90.03125 225.921875 85.328125 237.050781 82.464844 236.476562 C 79.601562 235.90625 79.347656 234.316406 80.175781 232.21875 C 81 230.117188 84.179688 223.109375 84.179688 223.109375 C 84.179688 223.109375 77.628906 233.808594 75.214844 232.726562 C 72.796875 231.644531 73.816406 229.417969 74.324219 228.335938 C 74.832031 227.257812 79.917969 217.972656 79.917969 217.972656 C 79.917969 217.972656 73.625 226.175781 71.90625 225.730469 C 70.1875 225.285156 69.871094 223.25 70.316406 222.042969 Z M 147.621094 91.101562 C 149.6875 98.617188 158.980469 98.101562 158.980469 98.101562 C 166.496094 101.429688 168.621094 111.46875 164.605469 113.820312 C 162.691406 114.941406 160.980469 114.664062 159.707031 114.074219 L 159.910156 117.664062 L 178.835938 130.882812 L 186.136719 119.523438 C 185.910156 119.347656 186.097656 118.984375 186.347656 119.039062 L 186.347656 114.546875 C 177.84375 114.855469 171.539062 107.84375 171.539062 107.84375 C 178.65625 110.832031 186.347656 108.757812 186.347656 108.757812 C 192.765625 105.808594 196.839844 101.765625 199.347656 97.367188 C 204.226562 88.800781 203.15625 78.886719 201.84375 73.082031 C 198.773438 72.25 196.371094 69.46875 196.371094 69.46875 C 197.625 73.582031 192.976562 76.886719 188.863281 73.667969 C 184.753906 70.453125 184.753906 62.5 184.753906 62.5 C 184.6875 62.640625 184.613281 62.777344 184.542969 62.914062 C 183.691406 65.550781 182.460938 68.074219 180.59375 70.148438 C 178.480469 72.496094 175.582031 74.183594 172.386719 74.363281 C 171.960938 74.386719 171.535156 74.382812 171.113281 74.351562 C 169.179688 75.136719 167.863281 75.457031 167.863281 75.457031 C 168.398438 83.859375 161.964844 86.898438 161.964844 86.898438 C 161.964844 86.898438 161.503906 80.832031 155.480469 79.511719 C 149.457031 78.195312 145.558594 83.585938 147.621094 91.101562 Z M 192.894531 77.839844 C 192.542969 77.867188 192.542969 77.316406 192.894531 77.292969 C 195 77.144531 197.019531 78.355469 197.863281 80.292969 C 198.003906 80.613281 197.53125 80.890625 197.390625 80.570312 C 196.617188 78.792969 194.832031 77.703125 192.894531 77.839844 Z M 193.570312 82.085938 C 194.527344 81.824219 195.515625 82.386719 195.777344 83.339844 C 196.039062 84.296875 195.476562 85.28125 194.523438 85.546875 C 193.566406 85.808594 192.582031 85.246094 192.316406 84.292969 C 192.054688 83.335938 192.617188 82.347656 193.570312 82.085938 Z M 188.761719 88.761719 C 186.726562 86.464844 185.6875 83.382812 185.949219 80.320312 C 185.980469 79.972656 186.527344 79.96875 186.5 80.320312 C 186.246094 83.238281 187.203125 86.179688 189.152344 88.375 C 189.382812 88.636719 188.996094 89.027344 188.761719 88.761719 Z M 181.136719 93.328125 C 181.78125 94.714844 183.117188 95.753906 184.652344 95.941406 C 186.214844 96.128906 187.773438 95.429688 188.738281 94.203125 C 188.953125 93.925781 189.339844 94.316406 189.125 94.589844 C 188.050781 95.960938 186.265625 96.707031 184.535156 96.472656 C 182.859375 96.25 181.371094 95.128906 180.664062 93.605469 C 180.515625 93.285156 180.988281 93.007812 181.136719 93.328125 Z M 175.273438 81.722656 C 176.230469 81.460938 177.214844 82.023438 177.480469 82.976562 C 177.742188 83.933594 177.179688 84.917969 176.222656 85.179688 C 175.269531 85.445312 174.28125 84.882812 174.019531 83.925781 C 173.757812 82.972656 174.320312 81.984375 175.273438 81.722656 Z M 171.957031 78.664062 C 173.148438 77.113281 175.183594 76.460938 177.046875 77.101562 C 177.378906 77.214844 177.234375 77.742188 176.898438 77.628906 C 175.289062 77.078125 173.476562 77.582031 172.433594 78.941406 C 172.21875 79.214844 171.742188 78.941406 171.957031 78.664062 Z M 152.542969 83.449219 C 155.59375 83.863281 158.054688 86.300781 158.5 89.347656 C 158.550781 89.691406 158.019531 89.839844 157.96875 89.492188 C 157.550781 86.609375 155.28125 84.371094 152.398438 83.976562 C 152.050781 83.929688 152.199219 83.402344 152.542969 83.449219 Z M 176.382812 72.726562 C 175.136719 73.355469 173.761719 73.726562 172.375 73.808594 C 175.597656 72.34375 179.878906 69.769531 182.902344 65.605469 C 182.816406 65.785156 182.738281 65.972656 182.644531 66.15625 C 181.25 68.890625 179.160156 71.332031 176.382812 72.726562 Z M 176.382812 72.726562 " fill-opacity="1" fill-rule="nonzero"/><path fill="#f2f2f2" d="M 283.53125 255.046875 C 283.292969 262.699219 279.65625 277.902344 279.65625 277.902344 C 279.65625 277.902344 285.542969 280.046875 291.480469 279.753906 C 291.359375 279.585938 291.425781 279.292969 291.683594 279.316406 C 293.832031 279.492188 295.976562 278.964844 297.796875 277.816406 C 297.289062 276.8125 297.269531 275.578125 297.28125 274.464844 C 297.285156 274.109375 297.832031 274.109375 297.828125 274.464844 C 297.8125 275.769531 297.800781 277.277344 298.789062 278.269531 C 299.109375 278.59375 299.480469 278.761719 299.863281 278.828125 C 300.082031 278.84375 300.332031 278.84375 300.613281 278.828125 C 301.234375 278.703125 301.824219 278.3125 302.207031 277.746094 C 302.964844 276.636719 303.085938 275.144531 303.125 273.839844 C 303.167969 272.386719 302.984375 270.941406 302.605469 269.539062 C 302.511719 269.199219 303.039062 269.054688 303.132812 269.394531 C 303.234375 269.761719 303.316406 270.136719 303.390625 270.511719 C 303.433594 270.535156 303.472656 270.570312 303.5 270.625 C 304.019531 271.71875 304.980469 272.597656 306.167969 272.890625 C 306.757812 273.035156 307.433594 273.03125 307.96875 272.714844 C 308.539062 272.382812 308.800781 271.765625 308.910156 271.144531 C 309.144531 269.828125 308.980469 268.359375 308.757812 267.050781 C 308.722656 266.835938 308.671875 266.625 308.628906 266.414062 C 294.777344 263.804688 287.070312 257.8125 284.714844 255.703125 C 284.320312 255.484375 283.921875 255.273438 283.53125 255.046875 Z M 184.898438 281.964844 C 181.394531 283.238281 178.664062 283.960938 176.921875 282.996094 C 178.433594 271.769531 182.101562 244.535156 182.210938 244.207031 C 182.316406 243.882812 184.128906 270.535156 184.898438 281.964844 Z M 92.351562 186.917969 C 92.289062 186.828125 92.199219 186.796875 92.109375 186.800781 C 99.910156 174.316406 118.621094 145.867188 136.652344 129.609375 C 136.65625 129.710938 136.71875 129.804688 136.847656 129.832031 C 140.835938 130.664062 144.296875 133.195312 146.613281 136.507812 C 151.539062 143.550781 150.675781 152.910156 147.308594 160.40625 C 143.675781 168.488281 137.484375 174.96875 131.800781 181.625 C 131.605469 181.855469 131.867188 182.171875 132.089844 182.085938 L 113.617188 207.105469 C 113.613281 207.027344 113.578125 206.949219 113.492188 206.894531 C 111.652344 205.765625 109.863281 204.554688 108.136719 203.265625 C 102.039062 198.710938 96.691406 193.164062 92.351562 186.917969 Z M 142.652344 232.171875 C 149.332031 231.324219 156.054688 230.902344 162.789062 230.898438 C 162.871094 230.898438 162.933594 230.867188 162.976562 230.820312 C 162.929688 232.863281 162.886719 234.910156 162.839844 236.953125 C 162.757812 240.476562 162.679688 244.003906 162.601562 247.527344 C 162.5625 249.289062 162.519531 251.050781 162.480469 252.8125 C 162.464844 253.617188 162.464844 254.425781 162.417969 255.226562 C 162.371094 255.925781 162.265625 256.667969 161.867188 257.261719 C 161.003906 258.558594 158.921875 258.476562 157.554688 258.597656 C 155.839844 258.753906 154.113281 258.84375 152.390625 258.875 C 149.03125 258.933594 145.667969 258.753906 142.332031 258.351562 C 142.222656 256.054688 142.140625 253.75 142.09375 251.449219 C 141.964844 245.003906 142.089844 238.550781 142.457031 232.113281 C 142.503906 232.160156 142.566406 232.183594 142.652344 232.171875 Z M 133.578125 180.398438 L 121.984375 277 C 125.886719 273.410156 131.035156 270.121094 138.785156 268.417969 C 155.910156 264.652344 167.589844 273.226562 173.566406 279.460938 C 174.980469 247.160156 172.113281 209.828125 168.644531 179.164062 C 166.585938 173.082031 164.375 167.054688 162 161.09375 C 160.714844 157.863281 159.382812 154.648438 158 151.457031 C 157.324219 149.886719 156.636719 148.328125 155.9375 146.769531 C 155.320312 145.402344 154.65625 144.019531 154.832031 142.480469 C 155.226562 139.097656 158.355469 137.054688 159.6875 134.105469 C 159.679688 134.105469 159.675781 134.105469 159.667969 134.105469 C 156.875 133.164062 154.152344 132.035156 151.515625 130.722656 C 151.378906 130.652344 151.351562 130.46875 151.417969 130.347656 C 153.78125 125.976562 156.394531 121.746094 159.246094 117.675781 C 159.253906 117.667969 159.261719 117.664062 159.269531 117.65625 C 152.636719 117.585938 144.890625 122.25 136.996094 129.300781 C 140.59375 130.054688 143.800781 132.167969 146.132812 134.984375 C 148.679688 138.054688 150.101562 141.847656 150.507812 145.800781 C 151.417969 154.636719 147.367188 162.976562 142.261719 169.910156 C 139.566406 173.566406 136.546875 176.964844 133.578125 180.398438 Z M 144.378906 126.933594 C 144.117188 127.164062 143.726562 126.78125 143.992188 126.546875 C 147.242188 123.703125 150.964844 121.453125 154.988281 119.886719 C 155.320312 119.761719 155.460938 120.289062 155.136719 120.417969 C 151.203125 121.945312 147.554688 124.15625 144.378906 126.933594 Z M 141.839844 233.347656 C 141.964844 230.964844 142.125 228.585938 142.316406 226.207031 C 142.339844 225.953125 142.632812 225.886719 142.78125 226.003906 C 142.722656 225.839844 142.804688 225.625 143.027344 225.632812 C 149.410156 225.863281 155.804688 225.789062 162.179688 225.421875 C 162.535156 225.398438 162.53125 225.949219 162.179688 225.96875 C 155.804688 226.339844 149.410156 226.410156 143.027344 226.179688 C 142.953125 226.179688 142.898438 226.148438 142.855469 226.109375 C 142.863281 226.136719 142.867188 226.167969 142.867188 226.207031 C 142.71875 228.042969 142.59375 229.875 142.484375 231.710938 C 142.527344 231.667969 142.582031 231.632812 142.652344 231.625 C 149.332031 230.777344 156.054688 230.351562 162.789062 230.351562 C 162.875 230.351562 162.941406 230.386719 162.984375 230.4375 C 163.027344 228.628906 163.066406 226.820312 163.109375 225.011719 C 163.117188 224.660156 163.664062 224.660156 163.65625 225.011719 C 163.492188 232.367188 163.324219 239.71875 163.160156 247.070312 C 163.117188 248.894531 163.078125 250.714844 163.035156 252.539062 C 163.003906 253.992188 163.175781 255.675781 162.601562 257.046875 C 162.054688 258.34375 160.808594 258.777344 159.503906 258.945312 C 157.738281 259.175781 155.953125 259.292969 154.171875 259.367188 C 150.132812 259.539062 146.082031 259.367188 142.066406 258.875 C 141.914062 258.855469 141.800781 258.761719 141.792969 258.601562 C 141.386719 250.1875 141.398438 241.757812 141.839844 233.347656 Z M 134.023438 226.71875 C 134.582031 220.484375 135.144531 214.253906 135.707031 208.019531 C 136.269531 201.789062 136.832031 195.554688 137.390625 189.324219 C 137.707031 185.8125 138.023438 182.304688 138.339844 178.792969 C 138.371094 178.445312 138.921875 178.441406 138.890625 178.792969 C 138.328125 185.027344 137.765625 191.257812 137.203125 197.492188 C 136.640625 203.722656 136.082031 209.957031 135.519531 216.191406 C 135.203125 219.699219 134.886719 223.210938 134.570312 226.71875 C 134.539062 227.066406 133.988281 227.070312 134.023438 226.71875 Z M 133.621094 231.855469 C 132.300781 240.890625 131.484375 249.996094 131.179688 259.125 C 131.089844 261.710938 131.046875 264.300781 131.042969 266.890625 C 131.039062 267.242188 130.492188 267.246094 130.492188 266.890625 C 130.511719 257.675781 131.042969 248.460938 132.097656 239.304688 C 132.390625 236.769531 132.722656 234.238281 133.09375 231.707031 C 133.144531 231.359375 133.671875 231.507812 133.621094 231.855469 Z M 91.871094 187.183594 C 91.875 187.1875 91.875 187.191406 91.878906 187.195312 C 93.109375 188.964844 94.414062 190.683594 95.796875 192.335938 C 100.742188 198.246094 106.648438 203.335938 113.214844 207.371094 C 113.277344 207.410156 113.339844 207.414062 113.398438 207.402344 L 109.445312 212.757812 C 109.445312 212.757812 108.664062 212.253906 107.40625 211.386719 C 102.925781 208.300781 92.332031 200.535156 88.746094 193.792969 C 88.597656 193.515625 88.464844 193.242188 88.339844 192.972656 C 88.339844 192.972656 89.621094 190.789062 91.871094 187.183594 Z M 158.367188 150.933594 C 157.703125 149.394531 157.023438 147.863281 156.335938 146.332031 C 155.664062 144.832031 155.074219 143.394531 155.535156 141.738281 C 156.339844 138.832031 159.039062 136.988281 160.214844 134.269531 C 160.300781 134.070312 160.15625 133.890625 159.996094 133.855469 C 160.003906 133.742188 159.953125 133.621094 159.8125 133.574219 C 157.152344 132.679688 154.554688 131.605469 152.035156 130.363281 C 154.363281 126.085938 156.925781 121.941406 159.71875 117.953125 C 159.796875 117.84375 159.773438 117.734375 159.707031 117.660156 C 159.773438 117.660156 159.84375 117.65625 159.910156 117.660156 C 159.910156 117.660156 164.441406 142.777344 168.351562 176.636719 C 167.53125 174.253906 166.691406 171.878906 165.820312 169.519531 C 163.507812 163.257812 161.019531 157.0625 158.367188 150.933594 Z M 198.167969 127.011719 C 194.238281 124.570312 190.3125 122.125 186.382812 119.683594 C 186.636719 123.335938 188.300781 147.167969 190.152344 176.554688 C 191.246094 171.550781 192.449219 166.570312 193.769531 161.621094 C 194.59375 158.527344 195.460938 155.445312 196.375 152.375 C 196.839844 150.8125 197.3125 149.253906 197.800781 147.695312 C 198.269531 146.191406 198.816406 144.699219 199.238281 143.175781 C 199.480469 142.285156 199.410156 141.492188 198.6875 140.855469 C 198.09375 140.332031 197.34375 139.957031 196.671875 139.546875 C 195.089844 138.585938 193.503906 137.625 191.921875 136.660156 C 191.621094 136.476562 191.898438 136.003906 192.199219 136.1875 C 193.628906 137.054688 195.058594 137.925781 196.488281 138.792969 C 197.171875 139.210938 197.875 139.601562 198.535156 140.054688 C 199.011719 140.378906 199.472656 140.765625 199.722656 141.296875 C 200.003906 141.890625 199.960938 142.542969 199.804688 143.167969 C 199.613281 143.945312 199.324219 144.703125 199.078125 145.46875 C 198.5625 147.078125 198.058594 148.691406 197.566406 150.308594 C 195.625 156.6875 193.871094 163.125 192.304688 169.609375 C 191.585938 172.589844 190.917969 175.585938 190.277344 178.582031 C 192.386719 212.199219 194.710938 252.523438 195.46875 278.210938 C 199.855469 276.921875 204.765625 276.011719 210.019531 276.421875 C 212.382812 276.601562 214.8125 277.054688 217.292969 277.855469 C 217.421875 277.792969 217.550781 277.726562 217.683594 277.664062 C 217.84375 277.589844 217.996094 277.675781 218.0625 277.796875 C 220.160156 276.839844 222.523438 276.019531 225.195312 275.386719 C 224.597656 267.890625 222.921875 247.0625 220.980469 225.058594 C 220.492188 225.367188 220.023438 225.699219 219.574219 226.0625 C 219.300781 226.285156 218.910156 225.898438 219.183594 225.675781 C 219.738281 225.230469 220.324219 224.824219 220.925781 224.457031 C 220.921875 224.429688 220.921875 224.402344 220.917969 224.371094 C 220.65625 221.414062 220.390625 218.433594 220.121094 215.464844 C 219.207031 205.382812 218.261719 195.429688 217.363281 186.757812 C 217.253906 186.96875 216.855469 186.925781 216.84375 186.628906 C 216.554688 179.625 215.898438 172.632812 214.875 165.699219 C 213.855469 158.828125 212.480469 152.007812 210.75 145.28125 C 209.777344 141.480469 208.683594 137.707031 207.488281 133.972656 C 207.378906 133.632812 207.910156 133.488281 208.015625 133.824219 C 210.15625 140.496094 211.945312 147.277344 213.371094 154.136719 C 214.464844 159.398438 215.34375 164.703125 216.007812 170.035156 L 239.378906 193.402344 L 247.503906 201.53125 C 247.503906 201.53125 248.035156 200.984375 248.902344 200.046875 C 252.292969 196.390625 260.90625 186.707031 264.03125 179.457031 C 264.222656 179.007812 264.402344 178.566406 264.550781 178.140625 C 264.550781 178.140625 264.371094 177.898438 264.027344 177.441406 C 263.617188 176.898438 262.976562 176.058594 262.128906 174.972656 C 252.390625 162.5 215.183594 117.492188 186.613281 119.183594 C 190.664062 121.703125 194.714844 124.21875 198.765625 126.738281 C 198.902344 126.824219 198.964844 127.050781 198.820312 127.167969 C 195.855469 129.609375 193.464844 132.671875 191.8125 136.140625 C 191.660156 136.460938 191.1875 136.179688 191.339844 135.863281 C 192.957031 132.464844 195.296875 129.441406 198.167969 127.011719 Z M 243.882812 196.769531 C 248.765625 191.085938 253.105469 184.941406 256.828125 178.441406 C 257.882812 176.601562 258.882812 174.730469 259.835938 172.839844 C 259.996094 172.523438 260.46875 172.800781 260.308594 173.117188 C 256.917969 179.851562 252.886719 186.265625 248.277344 192.238281 C 246.988281 193.914062 245.648438 195.550781 244.273438 197.15625 C 244.042969 197.425781 243.65625 197.035156 243.882812 196.769531 Z M 203.679688 227.625 C 203.671875 227.472656 203.808594 227.363281 203.953125 227.351562 C 208.835938 227.046875 213.722656 226.742188 218.605469 226.4375 C 218.957031 226.414062 218.957031 226.960938 218.605469 226.984375 C 213.816406 227.285156 209.027344 227.582031 204.238281 227.882812 C 204.292969 229.253906 204.355469 230.625 204.421875 231.992188 C 209.742188 232.195312 215.070312 231.90625 220.332031 231.105469 C 220.675781 231.054688 220.828125 231.582031 220.476562 231.636719 C 215.175781 232.441406 209.808594 232.746094 204.445312 232.542969 C 204.753906 238.875 205.1875 245.199219 205.753906 251.511719 C 205.949219 253.65625 206.160156 255.796875 206.382812 257.941406 C 211.96875 258.617188 217.652344 258.207031 223.078125 256.714844 C 223.421875 256.621094 223.566406 257.148438 223.226562 257.242188 C 217.671875 258.769531 211.847656 259.1875 206.132812 258.464844 C 205.972656 258.445312 205.875 258.355469 205.859375 258.191406 C 205.027344 250.253906 204.402344 242.296875 203.984375 234.332031 C 203.867188 232.09375 203.765625 229.859375 203.679688 227.625 Z M 191.585938 121.117188 C 191.238281 121.089844 191.234375 120.542969 191.585938 120.570312 C 196.101562 120.914062 200.515625 122.054688 204.636719 123.933594 C 204.957031 124.082031 204.679688 124.554688 204.359375 124.410156 C 200.332031 122.570312 196 121.457031 191.585938 121.117188 Z M 259.359375 157.847656 C 257.871094 154.980469 258.988281 151.449219 261.855469 149.960938 C 264.722656 148.476562 268.253906 149.589844 269.742188 152.457031 C 270.527344 153.96875 271.207031 155.550781 271.78125 157.183594 C 269.601562 158.9375 265.777344 160.621094 259.828125 158.800781 C 259.679688 158.480469 259.523438 158.164062 259.359375 157.847656 Z M 307.632812 262.421875 C 306.992188 262.375 306.355469 262.316406 305.71875 262.238281 C 299.183594 261.417969 292.769531 259.136719 286.886719 256.226562 C 285.921875 255.75 284.964844 255.242188 284.027344 254.699219 C 285.402344 251.398438 288.367188 245.820312 292.882812 242.558594 C 293.582031 242.75 294.265625 242.992188 294.929688 243.292969 C 295.246094 243.441406 295.527344 242.96875 295.207031 242.820312 C 294.636719 242.5625 294.050781 242.34375 293.457031 242.164062 C 294.144531 241.710938 294.863281 241.308594 295.617188 240.980469 C 296.03125 241.308594 296.429688 241.652344 296.808594 242.023438 C 297.0625 242.269531 297.449219 241.882812 297.195312 241.636719 C 296.878906 241.324219 296.542969 241.035156 296.203125 240.753906 C 297.800781 240.152344 299.542969 239.867188 301.429688 240.03125 C 302.007812 240.964844 302.734375 241.96875 303.15625 242.535156 C 302.542969 244.429688 301.957031 246.335938 301.414062 248.25 C 301.40625 248.277344 301.40625 248.304688 301.40625 248.328125 C 301.335938 248.300781 301.261719 248.28125 301.1875 248.246094 C 299.753906 247.582031 298.757812 246.199219 298.523438 244.644531 C 298.472656 244.296875 297.945312 244.445312 297.996094 244.789062 C 298.253906 246.511719 299.417969 248.0625 301.015625 248.765625 C 302.710938 249.515625 304.761719 249.257812 306.234375 248.140625 C 306.511719 247.933594 306.238281 247.457031 305.957031 247.667969 C 304.808594 248.539062 303.28125 248.863281 301.890625 248.492188 C 301.914062 248.464844 301.929688 248.4375 301.941406 248.398438 C 302.457031 246.578125 303.011719 244.769531 303.59375 242.96875 C 304.023438 242.878906 305.929688 242.457031 307.265625 241.875 C 308.851562 242.757812 310.140625 243.851562 311.191406 245.074219 C 310.890625 245.070312 310.585938 245.070312 310.285156 245.078125 C 309.929688 245.089844 309.929688 245.636719 310.285156 245.625 C 310.742188 245.613281 311.203125 245.621094 311.660156 245.644531 C 312.179688 246.320312 312.636719 247.027344 313.03125 247.753906 C 312.507812 247.613281 311.976562 247.503906 311.4375 247.433594 C 311.089844 247.386719 311.09375 247.9375 311.4375 247.980469 C 312.09375 248.066406 312.742188 248.214844 313.367188 248.414062 C 315.863281 253.53125 315.664062 259.476562 315.402344 262.15625 C 312.910156 262.542969 310.378906 262.617188 307.859375 262.441406 C 307.792969 262.390625 307.710938 262.390625 307.632812 262.421875 Z M 307.632812 262.421875 " fill-opacity="1" fill-rule="nonzero"/><g clip-path="url(#263fe68580)"><path fill="#9bd2e0" d="M 213.066406 280.269531 C 214.414062 279.359375 215.832031 278.5625 217.292969 277.855469 C 214.8125 277.054688 212.382812 276.601562 210.023438 276.421875 C 204.765625 276.011719 199.855469 276.921875 195.46875 278.210938 C 191.464844 279.386719 187.898438 280.875 184.898438 281.964844 C 181.394531 283.238281 178.664062 283.964844 176.921875 282.996094 C 176.582031 282.808594 176.28125 282.5625 176.019531 282.238281 C 175.351562 281.414062 174.53125 280.46875 173.566406 279.460938 C 167.589844 273.226562 155.910156 264.652344 138.785156 268.417969 C 131.035156 270.121094 125.886719 273.410156 121.984375 277 C 115.871094 282.617188 112.835938 288.972656 107.757812 291.125 C 99.4375 294.648438 97.039062 282.238281 81.664062 284.074219 C 66.292969 285.90625 58.535156 305.371094 54.726562 308.1875 C 50.921875 311.011719 44.855469 304.804688 34.699219 309.742188 C 24.546875 314.679688 18.628906 332.050781 18.628906 332.050781 L 108.3125 332.050781 C 108.515625 331.644531 108.714844 331.234375 108.925781 330.835938 C 111.367188 326.144531 114.417969 321.441406 118.65625 318.183594 C 121.203125 316.222656 124.289062 314.933594 127.46875 314.480469 C 130.226562 314.089844 132.9375 314.453125 135.644531 314.992188 C 137.457031 315.355469 139.703125 315.996094 141.402344 314.9375 C 142.515625 314.246094 143.296875 312.960938 144.027344 311.90625 C 146.621094 308.171875 149.019531 304.324219 151.984375 300.859375 C 155.421875 296.847656 159.597656 293.242188 164.675781 291.523438 C 169.886719 289.761719 175.847656 290.066406 180.78125 292.527344 C 182.644531 293.457031 184.332031 294.664062 186.042969 295.832031 C 187.4375 296.785156 188.90625 297.765625 190.578125 298.144531 C 194.8125 299.105469 198.359375 295.464844 200.851562 292.566406 C 202.609375 290.523438 204.261719 288.390625 206.085938 286.398438 C 208.183594 284.109375 210.488281 282.011719 213.066406 280.269531 Z M 111.324219 327.691406 C 114.234375 322.910156 117.996094 318.277344 123.332031 316.160156 C 126.414062 314.933594 129.679688 314.601562 132.953125 315.066406 C 135.101562 315.371094 137.300781 316.140625 139.488281 316.039062 C 141.015625 315.96875 142.128906 315.238281 143.078125 314.097656 C 144.15625 312.792969 145.074219 311.351562 146.011719 309.945312 C 148.75 305.84375 151.566406 301.765625 155.113281 298.3125 C 159.121094 294.414062 164.015625 291.539062 169.671875 291.0625 C 172.546875 290.820312 175.453125 291.070312 178.191406 292.019531 C 180.292969 292.75 182.207031 293.875 184.039062 295.117188 C 186.839844 297.011719 189.789062 299.460938 193.40625 298.679688 C 197.835938 297.722656 200.820312 293.480469 203.53125 290.203125 C 205.367188 287.984375 207.253906 285.804688 209.386719 283.863281 C 211.945312 281.535156 214.824219 279.605469 217.960938 278.136719 C 218.117188 278.0625 218.128906 277.914062 218.0625 277.796875 C 220.164062 276.839844 222.523438 276.019531 225.195312 275.386719 C 225.414062 275.335938 225.625 275.277344 225.851562 275.230469 C 228.867188 274.566406 231.710938 274.289062 234.386719 274.3125 C 234.585938 274.316406 234.78125 274.320312 234.976562 274.324219 C 243.867188 274.546875 250.839844 278.097656 255.847656 281.96875 C 255.929688 282.03125 256.015625 282.097656 256.097656 282.160156 C 257.039062 282.902344 257.914062 283.652344 258.710938 284.390625 C 258.929688 284.589844 259.140625 284.789062 259.34375 284.988281 C 260.425781 286.027344 261.363281 287.03125 262.152344 287.941406 C 262.488281 288.328125 262.800781 288.703125 263.082031 289.050781 C 265.285156 291.773438 270.234375 289.394531 277 286.886719 C 282.917969 284.695312 290.230469 282.40625 298.316406 283.351562 C 301.113281 283.679688 304.003906 284.390625 306.964844 285.632812 C 309.246094 286.589844 311.210938 287.695312 312.910156 288.90625 C 315.125 290.484375 316.886719 292.242188 318.3125 294.085938 C 325.980469 304 323.945312 316.40625 330.367188 316.84375 C 338.898438 317.421875 348.792969 314.191406 356.367188 338.863281 L 105.980469 338.863281 C 106.042969 338.6875 106.105469 338.507812 106.171875 338.335938 C 107.539062 334.640625 109.273438 331.050781 111.324219 327.691406 Z M 111.324219 327.691406 " fill-opacity="1" fill-rule="nonzero"/></g><g clip-path="url(#fa4520581f)"><path fill="#dd789b" d="M 239.203125 207.113281 C 240.714844 206.078125 242.035156 205.261719 243.210938 204.601562 C 241.664062 202.722656 239.511719 200.5625 238.128906 201.113281 C 236.617188 201.722656 238.011719 204.917969 239.203125 207.113281 Z M 238.75 207.425781 C 238.714844 207.449219 238.671875 207.480469 238.636719 207.503906 C 237.566406 208.253906 236.640625 209.066406 235.839844 209.917969 C 233.511719 207.742188 229.121094 203.316406 230.703125 202.171875 C 232.1875 201.101562 236.371094 204.992188 238.75 207.425781 Z M 227.402344 211.839844 C 225.671875 213.019531 223.160156 211.628906 221.675781 210.574219 C 222.242188 209.207031 222.929688 207.835938 223.769531 206.484375 C 226.160156 208.226562 229.019531 210.742188 227.402344 211.839844 Z M 223.15625 215.847656 C 222.472656 216.320312 221.34375 215.882812 220.191406 215.144531 C 220.53125 213.757812 220.972656 212.335938 221.542969 210.902344 C 222.761719 212.460938 224.410156 214.976562 223.15625 215.847656 Z M 274.078125 172.417969 C 274.03125 173.902344 273.910156 175.386719 273.710938 176.863281 C 271.214844 174.996094 268.234375 172.519531 269.015625 171.878906 C 269.859375 171.1875 272.40625 171.863281 274.078125 172.417969 Z M 267.152344 166.335938 C 267.019531 164.679688 271.019531 165.871094 273.90625 166.945312 C 274.074219 168.671875 274.132812 170.421875 274.085938 172.171875 C 271.6875 170.859375 267.308594 168.21875 267.152344 166.335938 Z M 267.152344 177.535156 C 266.347656 177.722656 265.210938 177.640625 264.027344 177.441406 C 263.621094 176.898438 262.976562 176.058594 262.128906 174.972656 C 262.257812 173.929688 262.34375 172.851562 262.371094 171.742188 C 264.347656 173.210938 269.246094 177.050781 267.152344 177.535156 Z M 256.816406 266.40625 C 256.824219 266.054688 257.375 266.054688 257.363281 266.40625 C 257.285156 269.121094 257.152344 271.835938 256.984375 274.550781 C 261.21875 273.972656 268.484375 273.203125 271.152344 274.3125 C 275.007812 275.914062 269.046875 277.335938 261.273438 278.808594 C 259.101562 279.21875 257.617188 279.484375 256.605469 279.648438 C 256.605469 279.683594 256.601562 279.71875 256.597656 279.75 C 260.503906 279.554688 268.597656 279.363281 268.8125 281.15625 C 268.992188 282.617188 263.160156 283.746094 258.714844 284.390625 C 257.914062 283.652344 257.039062 282.902344 256.097656 282.160156 C 256.015625 282.097656 255.933594 282.03125 255.847656 281.96875 C 256.167969 278.636719 256.421875 275.296875 256.59375 271.949219 C 256.691406 270.105469 256.761719 268.253906 256.816406 266.40625 Z M 264.984375 286.480469 C 265.121094 287.082031 263.914062 287.558594 262.152344 287.941406 C 261.363281 287.03125 260.425781 286.027344 259.347656 284.988281 C 262.039062 285.113281 264.75 285.488281 264.984375 286.480469 Z M 254.53125 279.878906 C 254.53125 279.878906 254.9375 279.84375 255.621094 279.804688 C 254.144531 280.023438 254.53125 279.878906 254.53125 279.878906 Z M 277.546875 192.644531 C 277.351562 192.65625 277.160156 192.667969 276.964844 192.679688 C 275.085938 192.796875 273.207031 192.917969 271.324219 193.035156 C 270.84375 194.667969 268.867188 195.0625 267.363281 195 C 265.582031 194.921875 263.882812 194.230469 262.53125 193.074219 C 262.261719 192.84375 262.652344 192.457031 262.917969 192.6875 C 264.078125 193.679688 265.542969 194.304688 267.070312 194.433594 C 268.445312 194.546875 270.503906 194.351562 270.851562 192.703125 C 270.875 192.578125 271 192.507812 271.113281 192.5 C 273.257812 192.363281 275.402344 192.230469 277.546875 192.09375 C 277.816406 192.078125 277.875 192.390625 277.734375 192.550781 C 277.691406 192.601562 277.628906 192.636719 277.546875 192.644531 Z M 199.347656 97.367188 C 196.839844 101.765625 192.765625 105.8125 186.347656 108.757812 C 186.347656 108.757812 178.65625 110.832031 171.539062 107.84375 C 171.539062 107.84375 177.84375 114.855469 186.347656 114.546875 L 186.347656 112.542969 C 187.664062 115.207031 191.898438 118.152344 195.710938 116.191406 C 196.882812 115.589844 197.484375 114.6875 197.746094 113.691406 C 197.84375 113.710938 197.953125 113.679688 198.019531 113.5625 C 198.789062 112.214844 198.867188 110.539062 198.195312 109.132812 C 197.980469 108.691406 197.691406 108.292969 197.347656 107.941406 C 199.648438 108.640625 205.269531 108.375 205.09375 103.171875 C 204.953125 98.980469 201.375 97.738281 199.347656 97.367188 Z M 196.992188 108.363281 C 197.261719 108.648438 197.496094 108.96875 197.679688 109.324219 C 198.167969 110.285156 198.226562 111.417969 197.910156 112.4375 C 197.933594 110.859375 197.371094 109.257812 196.992188 108.363281 Z M 77.613281 209.210938 C 79.742188 208.9375 81.875 208.667969 84.003906 208.394531 C 84.132812 208.378906 84.226562 208.496094 84.269531 208.597656 C 84.945312 210.203125 87.230469 209.878906 88.550781 209.453125 C 89.941406 209.003906 91.160156 208.136719 92.070312 206.996094 C 92.289062 206.71875 92.675781 207.109375 92.457031 207.382812 C 91.375 208.742188 89.84375 209.726562 88.152344 210.132812 C 86.644531 210.496094 84.660156 210.476562 83.851562 208.964844 C 81.980469 209.203125 80.109375 209.441406 78.238281 209.679688 C 78.03125 209.707031 77.820312 209.734375 77.609375 209.757812 C 77.53125 209.769531 77.472656 209.746094 77.429688 209.707031 C 77.285156 209.578125 77.34375 209.246094 77.613281 209.210938 Z M 176.222656 85.183594 C 175.269531 85.445312 174.28125 84.882812 174.019531 83.929688 C 173.757812 82.972656 174.320312 81.984375 175.273438 81.722656 C 176.230469 81.460938 177.214844 82.023438 177.480469 82.976562 C 177.742188 83.933594 177.179688 84.921875 176.222656 85.183594 Z M 195.777344 83.339844 C 196.039062 84.296875 195.476562 85.28125 194.523438 85.546875 C 193.566406 85.808594 192.578125 85.246094 192.316406 84.292969 C 192.054688 83.335938 192.617188 82.347656 193.570312 82.085938 C 194.527344 81.824219 195.515625 82.386719 195.777344 83.339844 Z M 188.761719 88.761719 C 186.726562 86.464844 185.6875 83.382812 185.949219 80.320312 C 185.980469 79.972656 186.527344 79.96875 186.5 80.320312 C 186.246094 83.238281 187.203125 86.179688 189.152344 88.375 C 189.382812 88.636719 188.996094 89.027344 188.761719 88.761719 Z M 176.898438 77.628906 C 175.289062 77.078125 173.476562 77.582031 172.433594 78.941406 C 172.21875 79.214844 171.742188 78.945312 171.957031 78.664062 C 173.148438 77.113281 175.183594 76.460938 177.046875 77.101562 C 177.378906 77.214844 177.234375 77.742188 176.898438 77.628906 Z M 192.894531 77.292969 C 195 77.144531 197.019531 78.355469 197.863281 80.292969 C 198.003906 80.613281 197.53125 80.894531 197.390625 80.570312 C 196.617188 78.792969 194.832031 77.703125 192.894531 77.839844 C 192.542969 77.867188 192.542969 77.316406 192.894531 77.292969 Z M 189.125 94.589844 C 188.050781 95.960938 186.265625 96.707031 184.535156 96.472656 C 182.859375 96.25 181.371094 95.128906 180.664062 93.605469 C 180.515625 93.285156 180.988281 93.007812 181.136719 93.328125 C 181.78125 94.714844 183.117188 95.753906 184.652344 95.941406 C 186.214844 96.132812 187.773438 95.429688 188.738281 94.203125 C 188.953125 93.925781 189.339844 94.316406 189.125 94.589844 Z M 157.96875 89.492188 C 157.550781 86.609375 155.28125 84.371094 152.398438 83.976562 C 152.050781 83.929688 152.199219 83.402344 152.542969 83.449219 C 155.59375 83.863281 158.054688 86.300781 158.5 89.347656 C 158.550781 89.691406 158.019531 89.839844 157.96875 89.492188 Z M 209.273438 64.398438 C 208.800781 63.179688 208.203125 62.015625 207.472656 60.929688 C 205.542969 58.066406 202.796875 55.773438 199.640625 54.390625 C 198.855469 53.828125 198.027344 53.308594 197.152344 52.839844 C 197.152344 52.839844 200.410156 53.707031 200.410156 50.449219 C 200.410156 47.195312 188.527344 37.488281 166.113281 39.359375 C 143.699219 41.226562 139.128906 61.796875 137.675781 67.820312 C 137.203125 69.777344 136.863281 71.542969 136.480469 73.222656 C 134.878906 77.898438 132.28125 82.351562 127.761719 84.675781 C 127.445312 84.835938 127.722656 85.308594 128.035156 85.148438 C 129.457031 84.417969 130.738281 83.449219 131.855469 82.3125 C 133.234375 80.910156 134.324219 79.328125 135.210938 77.640625 C 134.507812 79.515625 133.535156 81.386719 132.003906 83.40625 C 127.988281 88.699219 125.769531 94.421875 128.585938 97.667969 C 131.40625 100.910156 134.308594 98.265625 134.308594 98.265625 C 134.308594 98.265625 132.429688 106.378906 135.589844 109.539062 C 138.75 112.695312 143.789062 111.160156 144.726562 107.574219 C 144.726562 107.574219 143.835938 115.082031 150.433594 116.058594 C 157.03125 117.03125 157.429688 112.386719 157.429688 112.386719 C 157.429688 112.386719 158.304688 113.421875 159.707031 114.074219 C 160.980469 114.664062 162.691406 114.9375 164.601562 113.820312 C 168.617188 111.46875 166.496094 101.425781 158.980469 98.097656 C 158.980469 98.097656 149.6875 98.617188 147.621094 91.101562 C 145.554688 83.585938 149.457031 78.191406 155.480469 79.511719 C 161.503906 80.832031 161.964844 86.894531 161.964844 86.894531 C 161.964844 86.894531 168.398438 83.855469 167.863281 75.457031 C 167.863281 75.457031 169.179688 75.132812 171.113281 74.351562 C 171.535156 74.378906 171.960938 74.386719 172.386719 74.363281 C 175.582031 74.183594 178.480469 72.496094 180.59375 70.144531 C 182.460938 68.074219 183.691406 65.550781 184.542969 62.914062 C 184.613281 62.773438 184.6875 62.636719 184.753906 62.496094 C 184.753906 62.496094 184.753906 70.449219 188.863281 73.667969 C 192.976562 76.882812 197.625 73.578125 196.371094 69.46875 C 196.371094 69.46875 198.773438 72.246094 201.84375 73.078125 C 203.265625 73.464844 204.832031 73.433594 206.367188 72.511719 C 210.324219 70.136719 208.1875 62.019531 201.957031 56.269531 C 204.992188 58.246094 207.425781 61.140625 208.746094 64.542969 C 208.871094 64.871094 209.402344 64.730469 209.273438 64.398438 Z M 182.902344 65.601562 C 182.816406 65.785156 182.738281 65.972656 182.648438 66.15625 C 181.25 68.890625 179.160156 71.332031 176.382812 72.726562 C 175.136719 73.355469 173.761719 73.726562 172.375 73.808594 C 175.597656 72.34375 179.878906 69.769531 182.902344 65.601562 Z M 162 161.09375 C 160.714844 157.863281 159.378906 154.648438 158 151.457031 C 157.324219 149.886719 156.636719 148.328125 155.9375 146.769531 C 155.320312 145.402344 154.65625 144.019531 154.832031 142.480469 C 155.222656 139.097656 158.355469 137.054688 159.6875 134.105469 C 159.679688 134.105469 159.671875 134.105469 159.667969 134.105469 C 156.875 133.164062 154.152344 132.035156 151.515625 130.722656 C 151.378906 130.652344 151.351562 130.46875 151.417969 130.347656 C 153.78125 125.976562 156.394531 121.746094 159.246094 117.675781 C 159.25 117.667969 159.261719 117.664062 159.269531 117.65625 C 159.394531 117.507812 159.601562 117.542969 159.707031 117.660156 C 159.773438 117.734375 159.796875 117.84375 159.71875 117.953125 C 156.925781 121.941406 154.363281 126.089844 152.035156 130.363281 C 154.554688 131.605469 157.152344 132.679688 159.8125 133.574219 C 159.953125 133.621094 160.003906 133.742188 159.996094 133.855469 C 160.15625 133.894531 160.300781 134.074219 160.214844 134.269531 C 159.039062 136.988281 156.339844 138.832031 155.535156 141.738281 C 155.074219 143.394531 155.664062 144.835938 156.335938 146.332031 C 157.023438 147.863281 157.703125 149.398438 158.367188 150.9375 C 161.019531 157.0625 163.507812 163.257812 165.820312 169.519531 C 166.691406 171.882812 167.53125 174.257812 168.351562 176.636719 C 164.441406 142.78125 159.910156 117.664062 159.910156 117.664062 L 178.835938 130.882812 L 186.136719 119.523438 C 185.910156 119.347656 186.097656 118.984375 186.347656 119.039062 C 186.375 119.046875 186.40625 119.054688 186.4375 119.074219 C 186.496094 119.109375 186.554688 119.144531 186.613281 119.183594 C 190.664062 121.703125 194.714844 124.222656 198.765625 126.738281 C 198.902344 126.824219 198.964844 127.054688 198.820312 127.171875 C 195.855469 129.613281 193.464844 132.675781 191.8125 136.140625 C 191.660156 136.460938 191.1875 136.183594 191.339844 135.863281 C 192.957031 132.464844 195.296875 129.445312 198.167969 127.011719 C 194.242188 124.570312 190.3125 122.128906 186.382812 119.683594 C 186.640625 123.335938 188.300781 147.167969 190.152344 176.554688 C 191.25 171.550781 192.449219 166.570312 193.769531 161.621094 C 194.59375 158.527344 195.464844 155.445312 196.375 152.375 C 196.839844 150.8125 197.3125 149.253906 197.800781 147.695312 C 198.269531 146.191406 198.820312 144.699219 199.238281 143.179688 C 199.484375 142.285156 199.410156 141.492188 198.6875 140.855469 C 198.09375 140.332031 197.347656 139.957031 196.671875 139.546875 C 195.089844 138.585938 193.507812 137.625 191.921875 136.660156 C 191.621094 136.480469 191.898438 136.003906 192.199219 136.1875 C 193.628906 137.058594 195.058594 137.925781 196.488281 138.796875 C 197.171875 139.210938 197.875 139.605469 198.535156 140.054688 C 199.011719 140.378906 199.472656 140.765625 199.722656 141.296875 C 200.003906 141.890625 199.960938 142.542969 199.808594 143.167969 C 199.613281 143.945312 199.324219 144.707031 199.082031 145.46875 C 198.566406 147.078125 198.0625 148.691406 197.570312 150.308594 C 195.625 156.6875 193.871094 163.128906 192.304688 169.609375 C 191.585938 172.59375 190.917969 175.585938 190.277344 178.585938 C 192.390625 212.199219 194.710938 252.527344 195.46875 278.210938 C 191.464844 279.386719 187.898438 280.875 184.898438 281.96875 C 184.128906 270.539062 182.316406 243.886719 182.210938 244.210938 C 182.101562 244.539062 178.433594 271.769531 176.921875 283 C 176.582031 282.8125 176.28125 282.5625 176.019531 282.238281 C 175.351562 281.417969 174.53125 280.46875 173.566406 279.464844 C 174.980469 247.164062 172.113281 209.832031 168.644531 179.164062 C 166.585938 173.082031 164.375 167.054688 162 161.09375 Z M 132.1875 182.011719 C 132.15625 182.046875 132.121094 182.070312 132.085938 182.085938 C 131.867188 182.171875 131.605469 181.855469 131.800781 181.625 C 137.484375 174.96875 143.675781 168.488281 147.308594 160.40625 C 150.675781 152.910156 151.539062 143.550781 146.613281 136.507812 C 144.296875 133.195312 140.835938 130.664062 136.847656 129.828125 C 136.71875 129.800781 136.65625 129.710938 136.652344 129.609375 C 136.640625 129.445312 136.777344 129.257812 136.992188 129.300781 C 136.992188 129.300781 136.992188 129.300781 136.996094 129.300781 C 140.59375 130.054688 143.800781 132.167969 146.132812 134.984375 C 148.675781 138.050781 150.101562 141.847656 150.507812 145.796875 C 151.414062 154.632812 147.367188 162.972656 142.257812 169.910156 C 139.566406 173.566406 136.546875 176.964844 133.578125 180.398438 C 133.113281 180.933594 132.652344 181.472656 132.1875 182.011719 Z M 91.871094 187.183594 C 91.753906 186.988281 91.921875 186.808594 92.109375 186.800781 C 92.199219 186.796875 92.289062 186.828125 92.351562 186.917969 C 96.691406 193.164062 102.039062 198.710938 108.136719 203.265625 C 109.863281 204.554688 111.652344 205.765625 113.492188 206.894531 C 113.578125 206.949219 113.613281 207.027344 113.617188 207.105469 C 113.625 207.242188 113.53125 207.375 113.398438 207.402344 C 113.339844 207.414062 113.277344 207.410156 113.214844 207.367188 C 106.648438 203.335938 100.742188 198.242188 95.796875 192.335938 C 94.414062 190.679688 93.109375 188.964844 91.878906 187.195312 C 91.875 187.191406 91.875 187.1875 91.871094 187.183594 Z M 248.277344 192.238281 C 246.988281 193.910156 245.648438 195.550781 244.273438 197.15625 C 244.042969 197.425781 243.65625 197.035156 243.882812 196.769531 C 248.765625 191.085938 253.105469 184.941406 256.828125 178.4375 C 257.882812 176.597656 258.882812 174.730469 259.835938 172.839844 C 259.996094 172.523438 260.46875 172.800781 260.308594 173.113281 C 256.917969 179.851562 252.886719 186.261719 248.277344 192.238281 Z M 216.84375 186.628906 C 216.554688 179.625 215.902344 172.632812 214.875 165.699219 C 213.855469 158.828125 212.480469 152.007812 210.753906 145.28125 C 209.777344 141.480469 208.6875 137.707031 207.488281 133.972656 C 207.378906 133.632812 207.910156 133.488281 208.015625 133.824219 C 210.15625 140.496094 211.945312 147.277344 213.371094 154.136719 C 214.464844 159.398438 215.34375 164.703125 216.011719 170.035156 C 216.207031 171.621094 216.394531 173.210938 216.554688 174.800781 C 216.949219 178.734375 217.230469 182.675781 217.394531 186.628906 C 217.394531 186.679688 217.382812 186.722656 217.363281 186.757812 C 217.257812 186.96875 216.859375 186.929688 216.84375 186.628906 Z M 204.359375 124.410156 C 200.332031 122.570312 196 121.457031 191.585938 121.117188 C 191.238281 121.089844 191.234375 120.542969 191.585938 120.570312 C 196.101562 120.917969 200.515625 122.054688 204.636719 123.9375 C 204.957031 124.082031 204.679688 124.554688 204.359375 124.410156 Z M 144.378906 126.933594 C 144.117188 127.164062 143.726562 126.78125 143.992188 126.546875 C 147.242188 123.703125 150.964844 121.453125 154.988281 119.886719 C 155.320312 119.761719 155.460938 120.289062 155.136719 120.417969 C 151.203125 121.945312 147.554688 124.15625 144.378906 126.933594 Z M 206.132812 258.460938 C 205.972656 258.441406 205.875 258.351562 205.859375 258.1875 C 205.027344 250.253906 204.402344 242.296875 203.984375 234.328125 C 203.867188 232.09375 203.765625 229.859375 203.679688 227.625 C 203.675781 227.472656 203.8125 227.363281 203.953125 227.351562 C 208.839844 227.046875 213.722656 226.742188 218.605469 226.4375 C 218.957031 226.414062 218.957031 226.960938 218.605469 226.984375 C 213.816406 227.285156 209.027344 227.582031 204.238281 227.882812 C 204.292969 229.253906 204.359375 230.625 204.421875 231.992188 C 209.742188 232.195312 215.070312 231.90625 220.332031 231.105469 C 220.679688 231.054688 220.828125 231.582031 220.480469 231.636719 C 215.175781 232.441406 209.808594 232.746094 204.449219 232.542969 C 204.757812 238.875 205.1875 245.199219 205.757812 251.511719 C 205.949219 253.65625 206.160156 255.796875 206.382812 257.941406 C 211.96875 258.617188 217.652344 258.207031 223.082031 256.714844 C 223.421875 256.621094 223.566406 257.148438 223.226562 257.242188 C 217.671875 258.765625 211.847656 259.1875 206.132812 258.460938 Z M 138.339844 178.792969 C 138.371094 178.445312 138.921875 178.441406 138.890625 178.792969 C 138.328125 185.027344 137.765625 191.257812 137.203125 197.492188 C 136.640625 203.722656 136.082031 209.957031 135.519531 216.191406 C 135.203125 219.699219 134.886719 223.210938 134.570312 226.71875 C 134.539062 227.066406 133.988281 227.070312 134.023438 226.71875 C 134.582031 220.484375 135.144531 214.253906 135.707031 208.019531 C 136.269531 201.789062 136.832031 195.554688 137.390625 189.324219 C 137.707031 185.8125 138.023438 182.304688 138.339844 178.792969 Z M 131.042969 266.890625 C 131.039062 267.242188 130.492188 267.246094 130.492188 266.890625 C 130.511719 257.675781 131.042969 248.460938 132.097656 239.304688 C 132.390625 236.769531 132.722656 234.238281 133.09375 231.707031 C 133.144531 231.359375 133.671875 231.507812 133.621094 231.855469 C 132.300781 240.890625 131.484375 249.996094 131.175781 259.125 C 131.089844 261.710938 131.046875 264.300781 131.042969 266.890625 Z M 163.035156 252.539062 C 163.078125 250.714844 163.117188 248.894531 163.160156 247.070312 C 163.324219 239.71875 163.492188 232.367188 163.65625 225.011719 C 163.664062 224.660156 163.117188 224.660156 163.109375 225.011719 C 163.066406 226.820312 163.027344 228.628906 162.984375 230.4375 C 162.941406 230.386719 162.875 230.351562 162.789062 230.351562 C 156.058594 230.351562 149.332031 230.777344 142.652344 231.625 C 142.582031 231.632812 142.527344 231.667969 142.484375 231.710938 C 142.59375 229.875 142.71875 228.039062 142.867188 226.207031 C 142.867188 226.167969 142.863281 226.136719 142.851562 226.109375 C 142.898438 226.148438 142.953125 226.179688 143.027344 226.179688 C 149.410156 226.410156 155.804688 226.339844 162.179688 225.96875 C 162.53125 225.949219 162.535156 225.398438 162.179688 225.421875 C 155.804688 225.789062 149.410156 225.863281 143.027344 225.632812 C 142.804688 225.625 142.722656 225.839844 142.78125 226.003906 C 142.632812 225.886719 142.339844 225.953125 142.316406 226.207031 C 142.125 228.585938 141.964844 230.964844 141.839844 233.347656 C 141.398438 241.757812 141.386719 250.1875 141.792969 258.597656 C 141.800781 258.761719 141.914062 258.855469 142.066406 258.875 C 146.082031 259.367188 150.132812 259.539062 154.175781 259.367188 C 155.953125 259.292969 157.738281 259.175781 159.507812 258.945312 C 160.808594 258.777344 162.054688 258.34375 162.601562 257.046875 C 163.175781 255.675781 163.003906 253.992188 163.035156 252.539062 Z M 162.976562 230.820312 C 162.929688 232.863281 162.886719 234.910156 162.839844 236.953125 C 162.757812 240.476562 162.679688 244.003906 162.601562 247.527344 C 162.5625 249.289062 162.519531 251.050781 162.480469 252.8125 C 162.464844 253.617188 162.464844 254.425781 162.417969 255.226562 C 162.371094 255.925781 162.265625 256.667969 161.867188 257.261719 C 161.003906 258.558594 158.921875 258.476562 157.554688 258.597656 C 155.839844 258.753906 154.113281 258.84375 152.390625 258.875 C 149.03125 258.933594 145.667969 258.753906 142.332031 258.351562 C 142.222656 256.054688 142.140625 253.75 142.09375 251.449219 C 141.964844 245.003906 142.089844 238.550781 142.457031 232.113281 C 142.5 232.15625 142.566406 232.183594 142.652344 232.171875 C 149.328125 231.324219 156.054688 230.898438 162.785156 230.898438 C 162.871094 230.898438 162.933594 230.867188 162.976562 230.820312 Z M 308.589844 240.648438 C 308.710938 241.09375 308.097656 241.515625 307.269531 241.875 C 305.929688 242.457031 304.023438 242.875 303.59375 242.964844 C 303.015625 244.765625 302.457031 246.574219 301.941406 248.394531 C 301.929688 248.433594 301.914062 248.464844 301.894531 248.492188 C 303.28125 248.859375 304.8125 248.535156 305.960938 247.667969 C 306.242188 247.453125 306.515625 247.929688 306.238281 248.140625 C 304.761719 249.253906 302.710938 249.515625 301.015625 248.765625 C 299.421875 248.058594 298.257812 246.511719 297.996094 244.789062 C 297.945312 244.445312 298.472656 244.296875 298.527344 244.644531 C 298.761719 246.195312 299.753906 247.582031 301.191406 248.246094 C 301.261719 248.277344 301.335938 248.296875 301.40625 248.328125 C 301.40625 248.300781 301.40625 248.277344 301.414062 248.25 C 301.957031 246.332031 302.542969 244.429688 303.15625 242.53125 C 302.738281 241.96875 302.007812 240.960938 301.433594 240.027344 C 300.847656 239.082031 300.425781 238.210938 300.660156 237.976562 C 301.246094 237.390625 308.257812 239.394531 308.589844 240.648438 Z M 315.617188 238.65625 C 315.355469 237.703125 315.914062 236.714844 316.871094 236.453125 C 317.824219 236.191406 318.8125 236.753906 319.074219 237.707031 C 319.335938 238.664062 318.777344 239.648438 317.820312 239.914062 C 316.867188 240.175781 315.878906 239.613281 315.617188 238.65625 Z M 296.277344 234.550781 C 295.324219 234.8125 294.335938 234.25 294.074219 233.296875 C 293.8125 232.339844 294.371094 231.351562 295.328125 231.089844 C 296.28125 230.828125 297.269531 231.390625 297.53125 232.34375 C 297.796875 233.300781 297.234375 234.289062 296.277344 234.550781 Z M 332.261719 231.296875 C 332.320312 231.5625 332.367188 231.855469 332.40625 232.191406 C 332.328125 231.929688 332.28125 231.632812 332.261719 231.296875 Z M 331.992188 214.269531 C 336.1875 213.863281 340.511719 220.890625 340.375 224.265625 C 340.242188 227.648438 332.265625 231.296875 332.265625 231.296875 C 331.847656 223.839844 324.5625 218.050781 324.5625 218.050781 C 324.5625 218.050781 327.804688 214.671875 331.992188 214.269531 Z M 284.886719 207.019531 C 284.894531 206.738281 284.914062 206.453125 284.960938 206.160156 C 285.164062 204.820312 285.683594 203.582031 286.4375 202.535156 C 288.003906 200.359375 290.601562 199.003906 293.609375 199.304688 C 298.070312 199.746094 300.640625 208.589844 300.640625 208.589844 C 300.640625 208.589844 293.613281 209.039062 287.523438 213.1875 C 287.523438 213.1875 284.78125 210.667969 284.886719 207.019531 Z M 276.644531 235.089844 C 276.753906 234.796875 276.863281 234.507812 276.972656 234.214844 C 277.066406 233.964844 277.398438 233.992188 277.492188 234.164062 C 277.542969 234.046875 277.589844 233.9375 277.640625 233.820312 C 279.160156 233.785156 284.410156 233.816406 283.65625 236.066406 C 283.140625 237.605469 279.148438 238.222656 275.953125 238.464844 C 275.3125 240.160156 274.671875 241.855469 274.03125 243.546875 C 273.855469 244.019531 273.675781 244.492188 273.496094 244.964844 C 273.523438 244.984375 273.546875 245.007812 273.566406 245.039062 C 273.613281 245.121094 273.667969 245.199219 273.71875 245.277344 C 276.21875 249.320312 279.945312 252.339844 284.03125 254.699219 C 284.96875 255.238281 285.921875 255.746094 286.886719 256.226562 C 292.769531 259.136719 299.183594 261.417969 305.71875 262.234375 C 306.355469 262.316406 306.996094 262.375 307.632812 262.421875 C 307.710938 262.390625 307.792969 262.386719 307.863281 262.4375 C 310.378906 262.613281 312.910156 262.539062 315.40625 262.15625 C 315.96875 262.066406 316.53125 261.96875 317.089844 261.851562 C 317.175781 261.832031 317.25 261.851562 317.308594 261.890625 C 317.480469 262.011719 317.496094 262.324219 317.238281 262.378906 C 316.976562 262.433594 316.714844 262.480469 316.457031 262.527344 C 316.75 264.226562 317.011719 265.882812 317.238281 267.488281 C 314.367188 267.300781 311.691406 266.96875 309.207031 266.523438 C 309.277344 266.867188 309.339844 267.214844 309.386719 267.566406 C 309.574219 268.972656 309.785156 270.707031 309.214844 272.050781 C 308.683594 273.308594 307.351562 273.71875 306.089844 273.433594 C 305.09375 273.207031 304.214844 272.601562 303.585938 271.800781 C 303.683594 272.699219 303.707031 273.613281 303.640625 274.519531 C 303.527344 275.996094 303.265625 277.683594 302.085938 278.710938 C 301.039062 279.621094 299.472656 279.683594 298.449219 278.703125 C 298.398438 278.65625 298.363281 278.601562 298.320312 278.554688 C 298.238281 278.464844 298.152344 278.378906 298.082031 278.285156 C 296.183594 279.480469 293.925781 280.042969 291.683594 279.863281 C 291.59375 279.855469 291.527344 279.808594 291.484375 279.75 C 291.359375 279.585938 291.425781 279.292969 291.683594 279.3125 C 293.832031 279.488281 295.976562 278.960938 297.796875 277.816406 C 297.289062 276.808594 297.269531 275.578125 297.28125 274.460938 C 297.285156 274.109375 297.832031 274.109375 297.828125 274.460938 C 297.816406 275.765625 297.800781 277.277344 298.789062 278.269531 C 299.109375 278.589844 299.480469 278.757812 299.863281 278.824219 C 300.113281 278.867188 300.367188 278.875 300.613281 278.828125 C 301.234375 278.703125 301.824219 278.3125 302.207031 277.746094 C 302.964844 276.636719 303.085938 275.144531 303.125 273.839844 C 303.167969 272.386719 302.984375 270.941406 302.605469 269.539062 C 302.511719 269.195312 303.039062 269.050781 303.132812 269.390625 C 303.234375 269.761719 303.316406 270.136719 303.390625 270.511719 C 303.433594 270.535156 303.472656 270.566406 303.5 270.625 C 304.019531 271.714844 304.980469 272.59375 306.167969 272.886719 C 306.757812 273.035156 307.433594 273.027344 307.972656 272.714844 C 308.539062 272.382812 308.800781 271.765625 308.910156 271.144531 C 309.144531 269.824219 308.980469 268.359375 308.757812 267.050781 C 308.722656 266.835938 308.675781 266.625 308.628906 266.410156 C 294.777344 263.804688 287.074219 257.8125 284.714844 255.699219 C 284.320312 255.484375 283.921875 255.273438 283.53125 255.046875 C 282.238281 254.289062 280.984375 253.46875 279.789062 252.566406 C 279.175781 252.101562 278.582031 251.617188 278.007812 251.113281 C 276.4375 249.730469 275.019531 248.1875 273.832031 246.460938 C 273.574219 246.085938 273.324219 245.707031 273.089844 245.316406 C 273.046875 245.242188 273.042969 245.171875 273.0625 245.109375 C 272.972656 245.054688 272.917969 244.953125 272.96875 244.824219 C 274.191406 241.578125 275.417969 238.332031 276.644531 235.089844 Z M 224.074219 244.496094 C 226.832031 244.390625 229.480469 245.527344 231.535156 247.324219 C 233.699219 249.214844 235.121094 251.820312 236.003906 254.523438 C 237.777344 259.945312 237.667969 265.96875 236.035156 271.40625 C 235.734375 272.398438 235.378906 273.371094 234.976562 274.324219 C 234.78125 274.320312 234.585938 274.316406 234.386719 274.316406 C 235.730469 271.1875 236.523438 267.824219 236.699219 264.414062 C 236.839844 261.691406 236.601562 258.945312 235.941406 256.300781 C 235.261719 253.554688 234.101562 250.863281 232.191406 248.742188 C 230.136719 246.460938 227.1875 244.925781 224.074219 245.042969 C 223.722656 245.058594 223.722656 244.507812 224.074219 244.496094 Z M 231.832031 222.238281 C 231.992188 222.261719 232.042969 222.386719 232.023438 222.511719 C 231.996094 222.65625 231.871094 222.792969 231.683594 222.765625 C 227.984375 222.210938 224.128906 223.054688 220.980469 225.058594 C 220.492188 225.367188 220.023438 225.699219 219.574219 226.0625 C 219.300781 226.285156 218.910156 225.898438 219.183594 225.675781 C 219.738281 225.230469 220.324219 224.824219 220.925781 224.457031 C 221.175781 224.304688 221.425781 224.160156 221.683594 224.023438 C 224.5 222.507812 227.734375 221.832031 230.941406 222.132812 C 231.238281 222.160156 231.535156 222.191406 231.832031 222.238281 Z M 247.796875 265.945312 C 247.867188 265.890625 247.902344 265.867188 247.980469 265.796875 C 248.050781 265.738281 248.117188 265.675781 248.183594 265.609375 C 248.25 265.542969 248.308594 265.476562 248.371094 265.40625 C 248.398438 265.375 248.425781 265.339844 248.453125 265.304688 C 248.433594 265.332031 248.464844 265.289062 248.472656 265.28125 C 248.484375 265.261719 248.5 265.242188 248.511719 265.222656 C 248.617188 265.074219 248.710938 264.921875 248.789062 264.761719 C 248.832031 264.675781 248.863281 264.609375 248.886719 264.546875 C 248.921875 264.457031 248.953125 264.367188 248.980469 264.273438 C 249.023438 264.132812 249.171875 264.042969 249.316406 264.082031 C 249.457031 264.121094 249.550781 264.277344 249.511719 264.417969 C 249.265625 265.226562 248.757812 265.925781 248.074219 266.417969 C 247.953125 266.503906 247.769531 266.4375 247.699219 266.316406 C 247.617188 266.179688 247.675781 266.03125 247.796875 265.945312 Z M 245.375 265.65625 C 246.234375 265.46875 246.945312 264.890625 247.308594 264.078125 C 247.367188 263.945312 247.566406 263.910156 247.683594 263.980469 C 247.820312 264.0625 247.839844 264.21875 247.78125 264.355469 C 247.371094 265.273438 246.5 265.972656 245.523438 266.183594 C 245.378906 266.214844 245.226562 266.140625 245.183594 265.992188 C 245.144531 265.855469 245.230469 265.6875 245.375 265.65625 Z M 243.222656 264.601562 C 243.539062 264.59375 243.890625 264.511719 244.175781 264.375 C 244.5 264.21875 244.753906 264.027344 244.988281 263.757812 C 245.089844 263.648438 245.277344 263.660156 245.378906 263.757812 C 245.488281 263.867188 245.476562 264.035156 245.378906 264.144531 C 244.839844 264.761719 244.042969 265.128906 243.222656 265.152344 C 243.074219 265.15625 242.949219 265.023438 242.949219 264.878906 C 242.949219 264.726562 243.074219 264.605469 243.222656 264.601562 Z M 269.089844 252.179688 C 269.144531 252.746094 269.203125 253.3125 269.257812 253.875 C 269.273438 254.019531 269.121094 254.15625 268.984375 254.152344 C 268.824219 254.144531 268.726562 254.03125 268.710938 253.875 C 268.652344 253.3125 268.597656 252.746094 268.539062 252.179688 C 268.527344 252.035156 268.675781 251.898438 268.8125 251.902344 C 268.976562 251.910156 269.074219 252.023438 269.089844 252.179688 Z M 267.710938 254.894531 C 267.59375 254.964844 267.398438 254.933594 267.335938 254.796875 C 267.035156 254.152344 266.9375 253.457031 267.046875 252.753906 C 267.070312 252.605469 267.253906 252.527344 267.382812 252.5625 C 267.539062 252.605469 267.597656 252.753906 267.578125 252.898438 C 267.496094 253.425781 267.582031 254.027344 267.8125 254.519531 C 267.871094 254.65625 267.847656 254.816406 267.710938 254.894531 Z M 230.179688 250.332031 C 230.101562 250.261719 230.082031 250.25 229.988281 250.1875 C 229.867188 250.101562 229.8125 249.945312 229.890625 249.8125 C 229.960938 249.691406 230.144531 249.628906 230.265625 249.710938 C 230.941406 250.175781 231.429688 250.894531 231.578125 251.703125 C 231.605469 251.84375 231.539062 252.007812 231.386719 252.042969 C 231.253906 252.074219 231.078125 252 231.050781 251.851562 C 230.980469 251.480469 230.871094 251.203125 230.671875 250.894531 C 230.652344 250.859375 230.625 250.824219 230.601562 250.789062 C 230.589844 250.769531 230.574219 250.75 230.5625 250.730469 C 230.558594 250.730469 230.554688 250.722656 230.550781 250.71875 C 230.496094 250.648438 230.4375 250.582031 230.375 250.515625 C 230.3125 250.453125 230.25 250.390625 230.179688 250.332031 Z M 229.738281 250.789062 C 230.003906 251.664062 230.261719 252.535156 230.527344 253.40625 C 230.628906 253.746094 230.097656 253.890625 229.996094 253.554688 C 229.734375 252.679688 229.472656 251.808594 229.210938 250.9375 C 229.109375 250.597656 229.636719 250.453125 229.738281 250.789062 Z M 310.285156 245.078125 C 310.585938 245.066406 310.890625 245.066406 311.191406 245.074219 C 313.152344 245.117188 315.09375 245.484375 316.9375 246.167969 C 317.265625 246.289062 317.121094 246.816406 316.789062 246.695312 C 315.136719 246.082031 313.410156 245.730469 311.660156 245.644531 C 311.203125 245.621094 310.742188 245.613281 310.285156 245.625 C 309.929688 245.636719 309.929688 245.085938 310.285156 245.078125 Z M 313.03125 247.753906 C 314.320312 248.101562 315.550781 248.65625 316.65625 249.421875 C 316.945312 249.621094 316.671875 250.097656 316.378906 249.894531 C 315.453125 249.257812 314.4375 248.753906 313.367188 248.414062 C 312.742188 248.210938 312.09375 248.066406 311.4375 247.980469 C 311.09375 247.933594 311.089844 247.386719 311.4375 247.429688 C 311.976562 247.503906 312.511719 247.613281 313.03125 247.753906 Z M 296.808594 242.023438 C 296.429688 241.652344 296.03125 241.308594 295.617188 240.980469 C 294.027344 239.710938 292.210938 238.738281 290.257812 238.136719 C 289.917969 238.035156 290.0625 237.503906 290.402344 237.609375 C 292.527344 238.261719 294.496094 239.339844 296.203125 240.753906 C 296.542969 241.035156 296.878906 241.324219 297.195312 241.632812 C 297.449219 241.878906 297.0625 242.269531 296.808594 242.023438 Z M 294.929688 243.292969 C 294.265625 242.992188 293.582031 242.75 292.882812 242.558594 C 291.640625 242.226562 290.347656 242.074219 289.054688 242.109375 C 288.703125 242.117188 288.703125 241.570312 289.054688 241.558594 C 290.550781 241.519531 292.035156 241.730469 293.457031 242.164062 C 294.050781 242.34375 294.636719 242.5625 295.207031 242.820312 C 295.527344 242.96875 295.246094 243.441406 294.929688 243.292969 Z M 326.949219 238.425781 C 327.175781 236.597656 330.222656 238.203125 332.671875 239.8125 C 332.640625 241.726562 332.566406 243.730469 332.457031 245.65625 C 330.828125 244.402344 326.636719 240.917969 326.949219 238.425781 Z M 332.457031 245.691406 C 332.347656 247.609375 332.203125 249.441406 332.035156 251.003906 C 329.414062 249.039062 326.0625 246.152344 326.488281 244.496094 C 327.039062 242.355469 330.914062 244.671875 332.457031 245.691406 Z M 286.578125 230.722656 C 285.40625 233.136719 279.292969 233.703125 277.644531 233.8125 C 278.351562 232.167969 279.113281 230.476562 279.886719 228.792969 C 282.957031 228.691406 287.492188 228.84375 286.578125 230.722656 Z M 314.164062 283.710938 C 315.214844 283.359375 316.957031 284.300781 318.582031 285.464844 C 318.597656 287.320312 318.566406 289.011719 318.511719 290.53125 C 316.328125 288.417969 312.394531 284.300781 314.164062 283.710938 Z M 318.5 290.828125 C 318.453125 292.03125 318.386719 293.113281 318.316406 294.085938 C 316.890625 292.242188 315.128906 290.484375 312.914062 288.90625 C 313.488281 287.671875 316.65625 289.578125 318.5 290.828125 Z M 265.78125 239.269531 C 263.554688 243.570312 256.761719 256.160156 255.089844 252.898438 C 253.542969 249.875 257.054688 241.539062 258.742188 237.894531 C 259.082031 238.113281 259.398438 238.304688 259.699219 238.460938 C 261.507812 239.402344 263.640625 239.554688 265.78125 239.269531 Z M 254.542969 234.722656 C 252.546875 238.011719 245.597656 248.957031 243.222656 246.429688 C 240.957031 244.019531 246.957031 234.1875 249.285156 230.585938 C 251.207031 232.019531 252.96875 233.453125 254.542969 234.722656 Z M 235.242188 239.140625 C 233.015625 237.328125 238.511719 229.234375 241.253906 225.484375 C 242.96875 226.351562 244.621094 227.347656 246.191406 228.394531 C 244.195312 231.5 237.699219 241.144531 235.242188 239.140625 Z M 310.910156 218.582031 C 305.945312 217.277344 302.15625 215.316406 302.449219 214.207031 C 302.742188 213.101562 307.003906 213.261719 311.96875 214.570312 C 316.933594 215.875 320.71875 217.832031 320.429688 218.941406 C 320.136719 220.050781 315.875 219.890625 310.910156 218.582031 Z M 310.597656 219.769531 C 315.5625 221.078125 319.351562 223.035156 319.058594 224.144531 C 318.765625 225.253906 314.503906 225.089844 309.539062 223.785156 C 304.574219 222.476562 300.789062 220.519531 301.078125 219.410156 C 301.371094 218.300781 305.632812 218.464844 310.597656 219.769531 Z M 108.3125 332.050781 C 108.515625 331.644531 108.714844 331.234375 108.925781 330.835938 C 111.367188 326.144531 114.417969 321.441406 118.65625 318.183594 C 121.203125 316.222656 124.289062 314.929688 127.46875 314.480469 C 130.226562 314.089844 132.9375 314.453125 135.644531 314.992188 C 137.457031 315.351562 139.703125 315.996094 141.402344 314.9375 C 142.515625 314.246094 143.296875 312.960938 144.027344 311.90625 C 146.621094 308.171875 149.019531 304.320312 151.984375 300.859375 C 155.421875 296.84375 159.597656 293.238281 164.675781 291.523438 C 169.886719 289.761719 175.847656 290.066406 180.78125 292.527344 C 182.644531 293.457031 184.332031 294.660156 186.042969 295.832031 C 187.4375 296.785156 188.90625 297.765625 190.578125 298.144531 C 194.8125 299.105469 198.359375 295.464844 200.851562 292.566406 C 202.609375 290.519531 204.261719 288.390625 206.085938 286.398438 C 208.183594 284.109375 210.488281 282.011719 213.066406 280.269531 C 214.414062 279.359375 215.832031 278.5625 217.292969 277.855469 C 217.425781 277.792969 217.550781 277.726562 217.683594 277.664062 C 217.84375 277.589844 217.996094 277.675781 218.0625 277.796875 C 218.128906 277.914062 218.117188 278.0625 217.960938 278.136719 C 214.824219 279.605469 211.945312 281.535156 209.386719 283.863281 C 207.253906 285.804688 205.367188 287.984375 203.53125 290.203125 C 200.820312 293.480469 197.835938 297.722656 193.40625 298.679688 C 189.789062 299.460938 186.839844 297.011719 184.039062 295.117188 C 182.207031 293.875 180.292969 292.75 178.191406 292.023438 C 175.453125 291.074219 172.546875 290.820312 169.671875 291.0625 C 164.015625 291.542969 159.121094 294.414062 155.113281 298.3125 C 151.566406 301.765625 148.75 305.84375 146.011719 309.945312 C 145.074219 311.351562 144.15625 312.792969 143.078125 314.097656 C 142.128906 315.242188 141.015625 315.972656 139.488281 316.042969 C 137.300781 316.140625 135.101562 315.371094 132.953125 315.066406 C 129.679688 314.601562 126.414062 314.933594 123.332031 316.160156 C 117.996094 318.28125 114.234375 322.914062 111.324219 327.691406 C 109.273438 331.054688 107.539062 334.640625 106.171875 338.335938 C 106.105469 338.507812 106.042969 338.6875 105.980469 338.863281 C 105.972656 338.886719 105.964844 338.914062 105.957031 338.9375 C 105.84375 339.269531 105.3125 339.125 105.425781 338.789062 C 106.214844 336.484375 107.21875 334.234375 108.3125 332.050781 Z M 108.3125 332.050781 " fill-opacity="1" fill-rule="nonzero"/></g></svg>