<svg xmlns="http://www.w3.org/2000/svg" xmlns:xlink="http://www.w3.org/1999/xlink" width="831" zoomAndPan="magnify" viewBox="0 0 623.25 623.249999" height="831" preserveAspectRatio="xMidYMid meet" version="1.0"><defs><clipPath id="408743f582"><path d="M 0 0 L 622.5 0 L 622.5 622.5 L 0 622.5 Z M 0 0 " clip-rule="nonzero"/></clipPath><clipPath id="342589a51a"><path d="M 343 102 L 365 102 L 365 123 L 343 123 Z M 343 102 " clip-rule="nonzero"/></clipPath><clipPath id="c8ce607a2c"><path d="M 340.976562 106.316406 L 386.046875 89.972656 L 393.195312 109.691406 L 348.125 126.035156 Z M 340.976562 106.316406 " clip-rule="nonzero"/></clipPath><clipPath id="184d3553ce"><path d="M 340.976562 106.316406 L 386.046875 89.972656 L 393.195312 109.691406 L 348.125 126.035156 Z M 340.976562 106.316406 " clip-rule="nonzero"/></clipPath><clipPath id="7868f12396"><path d="M 369 93 L 391 93 L 391 114 L 369 114 Z M 369 93 " clip-rule="nonzero"/></clipPath><clipPath id="d550a92bd8"><path d="M 340.976562 106.316406 L 386.046875 89.972656 L 393.195312 109.691406 L 348.125 126.035156 Z M 340.976562 106.316406 " clip-rule="nonzero"/></clipPath><clipPath id="f1789ee133"><path d="M 340.976562 106.316406 L 386.046875 89.972656 L 393.195312 109.691406 L 348.125 126.035156 Z M 340.976562 106.316406 " clip-rule="nonzero"/></clipPath><clipPath id="6018605fd5"><path d="M 362 104 L 373 104 L 373 110 L 362 110 Z M 362 104 " clip-rule="nonzero"/></clipPath><clipPath id="c206077ba8"><path d="M 340.976562 106.316406 L 386.046875 89.972656 L 393.195312 109.691406 L 348.125 126.035156 Z M 340.976562 106.316406 " clip-rule="nonzero"/></clipPath><clipPath id="e601af5531"><path d="M 340.976562 106.316406 L 386.046875 89.972656 L 393.195312 109.691406 L 348.125 126.035156 Z M 340.976562 106.316406 " clip-rule="nonzero"/></clipPath><clipPath id="da4874e09e"><path d="M 1 1.988281 L 622.5 1.988281 L 622.5 579 L 1 579 Z M 1 1.988281 " clip-rule="nonzero"/></clipPath><clipPath id="4a7d7ea785"><path d="M 1 514 L 622.5 514 L 622.5 622.5 L 1 622.5 Z M 1 514 " clip-rule="nonzero"/></clipPath><clipPath id="a15ee2a0e3"><path d="M 235 569 L 436 569 L 436 622.5 L 235 622.5 Z M 235 569 " clip-rule="nonzero"/></clipPath><clipPath id="4ffa178708"><path d="M 1 62 L 622.5 62 L 622.5 558 L 1 558 Z M 1 62 " clip-rule="nonzero"/></clipPath><clipPath id="95cadeee44"><path d="M 304 77 L 322 77 L 322 96 L 304 96 Z M 304 77 " clip-rule="nonzero"/></clipPath><clipPath id="0a611ec68d"><path d="M 304.996094 75.242188 L 323.9375 79.777344 L 319.753906 97.261719 L 300.8125 92.726562 Z M 304.996094 75.242188 " clip-rule="nonzero"/></clipPath><clipPath id="e108ddffb8"><path d="M 284.039062 70.222656 L 324.109375 79.816406 L 319.921875 97.300781 L 279.855469 87.707031 Z M 284.039062 70.222656 " clip-rule="nonzero"/></clipPath><clipPath id="50cc807858"><path d="M 300 80 L 306 80 L 306 87 L 300 87 Z M 300 80 " clip-rule="nonzero"/></clipPath><clipPath id="63f66cf763"><path d="M 304.996094 75.242188 L 323.9375 79.777344 L 319.753906 97.261719 L 300.8125 92.726562 Z M 304.996094 75.242188 " clip-rule="nonzero"/></clipPath><clipPath id="73a54f974c"><path d="M 284.039062 70.222656 L 324.109375 79.816406 L 319.921875 97.300781 L 279.855469 87.707031 Z M 284.039062 70.222656 " clip-rule="nonzero"/></clipPath></defs><g clip-path="url(#408743f582)"><path fill="#ffffff" d="M 0 0 L 622.5 0 L 622.5 622.5 L 0 622.5 Z M 0 0 " fill-opacity="1" fill-rule="nonzero"/><path fill="#f2f2f2" d="M 0 0 L 622.5 0 L 622.5 622.5 L 0 622.5 Z M 0 0 " fill-opacity="1" fill-rule="nonzero"/></g><g clip-path="url(#342589a51a)"><g clip-path="url(#c8ce607a2c)"><g clip-path="url(#184d3553ce)"><path fill="#f8f6b3" d="M 349.601562 103.285156 C 349.335938 103.410156 349.078125 103.558594 348.824219 103.710938 C 348.738281 103.761719 348.644531 103.816406 348.558594 103.871094 C 348.414062 103.953125 348.273438 104.054688 348.132812 104.160156 C 347.664062 104.496094 347.214844 104.886719 346.800781 105.296875 C 346.796875 105.308594 346.789062 105.3125 346.773438 105.328125 C 346.644531 105.457031 346.523438 105.582031 346.40625 105.71875 C 345.964844 106.222656 345.585938 106.773438 345.25 107.34375 C 345 107.765625 344.789062 108.214844 344.601562 108.667969 C 344.574219 108.738281 344.539062 108.816406 344.511719 108.886719 C 344.347656 109.339844 344.203125 109.808594 344.105469 110.28125 C 344.019531 110.644531 343.964844 111.015625 343.925781 111.394531 C 343.894531 111.726562 343.875 112.054688 343.871094 112.386719 C 343.875 112.625 343.878906 112.863281 343.890625 113.097656 C 343.933594 113.839844 344.070312 114.570312 344.269531 115.285156 C 344.316406 115.476562 344.382812 115.648438 344.4375 115.835938 C 344.445312 115.855469 344.449219 115.863281 344.453125 115.882812 C 344.65625 116.464844 344.917969 117.023438 345.21875 117.558594 C 345.316406 117.742188 345.433594 117.925781 345.550781 118.101562 C 345.738281 118.386719 345.9375 118.65625 346.148438 118.921875 C 346.226562 119.019531 346.3125 119.113281 346.386719 119.210938 C 346.523438 119.355469 346.664062 119.515625 346.796875 119.652344 C 346.832031 119.691406 346.867188 119.730469 346.910156 119.765625 C 347.171875 120.027344 347.449219 120.277344 347.738281 120.503906 C 347.8125 120.5625 347.882812 120.609375 347.945312 120.667969 C 348.402344 121.011719 348.882812 121.316406 349.382812 121.570312 C 349.804688 121.789062 350.234375 121.976562 350.675781 122.136719 C 350.929688 122.234375 351.183594 122.308594 351.449219 122.378906 C 351.566406 122.410156 351.679688 122.4375 351.804688 122.46875 C 352.054688 122.53125 352.308594 122.574219 352.574219 122.613281 C 352.574219 122.613281 352.582031 122.609375 352.585938 122.621094 C 353.089844 122.695312 353.589844 122.730469 354.101562 122.734375 C 354.820312 122.742188 355.539062 122.660156 356.25 122.503906 C 357.011719 122.34375 357.734375 122.101562 358.433594 121.773438 C 359.164062 121.4375 359.839844 121.015625 360.472656 120.527344 C 361.664062 119.597656 362.617188 118.398438 363.292969 117.054688 C 363.632812 116.390625 363.875 115.683594 364.0625 114.96875 C 364.261719 114.222656 364.34375 113.457031 364.367188 112.691406 C 364.390625 111.925781 364.308594 111.15625 364.152344 110.402344 C 363.984375 109.621094 363.742188 108.871094 363.402344 108.140625 C 362.757812 106.757812 361.800781 105.523438 360.617188 104.550781 C 360.074219 104.085938 359.453125 103.6875 358.804688 103.351562 C 358.152344 103.015625 357.46875 102.765625 356.765625 102.566406 C 356.09375 102.382812 355.402344 102.269531 354.703125 102.234375 C 353.972656 102.199219 353.246094 102.222656 352.519531 102.339844 C 351.921875 102.433594 351.339844 102.582031 350.769531 102.777344 C 350.75 102.785156 350.730469 102.792969 350.703125 102.800781 C 350.6875 102.808594 350.675781 102.8125 350.660156 102.816406 C 350.304688 102.957031 349.953125 103.105469 349.601562 103.285156 Z M 352.203125 103.648438 C 352.988281 103.488281 353.78125 103.417969 354.574219 103.453125 C 355.359375 103.5 356.125 103.636719 356.875 103.875 C 357.605469 104.117188 358.308594 104.445312 358.960938 104.851562 C 359.625 105.277344 360.222656 105.777344 360.761719 106.347656 C 361.296875 106.941406 361.761719 107.59375 362.136719 108.308594 C 362.5 109.027344 362.777344 109.789062 362.960938 110.585938 C 363.121094 111.367188 363.183594 112.164062 363.148438 112.964844 C 363.097656 113.742188 362.960938 114.507812 362.730469 115.246094 C 362.488281 115.976562 362.160156 116.675781 361.753906 117.332031 C 361.328125 117.984375 360.832031 118.59375 360.265625 119.128906 C 359.671875 119.664062 359.023438 120.128906 358.304688 120.503906 C 357.585938 120.867188 356.835938 121.140625 356.050781 121.320312 C 355.316406 121.472656 354.570312 121.535156 353.816406 121.519531 C 353.765625 121.515625 353.710938 121.515625 353.667969 121.511719 C 353.488281 121.503906 353.304688 121.484375 353.128906 121.457031 C 353.117188 121.449219 353.109375 121.453125 353.09375 121.449219 C 353.085938 121.453125 353.082031 121.441406 353.074219 121.445312 C 353.0625 121.449219 353.0625 121.441406 353.050781 121.445312 C 352.484375 121.367188 351.921875 121.25 351.371094 121.078125 C 350.839844 120.894531 350.324219 120.679688 349.832031 120.410156 C 349.832031 120.410156 349.832031 120.410156 349.828125 120.402344 C 349.816406 120.394531 349.816406 120.394531 349.804688 120.390625 C 349.792969 120.382812 349.792969 120.382812 349.78125 120.378906 C 349.78125 120.378906 349.777344 120.367188 349.765625 120.371094 C 349.601562 120.285156 349.441406 120.1875 349.28125 120.089844 C 348.65625 119.683594 348.078125 119.207031 347.554688 118.671875 C 347.554688 118.671875 347.550781 118.664062 347.550781 118.664062 C 347.550781 118.664062 347.546875 118.65625 347.535156 118.65625 C 347.519531 118.644531 347.503906 118.617188 347.484375 118.605469 C 347.417969 118.535156 347.367188 118.472656 347.308594 118.398438 C 347.304688 118.390625 347.292969 118.382812 347.289062 118.375 C 347.289062 118.375 347.289062 118.375 347.285156 118.363281 C 346.871094 117.882812 346.519531 117.367188 346.203125 116.816406 C 346.203125 116.816406 346.203125 116.804688 346.203125 116.804688 C 346.199219 116.796875 346.195312 116.789062 346.195312 116.789062 C 346.191406 116.777344 346.191406 116.777344 346.1875 116.769531 C 346.1875 116.769531 346.183594 116.761719 346.183594 116.761719 C 346.164062 116.726562 346.144531 116.679688 346.125 116.648438 C 345.753906 115.921875 345.480469 115.160156 345.296875 114.371094 C 345.214844 113.945312 345.152344 113.511719 345.121094 113.085938 C 345.121094 113.078125 345.125 113.066406 345.121094 113.054688 C 345.117188 113.046875 345.117188 113.039062 345.125 113.035156 C 345.125 113.035156 345.121094 113.027344 345.121094 113.027344 C 345.101562 112.691406 345.097656 112.359375 345.109375 112.023438 C 345.160156 111.246094 345.296875 110.480469 345.535156 109.730469 C 345.613281 109.484375 345.703125 109.253906 345.804688 109.011719 C 345.808594 108.996094 345.804688 108.988281 345.816406 108.984375 C 345.816406 108.984375 345.8125 108.976562 345.820312 108.972656 C 345.828125 108.960938 345.828125 108.960938 345.832031 108.949219 C 345.832031 108.949219 345.839844 108.933594 345.839844 108.933594 C 345.839844 108.933594 345.84375 108.921875 345.84375 108.921875 C 345.851562 108.910156 345.851562 108.910156 345.855469 108.898438 C 345.855469 108.898438 345.863281 108.886719 345.863281 108.886719 C 345.867188 108.871094 345.867188 108.871094 345.875 108.859375 C 345.875 108.859375 345.875 108.859375 345.878906 108.847656 C 345.886719 108.835938 345.890625 108.824219 345.890625 108.824219 C 346.0625 108.4375 346.261719 108.066406 346.472656 107.707031 C 346.480469 107.695312 346.484375 107.683594 346.496094 107.679688 C 346.5 107.667969 346.507812 107.664062 346.515625 107.652344 C 346.941406 107 347.4375 106.394531 348.003906 105.855469 C 348.074219 105.800781 348.136719 105.734375 348.207031 105.679688 C 348.21875 105.675781 348.21875 105.675781 348.222656 105.664062 C 348.230469 105.660156 348.230469 105.660156 348.238281 105.648438 C 348.683594 105.269531 349.15625 104.941406 349.648438 104.648438 C 349.648438 104.648438 349.660156 104.644531 349.660156 104.644531 C 349.660156 104.644531 349.660156 104.644531 349.667969 104.640625 C 349.761719 104.585938 349.847656 104.535156 349.945312 104.488281 C 350.050781 104.429688 350.164062 104.378906 350.273438 104.328125 C 350.878906 104.023438 351.53125 103.796875 352.203125 103.648438 Z M 363.152344 113.003906 C 363.152344 113.027344 363.15625 113.035156 363.152344 113.058594 C 363.15625 113.035156 363.15625 113.015625 363.152344 113.003906 Z M 363.152344 113.003906 " fill-opacity="1" fill-rule="nonzero"/></g></g></g><g clip-path="url(#7868f12396)"><g clip-path="url(#d550a92bd8)"><g clip-path="url(#f1789ee133)"><path fill="#f8f6b3" d="M 374.332031 95.136719 C 373.703125 95.550781 373.128906 96.0625 372.601562 96.605469 C 372.410156 96.800781 372.238281 97.007812 372.066406 97.214844 C 372.027344 97.257812 371.988281 97.316406 371.953125 97.359375 C 371.652344 97.738281 371.386719 98.148438 371.144531 98.566406 C 371.003906 98.8125 370.867188 99.070312 370.746094 99.332031 C 370.441406 99.984375 370.207031 100.679688 370.046875 101.382812 C 369.964844 101.734375 369.90625 102.085938 369.863281 102.445312 C 369.851562 102.503906 369.851562 102.5625 369.839844 102.621094 C 369.8125 102.941406 369.792969 103.261719 369.785156 103.585938 C 369.789062 103.59375 369.789062 103.59375 369.785156 103.605469 C 369.769531 104.339844 369.859375 105.074219 370.011719 105.785156 C 370.179688 106.554688 370.425781 107.296875 370.761719 108.015625 C 371.402344 109.390625 372.351562 110.605469 373.511719 111.574219 C 374.078125 112.042969 374.699219 112.441406 375.339844 112.78125 C 375.996094 113.125 376.699219 113.378906 377.40625 113.578125 C 378.132812 113.78125 378.875 113.875 379.625 113.914062 C 380.371094 113.945312 381.113281 113.894531 381.851562 113.761719 C 383.410156 113.476562 384.882812 112.839844 386.160156 111.898438 C 387.40625 110.980469 388.40625 109.765625 389.136719 108.402344 C 389.832031 107.082031 390.210938 105.605469 390.28125 104.113281 C 390.351562 102.59375 390.066406 101.058594 389.46875 99.644531 C 388.875 98.230469 387.953125 96.976562 386.804688 95.960938 C 386.257812 95.476562 385.648438 95.0625 385.011719 94.703125 C 384.367188 94.332031 383.679688 94.0625 382.976562 93.839844 C 382.296875 93.628906 381.585938 93.503906 380.878906 93.4375 C 380.121094 93.382812 379.367188 93.394531 378.617188 93.5 C 377.914062 93.597656 377.230469 93.773438 376.570312 94.015625 C 375.792969 94.296875 375.035156 94.675781 374.332031 95.136719 Z M 378.140625 94.816406 C 378.921875 94.65625 379.714844 94.585938 380.515625 94.617188 C 381.292969 94.667969 382.050781 94.808594 382.792969 95.027344 C 383.535156 95.269531 384.238281 95.605469 384.902344 96.007812 C 385.550781 96.425781 386.148438 96.925781 386.683594 97.488281 C 387.222656 98.082031 387.691406 98.742188 388.070312 99.445312 C 388.4375 100.175781 388.714844 100.9375 388.894531 101.722656 C 389.054688 102.503906 389.125 103.300781 389.09375 104.097656 C 389.042969 104.875 388.90625 105.640625 388.675781 106.386719 C 388.425781 107.132812 388.101562 107.832031 387.695312 108.488281 C 387.265625 109.140625 386.761719 109.75 386.199219 110.285156 C 385.605469 110.824219 384.957031 111.277344 384.253906 111.65625 C 383.535156 112.019531 382.773438 112.296875 381.980469 112.480469 C 381.207031 112.636719 380.410156 112.707031 379.621094 112.671875 C 378.835938 112.625 378.070312 112.488281 377.320312 112.25 C 376.574219 112 375.875 111.671875 375.207031 111.261719 C 374.554688 110.835938 373.960938 110.34375 373.421875 109.773438 C 372.882812 109.175781 372.425781 108.523438 372.046875 107.820312 C 371.679688 107.089844 371.402344 106.328125 371.222656 105.542969 C 371.066406 104.800781 371.003906 104.046875 371.027344 103.289062 C 371.027344 103.289062 371.027344 103.289062 371.023438 103.28125 C 371.023438 103.28125 371.023438 103.269531 371.023438 103.269531 C 371.019531 103.242188 371.019531 103.210938 371.027344 103.175781 C 371.039062 103.027344 371.046875 102.878906 371.066406 102.734375 C 371.066406 102.734375 371.0625 102.726562 371.0625 102.726562 C 371.058594 102.71875 371.066406 102.707031 371.0625 102.695312 C 371.128906 102.082031 371.253906 101.476562 371.441406 100.878906 C 371.683594 100.144531 372.019531 99.433594 372.421875 98.777344 C 372.433594 98.753906 372.449219 98.738281 372.460938 98.710938 C 372.460938 98.710938 372.472656 98.707031 372.46875 98.699219 C 372.476562 98.695312 372.472656 98.6875 372.484375 98.683594 C 372.882812 98.09375 373.335938 97.542969 373.851562 97.046875 C 373.859375 97.042969 373.867188 97.03125 373.875 97.027344 C 373.875 97.027344 373.882812 97.023438 373.878906 97.015625 C 373.890625 97.011719 373.886719 97 373.894531 96.996094 C 373.90625 96.996094 373.910156 96.980469 373.910156 96.980469 C 373.933594 96.964844 373.960938 96.945312 373.980469 96.914062 C 374.554688 96.40625 375.183594 95.96875 375.859375 95.601562 C 376.59375 95.273438 377.351562 94.996094 378.140625 94.816406 Z M 378.140625 94.816406 " fill-opacity="1" fill-rule="nonzero"/></g></g></g><g clip-path="url(#6018605fd5)"><g clip-path="url(#c206077ba8)"><g clip-path="url(#e601af5531)"><path fill="#f8f6b3" d="M 365.492188 104.707031 C 365.183594 104.835938 364.882812 105 364.609375 105.191406 C 364.507812 105.257812 364.417969 105.324219 364.320312 105.398438 C 364.070312 105.59375 363.835938 105.835938 363.632812 106.074219 C 363.542969 106.179688 363.460938 106.292969 363.386719 106.402344 C 363.386719 106.402344 363.378906 106.414062 363.378906 106.414062 C 363.375 106.429688 363.367188 106.441406 363.355469 106.457031 C 363.289062 106.5625 363.21875 106.660156 363.160156 106.777344 C 362.925781 107.164062 362.773438 107.578125 362.652344 108.007812 C 362.578125 108.292969 362.527344 108.582031 362.507812 108.878906 C 362.507812 108.878906 362.511719 108.890625 362.503906 108.890625 C 362.503906 108.890625 362.507812 108.902344 362.507812 108.902344 C 362.511719 108.910156 362.503906 108.921875 362.503906 108.921875 C 362.492188 108.980469 362.492188 109.03125 362.5 109.082031 C 362.503906 109.089844 362.492188 109.09375 362.496094 109.101562 C 362.492188 109.261719 362.605469 109.425781 362.710938 109.523438 C 362.832031 109.625 362.992188 109.671875 363.148438 109.664062 C 363.308594 109.648438 363.464844 109.570312 363.566406 109.453125 C 363.59375 109.410156 363.617188 109.359375 363.652344 109.316406 C 363.691406 109.21875 363.71875 109.125 363.714844 109.023438 C 363.738281 108.714844 363.792969 108.414062 363.882812 108.113281 C 363.980469 107.816406 364.117188 107.527344 364.28125 107.261719 C 364.453125 107 364.660156 106.761719 364.878906 106.535156 C 365.121094 106.324219 365.375 106.136719 365.664062 105.984375 C 365.960938 105.832031 366.265625 105.722656 366.589844 105.648438 C 366.78125 105.609375 366.984375 105.585938 367.175781 105.578125 C 367.1875 105.574219 367.1875 105.574219 367.195312 105.570312 C 367.195312 105.570312 367.203125 105.570312 367.203125 105.570312 C 367.316406 105.558594 367.4375 105.554688 367.554688 105.566406 C 367.875 105.585938 368.1875 105.648438 368.488281 105.734375 C 368.515625 105.746094 368.550781 105.757812 368.574219 105.769531 C 368.839844 105.867188 369.089844 105.984375 369.328125 106.128906 C 369.546875 106.277344 369.765625 106.445312 369.953125 106.625 C 369.953125 106.625 369.957031 106.636719 369.96875 106.632812 C 370 106.664062 370.03125 106.691406 370.066406 106.730469 C 370.207031 106.898438 370.339844 107.058594 370.457031 107.242188 C 370.523438 107.335938 370.578125 107.429688 370.636719 107.53125 C 370.675781 107.609375 370.71875 107.699219 370.746094 107.78125 C 370.746094 107.78125 370.75 107.792969 370.75 107.792969 C 370.753906 107.800781 370.757812 107.808594 370.761719 107.820312 C 370.761719 107.820312 370.765625 107.828125 370.765625 107.828125 C 370.765625 107.835938 370.769531 107.847656 370.773438 107.855469 C 370.773438 107.855469 370.777344 107.863281 370.777344 107.863281 C 370.78125 107.875 370.785156 107.882812 370.789062 107.890625 C 370.789062 107.890625 370.789062 107.902344 370.789062 107.902344 C 370.792969 107.910156 370.796875 107.917969 370.800781 107.929688 C 370.800781 107.929688 370.800781 107.929688 370.804688 107.9375 C 370.808594 107.949219 370.8125 107.957031 370.816406 107.976562 C 370.820312 107.984375 370.828125 108.003906 370.832031 108.011719 C 370.945312 108.324219 371.304688 108.492188 371.617188 108.378906 C 371.929688 108.265625 372.09375 107.917969 371.988281 107.59375 C 371.828125 107.152344 371.609375 106.722656 371.324219 106.339844 C 371.324219 106.339844 371.320312 106.328125 371.320312 106.328125 C 371.261719 106.246094 371.195312 106.15625 371.125 106.078125 C 370.984375 105.910156 370.832031 105.75 370.667969 105.609375 C 370.542969 105.5 370.40625 105.382812 370.269531 105.289062 C 370.058594 105.136719 369.828125 104.992188 369.589844 104.878906 C 369.566406 104.867188 369.539062 104.847656 369.511719 104.835938 C 369.4375 104.800781 369.363281 104.765625 369.277344 104.734375 C 369.03125 104.625 368.773438 104.542969 368.511719 104.480469 C 368.34375 104.441406 368.175781 104.40625 368.003906 104.398438 C 367.925781 104.382812 367.851562 104.378906 367.769531 104.378906 C 367.738281 104.378906 367.703125 104.371094 367.671875 104.371094 C 367.398438 104.355469 367.121094 104.363281 366.839844 104.394531 C 366.75 104.40625 366.664062 104.417969 366.5625 104.429688 C 366.359375 104.464844 366.148438 104.519531 365.945312 104.582031 C 365.933594 104.585938 365.917969 104.59375 365.90625 104.597656 C 365.851562 104.617188 365.789062 104.640625 365.734375 104.660156 C 365.632812 104.644531 365.5625 104.671875 365.492188 104.707031 Z M 365.492188 104.707031 " fill-opacity="1" fill-rule="nonzero"/></g></g></g><g clip-path="url(#da4874e09e)"><path fill="#fafafa" d="M 622.378906 354.960938 L 523.746094 545.796875 L 52.652344 578.738281 L 1.015625 196.960938 L 1.015625 1.988281 L 622.378906 1.988281 Z M 622.378906 354.960938 " fill-opacity="1" fill-rule="nonzero"/></g><g clip-path="url(#4a7d7ea785)"><path fill="#f8becb" d="M 622.378906 623.355469 L 1.015625 623.355469 L 1.015625 550.628906 L 38.074219 514.886719 L 578.414062 514.886719 L 622.378906 557.042969 Z M 622.378906 623.355469 " fill-opacity="1" fill-rule="nonzero"/></g><path fill="#f59cbb" d="M 273.273438 479.582031 L 339.074219 479.582031 L 324.796875 569.828125 L 320.1875 569.828125 L 285.800781 576.476562 L 277.535156 569.828125 L 268.710938 569.828125 Z M 417.042969 479.582031 L 351.242188 479.582031 L 374.640625 569.828125 L 382.570312 569.828125 L 417.914062 578.738281 L 424.4375 569.828125 L 430.714844 569.828125 Z M 281.511719 148.144531 L 282.207031 146.605469 C 285.164062 140.054688 284.109375 132.402344 279.5 126.882812 C 277.695312 124.734375 276.019531 122.78125 275.050781 121.800781 C 276.578125 120.359375 277.882812 118.730469 278.976562 116.980469 L 288.707031 113.585938 C 288.707031 113.585938 298.898438 138.277344 306.9375 143.300781 C 314.980469 148.320312 317.574219 126.796875 317.613281 126.261719 C 317.652344 125.726562 320.820312 56.617188 320.820312 56.617188 L 310.367188 44.414062 L 303.644531 45.796875 L 307.734375 39.445312 L 301.484375 9.308594 C 301.234375 8.089844 299.59375 7.828125 298.984375 8.921875 L 294.015625 17.722656 C 284.742188 13.359375 273.136719 17.511719 272.699219 17.722656 L 267.730469 8.921875 C 267.121094 7.84375 265.480469 8.089844 265.230469 9.308594 L 258.621094 39.570312 L 262.164062 45.335938 C 262.164062 45.335938 257.03125 42.726562 255.414062 44.105469 C 251.363281 47.585938 243.820312 55.5 240.726562 68.238281 C 239.371094 73.804688 240.003906 81.0625 241.519531 88.40625 C 241.011719 86.34375 238.875 85.101562 236.847656 85.722656 C 205.765625 95.28125 191.078125 126.746094 186.816406 137.695312 C 186.03125 139.707031 187.113281 141.945312 189.175781 142.589844 L 189.203125 142.605469 C 191.066406 143.1875 193.066406 142.242188 193.789062 140.417969 C 197.691406 130.597656 211.347656 101.457031 238.972656 92.871094 C 240.851562 92.285156 241.96875 90.398438 241.546875 88.484375 C 244.875 104.625 252.417969 121.167969 252.417969 121.167969 Z M 281.511719 148.144531 " fill-opacity="1" fill-rule="nonzero"/><g clip-path="url(#a15ee2a0e3)"><path fill="#fafafa" d="M 320.199219 569.828125 C 330.75 599.804688 326.847656 623.355469 326.847656 623.355469 L 235.46875 623.355469 C 241.074219 589.152344 272.390625 599.53125 277.546875 569.828125 Z M 382.570312 569.828125 C 378.617188 591.390625 356.585938 595.242188 356.585938 623.355469 L 435.609375 623.355469 C 435.609375 623.355469 437.289062 599.804688 424.4375 569.828125 " fill-opacity="1" fill-rule="nonzero"/></g><path fill="#9bd2e0" d="M 265.851562 498.234375 L 277.164062 188.421875 L 226.160156 194.089844 C 204.785156 196.6875 193.328125 178.332031 202.546875 161.914062 L 235.507812 103.296875 L 252.359375 101.046875 L 260.261719 108.691406 L 247.585938 150.109375 L 267.628906 146.183594 C 275.175781 144.703125 282.839844 143.957031 290.535156 143.957031 L 303.59375 143.957031 L 384.023438 147.3125 C 397.359375 156.84375 402.515625 174.230469 396.539062 189.492188 L 390.214844 205.660156 L 400.144531 310.582031 C 410.160156 331.972656 416.261719 354.988281 418.1875 378.523438 L 427.941406 498.234375 Z M 265.851562 498.234375 " fill-opacity="1" fill-rule="nonzero"/><path fill="#f8becb" d="M 384.050781 147.324219 C 362.675781 166.6875 330.203125 167.035156 308.417969 148.132812 L 303.621094 143.96875 L 314.828125 125.105469 L 310.304688 62.359375 C 317.316406 50.332031 330.550781 42.75 345.050781 43.347656 C 361.519531 44.03125 375.796875 55.117188 380.296875 70.960938 C 382.445312 78.554688 383.976562 88.011719 384.0625 99.582031 L 384.0625 147.324219 Z M 300.960938 93.886719 C 301.074219 93.417969 299.507812 84.15625 298.375 77.671875 C 297.742188 74.042969 294.585938 71.382812 290.90625 71.382812 C 286.804688 71.382812 283.4375 74.652344 283.328125 78.753906 L 282.566406 105 C 282.445312 109.273438 281.1875 113.398438 278.976562 116.980469 L 283.5 116.605469 C 290.472656 116.023438 296.996094 112.925781 301.855469 107.894531 Z M 300.960938 93.886719 " fill-opacity="1" fill-rule="nonzero"/><path fill="#f8f5b3" d="M 270.886719 79.324219 C 269.046875 78.753906 267.058594 79.460938 265.804688 80.914062 C 265.582031 81.175781 265.34375 81.449219 265.09375 81.734375 C 261.589844 85.710938 255.214844 85.25 252.417969 80.753906 C 249.363281 75.808594 246.242188 68.886719 246.527344 61.453125 C 246.605469 59.652344 245.1875 58.035156 243.386719 58.035156 C 241.746094 58.035156 240.441406 59.265625 240.253906 60.832031 C 240.089844 60.820312 239.941406 60.792969 239.769531 60.792969 C 238.277344 60.855469 237.035156 61.9375 236.773438 63.40625 C 236.648438 64.125 236.550781 65.007812 236.488281 66 C 235.792969 65.851562 235.058594 65.789062 233.941406 66.859375 C 233.167969 67.59375 232.671875 68.550781 232.5 69.59375 C 232.238281 71.132812 232.0625 73.097656 232.015625 75.285156 C 231.453125 75.71875 231.042969 76.328125 230.871094 77.0625 C 229.988281 80.765625 230.746094 94.210938 235.519531 103.308594 L 260.273438 108.703125 C 260.273438 108.703125 265.207031 100.75 270.027344 93.417969 C 271.757812 90.792969 273.035156 87.8125 273.90625 85.460938 C 274.824219 82.941406 273.496094 80.144531 270.886719 79.324219 Z M 316.34375 71.308594 C 322.324219 73.78125 329.46875 79.273438 331.71875 80.253906 C 331.890625 80.332031 317.601562 129.320312 317.601562 129.320312 L 309.609375 126 C 300.984375 122.410156 296.25 113.0625 298.488281 103.992188 L 306.191406 72.550781 C 306.402344 71.667969 306.652344 70.8125 306.925781 69.953125 C 306.925781 69.953125 311.175781 69.171875 316.34375 71.308594 Z M 316.34375 71.308594 " fill-opacity="1" fill-rule="nonzero"/><g clip-path="url(#4ffa178708)"><path fill="#f59cbb" d="M 310.304688 62.359375 L 331.71875 80.242188 L 306.925781 69.941406 C 307.785156 67.269531 308.925781 64.734375 310.304688 62.359375 Z M 262.511719 69.382812 C 262.511719 69.417969 262.523438 69.816406 262.410156 70.375 L 251.4375 68.214844 C 250.964844 70.585938 253.363281 87.464844 259.492188 101.765625 C 260.769531 104.761719 264.375 105.992188 267.246094 104.464844 C 269.816406 103.097656 270.886719 99.976562 269.742188 97.292969 C 264.511719 85.054688 262.574219 70.824219 262.511719 69.382812 Z M 211.882812 254.847656 L 190.457031 254.847656 C 164.160156 254.847656 142.835938 276.160156 142.835938 302.46875 L 142.835938 216.285156 C 142.835938 205.609375 134.1875 196.960938 123.511719 196.960938 L 1.015625 196.960938 L 1.015625 550.640625 L 125.761719 550.640625 C 135.191406 550.640625 142.835938 543 142.835938 533.566406 L 142.835938 530.933594 C 142.835938 541.820312 151.660156 550.640625 162.546875 550.640625 L 189.960938 550.640625 C 200.847656 550.640625 209.667969 541.820312 209.667969 530.933594 L 209.667969 350.078125 L 211.882812 350.078125 C 238.179688 350.078125 259.503906 328.765625 259.503906 302.457031 C 259.492188 276.160156 238.179688 254.847656 211.882812 254.847656 Z M 483.976562 349.269531 L 483.976562 557.042969 L 622.394531 557.042969 L 622.394531 349.269531 Z M 483.976562 349.269531 " fill-opacity="1" fill-rule="nonzero"/></g><path fill="#f8becb" d="M 243.035156 58.683594 C 241.855469 58.84375 240.9375 59.8125 240.851562 61.007812 C 240.550781 64.785156 240.253906 72.054688 241.484375 78.304688 C 241.519531 79.398438 240.476562 79.472656 240.265625 78.539062 C 239.046875 72.425781 239.285156 65.394531 239.570312 61.441406 C 238.464844 61.578125 237.582031 62.398438 237.382812 63.515625 C 236.699219 67.367188 236.972656 75.160156 238.601562 81.535156 C 238.863281 82.59375 237.730469 82.964844 237.394531 81.847656 C 236.054688 76.613281 235.628906 70.761719 235.828125 66.546875 C 234.648438 66.511719 233.617188 67.332031 233.34375 68.5 C 232.4375 72.300781 232.25 80.09375 233.492188 86.554688 C 233.65625 87.425781 232.347656 87.453125 232.273438 86.792969 C 230.945312 79.921875 231.207031 72.089844 232.125 68.214844 C 232.535156 66.488281 234.113281 65.269531 235.890625 65.304688 C 235.890625 65.304688 235.902344 65.304688 235.902344 65.304688 C 235.964844 64.574219 236.039062 63.890625 236.152344 63.304688 C 236.464844 61.554688 237.964844 60.246094 239.730469 60.171875 C 240.140625 58.757812 241.359375 57.652344 242.851562 57.453125 C 243.71875 57.277344 243.894531 58.609375 243.035156 58.683594 Z M 307.707031 39.445312 C 304.167969 41.742188 300.699219 43.433594 297.34375 44.640625 C 296.835938 44.515625 296.277344 44.515625 295.742188 44.75 L 292.660156 46.054688 C 287.589844 47.261719 282.867188 47.398438 278.617188 46.9375 L 273.433594 44.75 C 272.414062 44.328125 271.347656 44.613281 270.652344 45.296875 C 264.808594 43.519531 260.558594 40.921875 258.597656 39.582031 L 258.0625 42.054688 C 258.0625 42.054688 257.003906 42.738281 255.390625 44.117188 C 257.761719 45.707031 262.910156 48.753906 269.90625 50.753906 L 269.90625 54.144531 C 269.90625 55.835938 271.519531 57.054688 273.148438 56.59375 L 282.617188 53.886719 C 282.804688 54.035156 283.027344 54.132812 283.289062 54.132812 L 285.898438 54.132812 C 286.160156 54.132812 286.382812 54.035156 286.570312 53.886719 L 296.039062 56.59375 C 297.667969 57.054688 299.28125 55.835938 299.28125 54.144531 L 299.28125 49.882812 C 302.886719 48.601562 306.589844 46.8125 310.355469 44.414062 L 308.242188 41.953125 Z M 278.34375 41.71875 C 279.671875 41.71875 281.003906 41.109375 281.847656 39.964844 L 284.507812 36.398438 L 287.167969 39.964844 C 288.023438 41.109375 289.339844 41.71875 290.671875 41.71875 C 291.578125 41.71875 292.484375 41.445312 293.269531 40.859375 C 293.953125 40.253906 293.230469 39.445312 292.535156 39.867188 C 291.15625 40.886719 289.191406 40.601562 288.171875 39.222656 L 285.476562 35.605469 L 286.941406 32.671875 C 287.242188 32.085938 286.804688 31.390625 286.148438 31.390625 L 283.015625 31.390625 C 282.355469 31.390625 281.933594 32.085938 282.21875 32.671875 L 283.636719 35.503906 L 280.851562 39.234375 C 279.820312 40.613281 277.871094 40.898438 276.492188 39.878906 C 275.90625 39.542969 275.023438 40.191406 275.757812 40.875 C 276.527344 41.445312 277.449219 41.71875 278.34375 41.71875 Z M 306.492188 104.789062 C 306.117188 106.242188 305.035156 107.433594 303.445312 108.144531 C 301.804688 108.875 299.828125 109 297.878906 108.503906 C 297.109375 108.453125 296.984375 109.386719 297.566406 109.707031 C 298.449219 109.933594 299.332031 110.042969 300.203125 110.042969 C 301.519531 110.042969 302.800781 109.78125 303.941406 109.273438 C 305.894531 108.402344 307.222656 106.925781 307.683594 105.085938 C 307.933594 104.390625 306.828125 104.042969 306.492188 104.789062 Z M 264.398438 77.285156 C 264.261719 76.640625 263.132812 76.777344 263.179688 77.535156 C 264.226562 82.714844 266.113281 90.382812 269.171875 97.542969 C 270.203125 99.953125 269.246094 102.699219 266.960938 103.917969 C 265.730469 104.574219 264.261719 104.6875 262.945312 104.214844 C 261.628906 103.757812 260.609375 102.800781 260.0625 101.519531 C 259.691406 100.8125 258.371094 100.933594 258.917969 102.003906 C 259.589844 103.582031 260.90625 104.8125 262.535156 105.382812 C 263.207031 105.621094 263.902344 105.730469 264.609375 105.730469 C 265.628906 105.730469 266.636719 105.484375 267.542969 105 C 270.414062 103.46875 271.605469 100.050781 270.316406 97.046875 C 267.296875 90 265.429688 82.40625 264.398438 77.285156 Z M 142.214844 291.980469 L 142.214844 342.507812 C 142.214844 349.035156 136.90625 354.339844 130.382812 354.339844 L 1.015625 354.339844 C 0.28125 354.339844 0.480469 355.582031 1.015625 355.582031 L 129.726562 355.582031 C 136.609375 355.582031 142.203125 361.175781 142.203125 368.058594 L 142.203125 393.347656 C 142.203125 400.234375 136.609375 405.828125 129.726562 405.828125 L 1.015625 405.828125 C 0.0820312 405.828125 0.429688 407.070312 1.015625 407.070312 L 129.726562 407.070312 C 136.609375 407.070312 142.203125 412.660156 142.203125 419.546875 L 142.203125 556.484375 L 143.445312 556.484375 L 143.445312 291.96875 C 143.457031 290.984375 142.226562 290.453125 142.214844 291.980469 Z M 510.523438 444.6875 L 617.84375 444.6875 C 618.253906 444.6875 618.367188 443.445312 617.84375 443.445312 L 510.523438 443.445312 C 505.625 443.445312 501.648438 439.453125 501.648438 434.570312 L 501.648438 375.40625 C 501.648438 370.507812 505.636719 366.53125 510.523438 366.53125 L 617.84375 366.53125 C 618.367188 366.53125 618.355469 365.289062 617.84375 365.289062 L 510.523438 365.289062 C 504.941406 365.289062 500.40625 369.824219 500.40625 375.40625 L 500.40625 434.570312 C 500.394531 440.152344 504.941406 444.6875 510.523438 444.6875 Z M 617.84375 538.226562 L 510.523438 538.226562 C 505.625 538.226562 501.648438 534.238281 501.648438 529.355469 L 501.648438 470.1875 C 501.648438 465.292969 505.636719 461.316406 510.523438 461.316406 L 617.84375 461.316406 C 618.492188 461.316406 618.265625 460.070312 617.84375 460.070312 L 510.523438 460.070312 C 504.941406 460.070312 500.40625 464.609375 500.40625 470.1875 L 500.40625 529.355469 C 500.40625 534.933594 504.941406 539.46875 510.523438 539.46875 L 617.84375 539.46875 C 618.503906 539.46875 618.789062 538.226562 617.84375 538.226562 Z M 594.878906 396.617188 C 599.488281 396.617188 603.253906 400.371094 603.253906 404.992188 C 603.253906 409.605469 599.5 413.371094 594.878906 413.371094 C 590.269531 413.371094 586.503906 409.617188 586.503906 404.992188 C 586.503906 400.371094 590.257812 396.617188 594.878906 396.617188 Z M 594.878906 397.859375 C 590.953125 397.859375 587.746094 401.054688 587.746094 404.992188 C 587.746094 408.921875 590.941406 412.128906 594.878906 412.128906 C 598.804688 412.128906 602.011719 408.933594 602.011719 404.992188 C 602 401.054688 598.804688 397.859375 594.878906 397.859375 Z M 594.878906 491.402344 C 599.488281 491.402344 603.253906 495.152344 603.253906 499.777344 C 603.253906 504.398438 599.5 508.152344 594.878906 508.152344 C 590.269531 508.152344 586.503906 504.398438 586.503906 499.777344 C 586.503906 495.152344 590.257812 491.402344 594.878906 491.402344 Z M 594.878906 492.644531 C 590.953125 492.644531 587.746094 495.835938 587.746094 499.777344 C 587.746094 503.714844 590.941406 506.910156 594.878906 506.910156 C 598.804688 506.910156 602.011719 503.714844 602.011719 499.777344 C 602.011719 495.835938 598.804688 492.644531 594.878906 492.644531 Z M 594.878906 492.644531 " fill-opacity="1" fill-rule="nonzero"/><g clip-path="url(#95cadeee44)"><g clip-path="url(#0a611ec68d)"><g clip-path="url(#e108ddffb8)"><path fill="#f59cbb" d="M 313.09375 77.933594 C 312.453125 77.933594 311.804688 78.027344 311.167969 78.167969 C 310.941406 78.214844 310.722656 78.285156 310.5 78.351562 C 310.453125 78.363281 310.398438 78.386719 310.351562 78.402344 C 309.960938 78.53125 309.578125 78.695312 309.207031 78.882812 C 308.992188 78.992188 308.773438 79.113281 308.5625 79.242188 C 308.039062 79.5625 307.542969 79.949219 307.101562 80.375 C 306.878906 80.585938 306.667969 80.8125 306.46875 81.046875 C 306.433594 81.082031 306.40625 81.125 306.371094 81.160156 C 306.199219 81.375 306.035156 81.59375 305.878906 81.824219 C 305.875 81.832031 305.875 81.832031 305.867188 81.835938 C 305.511719 82.351562 305.230469 82.917969 305.003906 83.5 C 304.761719 84.128906 304.589844 84.773438 304.488281 85.441406 C 304.300781 86.726562 304.40625 88.039062 304.78125 89.277344 C 304.960938 89.878906 305.21875 90.453125 305.515625 90.996094 C 305.820312 91.550781 306.207031 92.0625 306.613281 92.535156 C 307.039062 93.023438 307.519531 93.441406 308.039062 93.820312 C 308.558594 94.195312 309.109375 94.503906 309.699219 94.757812 C 310.945312 95.289062 312.296875 95.527344 313.648438 95.457031 C 314.96875 95.386719 316.253906 94.992188 317.417969 94.359375 C 318.535156 93.746094 319.5 92.867188 320.25 91.839844 C 321.015625 90.789062 321.535156 89.558594 321.773438 88.269531 C 322.015625 86.980469 321.945312 85.652344 321.605469 84.386719 C 321.441406 83.78125 321.203125 83.203125 320.917969 82.644531 C 320.632812 82.078125 320.269531 81.5625 319.871094 81.074219 C 319.484375 80.605469 319.039062 80.179688 318.5625 79.800781 C 318.050781 79.402344 317.507812 79.058594 316.921875 78.78125 C 316.375 78.523438 315.804688 78.324219 315.21875 78.1875 C 314.53125 78.019531 313.8125 77.933594 313.09375 77.933594 Z M 315.960938 79.496094 C 316.59375 79.75 317.195312 80.074219 317.75 80.472656 C 318.28125 80.875 318.753906 81.332031 319.183594 81.835938 C 319.597656 82.355469 319.941406 82.925781 320.226562 83.527344 C 320.492188 84.128906 320.683594 84.765625 320.800781 85.421875 C 320.90625 86.097656 320.929688 86.789062 320.867188 87.46875 C 320.789062 88.160156 320.628906 88.835938 320.386719 89.480469 C 320.132812 90.113281 319.808594 90.714844 319.410156 91.269531 C 319.007812 91.800781 318.550781 92.28125 318.035156 92.707031 C 317.507812 93.121094 316.945312 93.46875 316.347656 93.742188 C 315.734375 94.007812 315.089844 94.207031 314.433594 94.324219 C 313.757812 94.425781 313.085938 94.445312 312.40625 94.386719 C 311.71875 94.308594 311.046875 94.148438 310.394531 93.902344 C 309.769531 93.652344 309.167969 93.328125 308.621094 92.929688 C 308.082031 92.527344 307.601562 92.070312 307.175781 91.546875 C 306.761719 91.019531 306.417969 90.457031 306.132812 89.847656 C 305.871094 89.238281 305.675781 88.609375 305.5625 87.945312 C 305.457031 87.269531 305.441406 86.589844 305.5 85.90625 C 305.582031 85.214844 305.742188 84.542969 305.980469 83.898438 C 306.222656 83.292969 306.527344 82.722656 306.902344 82.195312 C 306.902344 82.195312 306.902344 82.195312 306.90625 82.1875 C 306.90625 82.1875 306.90625 82.179688 306.90625 82.179688 C 306.921875 82.15625 306.933594 82.136719 306.957031 82.117188 C 307.035156 82.011719 307.109375 81.910156 307.191406 81.820312 C 307.191406 81.820312 307.191406 81.8125 307.191406 81.8125 C 307.195312 81.804688 307.207031 81.796875 307.207031 81.789062 C 307.542969 81.382812 307.917969 81.007812 308.332031 80.667969 C 308.851562 80.261719 309.421875 79.910156 310.019531 79.632812 C 310.042969 79.621094 310.058594 79.617188 310.078125 79.605469 C 310.078125 79.605469 310.085938 79.605469 310.089844 79.597656 C 310.097656 79.601562 310.097656 79.59375 310.109375 79.59375 C 310.667969 79.359375 311.253906 79.183594 311.855469 79.070312 C 311.863281 79.070312 311.871094 79.066406 311.878906 79.066406 C 311.878906 79.066406 311.886719 79.070312 311.890625 79.0625 C 311.898438 79.0625 311.898438 79.054688 311.910156 79.054688 C 311.917969 79.058594 311.925781 79.050781 311.925781 79.050781 C 311.953125 79.050781 311.980469 79.046875 312.007812 79.039062 C 312.65625 78.945312 313.3125 78.929688 313.964844 78.984375 C 314.644531 79.09375 315.316406 79.253906 315.960938 79.496094 Z M 315.960938 79.496094 " fill-opacity="1" fill-rule="nonzero"/></g></g></g><g clip-path="url(#50cc807858)"><g clip-path="url(#63f66cf763)"><g clip-path="url(#73a54f974c)"><path fill="#f59cbb" d="M 302.285156 80.601562 C 302.007812 80.554688 301.714844 80.527344 301.429688 80.535156 C 301.324219 80.535156 301.230469 80.539062 301.125 80.546875 C 300.855469 80.566406 300.574219 80.628906 300.316406 80.707031 C 300.203125 80.738281 300.09375 80.78125 299.988281 80.824219 C 299.988281 80.824219 299.976562 80.828125 299.976562 80.828125 C 299.96875 80.835938 299.957031 80.84375 299.9375 80.847656 C 299.84375 80.890625 299.746094 80.929688 299.648438 80.984375 C 299.300781 81.148438 298.996094 81.375 298.707031 81.625 C 298.519531 81.792969 298.347656 81.976562 298.195312 82.179688 C 298.195312 82.179688 298.195312 82.1875 298.1875 82.183594 C 298.1875 82.183594 298.183594 82.191406 298.183594 82.191406 C 298.183594 82.199219 298.171875 82.207031 298.171875 82.207031 C 298.140625 82.242188 298.113281 82.277344 298.09375 82.316406 C 298.09375 82.324219 298.085938 82.324219 298.082031 82.332031 C 298.003906 82.441406 298.007812 82.613281 298.039062 82.730469 C 298.078125 82.859375 298.171875 82.96875 298.28125 83.039062 C 298.402344 83.101562 298.554688 83.121094 298.683594 83.082031 C 298.722656 83.066406 298.761719 83.042969 298.808594 83.027344 C 298.878906 82.976562 298.945312 82.921875 298.988281 82.847656 C 299.148438 82.636719 299.332031 82.449219 299.535156 82.277344 C 299.746094 82.113281 299.980469 81.96875 300.21875 81.855469 C 300.46875 81.753906 300.726562 81.679688 300.988281 81.621094 C 301.261719 81.582031 301.53125 81.570312 301.808594 81.59375 C 302.09375 81.628906 302.359375 81.691406 302.628906 81.789062 C 302.785156 81.855469 302.9375 81.933594 303.078125 82.019531 C 303.085938 82.019531 303.085938 82.019531 303.09375 82.023438 C 303.09375 82.023438 303.105469 82.023438 303.105469 82.023438 C 303.1875 82.070312 303.277344 82.125 303.355469 82.1875 C 303.574219 82.351562 303.769531 82.542969 303.941406 82.75 C 303.953125 82.769531 303.976562 82.789062 303.988281 82.808594 C 304.128906 83.007812 304.253906 83.207031 304.355469 83.421875 C 304.441406 83.632812 304.515625 83.855469 304.566406 84.074219 C 304.566406 84.074219 304.566406 84.082031 304.574219 84.082031 C 304.582031 84.117188 304.589844 84.15625 304.597656 84.199219 C 304.621094 84.386719 304.640625 84.5625 304.636719 84.75 C 304.640625 84.84375 304.636719 84.9375 304.628906 85.039062 C 304.617188 85.113281 304.609375 85.195312 304.589844 85.269531 C 304.589844 85.269531 304.589844 85.277344 304.589844 85.277344 C 304.585938 85.285156 304.585938 85.292969 304.582031 85.300781 C 304.582031 85.300781 304.582031 85.308594 304.582031 85.308594 C 304.578125 85.316406 304.578125 85.328125 304.574219 85.335938 C 304.574219 85.335938 304.574219 85.34375 304.574219 85.34375 C 304.570312 85.351562 304.570312 85.359375 304.566406 85.367188 C 304.566406 85.367188 304.566406 85.375 304.566406 85.375 C 304.5625 85.382812 304.5625 85.390625 304.558594 85.398438 C 304.558594 85.398438 304.558594 85.398438 304.558594 85.40625 C 304.554688 85.414062 304.554688 85.421875 304.550781 85.441406 C 304.546875 85.449219 304.542969 85.464844 304.542969 85.472656 C 304.476562 85.75 304.65625 86.039062 304.929688 86.105469 C 305.207031 86.171875 305.488281 86 305.5625 85.71875 C 305.65625 85.328125 305.703125 84.917969 305.679688 84.511719 C 305.679688 84.511719 305.683594 84.503906 305.683594 84.503906 C 305.679688 84.414062 305.675781 84.320312 305.660156 84.230469 C 305.636719 84.046875 305.605469 83.859375 305.554688 83.683594 C 305.519531 83.546875 305.476562 83.398438 305.421875 83.265625 C 305.34375 83.058594 305.246094 82.847656 305.128906 82.65625 C 305.117188 82.636719 305.109375 82.605469 305.09375 82.585938 C 305.058594 82.527344 305.019531 82.464844 304.976562 82.402344 C 304.851562 82.210938 304.707031 82.03125 304.546875 81.863281 C 304.445312 81.753906 304.34375 81.652344 304.226562 81.5625 C 304.175781 81.519531 304.125 81.480469 304.066406 81.441406 C 304.042969 81.425781 304.023438 81.40625 304 81.390625 C 303.8125 81.25 303.609375 81.125 303.398438 81.015625 C 303.328125 80.980469 303.257812 80.945312 303.183594 80.910156 C 303.019531 80.839844 302.84375 80.777344 302.667969 80.726562 C 302.660156 80.726562 302.644531 80.722656 302.636719 80.71875 C 302.585938 80.707031 302.53125 80.695312 302.480469 80.683594 C 302.417969 80.625 302.355469 80.609375 302.285156 80.601562 Z M 302.285156 80.601562 " fill-opacity="1" fill-rule="nonzero"/></g></g></g></svg>