<svg xmlns="http://www.w3.org/2000/svg" xmlns:xlink="http://www.w3.org/1999/xlink" width="831" zoomAndPan="magnify" viewBox="0 0 623.25 623.249999" height="831" preserveAspectRatio="xMidYMid meet" version="1.0"><defs><clipPath id="d1b6929593"><path d="M 0 0 L 622.5 0 L 622.5 622.5 L 0 622.5 Z M 0 0 " clip-rule="nonzero"/></clipPath><clipPath id="80d5747f4a"><path d="M 31 0 L 622.5 0 L 622.5 571 L 31 571 Z M 31 0 " clip-rule="nonzero"/></clipPath><clipPath id="eef87cd58d"><path d="M 0 396 L 622.5 396 L 622.5 622.5 L 0 622.5 Z M 0 396 " clip-rule="nonzero"/></clipPath><clipPath id="5424d4d499"><path d="M 312 32 L 425 32 L 425 155 L 312 155 Z M 312 32 " clip-rule="nonzero"/></clipPath><clipPath id="b764249347"><path d="M 332.003906 14.046875 L 444.136719 49.511719 L 408.21875 163.074219 L 296.085938 127.609375 Z M 332.003906 14.046875 " clip-rule="nonzero"/></clipPath><clipPath id="f6b6945de5"><path d="M 332.003906 14.046875 L 444.136719 49.511719 L 408.21875 163.074219 L 296.085938 127.609375 Z M 332.003906 14.046875 " clip-rule="nonzero"/></clipPath><clipPath id="2b84fba69a"><path d="M 318 38 L 415 38 L 415 104 L 318 104 Z M 318 38 " clip-rule="nonzero"/></clipPath><clipPath id="319d83df4d"><path d="M 332.003906 14.046875 L 444.136719 49.511719 L 408.21875 163.074219 L 296.085938 127.609375 Z M 332.003906 14.046875 " clip-rule="nonzero"/></clipPath><clipPath id="434afee93f"><path d="M 332.003906 14.046875 L 444.136719 49.511719 L 408.21875 163.074219 L 296.085938 127.609375 Z M 332.003906 14.046875 " clip-rule="nonzero"/></clipPath><clipPath id="5d8a204c10"><path d="M 362 84 L 385 84 L 385 107 L 362 107 Z M 362 84 " clip-rule="nonzero"/></clipPath><clipPath id="3fc39e5a76"><path d="M 365.964844 82.078125 L 415.691406 96.183594 L 409.355469 118.523438 L 359.628906 104.417969 Z M 365.964844 82.078125 " clip-rule="nonzero"/></clipPath><clipPath id="5cf54586a7"><path d="M 365.964844 82.078125 L 415.691406 96.183594 L 409.355469 118.523438 L 359.628906 104.417969 Z M 365.964844 82.078125 " clip-rule="nonzero"/></clipPath><clipPath id="c02fd96751"><path d="M 390 93 L 414 93 L 414 116 L 390 116 Z M 390 93 " clip-rule="nonzero"/></clipPath><clipPath id="12bdb9c325"><path d="M 365.964844 82.078125 L 415.691406 96.183594 L 409.355469 118.523438 L 359.628906 104.417969 Z M 365.964844 82.078125 " clip-rule="nonzero"/></clipPath><clipPath id="de86852cd7"><path d="M 365.964844 82.078125 L 415.691406 96.183594 L 409.355469 118.523438 L 359.628906 104.417969 Z M 365.964844 82.078125 " clip-rule="nonzero"/></clipPath><clipPath id="7327ada320"><path d="M 383 96 L 393 96 L 393 104 L 383 104 Z M 383 96 " clip-rule="nonzero"/></clipPath><clipPath id="0a249f10b1"><path d="M 365.964844 82.078125 L 415.691406 96.183594 L 409.355469 118.523438 L 359.628906 104.417969 Z M 365.964844 82.078125 " clip-rule="nonzero"/></clipPath><clipPath id="13d69ab743"><path d="M 365.964844 82.078125 L 415.691406 96.183594 L 409.355469 118.523438 L 359.628906 104.417969 Z M 365.964844 82.078125 " clip-rule="nonzero"/></clipPath></defs><g clip-path="url(#d1b6929593)"><path fill="#ffffff" d="M 0 0 L 622.5 0 L 622.5 622.5 L 0 622.5 Z M 0 0 " fill-opacity="1" fill-rule="nonzero"/><path fill="#ffffff" d="M 0 0 L 622.5 0 L 622.5 622.5 L 0 622.5 Z M 0 0 " fill-opacity="1" fill-rule="nonzero"/></g><g clip-path="url(#80d5747f4a)"><path fill="#fafafa" d="M 622.5 506.503906 L 478.007812 570.632812 L 42.46875 538.5625 L 31.972656 53.449219 L 229.191406 0.0234375 L 622.5 0.0234375 Z M 622.5 506.503906 " fill-opacity="1" fill-rule="nonzero"/></g><g clip-path="url(#eef87cd58d)"><path fill="#9bd2e0" d="M 622.5 403.269531 L 622.5 622.527344 L 0 622.527344 L 0 506.503906 L 506.15625 506.503906 C 513.265625 474.371094 484.132812 438.414062 484.132812 438.414062 C 525.203125 436.085938 558.121094 483.320312 558.121094 483.320312 C 565.117188 454.375 548.011719 396.011719 548.011719 396.011719 C 583.496094 418.632812 591.550781 470.285156 591.550781 470.285156 C 599.257812 440.269531 612.03125 417.859375 622.5 403.269531 Z M 622.5 403.269531 " fill-opacity="1" fill-rule="nonzero"/></g><path fill="#f59cbb" d="M 178.757812 396.023438 L 178.757812 557.460938 C 178.757812 564.746094 172.855469 570.648438 165.574219 570.648438 L 135.144531 570.648438 C 127.863281 570.648438 121.960938 564.746094 121.960938 557.460938 L 121.960938 396.023438 L 133.898438 396.023438 L 133.898438 550.128906 C 133.898438 553.949219 136.988281 557.039062 140.808594 557.039062 L 159.882812 557.039062 C 163.707031 557.039062 166.792969 553.949219 166.792969 550.128906 L 166.792969 396.023438 Z M 544.089844 396.023438 L 544.089844 550.128906 C 544.089844 553.949219 541.003906 557.039062 537.179688 557.039062 L 518.109375 557.039062 C 514.285156 557.039062 511.199219 553.949219 511.199219 550.128906 L 511.199219 396.023438 L 499.246094 396.023438 L 499.246094 557.460938 C 499.246094 564.746094 505.148438 570.648438 512.429688 570.648438 L 542.859375 570.648438 C 550.140625 570.648438 556.042969 564.746094 556.042969 557.460938 L 556.042969 396.023438 Z M 544.089844 396.023438 " fill-opacity="1" fill-rule="nonzero"/><path fill="#9bd2e0" d="M 72.695312 512.355469 L 0 538.5625 L 0 0.0234375 L 229.191406 0.0234375 C 239.910156 24.089844 232.863281 53.660156 209.917969 69.84375 C 204.925781 101.257812 177.835938 124.375 146.039062 124.375 L 138.617188 124.375 C 129.257812 153.496094 103.644531 174.386719 73.242188 177.699219 L 56.945312 179.480469 L 97.65625 520.871094 Z M 501.425781 373.402344 L 501.425781 331.121094 L 506.34375 324.707031 L 501.425781 319.179688 L 501.425781 228.171875 L 121.960938 228.171875 L 121.960938 319.179688 L 130.054688 327.734375 L 121.960938 331.121094 L 121.960938 401.550781 L 556.03125 401.550781 L 556.03125 373.386719 L 550.640625 367.476562 L 544.089844 373.386719 L 501.425781 373.386719 Z M 501.425781 373.402344 " fill-opacity="1" fill-rule="nonzero"/><path fill="#f59cbb" d="M 400.566406 265.261719 L 501.425781 265.261719 L 501.425781 264.015625 L 401.675781 264.015625 L 439.359375 221.796875 L 429.664062 194.816406 C 430.484375 194.929688 431.355469 194.792969 432.152344 194.382812 C 434.207031 193.300781 435.003906 190.757812 433.933594 188.703125 L 434.417969 178.882812 L 421.621094 165.160156 C 420.910156 163.804688 419.566406 163.007812 418.132812 162.921875 C 413.789062 152.351562 406.09375 143.472656 396.222656 137.648438 L 389.898438 133.925781 L 336.101562 124.773438 L 327.683594 124.0625 C 309.222656 122.507812 290.933594 128.695312 277.210938 141.144531 L 238.019531 176.691406 C 238.019531 176.691406 242.773438 233.75 245.351562 235.253906 C 246.546875 235.953125 268.984375 249.597656 292.699219 264.027344 L 121.960938 264.027344 L 121.960938 265.273438 L 294.730469 265.273438 C 301.851562 269.605469 309.023438 273.976562 315.734375 278.058594 L 277.4375 300.507812 L 121.960938 300.507812 L 121.960938 301.75 L 275.320312 301.75 L 245.578125 319.179688 L 266.46875 336.984375 L 121.960938 336.984375 L 121.960938 338.230469 L 267.925781 338.230469 L 310.800781 374.757812 L 121.960938 374.757812 L 121.960938 376.003906 L 349.347656 376.003906 L 350.058594 506.515625 L 361.808594 506.515625 L 375.316406 516.8125 L 440.769531 506.515625 L 469.949219 506.515625 L 487.121094 372.28125 C 488.699219 359.90625 485.4375 347.867188 478.664062 338.242188 L 501.425781 338.242188 L 501.425781 336.996094 L 477.769531 336.996094 C 472.042969 329.378906 464.050781 323.414062 454.476562 320.191406 L 399.621094 301.761719 L 501.425781 301.761719 L 501.425781 300.519531 L 395.910156 300.519531 L 390.035156 298.539062 L 390.84375 276.167969 Z M 399.199219 186.027344 L 405.296875 182.839844 C 407.402344 181.746094 408.210938 179.144531 407.117188 177.050781 C 406.019531 174.949219 406.828125 172.359375 408.933594 171.261719 L 413.976562 168.625 C 414.039062 168.773438 414.074219 168.921875 414.148438 169.058594 L 426.464844 192.613281 C 426.539062 192.75 426.636719 192.875 426.722656 193 L 421.683594 195.640625 C 419.578125 196.734375 416.988281 195.925781 415.894531 193.820312 C 414.796875 191.71875 412.195312 190.910156 410.105469 192.003906 L 404.003906 195.191406 C 401.476562 196.511719 398.351562 195.539062 397.019531 193 C 395.699219 190.472656 396.671875 187.347656 399.199219 186.027344 Z M 337.457031 374.746094 L 349.324219 370.660156 L 349.347656 374.746094 Z M 487.121094 372.777344 L 501.425781 372.777344 L 501.425781 374.023438 L 487.121094 374.023438 Z M 487.121094 372.777344 " fill-opacity="1" fill-rule="nonzero"/><path fill="#14090f" d="M 361.882812 124.386719 C 361.882812 124.386719 338.402344 109.324219 337.484375 108.578125 C 327.496094 97.199219 324.324219 81.347656 329.179688 67.007812 L 330.597656 62.796875 C 339 41.433594 362.742188 30.503906 384.445312 37.984375 C 406.257812 45.515625 418.183594 68.972656 411.421875 91.035156 L 409.53125 97.210938 Z M 485.375 153.410156 L 480.097656 143.3125 C 478.03125 139.367188 473.164062 137.847656 469.214844 139.902344 L 421.394531 164.738281 L 434.144531 189.117188 L 481.964844 164.277344 C 485.910156 162.222656 487.429688 157.34375 485.375 153.410156 Z M 485.375 153.410156 " fill-opacity="1" fill-rule="nonzero"/><path fill="#fafafa" d="M 505.234375 571.382812 L 345.910156 571.382812 C 340.359375 547.550781 361.808594 514.957031 361.808594 506.492188 L 418.820312 506.492188 L 418.195312 506.417969 L 435.363281 372.179688 C 438.253906 349.621094 424.695312 327.996094 403.144531 320.761719 L 362.542969 311.3125 L 362.832031 310.105469 L 403.492188 319.566406 C 425.667969 327.011719 439.574219 349.199219 436.609375 372.34375 L 419.441406 506.503906 L 440.753906 506.503906 C 441.800781 517.984375 450.105469 527.457031 461.335938 530.058594 C 466.015625 531.144531 471.34375 532.585938 477.011719 534.503906 C 496.183594 540.964844 510.675781 549.457031 505.234375 571.382812 Z M 505.234375 571.382812 " fill-opacity="1" fill-rule="nonzero"/><path fill="#f8becb" d="M 337.484375 108.578125 C 343.074219 108.851562 347.941406 104.804688 348.699219 99.25 L 349.570312 92.902344 C 345.863281 89.441406 344.253906 84.039062 345.847656 78.882812 C 346.660156 76.367188 349.023438 74.539062 351.8125 74.539062 C 354.402344 74.539062 356.628906 76.121094 357.578125 78.359375 C 369.777344 83.839844 384.144531 79.902344 391.875 68.996094 L 395.625 63.71875 C 407.898438 69.917969 413.828125 84.136719 409.542969 97.210938 C 406.855469 105.390625 403.355469 114.652344 399.097656 123.09375 C 394.578125 132.019531 384.71875 136.851562 374.917969 135.007812 C 374.980469 139.191406 370.140625 138.691406 371.097656 146.164062 C 367.910156 150.160156 362.992188 152.761719 357.402344 152.761719 C 349.621094 152.761719 342.785156 147.632812 340.59375 140.175781 L 336.089844 124.761719 Z M 470.285156 197.53125 C 464.261719 213.007812 445.089844 241.902344 431.242188 261.824219 C 422.242188 274.773438 405.984375 280.585938 390.855469 276.140625 C 390.820312 276.128906 390.78125 276.117188 390.78125 276.117188 L 392.550781 219.417969 L 416.066406 216.40625 L 431.59375 206.507812 L 430.90625 204.714844 C 428.902344 199.488281 429.363281 193.523438 432.5 188.878906 C 435.128906 184.996094 437.21875 178.90625 434.828125 170.242188 C 434.320312 168.375 435.128906 166.40625 436.773438 165.386719 C 437.78125 164.761719 438.925781 164.613281 439.996094 164.839844 C 439.648438 164.128906 439.261719 163.40625 438.8125 162.671875 C 437.816406 161.015625 438.066406 158.898438 439.375 157.480469 C 441.140625 155.5625 444.191406 155.574219 445.898438 157.542969 C 445.972656 157.628906 446.046875 157.730469 446.121094 157.816406 C 445.886719 156.496094 446.257812 155.089844 447.21875 154.070312 C 448.984375 152.152344 452.035156 152.164062 453.742188 154.132812 C 454.113281 154.554688 454.5 155.027344 454.886719 155.539062 C 456.679688 154.316406 459.167969 154.554688 460.652344 156.261719 C 463.515625 159.558594 467.3125 165.300781 468.65625 173.628906 C 470.808594 187.0625 470.285156 197.53125 470.285156 197.53125 Z M 470.285156 197.53125 " fill-opacity="1" fill-rule="nonzero"/><path fill="#14090f" d="M 453.144531 226.953125 C 448.773438 229.890625 441.640625 234.632812 434.195312 239.351562 C 431.332031 241.167969 426.574219 244.890625 420.972656 249.511719 L 415.757812 248.253906 L 414.972656 254.539062 C 406.382812 261.8125 396.84375 270.203125 389.398438 276.8125 C 382.339844 283.089844 371.308594 281.59375 366.230469 273.625 C 365.332031 272.21875 364.773438 271.234375 364.808594 271.035156 L 360.203125 292.25 C 360.203125 292.25 354.277344 297.503906 358.285156 301.078125 L 349.335938 342.339844 C 349.210938 342.898438 349.148438 343.457031 349.125 344.007812 L 347.640625 347.28125 L 350.28125 349.621094 C 351.652344 352.3125 354.128906 354.425781 357.277344 355.238281 C 362.34375 356.542969 366.167969 360.714844 367.050781 365.867188 C 367.847656 370.523438 368.582031 375.367188 368.246094 375.367188 C 367.574219 375.367188 335.328125 375.367188 335.664062 375.367188 C 335.839844 375.367188 331.183594 358.273438 327.0625 341.726562 L 318.71875 338.441406 C 314.859375 342.574219 306.507812 349.398438 306.507812 349.398438 L 305.910156 349.632812 C 312.347656 352.085938 317.488281 357.339844 319.703125 364.125 C 321.507812 369.679688 317.375 375.367188 311.535156 375.367188 C 289.785156 375.367188 257.09375 375.367188 229.753906 375.367188 L 211.425781 368.496094 L 206.273438 375.367188 C 190.621094 375.367188 180.015625 375.367188 180.015625 375.367188 C 146.511719 375.367188 116.40625 360.640625 95.789062 337.308594 C 97.808594 329.726562 91.035156 331.554688 91.035156 331.554688 C 76.355469 312.570312 67.617188 288.765625 67.617188 262.96875 C 67.617188 257.765625 67.976562 252.609375 68.6875 247.53125 C 75.933594 241.070312 69.792969 240.933594 69.792969 240.933594 C 71.984375 229.914062 75.808594 219.292969 81.199219 209.382812 C 83.988281 204.253906 90.648438 202.699219 95.492188 205.972656 C 99.722656 208.824219 101.132812 214.425781 98.703125 218.910156 C 91.382812 232.378906 87.5625 247.445312 87.5625 262.96875 C 87.5625 270.253906 88.40625 277.324219 90.011719 284.121094 C 90 285.253906 87.199219 288.007812 91.742188 290.433594 C 98.605469 312.421875 113.46875 330.898438 132.902344 342.460938 L 133.875 345.648438 L 137.660156 345.128906 C 140.621094 346.660156 143.660156 348.039062 146.796875 349.246094 C 148.128906 320.675781 161.027344 294.566406 181.320312 275.855469 L 201.539062 276.886719 L 201.019531 261.402344 C 208.761719 256.945312 217.140625 253.371094 226.003906 250.878906 C 245.714844 245.339844 263.667969 235.34375 278.617188 221.871094 L 290.308594 220.589844 C 290.308594 220.589844 290.160156 212.210938 289.574219 210.765625 C 294.855469 204.753906 299.609375 198.230469 303.753906 191.269531 L 319.742188 165.261719 L 317.339844 158.351562 C 315.808594 153.957031 319.28125 149.425781 323.925781 149.761719 L 335.664062 150.609375 C 339.363281 148.890625 343.371094 147.792969 347.53125 147.421875 C 357.960938 146.5 368.269531 150.210938 375.714844 157.59375 L 379.066406 160.917969 C 379.066406 160.917969 387.269531 162.097656 394.390625 163.046875 L 405.460938 171.375 L 405.820312 174.425781 C 406.480469 180.050781 403.816406 185.566406 398.984375 188.53125 L 392.3125 192.226562 C 393.160156 192.589844 403.941406 196.484375 403.941406 196.484375 L 402.035156 203.507812 C 401.027344 207.230469 397.40625 209.632812 393.582031 209.085938 C 386.363281 208.066406 379.078125 210.40625 373.8125 215.449219 L 364.835938 224.027344 C 367.164062 229.21875 368.582031 234.71875 369.082031 240.308594 L 370.875 240.785156 C 372.667969 241.257812 374.484375 241.59375 376.300781 241.792969 L 380.347656 246.375 L 384.394531 241.828125 C 389.785156 241.28125 395.050781 239.574219 399.808594 236.761719 C 406.816406 232.605469 415.132812 227.375 421.484375 222.46875 C 423.535156 220.875 425.679688 219.429688 427.832031 218.113281 L 432.898438 218.933594 L 433.796875 214.761719 C 435.875 213.691406 437.90625 212.746094 439.808594 211.910156 C 446.234375 209.121094 453.652344 212.410156 455.871094 219.058594 C 456.816406 221.984375 455.71875 225.222656 453.144531 226.953125 Z M 453.144531 226.953125 " fill-opacity="1" fill-rule="nonzero"/><path fill="#f8becb" d="M 329.515625 311.164062 L 324.523438 305.347656 C 322.40625 308.511719 321.285156 312.210938 321.222656 315.992188 C 321.199219 317.699219 325.46875 318.660156 325.890625 320.351562 C 326.164062 321.484375 322.394531 323.4375 322.703125 324.707031 C 323.972656 329.824219 325.492188 335.953125 327.035156 342.164062 C 279.441406 322.742188 239.390625 275.34375 218.199219 246.25 C 207.441406 231.484375 207.816406 211.289062 219.269531 197.070312 C 224.425781 190.671875 230.6875 183.625 238.007812 176.679688 L 273.652344 216.183594 L 266.667969 222.84375 L 311.0625 290.359375 L 317.949219 291.355469 C 324.261719 292.277344 329.714844 296.222656 332.566406 301.925781 L 335.265625 307.339844 C 336.011719 308.824219 335.601562 310.628906 334.28125 311.648438 C 332.828125 312.792969 330.722656 312.582031 329.515625 311.164062 Z M 329.515625 311.164062 " fill-opacity="1" fill-rule="nonzero"/><path fill="#f59cbb" d="M 91.035156 331.554688 L 105.886719 324.957031 L 95.804688 337.308594 C 94.148438 335.441406 92.554688 333.523438 91.035156 331.554688 Z M 200.992188 261.386719 C 193.859375 265.484375 187.261719 270.339844 181.296875 275.84375 L 225.542969 306.257812 Z M 278.59375 221.859375 L 308.386719 238.15625 L 289.550781 210.753906 C 286.113281 214.675781 282.453125 218.386719 278.59375 221.859375 Z M 69.78125 240.921875 C 69.347656 243.097656 68.984375 245.300781 68.675781 247.519531 L 82.878906 247.382812 Z M 337.769531 348.113281 L 350.28125 349.621094 C 349.410156 347.914062 348.988281 345.984375 349.109375 344.007812 Z M 365.941406 265.722656 L 368.097656 255.796875 C 368.621094 253.371094 368.957031 250.917969 369.128906 248.464844 L 333.546875 244.292969 Z M 358.273438 301.066406 L 360.191406 292.238281 L 340.71875 292.636719 Z M 206.273438 375.367188 C 213.257812 375.367188 221.25 375.367188 229.753906 375.367188 L 195.914062 338.390625 Z M 89.976562 284.121094 L 77.390625 289.738281 L 91.707031 290.433594 C 91.058594 288.355469 90.488281 286.25 89.976562 284.121094 Z M 130.066406 353.964844 L 137.636719 345.113281 C 136.015625 344.28125 134.433594 343.382812 132.878906 342.460938 Z M 321.261719 315.992188 C 321.234375 317.699219 321.398438 319.417969 321.820312 321.097656 C 322.09375 322.21875 322.40625 323.4375 322.71875 324.695312 L 339.300781 323.390625 Z M 339.625 195.214844 C 339.636719 195.253906 339.699219 195.390625 339.8125 195.613281 C 345.226562 206.59375 358.5 211.140625 369.566406 205.898438 L 371.085938 205.175781 L 369.179688 205.351562 C 358.324219 206.335938 347.566406 202.648438 339.625 195.214844 Z M 350.167969 184.496094 C 350.167969 184.523438 350.230469 184.632812 350.320312 184.820312 C 354.613281 193.546875 365.171875 197.160156 373.960938 192.988281 L 375.167969 192.414062 L 373.664062 192.550781 C 365.023438 193.335938 356.480469 190.410156 350.167969 184.496094 Z M 401.113281 163.867188 C 399.285156 163.667969 396.894531 163.355469 394.367188 163.03125 C 395.898438 167.75 400.242188 171.1875 405.433594 171.363281 L 405.011719 167.738281 C 404.773438 165.699219 403.15625 164.089844 401.113281 163.867188 Z M 450.527344 152.027344 C 450.503906 152.027344 450.480469 152.027344 450.453125 152.027344 C 449.046875 152.027344 447.703125 152.613281 446.742188 153.65625 C 446.035156 154.429688 445.609375 155.375 445.472656 156.371094 C 444.664062 155.800781 443.695312 155.464844 442.671875 155.449219 C 441.242188 155.425781 439.859375 156.023438 438.886719 157.082031 L 439.796875 157.929688 C 440.53125 157.132812 441.566406 156.671875 442.648438 156.707031 C 443.71875 156.722656 444.703125 157.179688 445.398438 157.976562 C 445.4375 158.015625 445.472656 158.078125 445.511719 158.113281 C 445.625 158.636719 445.808594 159.136719 446.097656 159.609375 L 446.519531 159.347656 C 449.148438 162.734375 452.097656 167.925781 453.242188 175.023438 L 454.476562 174.824219 C 453.167969 166.71875 449.59375 161.039062 446.683594 157.578125 C 446.53125 156.496094 446.855469 155.351562 447.640625 154.503906 C 448.375 153.707031 449.382812 153.257812 450.492188 153.285156 C 451.5625 153.296875 452.546875 153.757812 453.242188 154.554688 C 456.105469 157.839844 459.777344 163.46875 461.097656 171.609375 L 462.332031 171.410156 C 460.972656 162.984375 457.152344 157.15625 454.1875 153.746094 C 453.28125 152.675781 451.949219 152.050781 450.527344 152.027344 Z M 440.519531 164.316406 C 439.148438 163.90625 437.65625 164.105469 436.433594 164.863281 L 437.09375 165.921875 C 438.015625 165.347656 439.136719 165.199219 440.171875 165.511719 C 441.203125 165.820312 442.023438 166.519531 442.472656 167.476562 C 443.84375 170.378906 445.511719 175.085938 445.648438 181.074219 L 446.894531 181.046875 C 446.742188 174.835938 445.011719 169.957031 443.59375 166.953125 C 442.996094 165.671875 441.863281 164.714844 440.519531 164.316406 Z M 546.121094 319.167969 L 501.089844 319.167969 L 501.089844 331.109375 L 540.628906 331.109375 C 542.535156 331.109375 544.089844 332.652344 544.089844 334.570312 L 544.089844 373.386719 L 556.03125 373.386719 L 556.03125 329.078125 C 556.042969 323.613281 551.597656 319.167969 546.121094 319.167969 Z M 166.992188 319.167969 L 121.960938 319.167969 L 121.960938 331.109375 L 161.5 331.109375 C 163.40625 331.109375 164.960938 332.652344 164.960938 334.570312 L 164.960938 375.355469 L 176.902344 375.355469 L 176.902344 329.078125 C 176.914062 323.613281 172.46875 319.167969 166.992188 319.167969 Z M 341.191406 185.492188 C 342.101562 185.492188 343.023438 185.429688 343.945312 185.304688 C 344.777344 185.195312 345.015625 185.121094 345.175781 185.007812 L 344.554688 183.9375 C 344.542969 183.9375 344.390625 183.988281 343.78125 184.074219 C 334.46875 185.320312 325.417969 179.703125 322.292969 170.726562 L 320.3125 165.039062 L 319.132812 165.449219 L 321.109375 171.136719 C 324.125 179.789062 332.304688 185.492188 341.191406 185.492188 Z M 306.257812 348.8125 L 306.496094 349.398438 L 306.46875 349.410156 L 306.058594 348.972656 C 305.5625 349.445312 299.335938 353.742188 297.816406 354.441406 C 293.808594 350.441406 288.429688 347.914062 282.476562 347.542969 L 279.628906 347.367188 L 279.351562 345.773438 C 273.976562 315.097656 252.574219 289.511719 223.527344 278.992188 C 220.304688 277.820312 219.992188 277.960938 219.71875 278.070312 L 220.078125 278.917969 L 220.089844 279.253906 C 220.167969 279.265625 220.664062 279.292969 223.105469 280.175781 C 251.738281 290.546875 272.828125 315.769531 278.132812 346 L 278.359375 347.292969 L 242.015625 345.027344 L 241.941406 346.273438 L 282.417969 348.789062 C 291.714844 349.359375 299.585938 355.460938 302.460938 364.324219 C 303.257812 366.777344 302.847656 369.378906 301.328125 371.472656 C 299.808594 373.5625 297.46875 374.757812 294.878906 374.757812 L 294.878906 376.003906 C 297.867188 376.003906 300.582031 374.621094 302.324219 372.207031 C 304.078125 369.789062 304.550781 366.777344 303.632812 363.953125 C 302.574219 360.703125 300.867188 357.800781 298.6875 355.386719 C 300.953125 354.242188 305.449219 350.953125 306.71875 349.984375 C 306.929688 349.820312 307.054688 349.722656 307.066406 349.707031 L 306.980469 348.988281 Z M 371.085938 146.164062 C 372.839844 143.960938 374.085938 141.320312 374.609375 138.457031 L 374.90625 134.996094 C 374.734375 134.957031 374.546875 134.921875 374.371094 134.882812 C 371.382812 134.25 368.632812 133.027344 366.242188 131.371094 C 365.46875 130.835938 364.5 131.648438 364.886719 132.503906 Z M 376.277344 241.765625 L 382.777344 258.398438 L 384.371094 241.792969 C 381.679688 242.078125 378.964844 242.078125 376.277344 241.765625 Z M 427.796875 218.085938 L 437.941406 228.867188 L 433.769531 214.738281 C 431.804688 215.746094 429.800781 216.867188 427.796875 218.085938 Z M 420.972656 249.511719 L 409.429688 238.15625 L 414.972656 254.539062 C 417.039062 252.785156 419.054688 251.09375 420.972656 249.511719 Z M 415.582031 506.605469 L 414.347656 506.40625 C 412.65625 516.75 417.3125 525.242188 422.230469 534.21875 C 427.582031 543.980469 433.648438 555.046875 432.652344 570.597656 L 433.894531 570.671875 C 434.917969 554.746094 428.753906 543.519531 423.324219 533.609375 C 418.296875 524.445312 413.964844 516.527344 415.582031 506.605469 Z M 415.582031 506.605469 " fill-opacity="1" fill-rule="nonzero"/><g clip-path="url(#5424d4d499)"><g clip-path="url(#b764249347)"><g clip-path="url(#f6b6945de5)"><path fill="#14090f" d="M 391.035156 64.625 C 391.035156 64.625 380.171875 54.585938 371.042969 62.449219 C 361.917969 70.3125 363.652344 83.824219 357.972656 92.78125 C 353.46875 99.882812 341.898438 101.609375 339.792969 113.277344 C 338.761719 118.984375 343.84375 122.863281 343.480469 129.511719 C 343.207031 134.539062 336.03125 140.601562 330.3125 135.578125 C 330.3125 135.578125 336.15625 137.425781 336.460938 131.382812 C 336.816406 124.289062 322.375 123.714844 321.417969 107.339844 C 316.695312 104.265625 312.210938 95.625 312.097656 88.167969 C 311.933594 77.683594 323.9375 70.726562 323.9375 70.726562 C 323.9375 70.726562 323.652344 64.628906 328.84375 55.207031 C 334.039062 45.78125 346.582031 38.34375 357.222656 34.789062 C 373.394531 29.382812 380.070312 34.03125 384.910156 38.722656 C 384.910156 38.722656 391.675781 32.929688 403.050781 40.953125 C 414.425781 48.980469 423 68.128906 424.628906 80.976562 C 426.171875 93.125 416.574219 96.453125 418.960938 102.898438 C 421.351562 109.347656 423.359375 115.988281 419.105469 124.445312 C 414.847656 132.902344 405.996094 132.535156 403.6875 139.203125 C 402.289062 143.246094 407.726562 146.761719 403.09375 152.167969 C 399.40625 156.46875 392.671875 154.03125 392.671875 154.03125 C 392.671875 154.03125 400.601562 154.957031 398.484375 147.648438 C 396.371094 140.339844 392 139.269531 393.210938 133.332031 C 394.363281 127.6875 405.105469 125.710938 405.304688 120.082031 C 405.503906 114.453125 399.121094 108.640625 402.578125 97.71875 C 406.03125 86.792969 409.304688 81.617188 408.335938 75.507812 C 407.175781 68.183594 401.484375 62.085938 391.035156 64.625 Z M 391.035156 64.625 " fill-opacity="1" fill-rule="nonzero"/></g></g></g><g clip-path="url(#2b84fba69a)"><g clip-path="url(#319d83df4d)"><g clip-path="url(#434afee93f)"><path fill="#14090f" d="M 349.910156 74.828125 C 347.953125 80.550781 342.703125 84.050781 337.492188 86.523438 C 334.160156 88.109375 330.558594 89.433594 327.890625 92.082031 C 325.015625 94.941406 323.347656 99.035156 323.136719 103.058594 C 323.125 103.253906 322.828125 103.289062 322.792969 103.089844 C 322.136719 99.488281 322.796875 95.917969 324.828125 92.835938 C 326.785156 89.859375 329.914062 87.964844 333.050781 86.449219 C 336.023438 85.011719 339.074219 83.695312 341.871094 81.925781 C 344.992188 79.953125 346.640625 77.25 348.539062 74.183594 C 348.996094 73.449219 350.1875 74.019531 349.910156 74.828125 Z M 390.675781 52.761719 C 390.320312 51.335938 389.894531 49.929688 389.375 48.554688 C 388.820312 47.105469 388.085938 45.808594 387.390625 44.429688 C 387.214844 44.074219 386.722656 44.355469 386.859375 44.707031 C 387.375 46.046875 387.703125 47.503906 388.078125 48.894531 C 388.457031 50.292969 388.808594 51.699219 389.082031 53.121094 C 389.34375 54.503906 389.582031 55.898438 389.75 57.292969 C 389.917969 58.726562 389.953125 60.175781 390.371094 61.5625 C 390.511719 62.039062 391.277344 62.167969 391.417969 61.605469 C 391.773438 60.175781 391.644531 58.746094 391.476562 57.292969 C 391.300781 55.769531 391.050781 54.253906 390.675781 52.761719 Z M 322.542969 85.226562 C 325.0625 81.859375 329.175781 80.945312 332.425781 78.582031 C 332.898438 78.238281 332.433594 77.523438 331.929688 77.628906 C 329.714844 78.085938 327.597656 79.28125 325.710938 80.503906 C 323.972656 81.632812 322.324219 82.976562 321.179688 84.730469 C 320.082031 86.398438 319.328125 88.382812 318.984375 90.347656 C 318.601562 92.511719 318.910156 94.566406 319.414062 96.683594 C 319.453125 96.859375 319.707031 96.796875 319.683594 96.621094 C 319.132812 92.683594 320.140625 88.4375 322.542969 85.226562 Z M 365.359375 48.667969 C 362.804688 50.0625 360.507812 52.011719 358.542969 54.148438 C 356.789062 56.050781 355.042969 58.292969 354.683594 60.933594 C 354.609375 61.480469 355.46875 61.75 355.726562 61.265625 C 358.019531 56.894531 361.679688 52.914062 365.945312 50.40625 C 368.382812 48.976562 371.289062 48.289062 374.109375 48.421875 C 377.007812 48.5625 379.511719 49.765625 382.195312 50.714844 C 382.394531 50.785156 382.585938 50.507812 382.425781 50.359375 C 377.882812 46.050781 370.742188 45.726562 365.359375 48.667969 Z M 413.582031 60.539062 C 412.734375 59.113281 411.546875 57.835938 410.367188 56.679688 C 407.757812 54.113281 404.160156 51.726562 400.367188 51.742188 C 398.117188 51.753906 396.101562 52.742188 394.476562 54.25 C 394.144531 54.554688 394.59375 55.035156 394.941406 54.761719 C 402.363281 48.910156 409.460938 58.066406 413.613281 63.417969 C 413.832031 63.695312 414.355469 63.585938 414.4375 63.238281 C 414.640625 62.328125 414.027344 61.285156 413.582031 60.539062 Z M 357.710938 45.820312 C 359.808594 44.242188 361.855469 42.621094 364.316406 41.640625 C 366.257812 40.863281 368.382812 40.460938 370.46875 40.453125 C 373.683594 40.445312 376.9375 41.410156 379.671875 43.097656 C 379.949219 43.269531 380.210938 42.921875 380.027344 42.679688 C 377.90625 39.847656 373.65625 38.960938 370.304688 38.921875 C 365.304688 38.859375 359.890625 41.019531 356.835938 45.078125 C 356.417969 45.636719 357.222656 46.191406 357.710938 45.820312 Z M 357.710938 45.820312 " fill-opacity="1" fill-rule="nonzero"/></g></g></g><g clip-path="url(#5d8a204c10)"><g clip-path="url(#3fc39e5a76)"><g clip-path="url(#5cf54586a7)"><path fill="#f59cba" d="M 375.480469 84.878906 C 375.167969 84.824219 374.847656 84.789062 374.523438 84.761719 C 374.417969 84.753906 374.300781 84.742188 374.191406 84.734375 C 374.011719 84.714844 373.824219 84.714844 373.636719 84.71875 C 373.007812 84.714844 372.363281 84.777344 371.742188 84.875 C 371.730469 84.882812 371.71875 84.878906 371.695312 84.882812 C 371.5 84.914062 371.3125 84.953125 371.125 84.996094 C 370.417969 85.160156 369.730469 85.40625 369.078125 85.691406 C 368.585938 85.90625 368.117188 86.167969 367.664062 86.449219 C 367.59375 86.492188 367.515625 86.539062 367.449219 86.585938 C 367.011719 86.878906 366.59375 87.199219 366.207031 87.550781 C 365.898438 87.816406 365.617188 88.113281 365.34375 88.417969 C 365.101562 88.691406 364.878906 88.96875 364.664062 89.261719 C 364.515625 89.472656 364.367188 89.683594 364.230469 89.898438 C 363.796875 90.578125 363.457031 91.308594 363.175781 92.0625 C 363.097656 92.261719 363.042969 92.457031 362.976562 92.65625 C 362.96875 92.675781 362.96875 92.6875 362.960938 92.707031 C 362.769531 93.347656 362.648438 94.003906 362.570312 94.664062 C 362.539062 94.886719 362.527344 95.125 362.519531 95.355469 C 362.5 95.722656 362.507812 96.089844 362.523438 96.457031 C 362.53125 96.589844 362.546875 96.726562 362.554688 96.859375 C 362.578125 97.078125 362.605469 97.304688 362.632812 97.511719 C 362.640625 97.566406 362.644531 97.625 362.660156 97.683594 C 362.726562 98.078125 362.8125 98.476562 362.921875 98.859375 C 362.949219 98.953125 362.980469 99.039062 363 99.132812 C 363.183594 99.726562 363.417969 100.296875 363.691406 100.839844 C 363.925781 101.300781 364.1875 101.738281 364.472656 102.160156 C 364.632812 102.402344 364.8125 102.628906 365 102.859375 C 365.082031 102.960938 365.164062 103.058594 365.253906 103.164062 C 365.4375 103.378906 365.632812 103.578125 365.839844 103.78125 C 365.839844 103.78125 365.851562 103.78125 365.847656 103.792969 C 366.242188 104.179688 366.660156 104.53125 367.109375 104.855469 C 367.738281 105.320312 368.421875 105.699219 369.144531 106.015625 C 369.917969 106.355469 370.707031 106.601562 371.53125 106.757812 C 372.386719 106.925781 373.25 106.984375 374.117188 106.953125 C 375.753906 106.890625 377.355469 106.441406 378.804688 105.683594 C 379.523438 105.316406 380.1875 104.84375 380.804688 104.335938 C 381.449219 103.804688 382.011719 103.183594 382.515625 102.523438 C 383.023438 101.863281 383.4375 101.132812 383.777344 100.371094 C 384.121094 99.578125 384.386719 98.761719 384.550781 97.90625 C 384.859375 96.277344 384.800781 94.585938 384.375 92.980469 C 384.195312 92.226562 383.898438 91.480469 383.539062 90.773438 C 383.179688 90.066406 382.734375 89.414062 382.242188 88.789062 C 381.769531 88.203125 381.230469 87.664062 380.636719 87.1875 C 380.019531 86.695312 379.363281 86.253906 378.648438 85.898438 C 378.0625 85.601562 377.457031 85.363281 376.828125 85.171875 C 376.808594 85.167969 376.789062 85.160156 376.757812 85.152344 C 376.738281 85.148438 376.726562 85.144531 376.707031 85.140625 C 376.308594 85.035156 375.902344 84.945312 375.480469 84.878906 Z M 377.542969 86.851562 C 378.332031 87.207031 379.078125 87.648438 379.75 88.179688 C 380.414062 88.722656 381 89.328125 381.507812 90.011719 C 382 90.691406 382.410156 91.421875 382.726562 92.195312 C 383.042969 92.988281 383.25 93.808594 383.363281 94.652344 C 383.457031 95.515625 383.453125 96.386719 383.328125 97.25 C 383.195312 98.117188 382.953125 98.960938 382.613281 99.777344 C 382.257812 100.566406 381.804688 101.308594 381.269531 101.992188 C 380.734375 102.644531 380.125 103.230469 379.453125 103.734375 C 378.777344 104.226562 378.042969 104.632812 377.273438 104.953125 C 376.480469 105.257812 375.660156 105.476562 374.824219 105.589844 C 373.960938 105.6875 373.09375 105.683594 372.226562 105.558594 C 371.359375 105.421875 370.527344 105.1875 369.71875 104.847656 C 368.976562 104.515625 368.28125 104.097656 367.628906 103.605469 C 367.582031 103.570312 367.539062 103.535156 367.503906 103.503906 C 367.351562 103.382812 367.199219 103.253906 367.0625 103.113281 C 367.054688 103.101562 367.046875 103.097656 367.039062 103.085938 C 367.027344 103.082031 367.03125 103.074219 367.019531 103.070312 C 367.011719 103.066406 367.015625 103.054688 367.003906 103.054688 C 366.550781 102.628906 366.132812 102.167969 365.757812 101.664062 C 365.402344 101.167969 365.089844 100.652344 364.824219 100.101562 C 364.824219 100.101562 364.824219 100.101562 364.828125 100.09375 C 364.820312 100.078125 364.820312 100.078125 364.8125 100.066406 C 364.804688 100.054688 364.804688 100.054688 364.800781 100.039062 C 364.800781 100.039062 364.800781 100.03125 364.792969 100.027344 C 364.699219 99.847656 364.621094 99.660156 364.542969 99.472656 C 364.25 98.71875 364.042969 97.933594 363.917969 97.128906 C 363.917969 97.128906 363.921875 97.117188 363.921875 97.117188 C 363.921875 97.117188 363.925781 97.105469 363.914062 97.105469 C 363.910156 97.082031 363.910156 97.046875 363.90625 97.023438 C 363.890625 96.921875 363.882812 96.832031 363.878906 96.730469 C 363.878906 96.71875 363.875 96.707031 363.875 96.695312 C 363.875 96.695312 363.875 96.695312 363.878906 96.6875 C 363.820312 96 363.835938 95.320312 363.910156 94.636719 C 363.910156 94.636719 363.914062 94.628906 363.914062 94.628906 C 363.914062 94.617188 363.917969 94.605469 363.917969 94.605469 C 363.921875 94.597656 363.921875 94.597656 363.925781 94.585938 C 363.925781 94.585938 363.925781 94.578125 363.925781 94.578125 C 363.929688 94.53125 363.941406 94.480469 363.945312 94.4375 C 364.082031 93.5625 364.324219 92.71875 364.660156 91.914062 C 364.859375 91.484375 365.078125 91.0625 365.320312 90.667969 C 365.324219 90.660156 365.339844 90.652344 365.339844 90.640625 C 365.34375 90.632812 365.347656 90.621094 365.355469 90.625 C 365.355469 90.625 365.359375 90.613281 365.359375 90.613281 C 365.558594 90.308594 365.761719 90.011719 365.984375 89.722656 C 366.523438 89.074219 367.128906 88.484375 367.8125 87.976562 C 368.039062 87.808594 368.265625 87.664062 368.507812 87.511719 C 368.519531 87.503906 368.523438 87.496094 368.53125 87.496094 C 368.53125 87.496094 368.535156 87.488281 368.546875 87.488281 C 368.558594 87.484375 368.558594 87.484375 368.570312 87.476562 C 368.570312 87.476562 368.585938 87.46875 368.585938 87.46875 C 368.585938 87.46875 368.597656 87.460938 368.597656 87.460938 C 368.609375 87.453125 368.609375 87.453125 368.625 87.445312 C 368.625 87.445312 368.636719 87.4375 368.636719 87.4375 C 368.652344 87.429688 368.652344 87.429688 368.664062 87.425781 C 368.664062 87.425781 368.664062 87.425781 368.675781 87.417969 C 368.691406 87.410156 368.703125 87.402344 368.703125 87.402344 C 369.097656 87.171875 369.507812 86.96875 369.921875 86.789062 C 369.933594 86.785156 369.949219 86.777344 369.957031 86.777344 C 369.972656 86.773438 369.980469 86.773438 369.996094 86.765625 C 370.785156 86.464844 371.605469 86.246094 372.441406 86.128906 C 372.542969 86.125 372.636719 86.109375 372.734375 86.101562 C 372.746094 86.105469 372.746094 86.105469 372.757812 86.097656 C 372.769531 86.101562 372.769531 86.101562 372.78125 86.09375 C 373.414062 86.042969 374.039062 86.054688 374.660156 86.109375 C 374.660156 86.109375 374.671875 86.113281 374.671875 86.113281 C 374.671875 86.113281 374.671875 86.113281 374.679688 86.117188 C 374.796875 86.125 374.90625 86.136719 375.019531 86.15625 C 375.148438 86.171875 375.285156 86.199219 375.410156 86.222656 C 376.136719 86.339844 376.855469 86.554688 377.542969 86.851562 Z M 381.246094 102.03125 C 381.230469 102.050781 381.230469 102.058594 381.214844 102.078125 C 381.230469 102.058594 381.246094 102.042969 381.246094 102.03125 Z M 381.246094 102.03125 " fill-opacity="1" fill-rule="nonzero"/></g></g></g><g clip-path="url(#c02fd96751)"><g clip-path="url(#12bdb9c325)"><g clip-path="url(#de86852cd7)"><path fill="#f59cba" d="M 402.417969 93.390625 C 401.601562 93.355469 400.777344 93.441406 399.964844 93.585938 C 399.675781 93.632812 399.390625 93.707031 399.105469 93.78125 C 399.046875 93.796875 398.972656 93.820312 398.914062 93.835938 C 398.410156 93.980469 397.917969 94.167969 397.4375 94.386719 C 397.15625 94.515625 396.875 94.65625 396.601562 94.808594 C 395.921875 95.1875 395.273438 95.652344 394.6875 96.167969 C 394.390625 96.429688 394.117188 96.703125 393.847656 96.988281 C 393.804688 97.03125 393.765625 97.085938 393.71875 97.128906 C 393.492188 97.394531 393.273438 97.660156 393.058594 97.941406 C 393.058594 97.953125 393.058594 97.953125 393.042969 97.960938 C 392.566406 98.59375 392.179688 99.300781 391.863281 100.023438 C 391.519531 100.808594 391.269531 101.617188 391.105469 102.460938 C 390.800781 104.082031 390.867188 105.75 391.273438 107.339844 C 391.472656 108.113281 391.769531 108.855469 392.121094 109.5625 C 392.476562 110.277344 392.9375 110.949219 393.429688 111.574219 C 393.941406 112.214844 394.535156 112.765625 395.171875 113.277344 C 395.808594 113.777344 396.492188 114.203125 397.230469 114.554688 C 398.78125 115.292969 400.480469 115.664062 402.203125 115.644531 C 403.878906 115.625 405.535156 115.191406 407.042969 114.453125 C 408.488281 113.730469 409.757812 112.671875 410.765625 111.40625 C 411.792969 110.113281 412.515625 108.578125 412.886719 106.957031 C 413.261719 105.335938 413.242188 103.644531 412.878906 102.023438 C 412.703125 101.246094 412.429688 100.5 412.097656 99.777344 C 411.765625 99.042969 411.328125 98.371094 410.851562 97.726562 C 410.386719 97.113281 409.839844 96.550781 409.257812 96.042969 C 408.628906 95.511719 407.957031 95.046875 407.230469 94.664062 C 406.550781 94.308594 405.835938 94.027344 405.101562 93.820312 C 404.238281 93.574219 403.332031 93.429688 402.417969 93.390625 Z M 405.972656 95.519531 C 406.765625 95.875 407.507812 96.316406 408.191406 96.855469 C 408.84375 97.390625 409.421875 97.996094 409.9375 98.65625 C 410.4375 99.339844 410.84375 100.082031 411.171875 100.855469 C 411.480469 101.636719 411.6875 102.457031 411.804688 103.292969 C 411.898438 104.15625 411.890625 105.035156 411.78125 105.894531 C 411.644531 106.769531 411.402344 107.613281 411.0625 108.417969 C 410.707031 109.210938 410.265625 109.953125 409.730469 110.640625 C 409.195312 111.289062 408.585938 111.878906 407.914062 112.390625 C 407.222656 112.886719 406.488281 113.296875 405.714844 113.617188 C 404.925781 113.921875 404.09375 114.136719 403.257812 114.25 C 402.394531 114.347656 401.539062 114.335938 400.679688 114.222656 C 399.816406 114.089844 398.96875 113.847656 398.152344 113.507812 C 397.375 113.152344 396.628906 112.710938 395.957031 112.179688 C 395.292969 111.640625 394.707031 111.03125 394.195312 110.347656 C 393.699219 109.65625 393.289062 108.925781 392.964844 108.140625 C 392.660156 107.347656 392.449219 106.539062 392.335938 105.695312 C 392.242188 104.832031 392.253906 103.964844 392.367188 103.105469 C 392.503906 102.230469 392.742188 101.386719 393.082031 100.578125 C 393.417969 99.828125 393.835938 99.121094 394.339844 98.472656 C 394.339844 98.472656 394.339844 98.472656 394.34375 98.460938 C 394.34375 98.460938 394.347656 98.449219 394.347656 98.449219 C 394.367188 98.421875 394.382812 98.394531 394.414062 98.371094 C 394.515625 98.246094 394.617188 98.121094 394.726562 98.007812 C 394.726562 98.007812 394.730469 97.996094 394.730469 97.996094 C 394.730469 97.988281 394.746094 97.980469 394.746094 97.96875 C 395.195312 97.46875 395.6875 97.015625 396.234375 96.609375 C 396.914062 96.117188 397.65625 95.703125 398.429688 95.382812 C 398.457031 95.367188 398.480469 95.363281 398.507812 95.347656 C 398.507812 95.347656 398.515625 95.351562 398.519531 95.34375 C 398.527344 95.34375 398.53125 95.335938 398.542969 95.335938 C 399.265625 95.070312 400.015625 94.875 400.785156 94.761719 C 400.796875 94.765625 400.808594 94.757812 400.820312 94.761719 C 400.820312 94.761719 400.828125 94.765625 400.832031 94.753906 C 400.84375 94.757812 400.84375 94.746094 400.855469 94.75 C 400.863281 94.753906 400.878906 94.746094 400.878906 94.746094 C 400.910156 94.746094 400.945312 94.742188 400.980469 94.730469 C 401.808594 94.648438 402.640625 94.664062 403.46875 94.765625 C 404.324219 94.941406 405.167969 95.179688 405.972656 95.519531 Z M 405.972656 95.519531 " fill-opacity="1" fill-rule="nonzero"/></g></g></g><g clip-path="url(#7327ada320)"><g clip-path="url(#0a249f10b1)"><g clip-path="url(#13d69ab743)"><path fill="#f59cba" d="M 388.566406 96.207031 C 388.214844 96.128906 387.84375 96.078125 387.484375 96.074219 C 387.351562 96.070312 387.230469 96.070312 387.097656 96.074219 C 386.753906 96.085938 386.394531 96.152344 386.0625 96.234375 C 385.917969 96.269531 385.773438 96.316406 385.640625 96.367188 C 385.640625 96.367188 385.625 96.375 385.625 96.375 C 385.613281 96.378906 385.601562 96.386719 385.578125 96.390625 C 385.453125 96.445312 385.328125 96.488281 385.203125 96.550781 C 384.75 96.742188 384.355469 97.015625 383.972656 97.3125 C 383.726562 97.519531 383.5 97.738281 383.296875 97.992188 C 383.296875 97.992188 383.292969 98 383.285156 97.996094 C 383.285156 97.996094 383.28125 98.007812 383.28125 98.007812 C 383.277344 98.019531 383.265625 98.027344 383.265625 98.027344 C 383.21875 98.066406 383.183594 98.113281 383.160156 98.160156 C 383.15625 98.171875 383.148438 98.167969 383.144531 98.179688 C 383.039062 98.3125 383.03125 98.53125 383.066406 98.683594 C 383.109375 98.851562 383.222656 98.992188 383.359375 99.085938 C 383.511719 99.175781 383.699219 99.207031 383.867188 99.164062 C 383.914062 99.144531 383.96875 99.117188 384.027344 99.101562 C 384.121094 99.039062 384.207031 98.976562 384.265625 98.882812 C 384.480469 98.625 384.722656 98.394531 384.992188 98.183594 C 385.265625 97.988281 385.566406 97.820312 385.878906 97.6875 C 386.199219 97.570312 386.53125 97.488281 386.867188 97.429688 C 387.21875 97.398438 387.558594 97.394531 387.910156 97.4375 C 388.269531 97.496094 388.605469 97.59375 388.9375 97.730469 C 389.132812 97.820312 389.324219 97.929688 389.5 98.042969 C 389.507812 98.046875 389.507812 98.046875 389.519531 98.050781 C 389.519531 98.050781 389.53125 98.054688 389.53125 98.054688 C 389.632812 98.113281 389.742188 98.191406 389.839844 98.273438 C 390.109375 98.492188 390.34375 98.746094 390.554688 99.015625 C 390.570312 99.042969 390.59375 99.070312 390.609375 99.097656 C 390.777344 99.351562 390.925781 99.613281 391.042969 99.890625 C 391.144531 100.160156 391.226562 100.449219 391.28125 100.726562 C 391.28125 100.726562 391.277344 100.738281 391.289062 100.742188 C 391.296875 100.789062 391.304688 100.835938 391.3125 100.890625 C 391.332031 101.128906 391.34375 101.351562 391.332031 101.589844 C 391.332031 101.710938 391.320312 101.828125 391.304688 101.957031 C 391.289062 102.050781 391.269531 102.15625 391.246094 102.25 C 391.246094 102.25 391.242188 102.257812 391.242188 102.257812 C 391.238281 102.269531 391.234375 102.277344 391.234375 102.289062 C 391.234375 102.289062 391.230469 102.300781 391.230469 102.300781 C 391.226562 102.308594 391.226562 102.320312 391.222656 102.328125 C 391.222656 102.328125 391.21875 102.339844 391.21875 102.339844 C 391.214844 102.351562 391.214844 102.359375 391.210938 102.371094 C 391.210938 102.371094 391.207031 102.378906 391.207031 102.378906 C 391.203125 102.390625 391.203125 102.402344 391.199219 102.410156 C 391.199219 102.410156 391.199219 102.410156 391.195312 102.421875 C 391.191406 102.429688 391.191406 102.441406 391.183594 102.460938 C 391.179688 102.472656 391.175781 102.492188 391.171875 102.503906 C 391.074219 102.847656 391.285156 103.226562 391.632812 103.328125 C 391.980469 103.425781 392.34375 103.21875 392.457031 102.867188 C 392.59375 102.378906 392.675781 101.863281 392.667969 101.34375 C 392.667969 101.34375 392.671875 101.332031 392.671875 101.332031 C 392.667969 101.222656 392.671875 101.101562 392.660156 100.988281 C 392.636719 100.75 392.605469 100.511719 392.550781 100.285156 C 392.511719 100.109375 392.464844 99.921875 392.40625 99.75 C 392.316406 99.480469 392.207031 99.207031 392.066406 98.960938 C 392.054688 98.933594 392.042969 98.898438 392.027344 98.871094 C 391.984375 98.792969 391.9375 98.714844 391.886719 98.632812 C 391.738281 98.382812 391.5625 98.144531 391.371094 97.925781 C 391.246094 97.78125 391.121094 97.644531 390.976562 97.527344 C 390.917969 97.46875 390.855469 97.417969 390.78125 97.363281 C 390.753906 97.34375 390.730469 97.316406 390.703125 97.296875 C 390.46875 97.109375 390.21875 96.9375 389.953125 96.785156 C 389.867188 96.742188 389.78125 96.695312 389.6875 96.644531 C 389.484375 96.542969 389.265625 96.460938 389.046875 96.386719 C 389.035156 96.382812 389.015625 96.378906 389.003906 96.375 C 388.941406 96.355469 388.871094 96.335938 388.8125 96.320312 C 388.734375 96.242188 388.652344 96.21875 388.566406 96.207031 Z M 388.566406 96.207031 " fill-opacity="1" fill-rule="nonzero"/></g></g></g></svg>