<svg xmlns="http://www.w3.org/2000/svg" xmlns:xlink="http://www.w3.org/1999/xlink" width="831" zoomAndPan="magnify" viewBox="0 0 623.25 623.249999" height="831" preserveAspectRatio="xMidYMid meet" version="1.0"><defs><clipPath id="211e35df0c"><path d="M 0 0 L 622.5 0 L 622.5 622.5 L 0 622.5 Z M 0 0 " clip-rule="nonzero"/></clipPath><clipPath id="080980866e"><path d="M 0 0 L 622.5 0 L 622.5 550 L 0 550 Z M 0 0 " clip-rule="nonzero"/></clipPath><clipPath id="589ee2ce1f"><path d="M 0 319 L 622.5 319 L 622.5 622.5 L 0 622.5 Z M 0 319 " clip-rule="nonzero"/></clipPath><clipPath id="dcec4a053a"><path d="M 0 112 L 622.5 112 L 622.5 535 L 0 535 Z M 0 112 " clip-rule="nonzero"/></clipPath><clipPath id="2ccb9d1453"><path d="M 2 346 L 622.5 346 L 622.5 492 L 2 492 Z M 2 346 " clip-rule="nonzero"/></clipPath><clipPath id="ad4214bf51"><path d="M 400 304 L 403 304 L 403 322 L 400 322 Z M 400 304 " clip-rule="nonzero"/></clipPath><clipPath id="ba6ddd20eb"><path d="M 400.320312 302.785156 L 423.734375 297.65625 L 427.742188 315.949219 L 404.328125 321.078125 Z M 400.320312 302.785156 " clip-rule="nonzero"/></clipPath><clipPath id="fe43bbe014"><path d="M 382.691406 306.644531 L 423.667969 297.671875 L 427.675781 315.964844 L 386.695312 324.9375 Z M 382.691406 306.644531 " clip-rule="nonzero"/></clipPath><clipPath id="8b9974557a"><path d="M 408 299 L 427 299 L 427 318 L 408 318 Z M 408 299 " clip-rule="nonzero"/></clipPath><clipPath id="4a408baef6"><path d="M 400.320312 302.785156 L 423.734375 297.65625 L 427.742188 315.949219 L 404.328125 321.078125 Z M 400.320312 302.785156 " clip-rule="nonzero"/></clipPath><clipPath id="f01ed06de5"><path d="M 382.691406 306.644531 L 423.667969 297.671875 L 427.675781 315.964844 L 386.695312 324.9375 Z M 382.691406 306.644531 " clip-rule="nonzero"/></clipPath><clipPath id="ff15549bac"><path d="M 401 307 L 410 307 L 410 313 L 401 313 Z M 401 307 " clip-rule="nonzero"/></clipPath><clipPath id="eb69e457aa"><path d="M 400.320312 302.785156 L 423.734375 297.65625 L 427.742188 315.949219 L 404.328125 321.078125 Z M 400.320312 302.785156 " clip-rule="nonzero"/></clipPath><clipPath id="03665aa5ad"><path d="M 382.691406 306.644531 L 423.667969 297.671875 L 427.675781 315.964844 L 386.695312 324.9375 Z M 382.691406 306.644531 " clip-rule="nonzero"/></clipPath></defs><g clip-path="url(#211e35df0c)"><path fill="#ffffff" d="M 0 0 L 622.5 0 L 622.5 622.5 L 0 622.5 Z M 0 0 " fill-opacity="1" fill-rule="nonzero"/><path fill="#ffffff" d="M 0 0 L 622.5 0 L 622.5 622.5 L 0 622.5 Z M 0 0 " fill-opacity="1" fill-rule="nonzero"/></g><g clip-path="url(#080980866e)"><path fill="#f2f2f2" d="M 645.917969 0 L 645.917969 490.003906 L 563.269531 549.753906 L -115.832031 490.003906 L -115.832031 0 Z M 645.917969 0 " fill-opacity="1" fill-rule="nonzero"/></g><g clip-path="url(#589ee2ce1f)"><path fill="#9bd2e0" d="M 645.917969 490.003906 L 645.917969 622.5625 L -115.832031 622.5625 L -115.832031 490.003906 L 533.742188 490.003906 L 533.742188 388.859375 L 532.128906 388.859375 C 512.960938 388.859375 497.421875 373.316406 497.421875 354.152344 C 497.421875 334.988281 512.960938 319.445312 532.128906 319.445312 L 547.742188 319.445312 C 566.910156 319.445312 582.449219 334.988281 582.449219 354.152344 L 582.449219 490.003906 Z M 645.917969 490.003906 " fill-opacity="1" fill-rule="nonzero"/></g><path fill="#f59cbb" d="M 271.792969 572.4375 L 265.042969 528.898438 C 265.042969 528.898438 289.191406 488.203125 303.269531 497.179688 C 317.34375 506.152344 323.667969 530.222656 323.667969 530.222656 C 323.667969 530.222656 318.304688 569.910156 317.46875 571.128906 C 316.628906 572.347656 287.425781 581.078125 287.300781 581.519531 Z M 201.972656 51.660156 L 201.972656 0 L 213.167969 0 L 213.167969 51.660156 L 356.742188 51.660156 L 356.742188 0 L 56.660156 0 L 56.660156 51.660156 Z M 201.972656 62.859375 L 56.675781 62.859375 L 56.675781 139.765625 C 56.675781 156.921875 70.585938 170.828125 87.738281 170.828125 L 201.972656 170.828125 Z M 213.152344 62.859375 L 213.152344 170.828125 L 325.664062 170.828125 C 342.820312 170.828125 356.726562 156.921875 356.726562 139.765625 L 356.726562 62.859375 Z M 213.152344 62.859375 " fill-opacity="1" fill-rule="nonzero"/><path fill="#14090f" d="M 483.300781 607.480469 L 360.308594 607.480469 C 348.652344 607.480469 337.53125 602.664062 329.535156 594.195312 L 325.480469 592.246094 C 294.25 575.195312 293.089844 530.769531 323.394531 512.125 L 354.335938 493.078125 L 397.9375 498.625 C 396.445312 475.589844 401.929688 452.644531 413.660156 432.765625 L 415.125 430.296875 C 408.9375 420.148438 408.449219 407.535156 413.859375 396.945312 C 417.789062 389.253906 422.40625 380.171875 426.289062 372.386719 C 409.699219 363.675781 395.242188 351.226562 384.152344 335.855469 L 357.824219 299.398438 C 357.824219 299.398438 368.429688 269.339844 367.589844 268.652344 C 366.738281 267.96875 391.480469 265.820312 391.480469 265.820312 L 437.320312 311.769531 L 446.035156 341.980469 C 453.121094 335.292969 461.515625 328.753906 464.925781 330.402344 C 490.246094 341.234375 508.667969 363.78125 514.226562 390.746094 L 536.988281 501.003906 C 546.007812 544.648438 523.765625 588.769531 483.300781 607.480469 Z M 483.300781 607.480469 " fill-opacity="1" fill-rule="nonzero"/><path fill="#f8becb" d="M 362.378906 233.6875 C 349.964844 220.710938 340.183594 212.480469 333.191406 207.363281 C 326.074219 202.152344 316.964844 200.539062 308.480469 202.929688 L 301.5 204.894531 C 299.703125 205.398438 298.453125 206.96875 298.285156 208.765625 L 293.730469 208.839844 C 291.507812 208.886719 289.585938 210.394531 289.023438 212.542969 C 288.535156 214.371094 289.128906 216.261719 290.488281 217.507812 C 288.917969 218.605469 287.941406 220.511719 288.308594 222.765625 C 288.550781 224.226562 289.480469 225.492188 290.730469 226.269531 L 290.851562 226.347656 C 289.984375 227.472656 289.496094 228.921875 289.90625 230.6875 C 290.257812 232.164062 291.25 233.414062 292.542969 234.191406 L 294.492188 235.378906 C 293.882812 236.324219 293.5625 237.484375 293.808594 238.808594 C 294.082031 240.300781 295.070312 241.582031 296.367188 242.375 L 303.464844 246.714844 C 309.363281 250.324219 316.84375 250.171875 322.585938 246.304688 L 357.808594 299.382812 L 391.464844 265.804688 C 391.480469 265.820312 375.695312 248.621094 362.378906 233.6875 Z M 362.378906 233.6875 " fill-opacity="1" fill-rule="nonzero"/><g clip-path="url(#dcec4a053a)"><path fill="#9bd2e0" d="M 645.917969 277.277344 L 645.917969 534.992188 L 603.382812 534.992188 C 591.820312 534.992188 582.449219 525.621094 582.449219 514.058594 L 582.449219 300.96875 C 582.449219 287.878906 593.054688 277.277344 606.140625 277.277344 Z M 199.472656 284.496094 C 197.523438 275.113281 185.578125 272.1875 179.5 279.59375 L 148.496094 317.40625 C 132.714844 311.691406 115.695312 308.570312 97.929688 308.570312 C 78.566406 308.570312 60.074219 312.285156 43.117188 319.019531 L 10.789062 279.59375 C 4.707031 272.1875 -7.234375 275.128906 -9.183594 284.496094 C -14.746094 311.265625 -23.675781 354.609375 -28.457031 379.136719 C -42.429688 401.777344 -50.503906 428.4375 -50.503906 456.988281 C -50.503906 468.339844 -49.191406 479.382812 -46.769531 490.003906 L 215.484375 530.695312 L 242.585938 490.003906 C 244.996094 479.382812 246.320312 468.339844 246.320312 456.988281 C 246.320312 423.457031 235.199219 392.527344 216.445312 367.679688 C 211.492188 342.664062 204.242188 307.472656 199.472656 284.496094 Z M 315.425781 227.960938 C 315.472656 228.21875 315.503906 228.480469 315.503906 228.753906 C 315.503906 231.054688 313.839844 232.988281 311.617188 233.398438 C 313.019531 234.132812 313.992188 235.59375 313.992188 237.285156 C 313.992188 237.621094 313.949219 237.953125 313.871094 238.273438 L 342.222656 293.714844 C 342.984375 295.207031 344.8125 295.800781 346.308594 295.039062 C 347.800781 294.277344 348.394531 292.449219 347.632812 290.957031 Z M 339.558594 150.476562 L 340.882812 149.242188 L 338.8125 147.003906 L 337.484375 148.234375 C 319.949219 164.445312 293.046875 164.828125 275.265625 149.441406 L 273.363281 145.722656 C 272.921875 144.855469 272.128906 144.304688 271.246094 144.136719 L 272.082031 143.910156 L 271.273438 140.96875 L 267.175781 142.097656 C 237.789062 150.1875 207.136719 138.304688 190.863281 112.527344 L 188.289062 114.15625 C 201.710938 135.453125 224.550781 147.65625 248.695312 147.65625 C 254.332031 147.65625 260.0625 146.941406 265.746094 145.570312 C 265.59375 146.011719 265.394531 146.558594 265.152344 147.199219 C 248.253906 157.226562 238.960938 176.632812 242.238281 196.46875 C 249.640625 241.460938 249.976562 241.566406 251.210938 241.976562 L 252.765625 241.625 L 251.699219 240.515625 L 252.019531 239.050781 C 252.613281 239.171875 252.933594 239.617188 253.023438 239.828125 C 252.75 239.128906 251.425781 233.445312 245.253906 195.984375 C 242.40625 178.660156 249.808594 161.6875 263.671875 151.863281 C 258.308594 172.09375 267.863281 193.285156 287.164062 202.503906 L 288.476562 199.761719 C 269.460938 190.679688 260.609375 169.125 267.632812 149.347656 C 267.832031 149.242188 268.015625 149.121094 268.210938 149.011719 L 298.410156 208.0625 C 298.804688 206.585938 299.933594 205.367188 301.484375 204.925781 L 303.359375 204.390625 L 278.433594 155.65625 C 286.632812 161.050781 296.125 163.761719 305.628906 163.761719 C 317.800781 163.730469 329.992188 159.3125 339.558594 150.476562 Z M 339.558594 150.476562 " fill-opacity="1" fill-rule="nonzero"/></g><path fill="#f59cbb" d="M 605.195312 600.53125 C 600.5625 604.980469 594.394531 607.464844 587.964844 607.464844 L 539.730469 607.464844 L 518.28125 582.023438 L 523.535156 567.546875 C 523.535156 562.671875 525.957031 558.117188 529.980469 555.390625 L 536.332031 551.09375 L 602.789062 584.519531 C 608.898438 587.613281 610.132812 595.792969 605.195312 600.53125 Z M 322.890625 445.746094 C 324.566406 435.628906 321.625 425.773438 319.160156 415.792969 C 319.371094 415.5625 319.617188 415.289062 319.859375 415 C 326.042969 407.597656 328.175781 397.617188 325.847656 388.261719 L 322.375 374.324219 C 321 368.839844 321.183594 363.09375 322.890625 357.703125 L 327.140625 344.265625 C 328.285156 340.640625 326.667969 336.722656 323.316406 334.957031 C 319.234375 332.808594 314.191406 334.621094 312.425781 338.871094 C 310.640625 343.183594 308.402344 349.019531 306.347656 355.675781 L 306.558594 350.265625 C 306.789062 344.449219 303.984375 338.917969 299.15625 335.671875 C 297.707031 334.695312 296.125 334.058594 294.507812 333.753906 C 290.761719 337.578125 286.066406 334.316406 283.113281 337.425781 C 282.503906 338.078125 281.941406 338.796875 281.46875 339.601562 L 277.964844 345.4375 L 273.421875 345.363281 C 260.960938 345.164062 251.699219 353.710938 249.078125 364.132812 L 233.003906 371.09375 C 228.785156 372.921875 228.785156 378.894531 233.003906 380.722656 L 258.585938 391.8125 L 259.117188 419.054688 C 259.527344 439.667969 252.71875 459.792969 239.859375 475.910156 L 232.867188 484.683594 C 229.699219 488.660156 227.292969 493.066406 225.644531 497.695312 C 218.578125 492.257812 212.300781 485.890625 207 478.757812 C 207.53125 474.433594 207.804688 470.03125 207.804688 465.566406 C 207.804688 404.882812 158.613281 355.691406 97.929688 355.691406 C 37.25 355.691406 -11.941406 404.882812 -11.941406 465.566406 C -11.941406 473.976562 -10.96875 482.140625 -9.183594 490.003906 L 21.542969 490.003906 L 144.214844 474.539062 L 177.078125 490.003906 L 196.378906 490.003906 C 203.828125 499.523438 212.820312 507.828125 223.011719 514.53125 C 223.195312 520.046875 224.367188 525.574219 226.605469 530.816406 L 241.476562 565.597656 C 237.773438 569.132812 238.246094 575.179688 242.464844 578.074219 L 251.285156 584.15625 C 263.992188 592.914062 279.042969 597.59375 294.476562 597.59375 L 304.074219 597.59375 L 303.617188 594.011719 C 302.582031 585.96875 296.335938 579.75 288.367188 578.273438 C 286.128906 577.863281 283.722656 577.132812 281.269531 575.957031 C 276.105469 573.488281 274.167969 567.121094 276.941406 562.109375 L 287.5 543.035156 C 290.699219 537.261719 292.175781 531.183594 292.222656 525.269531 C 292.222656 525.269531 292.238281 525.269531 292.238281 525.257812 C 299.6875 518.324219 299.445312 505.085938 303.558594 495.53125 C 307.199219 487.078125 311.847656 478.894531 314.175781 473.519531 C 315.714844 469.96875 317.101562 466.464844 318.320312 462.992188 L 332.597656 473.535156 C 334.011719 474.585938 336.007812 474.25 337.027344 472.816406 C 340.089844 468.492188 339.726562 462.625 336.144531 458.710938 C 332.609375 454.824219 327.84375 449.949219 322.890625 445.746094 Z M 459.488281 278.070312 C 457.886719 274.703125 455.816406 271.546875 453.164062 268.925781 C 445.914062 261.796875 435.523438 258.445312 425.164062 260.242188 C 424.980469 260.273438 424.796875 260.304688 424.613281 260.335938 C 409.457031 263.046875 398.394531 276.332031 398.457031 291.734375 C 398.472656 294.996094 398.699219 298.210938 399.292969 301.089844 L 440.519531 338.613281 C 440.886719 338.003906 453.699219 333.8125 454.429688 333.585938 C 455.160156 333.355469 461.46875 324.65625 461.46875 324.65625 C 470.335938 319.265625 473.6875 308.050781 469.253906 298.679688 Z M 459.488281 278.070312 " fill-opacity="1" fill-rule="nonzero"/><g clip-path="url(#2ccb9d1453)"><path fill="#f2f2f2" d="M 583.210938 401.960938 L 583.210938 420.378906 C 583.210938 425.222656 587.15625 429.152344 592 429.152344 L 645.917969 429.152344 L 645.917969 430.675781 L 591.988281 430.675781 C 591.058594 430.675781 590.15625 430.539062 589.289062 430.3125 C 586.546875 431.121094 584.308594 433.128906 583.195312 435.71875 L 583.195312 491.097656 L 581.671875 491.097656 L 581.671875 346.519531 L 583.195312 346.519531 L 583.195312 383.328125 C 583.195312 387.914062 586.929688 391.628906 591.515625 391.628906 L 645.917969 391.628906 L 645.917969 393.152344 L 591.988281 393.152344 C 587.140625 393.167969 583.210938 397.113281 583.210938 401.960938 Z M 173.328125 433.34375 C 173.300781 433.113281 173.300781 432.886719 173.285156 432.65625 C 150.539062 396.582031 100.214844 390.167969 69.183594 419.890625 L 62.601562 426.199219 L 21.558594 410.6875 L 31.507812 431.804688 L 21.316406 446.050781 L 2.972656 441.828125 L 16.453125 459.851562 C 18.816406 463.019531 21.605469 465.761719 24.667969 468.035156 L 23.492188 468.644531 C 15.25 472.910156 14.199219 484.304688 21.542969 489.988281 L 177.078125 489.988281 C 181.570312 485.570312 184.601562 480.128906 186.140625 474.355469 C 179.394531 461.894531 174.945312 448.015625 173.328125 433.34375 Z M 173.328125 433.34375 " fill-opacity="1" fill-rule="nonzero"/></g><path fill="#f8becb" d="M 294.492188 333.753906 C 293.929688 336.921875 291.15625 339.34375 287.820312 339.34375 C 285.976562 339.34375 284.332031 338.613281 283.097656 337.425781 C 286.054688 334.316406 290.378906 332.976562 294.492188 333.753906 Z M 347.207031 514.683594 C 359.988281 510.113281 373.441406 507.644531 387.015625 507.355469 L 455.527344 505.890625 L 442.867188 452.328125 C 418.75 460.171875 390.246094 471.171875 369.207031 479.582031 C 353.511719 485.859375 343.246094 500.285156 340.394531 516.953125 C 340.378906 517.027344 340.367188 517.105469 340.351562 517.152344 Z M 464.941406 330.402344 L 461.484375 324.65625 L 443.582031 335.535156 C 448.824219 331.191406 449.417969 323.363281 444.90625 318.257812 L 440.367188 313.15625 C 440.367188 313.15625 444.863281 307.59375 443.992188 300.980469 C 443.535156 297.539062 440.019531 295.390625 436.742188 296.578125 L 434.152344 297.523438 C 423.992188 301.226562 412.398438 296.992188 407.613281 287.285156 C 407.382812 286.8125 407.15625 286.324219 406.941406 285.824219 C 401.136719 288.550781 397.984375 294.902344 399.308594 301.179688 C 400.011719 304.515625 400.96875 308.433594 402.21875 312.636719 L 400.636719 320.878906 C 400.375 322.25 401.714844 323.363281 403.011719 322.859375 L 405.402344 321.945312 C 406.347656 324.351562 407.382812 326.789062 408.542969 329.210938 C 412.394531 337.242188 421.707031 341.082031 430.191406 338.367188 C 432.019531 337.789062 433.269531 337.378906 433.269531 337.378906 L 436.285156 340.03125 L 436.300781 342.453125 L 438.417969 345.972656 L 434.699219 354.5625 C 439.210938 357.71875 445.441406 356.347656 448.183594 351.59375 C 452.023438 344.890625 457.933594 336.039062 464.941406 330.402344 Z M 523.535156 567.5625 L 481.441406 560.90625 L 483.285156 607.464844 L 539.714844 607.464844 Z M 523.535156 567.5625 " fill-opacity="1" fill-rule="nonzero"/><path fill="#f59cbb" d="M 70.449219 470.898438 L 70.828125 472.375 L 58.761719 475.453125 C 55.394531 476.304688 51.96875 476.734375 48.585938 476.734375 C 43.617188 476.734375 38.699219 475.789062 34.066406 474.019531 C 28.808594 477.3125 26.980469 484.167969 29.90625 489.636719 L 28.566406 490.351562 C 25.445312 484.503906 27.148438 477.25 32.375 473.335938 C 29.527344 472.101562 26.785156 470.53125 24.238281 468.644531 L 25.152344 467.425781 C 34.738281 474.539062 46.847656 476.929688 58.410156 473.976562 Z M 313.261719 233.644531 C 314.238281 234.617188 314.769531 235.898438 314.769531 237.285156 C 314.769531 239.890625 312.820312 242.082031 310.246094 242.417969 L 305.460938 243.011719 L 305.28125 241.503906 L 310.0625 240.910156 C 311.875 240.683594 313.246094 239.128906 313.246094 237.300781 C 313.246094 236.308594 312.851562 235.378906 312.152344 234.695312 C 311.953125 234.511719 311.738281 234.34375 311.527344 234.207031 C 311.511719 234.207031 311.480469 234.222656 311.464844 234.222656 L 311.464844 234.175781 C 310.886719 233.828125 310.230469 233.644531 309.53125 233.660156 L 298.53125 233.902344 C 296.703125 233.949219 295.101562 235.199219 294.644531 236.964844 L 293.167969 236.570312 C 293.257812 236.25 293.367188 235.945312 293.503906 235.65625 L 291.886719 234.664062 C 289.632812 233.292969 288.535156 230.550781 289.222656 227.992188 C 289.359375 227.472656 289.585938 226.984375 289.847656 226.542969 C 287.957031 225.082031 287.089844 222.597656 287.699219 220.265625 C 288.382812 217.691406 290.714844 215.863281 293.367188 215.804688 L 309.164062 215.527344 C 310.445312 215.527344 311.570312 215.910156 312.53125 216.609375 C 312.273438 215.558594 312.042969 214.492188 311.875 213.410156 L 303.285156 214.355469 C 300.464844 214.660156 297.890625 212.632812 297.554688 209.816406 L 299.0625 209.632812 C 299.308594 211.628906 301.136719 213.078125 303.117188 212.847656 L 313.171875 211.75 L 313.277344 212.480469 C 314.511719 221.761719 319.570312 230.230469 327.15625 235.730469 L 332.351562 239.492188 L 331.453125 240.726562 L 326.257812 236.964844 C 321.125 233.246094 317.101562 228.203125 314.558594 222.476562 C 314.390625 223.070312 314.144531 223.632812 313.796875 224.152344 C 314.101562 224.351562 314.375 224.578125 314.648438 224.835938 C 315.714844 225.875 316.292969 227.273438 316.292969 228.769531 C 316.277344 230.871094 315.058594 232.730469 313.261719 233.644531 Z M 290.730469 225.324219 C 291.796875 224.242188 293.273438 223.558594 294.859375 223.527344 L 310.65625 223.253906 C 311.25 223.253906 311.800781 223.34375 312.332031 223.496094 C 312.914062 222.796875 313.230469 221.929688 313.230469 221.015625 C 313.230469 219.933594 312.804688 218.925781 312.042969 218.179688 C 311.265625 217.433594 310.199219 217.023438 309.179688 217.050781 L 293.382812 217.328125 C 291.402344 217.371094 289.664062 218.742188 289.144531 220.664062 C 288.671875 222.386719 289.328125 224.226562 290.730469 225.324219 Z M 314.753906 228.753906 C 314.753906 227.671875 314.328125 226.664062 313.566406 225.917969 C 312.804688 225.171875 311.832031 224.777344 310.703125 224.792969 L 294.90625 225.066406 C 292.925781 225.113281 291.1875 226.484375 290.667969 228.402344 C 290.167969 230.308594 290.988281 232.347656 292.664062 233.382812 L 294.324219 234.40625 C 295.347656 233.203125 296.855469 232.441406 298.484375 232.394531 L 309.484375 232.152344 C 310.277344 232.136719 311.023438 232.316406 311.722656 232.621094 C 313.476562 232.164062 314.753906 230.597656 314.753906 228.753906 Z M 178.21875 449.125 C 168.5 459.257812 155.472656 465.808594 141.550781 467.578125 L 118.652344 470.488281 C 113.578125 471.125 109.769531 475.46875 109.769531 480.570312 C 109.769531 486.179688 114.339844 490.75 119.945312 490.75 L 119.945312 489.226562 C 115.175781 489.226562 111.292969 485.339844 111.292969 480.570312 C 111.292969 476.230469 114.539062 472.542969 118.847656 471.996094 L 141.746094 469.085938 C 156.023438 467.273438 169.367188 460.554688 179.316406 450.164062 L 182.195312 447.160156 L 181.097656 446.109375 Z M 417.316406 330.707031 C 418.0625 331.085938 418.886719 331.285156 419.695312 331.285156 C 420.242188 331.285156 420.777344 331.191406 421.308594 331.027344 C 422.632812 330.597656 423.730469 329.667969 424.355469 328.421875 C 424.980469 327.171875 425.101562 325.753906 424.675781 324.414062 L 423.230469 324.886719 C 423.535156 325.832031 423.457031 326.835938 423 327.71875 C 422.542969 328.601562 421.78125 329.257812 420.835938 329.5625 C 419.890625 329.867188 418.886719 329.792969 418.003906 329.335938 C 417.121094 328.878906 416.464844 328.117188 416.160156 327.171875 L 414.710938 327.644531 C 415.140625 328.984375 416.066406 330.066406 417.316406 330.707031 Z M 441.113281 334.695312 C 441.527344 334.042969 440.765625 333.296875 440.109375 333.707031 C 438.203125 334.925781 435.613281 336.449219 433.253906 337.363281 L 436.300781 342.4375 C 437.898438 339.847656 439.773438 336.84375 441.113281 334.695312 Z M 450.941406 451.320312 L 458.253906 391.28125 L 456.746094 391.097656 L 449.554688 450.070312 L 442.699219 451.59375 L 443.035156 453.089844 Z M 510.648438 405.113281 L 500.804688 460.722656 C 496.738281 483.726562 478.484375 501.566406 455.40625 505.128906 L 455.632812 506.640625 C 479.371094 502.96875 498.109375 484.625 502.296875 460.980469 L 512.140625 405.371094 Z M 389.726562 558.527344 L 390.519531 559.824219 C 400.96875 553.410156 413.417969 550.925781 425.527344 552.847656 L 481.320312 561.667969 L 481.5625 560.160156 L 425.773438 551.339844 C 413.296875 549.375 400.5 551.933594 389.726562 558.527344 Z M 317.222656 552.96875 C 315.136719 567.976562 319.402344 583.179688 328.953125 594.667969 L 330.128906 593.691406 C 320.863281 582.523438 316.707031 567.761719 318.730469 553.167969 C 320.757812 538.585938 328.605469 525.941406 340.824219 517.5625 L 339.953125 516.3125 C 327.386719 524.953125 319.3125 537.960938 317.222656 552.96875 Z M 317.222656 552.96875 " fill-opacity="1" fill-rule="nonzero"/><path fill="#14090f" d="M 326.242188 448.699219 C 321.65625 444.496094 316.691406 440.566406 312.210938 438.355469 C 312.164062 438.417969 312.121094 438.476562 312.105469 438.492188 L 310.933594 437.53125 C 311.007812 437.441406 318.550781 427.964844 312.773438 413.003906 C 310.917969 408.207031 307.503906 404 302.886719 400.878906 L 298.925781 398.195312 L 299.78125 396.933594 L 303.742188 399.613281 C 308.371094 402.75 311.847656 406.941406 313.871094 411.710938 C 314.710938 409.5625 315.609375 407.824219 316.507812 406.46875 C 316.445312 406.316406 316.386719 406.179688 316.324219 406.027344 C 313.535156 400.589844 310.109375 395.410156 306.164062 390.671875 L 304.320312 388.445312 L 304.335938 388.15625 L 305.78125 350.238281 L 307.304688 350.296875 L 305.859375 387.914062 L 307.335938 389.679688 C 311.34375 394.507812 314.832031 399.78125 317.695312 405.355469 C 319.175781 408.664062 320.179688 411.816406 320.863281 414.421875 C 324.992188 425.375 326.820312 437.046875 326.242188 448.699219 Z M 316.171875 460.445312 C 315.988281 460.308594 311.738281 457.203125 307.121094 456.011719 L 283.066406 449.828125 C 279.195312 448.835938 276.164062 446.109375 274.777344 442.363281 C 273.378906 438.613281 273.894531 434.578125 276.179688 431.285156 L 276.289062 431.132812 L 277.339844 423.394531 L 275.832031 423.195312 L 274.824219 430.585938 C 272.339844 434.257812 271.808594 438.738281 273.347656 442.894531 C 274.917969 447.117188 278.3125 450.195312 282.6875 451.304688 L 306.742188 457.492188 C 307.046875 457.566406 307.335938 457.660156 307.640625 457.75 C 302.613281 480.738281 289.953125 501.125 287.394531 505.070312 C 280.21875 493.230469 267.753906 486.359375 253.847656 486.679688 L 253.875 488.203125 C 267.296875 487.882812 279.410156 494.601562 286.28125 506.167969 C 286.328125 506.257812 291.324219 514.730469 291.476562 525.042969 L 291.460938 525.285156 C 291.402344 531.378906 289.847656 537.246094 286.828125 542.699219 L 276.273438 561.773438 C 274.824219 564.378906 274.519531 567.488281 275.433594 570.335938 C 276.332031 573.15625 278.296875 575.410156 280.949219 576.6875 C 283.265625 577.800781 285.71875 578.59375 288.246094 579.066406 L 288.519531 577.574219 C 286.128906 577.132812 283.8125 576.371094 281.605469 575.316406 C 279.335938 574.238281 277.660156 572.300781 276.882812 569.878906 C 276.105469 567.441406 276.363281 564.761719 277.597656 562.519531 L 288.15625 543.445312 C 291.25 537.871094 292.863281 531.867188 292.96875 525.621094 L 292.984375 525.605469 L 292.984375 525.285156 C 292.984375 525.042969 292.96875 524.8125 292.953125 524.570312 C 300.070312 517.777344 305.84375 509.5625 309.804688 500.332031 C 313.445312 491.875 317.070312 483.496094 319.402344 478.105469 C 321.015625 474.386719 322.296875 470.578125 323.347656 466.738281 L 323.804688 466.128906 Z M 65.480469 437.105469 C 67.828125 449.234375 66.273438 461.542969 60.972656 472.695312 L 59.796875 475.164062 L 33.394531 483.800781 L 38.179688 475.101562 C 45.796875 461.269531 50.246094 445.609375 51.039062 429.839844 L 52.042969 409.683594 L 63.347656 426.0625 Z M 63.988281 437.394531 L 61.886719 426.503906 L 53.355469 414.222656 L 52.5625 429.914062 C 51.753906 445.914062 47.246094 461.800781 39.519531 475.847656 L 36.59375 481.167969 L 58.703125 473.929688 L 59.601562 472.039062 C 64.75 461.179688 66.273438 449.203125 63.988281 437.394531 Z M 270.4375 153.507812 C 274.230469 153.507812 277.324219 150.429688 277.324219 146.621094 C 277.324219 142.828125 274.246094 139.734375 270.4375 139.734375 C 266.644531 139.734375 263.550781 142.8125 263.550781 146.621094 C 263.550781 150.429688 266.628906 153.507812 270.4375 153.507812 Z M 270.4375 153.507812 " fill-opacity="1" fill-rule="nonzero"/><g clip-path="url(#ad4214bf51)"><g clip-path="url(#ba6ddd20eb)"><g clip-path="url(#fe43bbe014)"><path fill="#f59cba" d="M 390.566406 305 C 390.320312 305.078125 390.078125 305.175781 389.835938 305.28125 C 389.753906 305.316406 389.667969 305.355469 389.585938 305.390625 C 389.449219 305.445312 389.316406 305.519531 389.183594 305.59375 C 388.734375 305.832031 388.296875 306.121094 387.890625 306.429688 C 387.882812 306.441406 387.875 306.441406 387.859375 306.453125 C 387.730469 306.550781 387.613281 306.648438 387.496094 306.753906 C 387.050781 307.140625 386.65625 307.578125 386.300781 308.035156 C 386.03125 308.375 385.792969 308.742188 385.578125 309.117188 C 385.546875 309.175781 385.507812 309.238281 385.476562 309.296875 C 385.277344 309.671875 385.101562 310.0625 384.957031 310.464844 C 384.839844 310.769531 384.753906 311.089844 384.675781 311.414062 C 384.605469 311.703125 384.554688 311.984375 384.511719 312.277344 C 384.488281 312.484375 384.460938 312.691406 384.445312 312.898438 C 384.394531 313.550781 384.433594 314.199219 384.523438 314.847656 C 384.542969 315.019531 384.578125 315.179688 384.605469 315.347656 C 384.609375 315.367188 384.609375 315.375 384.613281 315.390625 C 384.722656 315.921875 384.886719 316.4375 385.085938 316.941406 C 385.148438 317.113281 385.230469 317.285156 385.3125 317.453125 C 385.441406 317.722656 385.585938 317.984375 385.738281 318.238281 C 385.792969 318.332031 385.859375 318.425781 385.914062 318.515625 C 386.015625 318.660156 386.121094 318.816406 386.21875 318.949219 C 386.246094 318.988281 386.273438 319.027344 386.304688 319.0625 C 386.503906 319.320312 386.714844 319.570312 386.941406 319.804688 C 387 319.863281 387.054688 319.910156 387.101562 319.972656 C 387.460938 320.324219 387.847656 320.644531 388.25 320.921875 C 388.59375 321.164062 388.949219 321.378906 389.316406 321.570312 C 389.523438 321.679688 389.738281 321.773438 389.960938 321.867188 C 390.058594 321.90625 390.15625 321.949219 390.261719 321.988281 C 390.472656 322.070312 390.6875 322.136719 390.914062 322.203125 C 390.914062 322.203125 390.921875 322.203125 390.925781 322.210938 C 391.355469 322.335938 391.789062 322.425781 392.234375 322.484375 C 392.859375 322.578125 393.496094 322.585938 394.132812 322.535156 C 394.816406 322.484375 395.472656 322.355469 396.125 322.152344 C 396.796875 321.941406 397.4375 321.652344 398.046875 321.300781 C 399.191406 320.628906 400.164062 319.695312 400.910156 318.597656 C 401.285156 318.058594 401.574219 317.46875 401.824219 316.871094 C 402.082031 316.242188 402.242188 315.582031 402.351562 314.917969 C 402.460938 314.25 402.480469 313.570312 402.429688 312.894531 C 402.371094 312.195312 402.25 311.511719 402.039062 310.835938 C 401.636719 309.554688 400.945312 308.367188 400.027344 307.382812 C 399.605469 306.914062 399.109375 306.496094 398.582031 306.125 C 398.054688 305.757812 397.488281 305.460938 396.894531 305.203125 C 396.332031 304.96875 395.738281 304.789062 395.136719 304.675781 C 394.503906 304.558594 393.867188 304.496094 393.21875 304.515625 C 392.683594 304.527344 392.164062 304.589844 391.640625 304.695312 C 391.625 304.699219 391.605469 304.699219 391.582031 304.707031 C 391.566406 304.710938 391.558594 304.710938 391.539062 304.714844 C 391.214844 304.796875 390.890625 304.882812 390.566406 305 Z M 392.792969 305.621094 C 393.496094 305.570312 394.195312 305.601562 394.882812 305.722656 C 395.5625 305.855469 396.214844 306.066406 396.839844 306.359375 C 397.449219 306.65625 398.023438 307.023438 398.546875 307.453125 C 399.074219 307.898438 399.539062 308.40625 399.941406 308.964844 C 400.34375 309.546875 400.671875 310.167969 400.914062 310.835938 C 401.148438 311.507812 401.300781 312.203125 401.371094 312.917969 C 401.417969 313.617188 401.378906 314.320312 401.257812 315.015625 C 401.125 315.6875 400.914062 316.339844 400.628906 316.957031 C 400.332031 317.566406 399.964844 318.136719 399.535156 318.664062 C 399.085938 319.183594 398.582031 319.652344 398.027344 320.054688 C 397.449219 320.457031 396.828125 320.785156 396.160156 321.027344 C 395.488281 321.261719 394.800781 321.414062 394.09375 321.480469 C 393.4375 321.527344 392.78125 321.496094 392.125 321.394531 C 392.078125 321.386719 392.035156 321.378906 391.996094 321.367188 C 391.839844 321.339844 391.683594 321.304688 391.535156 321.257812 C 391.523438 321.253906 391.515625 321.253906 391.503906 321.246094 C 391.496094 321.25 391.496094 321.242188 391.484375 321.242188 C 391.476562 321.246094 391.476562 321.238281 391.46875 321.238281 C 390.980469 321.109375 390.503906 320.941406 390.046875 320.722656 C 389.601562 320.503906 389.175781 320.253906 388.78125 319.964844 C 388.78125 319.964844 388.78125 319.964844 388.777344 319.957031 C 388.769531 319.949219 388.769531 319.949219 388.757812 319.941406 C 388.746094 319.9375 388.746094 319.9375 388.738281 319.929688 C 388.738281 319.929688 388.734375 319.921875 388.726562 319.921875 C 388.59375 319.828125 388.464844 319.726562 388.335938 319.621094 C 387.835938 319.195312 387.390625 318.710938 386.992188 318.183594 C 386.992188 318.183594 386.992188 318.175781 386.992188 318.175781 C 386.992188 318.175781 386.988281 318.167969 386.980469 318.167969 C 386.96875 318.15625 386.953125 318.132812 386.941406 318.117188 C 386.890625 318.046875 386.851562 317.988281 386.8125 317.917969 C 386.808594 317.90625 386.796875 317.902344 386.796875 317.894531 C 386.796875 317.894531 386.796875 317.894531 386.796875 317.882812 C 386.488281 317.414062 386.242188 316.925781 386.03125 316.40625 C 386.03125 316.40625 386.03125 316.398438 386.03125 316.398438 C 386.027344 316.390625 386.027344 316.382812 386.027344 316.382812 C 386.023438 316.375 386.023438 316.375 386.023438 316.367188 C 386.023438 316.367188 386.019531 316.359375 386.019531 316.359375 C 386.003906 316.324219 385.996094 316.285156 385.980469 316.253906 C 385.742188 315.574219 385.589844 314.878906 385.523438 314.171875 C 385.503906 313.789062 385.496094 313.40625 385.519531 313.03125 C 385.519531 313.023438 385.527344 313.011719 385.523438 313.003906 C 385.523438 312.996094 385.519531 312.988281 385.527344 312.984375 C 385.527344 312.984375 385.527344 312.976562 385.527344 312.976562 C 385.550781 312.679688 385.582031 312.394531 385.632812 312.101562 C 385.769531 311.429688 385.976562 310.777344 386.269531 310.152344 C 386.367188 309.945312 386.472656 309.753906 386.585938 309.554688 C 386.59375 309.542969 386.59375 309.535156 386.601562 309.53125 C 386.601562 309.53125 386.597656 309.523438 386.605469 309.523438 C 386.613281 309.511719 386.613281 309.511719 386.621094 309.503906 C 386.621094 309.503906 386.625 309.492188 386.625 309.492188 C 386.625 309.492188 386.632812 309.480469 386.632812 309.480469 C 386.640625 309.472656 386.640625 309.472656 386.648438 309.460938 C 386.648438 309.460938 386.652344 309.453125 386.652344 309.453125 C 386.660156 309.441406 386.660156 309.441406 386.667969 309.429688 C 386.667969 309.429688 386.667969 309.429688 386.671875 309.421875 C 386.679688 309.410156 386.6875 309.398438 386.6875 309.398438 C 386.878906 309.085938 387.09375 308.78125 387.324219 308.496094 C 387.328125 308.484375 387.335938 308.476562 387.34375 308.472656 C 387.351562 308.464844 387.359375 308.460938 387.367188 308.453125 C 387.8125 307.929688 388.316406 307.460938 388.871094 307.058594 C 388.941406 307.015625 389 306.96875 389.070312 306.925781 C 389.078125 306.925781 389.078125 306.925781 389.085938 306.914062 C 389.09375 306.914062 389.09375 306.914062 389.101562 306.902344 C 389.53125 306.625 389.984375 306.394531 390.449219 306.195312 C 390.449219 306.195312 390.457031 306.191406 390.457031 306.191406 C 390.457031 306.191406 390.457031 306.191406 390.464844 306.191406 C 390.554688 306.152344 390.632812 306.117188 390.726562 306.089844 C 390.820312 306.050781 390.929688 306.019531 391.027344 305.988281 C 391.59375 305.792969 392.1875 305.671875 392.792969 305.621094 Z M 401.257812 315.050781 C 401.253906 315.070312 401.253906 315.078125 401.25 315.097656 C 401.253906 315.078125 401.257812 315.058594 401.257812 315.050781 Z M 401.257812 315.050781 " fill-opacity="1" fill-rule="nonzero"/></g></g></g><g clip-path="url(#8b9974557a)"><g clip-path="url(#4a408baef6)"><g clip-path="url(#f01ed06de5)"><path fill="#f59cba" d="M 413.078125 300.761719 C 412.484375 301.050781 411.925781 301.429688 411.398438 301.84375 C 411.210938 301.988281 411.035156 302.152344 410.859375 302.3125 C 410.824219 302.347656 410.78125 302.390625 410.746094 302.425781 C 410.441406 302.722656 410.160156 303.046875 409.898438 303.382812 C 409.75 303.582031 409.601562 303.792969 409.464844 304.007812 C 409.125 304.539062 408.839844 305.121094 408.617188 305.714844 C 408.507812 306.011719 408.414062 306.3125 408.332031 306.621094 C 408.316406 306.667969 408.308594 306.722656 408.292969 306.769531 C 408.230469 307.046875 408.179688 307.320312 408.132812 307.601562 C 408.136719 307.613281 408.136719 307.613281 408.128906 307.621094 C 408.03125 308.257812 408.023438 308.910156 408.078125 309.550781 C 408.132812 310.242188 408.261719 310.914062 408.46875 311.582031 C 408.871094 312.855469 409.558594 314.023438 410.457031 315.003906 C 410.898438 315.480469 411.394531 315.898438 411.914062 316.269531 C 412.445312 316.644531 413.027344 316.945312 413.621094 317.203125 C 414.230469 317.464844 414.867188 317.632812 415.519531 317.753906 C 416.167969 317.867188 416.816406 317.910156 417.480469 317.878906 C 418.871094 317.8125 420.226562 317.425781 421.453125 316.753906 C 422.644531 316.097656 423.660156 315.15625 424.453125 314.050781 C 425.210938 312.976562 425.714844 311.734375 425.949219 310.441406 C 426.1875 309.125 426.117188 307.753906 425.761719 306.449219 C 425.40625 305.148438 424.746094 303.945312 423.863281 302.925781 C 423.441406 302.441406 422.960938 302.007812 422.445312 301.621094 C 421.925781 301.226562 421.355469 300.910156 420.769531 300.632812 C 420.199219 300.371094 419.597656 300.179688 418.984375 300.039062 C 418.332031 299.902344 417.671875 299.828125 417.007812 299.832031 C 416.382812 299.835938 415.765625 299.910156 415.164062 300.042969 C 414.449219 300.199219 413.746094 300.441406 413.078125 300.761719 Z M 416.4375 300.925781 C 417.136719 300.875 417.839844 300.90625 418.535156 301.027344 C 419.203125 301.160156 419.847656 301.371094 420.472656 301.648438 C 421.089844 301.945312 421.664062 302.320312 422.199219 302.746094 C 422.714844 303.1875 423.179688 303.691406 423.582031 304.246094 C 423.980469 304.828125 424.3125 305.457031 424.5625 306.113281 C 424.796875 306.792969 424.949219 307.488281 425.015625 308.195312 C 425.066406 308.894531 425.035156 309.597656 424.914062 310.292969 C 424.78125 310.960938 424.570312 311.613281 424.285156 312.238281 C 423.980469 312.859375 423.617188 313.433594 423.183594 313.957031 C 422.738281 314.476562 422.226562 314.949219 421.671875 315.351562 C 421.089844 315.753906 420.476562 316.070312 419.816406 316.320312 C 419.148438 316.554688 418.453125 316.707031 417.738281 316.777344 C 417.046875 316.824219 416.34375 316.792969 415.65625 316.671875 C 414.976562 316.539062 414.328125 316.328125 413.699219 316.035156 C 413.078125 315.730469 412.507812 315.363281 411.972656 314.929688 C 411.453125 314.480469 410.992188 313.984375 410.585938 313.421875 C 410.1875 312.839844 409.867188 312.214844 409.617188 311.558594 C 409.378906 310.882812 409.226562 310.183594 409.160156 309.480469 C 409.113281 308.8125 409.140625 308.148438 409.253906 307.488281 C 409.253906 307.488281 409.253906 307.488281 409.25 307.480469 C 409.25 307.480469 409.25 307.472656 409.25 307.472656 C 409.25 307.445312 409.253906 307.417969 409.265625 307.390625 C 409.289062 307.261719 409.316406 307.132812 409.351562 307.011719 C 409.351562 307.011719 409.347656 307.003906 409.347656 307.003906 C 409.347656 306.996094 409.351562 306.984375 409.351562 306.976562 C 409.480469 306.445312 409.660156 305.933594 409.890625 305.433594 C 410.1875 304.824219 410.5625 304.242188 410.992188 303.714844 C 411.003906 303.695312 411.019531 303.683594 411.035156 303.664062 C 411.035156 303.664062 411.042969 303.660156 411.039062 303.652344 C 411.046875 303.652344 411.046875 303.644531 411.054688 303.640625 C 411.472656 303.171875 411.929688 302.746094 412.4375 302.371094 C 412.445312 302.371094 412.453125 302.359375 412.460938 302.355469 C 412.460938 302.355469 412.46875 302.355469 412.46875 302.347656 C 412.476562 302.34375 412.476562 302.335938 412.484375 302.335938 C 412.492188 302.332031 412.496094 302.324219 412.496094 302.324219 C 412.519531 302.308594 412.542969 302.296875 412.566406 302.273438 C 413.125 301.894531 413.726562 301.589844 414.359375 301.34375 C 415.035156 301.144531 415.730469 300.992188 416.4375 300.925781 Z M 416.4375 300.925781 " fill-opacity="1" fill-rule="nonzero"/></g></g></g><g clip-path="url(#ff15549bac)"><g clip-path="url(#eb69e457aa)"><g clip-path="url(#03665aa5ad)"><path fill="#f59cba" d="M 404.257812 308.082031 C 403.976562 308.164062 403.691406 308.269531 403.433594 308.40625 C 403.335938 308.453125 403.25 308.496094 403.15625 308.554688 C 402.914062 308.695312 402.683594 308.875 402.476562 309.0625 C 402.390625 309.144531 402.304688 309.230469 402.226562 309.320312 C 402.226562 309.320312 402.21875 309.328125 402.21875 309.328125 C 402.210938 309.339844 402.207031 309.351562 402.191406 309.363281 C 402.121094 309.449219 402.050781 309.523438 401.984375 309.617188 C 401.734375 309.925781 401.554688 310.273438 401.398438 310.632812 C 401.300781 310.875 401.222656 311.121094 401.171875 311.378906 C 401.171875 311.378906 401.175781 311.386719 401.167969 311.386719 C 401.167969 311.386719 401.167969 311.394531 401.167969 311.394531 C 401.171875 311.40625 401.164062 311.414062 401.164062 311.414062 C 401.148438 311.460938 401.140625 311.507812 401.140625 311.550781 C 401.144531 311.558594 401.136719 311.5625 401.136719 311.570312 C 401.113281 311.707031 401.191406 311.867188 401.273438 311.960938 C 401.367188 312.066406 401.503906 312.121094 401.640625 312.136719 C 401.78125 312.140625 401.925781 312.089844 402.03125 312 C 402.058594 311.964844 402.085938 311.925781 402.121094 311.890625 C 402.164062 311.8125 402.199219 311.734375 402.207031 311.644531 C 402.261719 311.375 402.347656 311.121094 402.460938 310.867188 C 402.582031 310.621094 402.730469 310.386719 402.90625 310.171875 C 403.089844 309.964844 403.292969 309.78125 403.511719 309.609375 C 403.75 309.453125 403.992188 309.320312 404.261719 309.214844 C 404.539062 309.121094 404.816406 309.058594 405.105469 309.03125 C 405.28125 309.019531 405.457031 309.023438 405.628906 309.039062 C 405.636719 309.039062 405.636719 309.039062 405.644531 309.035156 C 405.644531 309.035156 405.652344 309.035156 405.652344 309.035156 C 405.75 309.039062 405.859375 309.050781 405.960938 309.074219 C 406.234375 309.125 406.5 309.21875 406.753906 309.328125 C 406.773438 309.34375 406.804688 309.355469 406.824219 309.367188 C 407.042969 309.484375 407.25 309.617188 407.441406 309.769531 C 407.613281 309.921875 407.785156 310.097656 407.929688 310.277344 C 407.929688 310.277344 407.929688 310.285156 407.9375 310.28125 C 407.964844 310.3125 407.988281 310.34375 408.011719 310.378906 C 408.117188 310.542969 408.214844 310.695312 408.296875 310.871094 C 408.34375 310.960938 408.378906 311.046875 408.417969 311.144531 C 408.441406 311.21875 408.46875 311.300781 408.484375 311.375 C 408.484375 311.375 408.488281 311.382812 408.488281 311.382812 C 408.488281 311.394531 408.492188 311.402344 408.492188 311.410156 C 408.492188 311.410156 408.496094 311.417969 408.496094 311.417969 C 408.496094 311.425781 408.5 311.433594 408.5 311.441406 C 408.5 311.441406 408.503906 311.453125 408.503906 311.453125 C 408.503906 311.460938 408.507812 311.46875 408.507812 311.476562 C 408.507812 311.476562 408.511719 311.484375 408.511719 311.484375 C 408.511719 311.492188 408.515625 311.5 408.515625 311.511719 C 408.515625 311.511719 408.515625 311.511719 408.515625 311.519531 C 408.519531 311.527344 408.519531 311.535156 408.523438 311.550781 C 408.527344 311.558594 408.53125 311.578125 408.53125 311.585938 C 408.59375 311.871094 408.890625 312.0625 409.175781 312 C 409.460938 311.9375 409.644531 311.648438 409.589844 311.355469 C 409.5 310.953125 409.359375 310.550781 409.15625 310.183594 C 409.15625 310.183594 409.15625 310.175781 409.15625 310.175781 C 409.109375 310.097656 409.066406 310.007812 409.015625 309.933594 C 408.910156 309.773438 408.792969 309.613281 408.667969 309.472656 C 408.574219 309.363281 408.46875 309.246094 408.359375 309.144531 C 408.191406 308.988281 408.007812 308.835938 407.816406 308.710938 C 407.792969 308.699219 407.773438 308.675781 407.75 308.664062 C 407.691406 308.625 407.628906 308.585938 407.558594 308.546875 C 407.355469 308.425781 407.140625 308.320312 406.921875 308.238281 C 406.777344 308.183594 406.632812 308.132812 406.488281 308.105469 C 406.421875 308.085938 406.355469 308.070312 406.285156 308.0625 C 406.257812 308.058594 406.226562 308.046875 406.199219 308.042969 C 405.960938 308 405.71875 307.972656 405.472656 307.964844 C 405.394531 307.964844 405.3125 307.964844 405.226562 307.96875 C 405.042969 307.972656 404.855469 307.996094 404.667969 308.027344 C 404.660156 308.03125 404.644531 308.035156 404.632812 308.035156 C 404.585938 308.046875 404.523438 308.058594 404.476562 308.070312 C 404.390625 308.046875 404.324219 308.058594 404.257812 308.082031 Z M 404.257812 308.082031 " fill-opacity="1" fill-rule="nonzero"/></g></g></g></svg>