<svg xmlns="http://www.w3.org/2000/svg" xmlns:xlink="http://www.w3.org/1999/xlink" width="831" zoomAndPan="magnify" viewBox="0 0 623.25 623.249999" height="831" preserveAspectRatio="xMidYMid meet" version="1.0"><defs><clipPath id="233b65a0fe"><path d="M 0 0 L 622.5 0 L 622.5 622.5 L 0 622.5 Z M 0 0 " clip-rule="nonzero"/></clipPath><clipPath id="de88dd11c6"><path d="M 1 65 L 622.5 65 L 622.5 379 L 1 379 Z M 1 65 " clip-rule="nonzero"/></clipPath><clipPath id="dd4bc14ec8"><path d="M 250 174 L 267 174 L 267 190 L 250 190 Z M 250 174 " clip-rule="nonzero"/></clipPath><clipPath id="4a1a0187c0"><path d="M 252.101562 173.003906 L 287.613281 178.648438 L 285.140625 194.1875 L 249.632812 188.539062 Z M 252.101562 173.003906 " clip-rule="nonzero"/></clipPath><clipPath id="0d63d425d8"><path d="M 252.101562 173.003906 L 287.613281 178.648438 L 285.140625 194.1875 L 249.632812 188.539062 Z M 252.101562 173.003906 " clip-rule="nonzero"/></clipPath><clipPath id="345aa85408"><path d="M 270 177 L 287 177 L 287 194 L 270 194 Z M 270 177 " clip-rule="nonzero"/></clipPath><clipPath id="fac7838577"><path d="M 252.101562 173.003906 L 287.613281 178.648438 L 285.140625 194.1875 L 249.632812 188.539062 Z M 252.101562 173.003906 " clip-rule="nonzero"/></clipPath><clipPath id="d92465f098"><path d="M 252.101562 173.003906 L 287.613281 178.648438 L 285.140625 194.1875 L 249.632812 188.539062 Z M 252.101562 173.003906 " clip-rule="nonzero"/></clipPath><clipPath id="e70f3703dd"><path d="M 265 180 L 272 180 L 272 186 L 265 186 Z M 265 180 " clip-rule="nonzero"/></clipPath><clipPath id="4622c8b7ae"><path d="M 252.101562 173.003906 L 287.613281 178.648438 L 285.140625 194.1875 L 249.632812 188.539062 Z M 252.101562 173.003906 " clip-rule="nonzero"/></clipPath><clipPath id="f4c8d2cc27"><path d="M 252.101562 173.003906 L 287.613281 178.648438 L 285.140625 194.1875 L 249.632812 188.539062 Z M 252.101562 173.003906 " clip-rule="nonzero"/></clipPath></defs><g clip-path="url(#233b65a0fe)"><path fill="#ffffff" d="M 0 0 L 622.5 0 L 622.5 622.5 L 0 622.5 Z M 0 0 " fill-opacity="1" fill-rule="nonzero"/><path fill="#ffffff" d="M 0 0 L 622.5 0 L 622.5 622.5 L 0 622.5 Z M 0 0 " fill-opacity="1" fill-rule="nonzero"/><path fill="#f2f2f2" d="M 0 0 L 622.5 0 L 622.5 622.5 L 0 622.5 Z M 0 0 " fill-opacity="1" fill-rule="nonzero"/></g><path fill="#14090f" d="M 511.023438 192.140625 L 361.546875 192.140625 C 353.617188 192.140625 347.195312 185.71875 347.195312 177.785156 L 347.195312 28.324219 C 347.195312 20.394531 353.617188 13.96875 361.546875 13.96875 L 511.023438 13.96875 C 518.953125 13.96875 525.378906 20.394531 525.378906 28.324219 L 525.378906 177.785156 C 525.378906 185.71875 518.953125 192.140625 511.023438 192.140625 Z M 511.023438 192.140625 " fill-opacity="1" fill-rule="nonzero"/><path fill="#f59cbb" d="M 223.441406 550.988281 C 226.875 579.921875 238.617188 574.121094 241.964844 595.347656 L 174 595.347656 C 174 565.554688 182.566406 572.425781 183.574219 550.988281 C 184.582031 529.550781 223.441406 550.988281 223.441406 550.988281 Z M 327.433594 574.121094 C 327.359375 574.082031 327.285156 574.046875 327.199219 574.019531 C 321.074219 571.28125 316.28125 566.25 313.828125 560 L 310.03125 550.339844 L 271.433594 553.613281 C 273.714844 564.136719 258.238281 574.121094 265.597656 595.347656 L 347.765625 595.347656 C 347.070312 583.558594 338.378906 579.011719 327.433594 574.121094 Z M 288.492188 173.988281 C 288.492188 156.683594 274.460938 142.652344 257.15625 142.652344 C 246.175781 142.652344 236.5 148.304688 230.910156 156.859375 C 217.6875 182.042969 212.757812 208.625 212.757812 208.625 L 289.050781 226.429688 Z M 514.171875 66.257812 L 435.152344 22.324219 L 356.183594 66.257812 C 352.570312 68.261719 351.277344 72.808594 353.28125 76.417969 C 354.9375 79.394531 358.3125 80.789062 361.472656 80.066406 L 361.472656 181.222656 L 381.144531 181.222656 L 432.738281 169.371094 L 472.242188 181.222656 L 508.882812 181.222656 L 508.882812 80.066406 C 512.042969 80.789062 515.417969 79.394531 517.074219 76.417969 C 519.078125 72.808594 517.769531 68.261719 514.171875 66.257812 Z M 514.171875 66.257812 " fill-opacity="1" fill-rule="nonzero"/><path fill="#14090f" d="M 347.144531 562.714844 L 545.785156 562.714844 L 545.785156 476.226562 L 347.144531 476.226562 Z M 397.742188 507.710938 L 421.171875 507.710938 L 421.171875 561.472656 L 397.742188 561.472656 Z M 422.417969 507.710938 L 445.847656 507.710938 L 445.847656 561.472656 L 422.417969 561.472656 Z M 447.09375 507.710938 L 470.523438 507.710938 L 470.523438 561.472656 L 447.09375 561.472656 Z M 471.757812 507.710938 L 495.1875 507.710938 L 495.1875 561.472656 L 471.757812 561.472656 Z M 496.433594 477.46875 L 519.863281 477.46875 L 519.863281 561.472656 L 496.433594 561.472656 Z M 495.1875 506.464844 L 471.757812 506.464844 L 471.757812 477.46875 L 495.1875 477.46875 Z M 470.511719 506.464844 L 447.082031 506.464844 L 447.082031 477.46875 L 470.511719 477.46875 Z M 445.847656 506.464844 L 422.417969 506.464844 L 422.417969 477.46875 L 445.847656 477.46875 Z M 421.171875 506.464844 L 397.742188 506.464844 L 397.742188 477.46875 L 421.171875 477.46875 Z M 396.496094 561.472656 L 373.066406 561.472656 L 373.066406 477.46875 L 396.496094 477.46875 Z M 544.539062 561.472656 L 521.109375 561.472656 L 521.109375 477.46875 L 544.539062 477.46875 Z M 348.390625 477.46875 L 371.820312 477.46875 L 371.820312 561.472656 L 348.390625 561.472656 Z M 347.144531 357.75 L 347.144531 444.242188 L 545.785156 444.242188 L 545.785156 357.75 Z M 495.1875 387.605469 L 471.757812 387.605469 L 471.757812 358.996094 L 495.1875 358.996094 Z M 470.511719 387.605469 L 447.082031 387.605469 L 447.082031 358.996094 L 470.511719 358.996094 Z M 445.847656 387.605469 L 422.417969 387.605469 L 422.417969 358.996094 L 445.847656 358.996094 Z M 421.171875 387.605469 L 397.742188 387.605469 L 397.742188 358.996094 L 421.171875 358.996094 Z M 396.496094 443.007812 L 373.066406 443.007812 L 373.066406 359.007812 L 396.496094 359.007812 Z M 397.742188 388.851562 L 421.171875 388.851562 L 421.171875 442.996094 L 397.742188 442.996094 Z M 422.417969 388.851562 L 445.847656 388.851562 L 445.847656 442.996094 L 422.417969 442.996094 Z M 447.09375 388.851562 L 470.523438 388.851562 L 470.523438 442.996094 L 447.09375 442.996094 Z M 471.757812 388.851562 L 495.1875 388.851562 L 495.1875 442.996094 L 471.757812 442.996094 Z M 496.433594 358.996094 L 519.863281 358.996094 L 519.863281 442.996094 L 496.433594 442.996094 Z M 348.390625 358.996094 L 371.820312 358.996094 L 371.820312 442.996094 L 348.390625 442.996094 Z M 544.539062 443.007812 L 521.109375 443.007812 L 521.109375 359.007812 L 544.539062 359.007812 Z M 294.480469 367.660156 L 318.757812 555.371094 L 266.242188 555.371094 L 247.570312 410.9375 L 228.894531 555.371094 L 176.378906 555.371094 L 200.65625 367.660156 Z M 294.480469 367.660156 " fill-opacity="1" fill-rule="nonzero"/><path fill="#f8becb" d="M 337.621094 289.722656 C 337.621094 289.722656 270.601562 346.472656 256.394531 350.617188 L 316.726562 279.691406 Z M 337.621094 289.722656 " fill-opacity="1" fill-rule="nonzero"/><g clip-path="url(#de88dd11c6)"><path fill="#9bd2e0" d="M 622.363281 334.855469 L 622.363281 378.941406 L 1.691406 378.941406 L 1.691406 334.855469 L 197.96875 334.855469 C 193.835938 333.050781 191.34375 331.816406 191.519531 331.71875 C 192.304688 331.269531 170.253906 276.9375 170.253906 276.9375 L 182.617188 231.582031 C 187.109375 215.074219 202.113281 203.621094 219.21875 203.621094 L 258.796875 203.621094 L 267.152344 206.484375 L 270.835938 207.578125 C 281.285156 210.679688 289.824219 218.222656 294.195312 228.207031 L 316.742188 279.703125 L 269.828125 334.855469 Z M 387.753906 165.835938 C 382.640625 169.144531 380.023438 175.222656 381.144531 181.222656 L 401.5 181.222656 L 416.75 173.140625 L 452.734375 181.222656 L 472.253906 181.222656 C 483.796875 181.222656 494.425781 175.945312 501.410156 166.753906 C 507.722656 158.453125 510.152344 148.144531 508.273438 138.035156 C 507.949219 136.253906 506.117188 135.167969 504.375 135.65625 C 502.820312 136.089844 501.871094 137.648438 502.160156 139.242188 C 503.679688 147.621094 501.648438 156.160156 496.394531 163.03125 C 490.53125 170.714844 481.230469 174.984375 471.558594 174.984375 L 470.933594 174.984375 L 467.148438 156.957031 C 462.167969 133.226562 446.070312 113.34375 423.910156 103.535156 L 423.910156 69.59375 C 423.910156 66.246094 420 64.417969 417.425781 66.558594 L 409.21875 73.378906 C 407.453125 73.070312 405.609375 73.03125 403.730469 73.332031 C 397.09375 74.363281 391.828125 79.492188 390.097656 85.980469 L 389.460938 88.359375 L 384.65625 88.359375 C 383.074219 88.359375 381.753906 89.617188 381.753906 91.195312 C 381.71875 99.75 388.640625 106.683594 397.179688 106.683594 C 397.179688 106.683594 388.117188 131 388.117188 165.597656 Z M 387.753906 165.835938 " fill-opacity="1" fill-rule="nonzero"/></g><path fill="#f59cbb" d="M 219.707031 296.523438 C 219.28125 296.507812 218.933594 296.296875 218.335938 295.875 C 212.796875 291.878906 210.082031 284.894531 211.425781 278.082031 L 216.105469 254.390625 C 217.128906 249.261719 221.660156 245.527344 226.890625 245.527344 L 229.902344 245.527344 C 235.132812 245.527344 239.664062 249.25 240.683594 254.390625 L 245.363281 278.082031 C 246.710938 284.894531 243.996094 291.878906 238.457031 295.875 C 237.871094 296.296875 237.507812 296.507812 237.085938 296.523438 L 236.984375 294.03125 C 236.75 294.042969 236.601562 294.121094 236.601562 294.121094 C 236.6875 294.070312 236.824219 293.980469 237 293.84375 C 241.753906 290.410156 244.082031 284.410156 242.925781 278.558594 L 238.242188 254.863281 C 237.460938 250.894531 233.949219 248.015625 229.902344 248.015625 L 226.890625 248.015625 C 222.84375 248.015625 219.332031 250.894531 218.546875 254.863281 L 213.867188 278.558594 C 212.707031 284.410156 215.035156 290.410156 219.792969 293.84375 C 219.96875 293.96875 220.105469 294.070312 220.191406 294.121094 C 220.179688 294.121094 220.042969 294.042969 219.804688 294.03125 Z M 219.707031 296.523438 " fill-opacity="1" fill-rule="nonzero"/><path fill="#14090f" d="M 61.789062 318.210938 L 68.511719 328.769531 C 67.128906 330.050781 64.953125 329.976562 63.683594 328.582031 C 62.210938 326.960938 60.96875 325.144531 59.972656 323.175781 C 59.238281 321.722656 59.597656 319.941406 60.867188 318.933594 Z M 407.863281 323.675781 L 406.207031 313.34375 C 405.125 306.542969 399.359375 301.453125 392.472656 301.226562 L 391.554688 296.585938 L 387.320312 293.78125 L 384.667969 294.292969 C 380.222656 295.152344 376.625 297.917969 374.558594 301.589844 C 364.410156 292.5 351.214844 287.410156 337.457031 287.410156 L 305.871094 287.410156 C 301.390625 284.457031 296.035156 282.753906 290.320312 282.753906 C 279.378906 282.753906 269.929688 288.964844 265.222656 298.003906 C 263.207031 301.6875 262.285156 304.339844 262.011719 307.191406 L 240.210938 289.289062 C 236.039062 285.863281 229.902344 286.476562 226.476562 290.632812 C 225.457031 291.878906 225.632812 293.722656 226.875 294.753906 L 248.851562 312.808594 C 252.796875 316.042969 258.339844 316.007812 262.234375 313.042969 C 263.355469 319.179688 266.828125 324.722656 271.585938 328.742188 C 267.375 330.386719 263.367188 332.640625 259.683594 335.464844 C 250.21875 342.75 243.933594 353.070312 241.78125 364.722656 C 241.519531 366.128906 242.488281 367.476562 243.910156 367.660156 C 245.214844 367.835938 246.421875 366.964844 246.660156 365.667969 C 248.578125 355.210938 254.21875 345.960938 262.707031 339.414062 C 266.976562 336.113281 271.746094 333.710938 276.765625 332.230469 C 280.460938 334.171875 284.570312 335.304688 288.777344 335.304688 L 412.308594 335.304688 C 414.761719 335.304688 416.015625 332.378906 414.335938 330.585938 Z M 449.011719 172.558594 L 448.8125 172.433594 C 448.8125 152.972656 443.71875 139.289062 443.71875 139.289062 C 448.523438 139.289062 452.410156 135.382812 452.394531 130.574219 C 452.394531 129.691406 451.648438 128.980469 450.765625 128.980469 L 448.0625 128.980469 L 447.703125 127.636719 C 446.730469 123.988281 443.769531 121.113281 440.035156 120.527344 C 438.976562 120.367188 437.941406 120.378906 436.945312 120.554688 L 432.328125 116.71875 C 430.882812 115.511719 428.679688 116.542969 428.679688 118.425781 L 428.679688 137.523438 C 416.203125 143.039062 407.152344 154.21875 404.351562 167.566406 L 402.222656 177.699219 L 401.875 177.699219 C 396.433594 177.699219 391.203125 175.296875 387.90625 170.976562 C 384.953125 167.105469 383.808594 162.3125 384.667969 157.59375 C 384.828125 156.695312 384.308594 155.824219 383.421875 155.574219 C 382.441406 155.300781 381.417969 155.910156 381.230469 156.90625 C 380.1875 162.597656 381.542969 168.386719 385.089844 173.054688 C 389.011719 178.222656 395 181.199219 401.488281 181.199219 L 452.730469 181.199219 C 453.355469 177.847656 451.886719 174.425781 449.011719 172.558594 Z M 449.011719 172.558594 " fill-opacity="1" fill-rule="nonzero"/><path fill="#9bd2e0" d="M 297.03125 302.984375 L 294.53125 305.484375 L 297.03125 307.988281 C 298.539062 309.496094 298.539062 311.949219 297.03125 313.464844 C 295.527344 314.984375 293.074219 314.972656 291.554688 313.464844 L 289.050781 310.964844 L 286.550781 313.464844 C 285.042969 314.972656 282.589844 314.972656 281.070312 313.464844 C 279.550781 311.960938 279.566406 309.507812 281.070312 307.988281 L 283.574219 305.484375 L 281.070312 302.984375 C 279.566406 301.476562 279.566406 299.023438 281.070312 297.503906 C 282.578125 295.988281 285.03125 296 286.550781 297.503906 L 289.050781 300.007812 L 291.554688 297.503906 C 293.0625 296 295.511719 296 297.03125 297.503906 C 298.550781 299.011719 298.539062 301.464844 297.03125 302.984375 Z M 448.136719 318.933594 C 446.855469 319.953125 446.507812 321.722656 447.242188 323.175781 C 448.238281 325.144531 449.484375 326.949219 450.953125 328.582031 C 452.222656 329.976562 454.402344 330.050781 455.78125 328.769531 L 449.058594 318.210938 Z M 522.304688 287.382812 L 490.71875 287.382812 C 494.078125 289.601562 496.953125 292.511719 499.109375 295.949219 C 515.394531 295.949219 518.628906 295.949219 526.796875 295.949219 C 529.289062 295.949219 531.617188 296.347656 533.644531 296.882812 C 538.089844 298.078125 542.734375 296.148438 544.925781 292.203125 C 537.890625 289.066406 530.195312 287.382812 522.304688 287.382812 Z M 522.304688 287.382812 " fill-opacity="1" fill-rule="nonzero"/><path fill="#f59cbb" d="M 291.992188 304.613281 L 291.992188 306.359375 C 291.992188 307.503906 291.054688 308.4375 289.910156 308.4375 L 288.167969 308.4375 C 287.023438 308.4375 286.089844 307.503906 286.089844 306.359375 L 286.089844 304.613281 C 286.089844 303.46875 287.023438 302.535156 288.167969 302.535156 L 289.910156 302.535156 C 291.070312 302.535156 291.992188 303.46875 291.992188 304.613281 Z M 390.855469 293.085938 L 387.320312 293.769531 C 387.554688 295.289062 388.789062 296.523438 390.394531 296.683594 C 390.792969 296.722656 391.179688 296.671875 391.554688 296.585938 Z M 214.824219 262.734375 L 216.21875 264.800781 C 216.691406 264.488281 227.910156 257.117188 240.632812 264.835938 L 241.929688 262.707031 C 227.808594 254.140625 214.960938 262.644531 214.824219 262.734375 Z M 227.164062 210.730469 L 227.164062 246.773438 L 229.652344 246.773438 L 229.652344 210.730469 C 229.652344 205.796875 233.660156 201.789062 238.59375 201.789062 L 245.078125 201.789062 L 245.078125 199.300781 L 238.59375 199.300781 C 232.28125 199.3125 227.164062 204.429688 227.164062 210.730469 Z M 262.609375 207.316406 L 261.824219 207.542969 C 262.199219 208.886719 264.699219 228.582031 266.292969 241.480469 L 268.769531 241.183594 C 266.03125 218.933594 264.464844 207.304688 264.128906 206.59375 Z M 262.609375 207.316406 " fill-opacity="1" fill-rule="nonzero"/><path fill="#f8becb" d="M 288.28125 302.148438 C 288.28125 302.148438 291.730469 306.070312 291.730469 311.414062 C 291.730469 313.703125 291.453125 316.542969 290.78125 318.546875 C 289.476562 322.441406 285.953125 325.355469 285.953125 325.355469 C 261.25 343.335938 233.261719 333.148438 233.175781 333.136719 C 233.089844 333.113281 233.261719 333.164062 233.261719 333.164062 C 218.097656 328.429688 196.773438 323.9375 196.773438 323.9375 L 162.085938 308.039062 C 162 308.238281 170.265625 276.925781 170.265625 276.925781 L 202.996094 286.648438 L 201.515625 289.449219 L 252.011719 316.09375 L 261.214844 307.277344 C 263.628906 304.964844 266.714844 303.492188 270.027344 303.058594 L 274.859375 302.421875 C 276.429688 302.210938 277.910156 303.171875 278.382812 304.675781 C 278.78125 305.933594 278.382812 307.304688 277.375 308.136719 C 278.941406 306.558594 281.84375 301.902344 283.5 299.148438 C 284.246094 297.917969 285.726562 297.355469 287.097656 297.792969 C 288.652344 298.277344 289.5625 299.882812 289.203125 301.476562 C 288.429688 304.851562 286.261719 310.652344 280.238281 315.894531 M 273.140625 161.203125 L 270.539062 164.875 C 265.160156 172.457031 255.175781 175.183594 246.695312 171.386719 C 246.039062 169.832031 244.492188 168.734375 242.6875 168.734375 C 240.746094 168.734375 239.113281 170.003906 238.542969 171.746094 C 237.433594 175.332031 238.554688 179.082031 241.132812 181.484375 L 241.132812 195.851562 C 241.132812 200.605469 236.960938 204.378906 232.253906 203.746094 C 231.980469 203.707031 231.808594 203.667969 231.769531 203.621094 L 234.90625 214.328125 C 236.425781 219.519531 241.183594 223.078125 246.585938 223.078125 C 253.457031 223.078125 258.859375 217.414062 258.75 210.742188 C 265.546875 212.023438 272.40625 208.664062 275.542969 202.460938 C 278.507812 196.597656 280.945312 190.160156 282.800781 184.472656 C 285.777344 175.394531 281.667969 165.511719 273.140625 161.203125 Z M 273.140625 161.203125 " fill-opacity="1" fill-rule="nonzero"/><path fill="#f59cbb" d="M 211.949219 330.574219 C 213.628906 332.351562 212.371094 335.292969 209.917969 335.292969 L 86.390625 335.292969 C 82.183594 335.292969 78.0625 334.160156 74.363281 332.214844 C 69.347656 333.710938 64.589844 336.113281 60.320312 339.398438 C 51.828125 345.9375 46.191406 355.199219 44.273438 365.65625 C 44.035156 366.953125 42.816406 367.8125 41.519531 367.648438 C 40.101562 367.460938 39.128906 366.117188 39.390625 364.710938 C 41.546875 353.058594 47.832031 342.75 57.296875 335.453125 C 60.980469 332.613281 64.976562 330.375 69.195312 328.730469 C 64.191406 324.507812 60.59375 318.609375 59.660156 312.097656 C 59.648438 311.898438 59.660156 311.699219 59.648438 311.5 C 55.914062 310.753906 52.675781 308.039062 51.457031 304.152344 L 51.070312 302.933594 L 37 279.714844 C 36.167969 278.332031 36.601562 276.539062 37.984375 275.691406 C 39.691406 274.660156 41.59375 274.210938 43.449219 274.285156 C 43.800781 273.863281 44.261719 273.527344 44.820312 273.351562 C 49.972656 271.722656 55.464844 274.585938 57.082031 279.738281 L 62.710938 297.667969 L 62.859375 297.902344 C 67.578125 288.914062 77.003906 282.738281 87.921875 282.738281 C 93.625 282.738281 98.988281 284.445312 103.472656 287.394531 L 135.058594 287.394531 C 148.816406 287.394531 162.011719 292.5 172.160156 301.578125 C 174.226562 297.902344 177.824219 295.140625 182.269531 294.28125 L 188.457031 293.085938 L 190.074219 301.226562 C 196.960938 301.464844 202.710938 306.542969 203.808594 313.34375 L 205.460938 323.675781 Z M 267.898438 241.332031 C 263.03125 241.332031 259.085938 245.277344 259.085938 250.144531 C 259.085938 255.015625 263.03125 258.960938 267.898438 258.960938 C 272.765625 258.960938 276.714844 255.015625 276.714844 250.144531 C 276.714844 245.277344 272.765625 241.332031 267.898438 241.332031 Z M 599.207031 330.574219 L 592.707031 323.6875 L 591.050781 313.355469 C 589.96875 306.558594 584.203125 301.464844 577.320312 301.242188 L 575.703125 293.097656 L 569.511719 294.292969 C 565.070312 295.152344 561.472656 297.917969 559.402344 301.589844 C 549.257812 292.5 536.058594 287.410156 522.304688 287.410156 L 490.71875 287.410156 C 486.234375 284.457031 480.882812 282.753906 475.167969 282.753906 C 464.25 282.753906 454.824219 288.925781 450.105469 297.917969 L 449.957031 297.679688 L 444.328125 279.75 C 442.710938 274.597656 437.21875 271.734375 432.066406 273.363281 C 431.503906 273.539062 431.042969 273.875 430.695312 274.296875 C 428.839844 274.222656 426.9375 274.660156 425.230469 275.707031 C 423.847656 276.539062 423.414062 278.34375 424.246094 279.726562 L 438.316406 302.945312 L 438.703125 304.167969 C 439.921875 308.0625 443.144531 310.765625 446.894531 311.511719 C 446.894531 311.710938 446.894531 311.910156 446.90625 312.109375 C 447.839844 318.621094 451.4375 324.507812 456.441406 328.742188 C 452.234375 330.386719 448.226562 332.640625 444.539062 335.464844 C 435.078125 342.75 428.792969 353.070312 426.636719 364.722656 C 426.375 366.128906 427.347656 367.476562 428.765625 367.660156 C 430.0625 367.835938 431.28125 366.964844 431.519531 365.667969 C 433.433594 355.210938 439.074219 345.960938 447.566406 339.414062 C 451.835938 336.125 456.59375 333.710938 461.609375 332.230469 C 465.308594 334.171875 469.429688 335.304688 473.636719 335.304688 L 597.164062 335.304688 C 599.628906 335.277344 600.886719 332.351562 599.207031 330.574219 Z M 599.207031 330.574219 " fill-opacity="1" fill-rule="nonzero"/><path fill="#9bd2e0" d="M 611.730469 368.71875 L 611.730469 594.289062 L 590.46875 594.289062 L 590.46875 368.71875 Z M 12.324219 594.289062 L 33.589844 594.289062 L 33.589844 368.71875 L 12.324219 368.71875 Z M 406.605469 333.375 C 394.191406 321.210938 387.097656 304.351562 387.132812 287.132812 L 387.144531 285.316406 L 372.15625 301.800781 L 372.144531 302.011719 C 371.246094 314.199219 376.175781 326.300781 385.328125 334.394531 L 386.757812 335.652344 L 387.582031 334.71875 L 386.148438 333.460938 C 377.335938 325.667969 372.566406 314.039062 373.363281 302.3125 L 385.902344 288.515625 C 386.238281 305.585938 393.421875 322.179688 405.734375 334.246094 C 406.792969 335.277344 406.964844 335.515625 406.992188 335.554688 L 407.539062 335.265625 L 408.136719 335.078125 C 408.074219 334.917969 408.023438 334.769531 406.605469 333.375 Z M 357.351562 297.492188 L 345.425781 297.492188 C 342.375 297.492188 339.886719 299.984375 339.886719 303.035156 C 339.886719 306.082031 342.375 308.574219 345.425781 308.574219 L 356.058594 308.574219 L 356.058594 307.328125 L 345.425781 307.328125 C 343.058594 307.328125 341.128906 305.398438 341.128906 303.035156 C 341.128906 300.667969 343.058594 298.738281 345.425781 298.738281 L 357.351562 298.738281 C 361.722656 298.738281 365.285156 302.300781 365.285156 306.667969 C 365.285156 311.039062 361.722656 314.597656 357.351562 314.597656 L 355.175781 314.597656 L 355.175781 315.84375 L 357.351562 315.84375 C 362.40625 315.84375 366.527344 311.734375 366.527344 306.667969 C 366.527344 301.601562 362.40625 297.492188 357.351562 297.492188 Z M 452.246094 132.640625 L 452.296875 131.398438 C 451.414062 131.359375 450.714844 130.652344 450.714844 129.765625 C 450.714844 129.578125 450.753906 129.394531 450.828125 129.195312 L 449.65625 128.769531 C 449.53125 129.105469 449.46875 129.441406 449.46875 129.765625 C 449.457031 131.324219 450.679688 132.59375 452.246094 132.640625 Z M 448.4375 130.3125 L 440.257812 132.492188 L 440.582031 133.699219 L 448.761719 131.523438 Z M 449.269531 132.480469 L 441.875 136.613281 L 442.484375 137.695312 L 449.882812 133.5625 Z M 453.925781 320.113281 L 447.851562 324.324219 C 448.550781 325.542969 449.359375 326.699219 450.242188 327.773438 L 456.316406 323.5625 C 457.277344 322.902344 457.511719 321.597656 456.851562 320.636719 C 456.195312 319.679688 454.875 319.441406 453.925781 320.113281 Z M 267.898438 256.183594 C 264.574219 256.183594 261.859375 253.480469 261.859375 250.144531 C 261.859375 246.820312 264.5625 244.109375 267.898438 244.109375 C 271.222656 244.109375 273.9375 246.808594 273.9375 250.144531 C 273.9375 253.46875 271.222656 256.183594 267.898438 256.183594 Z M 267.898438 245.351562 C 265.261719 245.351562 263.105469 247.507812 263.105469 250.144531 C 263.105469 252.785156 265.261719 254.9375 267.898438 254.9375 C 270.539062 254.9375 272.691406 252.785156 272.691406 250.144531 C 272.691406 247.507812 270.539062 245.351562 267.898438 245.351562 Z M 267.898438 245.351562 " fill-opacity="1" fill-rule="nonzero"/><path fill="#14090f" d="M 347.144531 561.472656 L 545.785156 561.472656 L 545.785156 595.96875 L 527.058594 595.96875 L 527.058594 595.347656 C 527.058594 587.265625 520.484375 580.695312 512.40625 580.695312 L 380.535156 580.695312 C 372.453125 580.695312 365.882812 587.265625 365.882812 595.347656 L 365.882812 595.96875 L 347.15625 595.96875 L 347.15625 561.472656 Z M 347.144531 477.496094 L 365.867188 477.496094 L 365.867188 476.871094 C 365.867188 468.792969 372.441406 462.21875 380.523438 462.21875 L 512.378906 462.21875 C 520.460938 462.21875 527.035156 468.792969 527.035156 476.871094 L 527.035156 477.496094 L 545.757812 477.496094 L 545.757812 442.996094 L 347.144531 442.996094 Z M 592.980469 335.105469 C 592.933594 334.929688 592.882812 334.769531 591.449219 333.375 C 580.84375 322.992188 574.132812 309.171875 572.425781 294.628906 C 572.914062 295.738281 573.945312 296.558594 575.242188 296.683594 C 575.640625 296.722656 576.023438 296.671875 576.398438 296.585938 L 575.703125 293.097656 L 572.316406 293.746094 C 572.089844 291.554688 571.964844 289.351562 571.980469 287.132812 L 571.992188 285.316406 L 557 301.8125 L 556.988281 302.023438 C 556.09375 314.214844 561.023438 326.316406 570.171875 334.40625 L 571.605469 335.664062 C 572.328125 336.4375 573.136719 335.640625 572.425781 334.730469 L 570.996094 333.472656 C 562.179688 325.679688 557.414062 314.050781 558.210938 302.324219 L 570.746094 288.527344 C 571.082031 305.597656 578.265625 322.195312 590.578125 334.257812 C 591.613281 335.265625 591.800781 335.515625 591.835938 335.566406 C 592.457031 336.210938 593.46875 335.777344 592.980469 335.105469 Z M 542.199219 297.492188 L 530.269531 297.492188 C 527.222656 297.492188 524.730469 299.984375 524.730469 303.035156 C 524.730469 306.082031 527.222656 308.574219 530.269531 308.574219 L 540.902344 308.574219 L 540.902344 307.328125 L 530.269531 307.328125 C 527.90625 307.328125 525.976562 305.398438 525.976562 303.035156 C 525.976562 300.667969 527.90625 298.738281 530.269531 298.738281 L 542.199219 298.738281 C 546.566406 298.738281 550.128906 302.300781 550.128906 306.667969 C 550.128906 311.039062 546.566406 314.597656 542.199219 314.597656 L 540.019531 314.597656 L 540.019531 315.84375 L 542.199219 315.84375 C 547.253906 315.84375 551.375 311.734375 551.375 306.667969 C 551.375 301.601562 547.253906 297.492188 542.199219 297.492188 Z M 202.386719 286.488281 L 203.582031 286.835938 L 215.035156 246.957031 L 213.839844 246.609375 Z M 288.679688 257.742188 C 290.917969 263.890625 290.273438 270.636719 286.898438 276.242188 L 286.773438 276.441406 L 288.429688 285.617188 L 289.648438 285.390625 L 288.070312 276.675781 C 291.542969 270.789062 292.175781 263.742188 289.835938 257.304688 L 288.367188 253.269531 C 282.355469 236.800781 277.761719 224.199219 277.734375 224.136719 L 276.566406 224.574219 C 276.625 224.746094 282.617188 241.167969 287.183594 253.695312 Z M 222.507812 294.132812 L 220.527344 293.171875 C 219.804688 292.824219 218.945312 293.046875 218.484375 293.683594 L 218.160156 294.121094 C 217.6875 294.765625 217.75 295.652344 218.296875 296.222656 L 219.816406 297.816406 C 220.527344 298.5625 221.734375 298.476562 222.34375 297.65625 L 223.128906 296.585938 C 223.726562 295.75 223.441406 294.578125 222.507812 294.132812 Z M 381.992188 94.382812 C 384.507812 94.296875 386.472656 92.253906 386.472656 89.753906 C 386.472656 89.230469 386.375 88.679688 386.175781 88.144531 C 385.886719 87.4375 384.707031 87.761719 385.003906 88.582031 C 385.152344 88.992188 385.226562 89.367188 385.226562 89.753906 C 385.226562 91.582031 383.785156 93.078125 381.941406 93.152344 C 381.121094 93.015625 380.859375 94.210938 381.992188 94.382812 Z M 388.328125 92.390625 L 402.882812 96.25 C 403.828125 96.449219 404.054688 95.28125 403.207031 95.042969 L 388.652344 91.183594 C 387.894531 91.132812 387.769531 92.066406 388.328125 92.390625 Z M 386.449219 96.089844 L 399.582031 103.445312 C 400.679688 104.167969 401.050781 102.847656 400.191406 102.363281 L 387.058594 95.007812 C 386.386719 94.621094 386 95.742188 386.449219 96.089844 Z M 205.140625 334.246094 C 194.53125 323.851562 187.734375 310.105469 185.804688 295.589844 C 186.351562 296.1875 187.109375 296.597656 187.984375 296.683594 C 188.382812 296.722656 188.765625 296.671875 189.140625 296.585938 L 188.445312 293.097656 L 185.554688 293.660156 C 185.332031 291.429688 185.207031 289.1875 185.21875 286.9375 L 185.21875 285.117188 L 169.917969 301.949219 L 169.90625 302.160156 C 168.984375 314.625 174.027344 327.011719 183.390625 335.277344 L 184.84375 336.574219 C 185.628906 337.332031 186.6875 336.550781 185.667969 335.640625 L 184.210938 334.34375 C 175.183594 326.378906 170.304688 314.460938 171.125 302.460938 L 183.988281 288.316406 C 184.324219 305.796875 191.667969 322.777344 204.265625 335.128906 C 205.324219 336.164062 205.511719 336.410156 205.550781 336.472656 C 206.335938 337.296875 207.117188 336.597656 206.695312 336 C 206.644531 335.828125 206.59375 335.664062 205.140625 334.246094 Z M 154.941406 297.492188 L 143.011719 297.492188 C 139.964844 297.492188 137.472656 299.984375 137.472656 303.035156 C 137.472656 306.082031 139.964844 308.574219 143.011719 308.574219 L 153.644531 308.574219 L 153.644531 307.328125 L 143.011719 307.328125 C 140.648438 307.328125 138.71875 305.398438 138.71875 303.035156 C 138.71875 300.667969 140.648438 298.738281 143.011719 298.738281 L 154.941406 298.738281 C 159.308594 298.738281 162.871094 302.300781 162.871094 306.667969 C 162.871094 311.039062 159.308594 314.597656 154.941406 314.597656 L 152.761719 314.597656 L 152.761719 315.84375 L 154.941406 315.84375 C 159.996094 315.84375 164.117188 311.734375 164.117188 306.667969 C 164.117188 301.601562 160.007812 297.492188 154.941406 297.492188 Z M 66.667969 320.113281 L 60.59375 324.324219 C 61.292969 325.542969 62.101562 326.699219 62.984375 327.773438 L 69.058594 323.5625 C 70.019531 322.902344 70.253906 321.597656 69.59375 320.636719 C 68.9375 319.679688 67.617188 319.441406 66.667969 320.113281 Z M 252.722656 208.226562 C 252.1875 207.851562 251.515625 208.414062 251.777344 209.011719 L 256.085938 218.496094 C 257.304688 216.964844 258.164062 215.136719 258.535156 213.144531 L 258.734375 210.742188 C 258.613281 210.714844 258.488281 210.691406 258.363281 210.667969 C 256.285156 210.230469 254.378906 209.382812 252.722656 208.226562 Z M 43.949219 274.671875 L 42.976562 273.886719 C 42.230469 274.820312 41.992188 276.054688 42.355469 277.1875 L 50.484375 303.109375 L 51.667969 302.734375 L 43.539062 276.8125 C 43.300781 276.078125 43.464844 275.28125 43.949219 274.671875 Z M 438.117188 304.328125 L 439.3125 303.953125 L 430.796875 276.824219 C 430.421875 275.617188 431.082031 274.324219 432.277344 273.949219 L 431.902344 272.765625 C 430.0625 273.351562 429.027344 275.34375 429.613281 277.199219 Z M 103.808594 286.859375 L 103.125 287.894531 C 107.566406 290.820312 111.054688 294.929688 113.207031 299.785156 L 114.339844 299.273438 C 112.101562 294.21875 108.453125 289.921875 103.808594 286.859375 Z M 500.464844 299.796875 L 501.597656 299.285156 C 499.34375 294.21875 495.710938 289.921875 491.054688 286.859375 L 490.367188 287.894531 C 494.824219 290.832031 498.3125 294.941406 500.464844 299.796875 Z M 274.921875 301.589844 L 270.351562 302.386719 L 270.5625 303.617188 L 275.132812 302.820312 C 276.167969 302.648438 277.210938 303.132812 277.734375 304.03125 C 278.207031 304.851562 278.195312 305.859375 277.671875 306.667969 C 277.421875 307.054688 277.164062 307.414062 276.964844 307.664062 C 274.511719 309.71875 272.308594 311.0625 270.761719 311.460938 L 271.074219 312.667969 C 273.277344 312.109375 275.917969 310.15625 277.835938 308.546875 C 278.144531 308.175781 278.445312 307.765625 278.71875 307.339844 C 279.492188 306.132812 279.515625 304.628906 278.804688 303.40625 C 278.019531 302.039062 276.453125 301.316406 274.921875 301.589844 Z M 291.542969 307.953125 C 291.804688 306.496094 291.394531 304.949219 290.398438 303.769531 L 289.5 302.710938 C 289.613281 302.3125 289.710938 301.9375 289.785156 301.601562 L 288.578125 301.328125 C 287.882812 304.339844 285.828125 310.191406 279.8125 315.410156 L 280.636719 316.355469 C 285.527344 312.109375 287.90625 307.464844 289.078125 304.117188 L 289.464844 304.578125 C 290.347656 305.621094 290.621094 307.042969 290.199219 308.261719 C 288.617188 312.78125 284.011719 317.738281 283.960938 317.785156 L 284.867188 318.632812 C 285.054688 318.433594 289.203125 313.976562 291.070312 309.457031 C 291.667969 310.703125 291.667969 312.160156 291.007812 313.378906 C 289.339844 316.492188 286.597656 319.851562 286.574219 319.890625 L 287.53125 320.675781 C 287.644531 320.539062 290.371094 317.1875 292.101562 313.964844 C 293.136719 312.035156 292.9375 309.667969 291.59375 307.914062 Z M 291.542969 307.953125 " fill-opacity="1" fill-rule="nonzero"/><g clip-path="url(#dd4bc14ec8)"><g clip-path="url(#4a1a0187c0)"><g clip-path="url(#0d63d425d8)"><path fill="#f8f6b3" d="M 258.851562 174.140625 C 258.632812 174.128906 258.410156 174.132812 258.1875 174.140625 C 258.109375 174.144531 258.03125 174.144531 257.957031 174.148438 C 257.828125 174.148438 257.699219 174.167969 257.574219 174.183594 C 257.144531 174.234375 256.707031 174.328125 256.289062 174.445312 C 256.28125 174.449219 256.273438 174.449219 256.257812 174.453125 C 256.125 174.492188 256 174.53125 255.875 174.578125 C 255.402344 174.746094 254.953125 174.972656 254.53125 175.222656 C 254.210938 175.410156 253.910156 175.628906 253.625 175.855469 C 253.582031 175.894531 253.53125 175.929688 253.488281 175.964844 C 253.210938 176.203125 252.949219 176.457031 252.714844 176.730469 C 252.527344 176.9375 252.359375 177.164062 252.195312 177.394531 C 252.050781 177.601562 251.921875 177.8125 251.796875 178.027344 C 251.714844 178.183594 251.628906 178.339844 251.554688 178.5 C 251.3125 179 251.136719 179.527344 251.007812 180.070312 C 250.96875 180.210938 250.949219 180.347656 250.917969 180.492188 C 250.917969 180.503906 250.914062 180.511719 250.914062 180.527344 C 250.832031 180.980469 250.804688 181.441406 250.804688 181.902344 C 250.804688 182.054688 250.8125 182.21875 250.824219 182.378906 C 250.84375 182.632812 250.878906 182.882812 250.921875 183.132812 C 250.933594 183.222656 250.957031 183.316406 250.972656 183.40625 C 251.007812 183.554688 251.042969 183.707031 251.082031 183.84375 C 251.089844 183.882812 251.097656 183.921875 251.113281 183.960938 C 251.191406 184.226562 251.28125 184.492188 251.386719 184.746094 C 251.414062 184.808594 251.441406 184.863281 251.464844 184.925781 C 251.636719 185.316406 251.84375 185.691406 252.078125 186.039062 C 252.273438 186.335938 252.488281 186.613281 252.71875 186.878906 C 252.851562 187.035156 252.992188 187.175781 253.140625 187.316406 C 253.203125 187.378906 253.265625 187.441406 253.339844 187.503906 C 253.480469 187.636719 253.632812 187.757812 253.789062 187.878906 C 253.789062 187.878906 253.796875 187.878906 253.796875 187.886719 C 254.097656 188.121094 254.414062 188.324219 254.746094 188.511719 C 255.214844 188.777344 255.714844 188.984375 256.238281 189.140625 C 256.792969 189.308594 257.355469 189.414062 257.933594 189.453125 C 258.53125 189.496094 259.128906 189.464844 259.71875 189.375 C 260.835938 189.199219 261.894531 188.761719 262.824219 188.125 C 263.289062 187.8125 263.703125 187.4375 264.085938 187.039062 C 264.484375 186.621094 264.820312 186.148438 265.113281 185.65625 C 265.40625 185.160156 265.628906 184.628906 265.796875 184.078125 C 265.972656 183.507812 266.085938 182.925781 266.128906 182.324219 C 266.207031 181.183594 266.027344 180.03125 265.605469 178.964844 C 265.417969 178.464844 265.15625 177.976562 264.851562 177.523438 C 264.546875 177.066406 264.191406 176.65625 263.800781 176.269531 C 263.429688 175.90625 263.015625 175.582031 262.570312 175.304688 C 262.105469 175.015625 261.621094 174.769531 261.101562 174.582031 C 260.675781 174.425781 260.242188 174.3125 259.796875 174.234375 C 259.785156 174.230469 259.769531 174.230469 259.746094 174.226562 C 259.734375 174.222656 259.726562 174.222656 259.710938 174.21875 C 259.429688 174.183594 259.144531 174.152344 258.851562 174.140625 Z M 260.421875 175.324219 C 260.992188 175.503906 261.539062 175.746094 262.046875 176.054688 C 262.542969 176.371094 262.992188 176.738281 263.398438 177.164062 C 263.789062 177.589844 264.128906 178.058594 264.414062 178.5625 C 264.691406 179.078125 264.902344 179.625 265.046875 180.195312 C 265.183594 180.777344 265.253906 181.371094 265.238281 181.976562 C 265.214844 182.582031 265.121094 183.179688 264.953125 183.765625 C 264.773438 184.335938 264.523438 184.882812 264.214844 185.394531 C 263.898438 185.882812 263.53125 186.335938 263.113281 186.734375 C 262.6875 187.125 262.21875 187.464844 261.714844 187.75 C 261.199219 188.019531 260.65625 188.238281 260.089844 188.386719 C 259.507812 188.519531 258.914062 188.589844 258.308594 188.574219 C 257.707031 188.550781 257.113281 188.457031 256.535156 188.292969 C 256 188.125 255.488281 187.898438 255 187.613281 C 254.964844 187.59375 254.933594 187.570312 254.90625 187.554688 C 254.792969 187.484375 254.679688 187.40625 254.574219 187.324219 C 254.566406 187.3125 254.558594 187.3125 254.554688 187.304688 C 254.546875 187.304688 254.546875 187.296875 254.539062 187.292969 C 254.535156 187.292969 254.535156 187.285156 254.527344 187.285156 C 254.183594 187.03125 253.859375 186.75 253.558594 186.4375 C 253.277344 186.125 253.019531 185.796875 252.792969 185.441406 C 252.792969 185.441406 252.792969 185.441406 252.796875 185.433594 C 252.789062 185.425781 252.789062 185.425781 252.78125 185.417969 C 252.777344 185.410156 252.777344 185.410156 252.769531 185.402344 C 252.769531 185.402344 252.773438 185.394531 252.765625 185.394531 C 252.6875 185.277344 252.617188 185.15625 252.546875 185.03125 C 252.285156 184.539062 252.082031 184.019531 251.929688 183.476562 C 251.929688 183.476562 251.929688 183.46875 251.929688 183.46875 C 251.929688 183.46875 251.933594 183.464844 251.925781 183.460938 C 251.921875 183.445312 251.917969 183.421875 251.910156 183.40625 C 251.894531 183.339844 251.878906 183.277344 251.871094 183.210938 C 251.871094 183.203125 251.863281 183.195312 251.867188 183.1875 C 251.867188 183.1875 251.867188 183.1875 251.867188 183.179688 C 251.769531 182.710938 251.726562 182.246094 251.71875 181.773438 C 251.71875 181.773438 251.722656 181.765625 251.722656 181.765625 C 251.722656 181.757812 251.722656 181.75 251.722656 181.75 C 251.726562 181.742188 251.726562 181.742188 251.726562 181.738281 C 251.726562 181.738281 251.726562 181.730469 251.726562 181.730469 C 251.726562 181.699219 251.730469 181.664062 251.726562 181.632812 C 251.75 181.023438 251.847656 180.425781 252.011719 179.84375 C 252.113281 179.535156 252.230469 179.226562 252.363281 178.9375 C 252.363281 178.929688 252.375 178.925781 252.375 178.917969 C 252.375 178.910156 252.375 178.902344 252.382812 178.90625 C 252.382812 178.90625 252.386719 178.898438 252.386719 178.898438 C 252.496094 178.671875 252.609375 178.453125 252.742188 178.238281 C 253.054688 177.746094 253.421875 177.296875 253.851562 176.890625 C 253.988281 176.757812 254.132812 176.640625 254.289062 176.515625 C 254.296875 176.507812 254.296875 176.503906 254.304688 176.503906 C 254.304688 176.503906 254.304688 176.496094 254.3125 176.496094 C 254.320312 176.492188 254.320312 176.492188 254.328125 176.484375 C 254.328125 176.484375 254.335938 176.480469 254.335938 176.480469 C 254.335938 176.480469 254.347656 176.472656 254.347656 176.472656 C 254.355469 176.46875 254.355469 176.46875 254.363281 176.460938 C 254.363281 176.460938 254.371094 176.453125 254.371094 176.453125 C 254.378906 176.449219 254.378906 176.449219 254.386719 176.441406 C 254.386719 176.441406 254.386719 176.441406 254.394531 176.4375 C 254.40625 176.429688 254.414062 176.425781 254.414062 176.425781 C 254.664062 176.234375 254.929688 176.0625 255.199219 175.90625 C 255.207031 175.898438 255.214844 175.894531 255.222656 175.894531 C 255.230469 175.890625 255.238281 175.890625 255.246094 175.882812 C 255.761719 175.609375 256.308594 175.394531 256.871094 175.246094 C 256.9375 175.234375 257 175.214844 257.070312 175.203125 C 257.078125 175.207031 257.078125 175.207031 257.085938 175.199219 C 257.09375 175.203125 257.09375 175.203125 257.101562 175.195312 C 257.527344 175.109375 257.957031 175.066406 258.386719 175.050781 C 258.386719 175.050781 258.394531 175.054688 258.394531 175.054688 C 258.394531 175.054688 258.394531 175.054688 258.402344 175.054688 C 258.484375 175.054688 258.558594 175.050781 258.640625 175.054688 C 258.726562 175.054688 258.824219 175.0625 258.910156 175.070312 C 259.417969 175.089844 259.929688 175.179688 260.421875 175.324219 Z M 264.203125 185.421875 C 264.191406 185.433594 264.191406 185.441406 264.183594 185.457031 C 264.191406 185.441406 264.199219 185.429688 264.203125 185.421875 Z M 264.203125 185.421875 " fill-opacity="1" fill-rule="nonzero"/></g></g></g><g clip-path="url(#345aa85408)"><g clip-path="url(#fac7838577)"><g clip-path="url(#d92465f098)"><path fill="#f8f6b3" d="M 278 177.773438 C 277.4375 177.816406 276.878906 177.941406 276.332031 178.105469 C 276.140625 178.164062 275.949219 178.238281 275.761719 178.3125 C 275.722656 178.328125 275.675781 178.347656 275.632812 178.363281 C 275.300781 178.503906 274.980469 178.675781 274.667969 178.863281 C 274.488281 178.972656 274.304688 179.09375 274.128906 179.21875 C 273.695312 179.535156 273.289062 179.90625 272.929688 180.308594 C 272.75 180.507812 272.582031 180.71875 272.421875 180.9375 C 272.394531 180.96875 272.375 181.011719 272.347656 181.042969 C 272.210938 181.246094 272.082031 181.445312 271.960938 181.65625 C 271.960938 181.664062 271.960938 181.664062 271.949219 181.667969 C 271.675781 182.144531 271.46875 182.65625 271.3125 183.179688 C 271.140625 183.746094 271.035156 184.320312 270.992188 184.910156 C 270.914062 186.046875 271.097656 187.183594 271.503906 188.238281 C 271.703125 188.753906 271.96875 189.238281 272.265625 189.691406 C 272.570312 190.15625 272.9375 190.574219 273.328125 190.964844 C 273.730469 191.359375 274.179688 191.691406 274.660156 191.988281 C 275.136719 192.277344 275.640625 192.515625 276.171875 192.695312 C 277.296875 193.074219 278.492188 193.191406 279.667969 193.035156 C 280.816406 192.886719 281.914062 192.453125 282.886719 191.824219 C 283.820312 191.210938 284.601562 190.382812 285.191406 189.433594 C 285.789062 188.460938 286.15625 187.351562 286.28125 186.210938 C 286.402344 185.070312 286.253906 183.914062 285.871094 182.832031 C 285.6875 182.316406 285.4375 181.824219 285.152344 181.355469 C 284.863281 180.882812 284.511719 180.457031 284.128906 180.054688 C 283.761719 179.671875 283.34375 179.332031 282.902344 179.03125 C 282.425781 178.71875 281.929688 178.457031 281.398438 178.253906 C 280.902344 178.0625 280.394531 177.929688 279.875 177.847656 C 279.261719 177.75 278.628906 177.722656 278 177.773438 Z M 280.609375 178.941406 C 281.179688 179.121094 281.726562 179.363281 282.238281 179.671875 C 282.726562 179.988281 283.171875 180.355469 283.582031 180.765625 C 283.980469 181.191406 284.316406 181.667969 284.605469 182.171875 C 284.882812 182.683594 285.089844 183.226562 285.238281 183.789062 C 285.375 184.375 285.441406 184.976562 285.433594 185.574219 C 285.410156 186.183594 285.316406 186.78125 285.148438 187.363281 C 284.96875 187.933594 284.726562 188.480469 284.417969 188.992188 C 284.101562 189.480469 283.734375 189.933594 283.316406 190.339844 C 282.882812 190.738281 282.414062 191.078125 281.910156 191.359375 C 281.394531 191.632812 280.84375 191.847656 280.277344 191.996094 C 279.695312 192.132812 279.109375 192.191406 278.511719 192.1875 C 277.90625 192.164062 277.308594 192.070312 276.722656 191.902344 C 276.15625 191.722656 275.613281 191.480469 275.105469 191.171875 C 274.609375 190.855469 274.15625 190.488281 273.753906 190.0625 C 273.355469 189.628906 273.015625 189.160156 272.726562 188.648438 C 272.453125 188.132812 272.242188 187.59375 272.097656 187.023438 C 271.960938 186.441406 271.898438 185.847656 271.90625 185.25 C 271.929688 184.640625 272.023438 184.039062 272.191406 183.460938 C 272.359375 182.917969 272.589844 182.398438 272.882812 181.914062 C 272.882812 181.914062 272.882812 181.914062 272.882812 181.90625 C 272.882812 181.90625 272.882812 181.898438 272.882812 181.898438 C 272.894531 181.878906 272.90625 181.859375 272.921875 181.839844 C 272.980469 181.746094 273.042969 181.648438 273.105469 181.5625 C 273.105469 181.5625 273.109375 181.558594 273.109375 181.558594 C 273.109375 181.550781 273.117188 181.542969 273.117188 181.535156 C 273.386719 181.15625 273.6875 180.804688 274.027344 180.484375 C 274.449219 180.089844 274.925781 179.746094 275.429688 179.464844 C 275.445312 179.453125 275.460938 179.445312 275.480469 179.433594 C 275.480469 179.433594 275.488281 179.4375 275.488281 179.429688 C 275.496094 179.429688 275.496094 179.421875 275.503906 179.421875 C 275.976562 179.179688 276.476562 178.984375 276.992188 178.847656 C 277 178.847656 277.007812 178.84375 277.015625 178.84375 C 277.015625 178.84375 277.023438 178.84375 277.023438 178.835938 C 277.03125 178.839844 277.03125 178.832031 277.039062 178.832031 C 277.046875 178.832031 277.054688 178.828125 277.054688 178.828125 C 277.078125 178.824219 277.101562 178.820312 277.125 178.808594 C 277.683594 178.683594 278.253906 178.625 278.832031 178.628906 C 279.429688 178.679688 280.027344 178.773438 280.609375 178.941406 Z M 280.609375 178.941406 " fill-opacity="1" fill-rule="nonzero"/></g></g></g><g clip-path="url(#e70f3703dd)"><g clip-path="url(#4622c8b7ae)"><g clip-path="url(#f4c8d2cc27)"><path fill="#f8f6b3" d="M 268.742188 180.832031 C 268.492188 180.808594 268.234375 180.804688 267.988281 180.832031 C 267.898438 180.839844 267.8125 180.847656 267.722656 180.863281 C 267.488281 180.898438 267.246094 180.972656 267.027344 181.054688 C 266.933594 181.09375 266.835938 181.136719 266.746094 181.183594 C 266.746094 181.183594 266.738281 181.1875 266.738281 181.1875 C 266.730469 181.195312 266.722656 181.199219 266.707031 181.203125 C 266.625 181.25 266.546875 181.289062 266.460938 181.34375 C 266.167969 181.511719 265.921875 181.730469 265.683594 181.964844 C 265.53125 182.128906 265.394531 182.296875 265.273438 182.484375 C 265.273438 182.484375 265.273438 182.492188 265.265625 182.492188 C 265.265625 182.492188 265.265625 182.5 265.265625 182.5 C 265.265625 182.507812 265.257812 182.511719 265.257812 182.511719 C 265.230469 182.546875 265.207031 182.578125 265.195312 182.613281 C 265.195312 182.621094 265.1875 182.621094 265.1875 182.628906 C 265.125 182.730469 265.140625 182.878906 265.175781 182.980469 C 265.214844 183.089844 265.304688 183.179688 265.40625 183.230469 C 265.519531 183.277344 265.652344 183.285156 265.761719 183.242188 C 265.792969 183.226562 265.828125 183.203125 265.867188 183.1875 C 265.925781 183.136719 265.980469 183.085938 266.011719 183.015625 C 266.140625 182.824219 266.285156 182.648438 266.453125 182.480469 C 266.625 182.324219 266.816406 182.183594 267.019531 182.070312 C 267.230469 181.960938 267.449219 181.878906 267.675781 181.808594 C 267.914062 181.757812 268.148438 181.730469 268.390625 181.730469 C 268.640625 181.742188 268.878906 181.78125 269.121094 181.847656 C 269.261719 181.890625 269.398438 181.949219 269.527344 182.015625 C 269.535156 182.015625 269.535156 182.015625 269.542969 182.019531 C 269.542969 182.019531 269.550781 182.019531 269.550781 182.019531 C 269.625 182.054688 269.707031 182.097656 269.78125 182.144531 C 269.984375 182.273438 270.164062 182.429688 270.332031 182.59375 C 270.34375 182.613281 270.363281 182.628906 270.375 182.644531 C 270.511719 182.808594 270.632812 182.976562 270.738281 183.15625 C 270.828125 183.332031 270.910156 183.523438 270.96875 183.710938 C 270.96875 183.710938 270.96875 183.714844 270.972656 183.71875 C 270.984375 183.75 270.992188 183.78125 271.003906 183.820312 C 271.035156 183.980469 271.0625 184.132812 271.074219 184.296875 C 271.082031 184.378906 271.085938 184.460938 271.085938 184.550781 C 271.082031 184.613281 271.078125 184.6875 271.066406 184.753906 C 271.066406 184.753906 271.066406 184.761719 271.066406 184.761719 C 271.066406 184.769531 271.066406 184.773438 271.0625 184.78125 C 271.0625 184.78125 271.0625 184.789062 271.0625 184.789062 C 271.0625 184.796875 271.058594 184.804688 271.058594 184.8125 C 271.058594 184.8125 271.058594 184.820312 271.058594 184.820312 C 271.058594 184.824219 271.054688 184.832031 271.054688 184.839844 C 271.054688 184.839844 271.054688 184.847656 271.054688 184.847656 C 271.050781 184.855469 271.050781 184.863281 271.050781 184.867188 C 271.050781 184.867188 271.050781 184.867188 271.046875 184.875 C 271.046875 184.882812 271.046875 184.890625 271.042969 184.90625 C 271.042969 184.914062 271.039062 184.925781 271.039062 184.933594 C 271 185.179688 271.175781 185.421875 271.421875 185.460938 C 271.667969 185.5 271.902344 185.328125 271.949219 185.078125 C 272.003906 184.730469 272.015625 184.371094 271.96875 184.015625 C 271.96875 184.015625 271.96875 184.007812 271.96875 184.007812 C 271.960938 183.933594 271.953125 183.851562 271.933594 183.773438 C 271.902344 183.613281 271.859375 183.453125 271.800781 183.300781 C 271.761719 183.183594 271.714844 183.058594 271.660156 182.945312 C 271.574219 182.769531 271.480469 182.59375 271.363281 182.433594 C 271.351562 182.417969 271.339844 182.394531 271.328125 182.375 C 271.292969 182.324219 271.253906 182.277344 271.210938 182.222656 C 271.089844 182.066406 270.949219 181.917969 270.800781 181.78125 C 270.703125 181.691406 270.605469 181.609375 270.5 181.542969 C 270.453125 181.503906 270.40625 181.476562 270.351562 181.445312 C 270.332031 181.433594 270.3125 181.414062 270.292969 181.40625 C 270.117188 181.296875 269.933594 181.199219 269.738281 181.117188 C 269.675781 181.09375 269.613281 181.066406 269.542969 181.042969 C 269.394531 180.988281 269.238281 180.949219 269.082031 180.917969 C 269.074219 180.914062 269.0625 180.914062 269.054688 180.914062 C 269.011719 180.90625 268.960938 180.898438 268.917969 180.890625 C 268.855469 180.84375 268.800781 180.835938 268.742188 180.832031 Z M 268.742188 180.832031 " fill-opacity="1" fill-rule="nonzero"/></g></g></g></svg>