<svg xmlns="http://www.w3.org/2000/svg" xmlns:xlink="http://www.w3.org/1999/xlink" width="831" zoomAndPan="magnify" viewBox="0 0 623.25 623.249999" height="831" preserveAspectRatio="xMidYMid meet" version="1.0"><defs><clipPath id="479d79eeab"><path d="M 0 0 L 622.5 0 L 622.5 622.5 L 0 622.5 Z M 0 0 " clip-rule="nonzero"/></clipPath><clipPath id="036343bd9a"><path d="M 0 0 L 265.792969 0 L 265.792969 560 L 0 560 Z M 0 0 " clip-rule="nonzero"/></clipPath><clipPath id="4745356766"><path d="M 31.757812 280 L 486 280 L 486 560 L 31.757812 560 Z M 31.757812 280 " clip-rule="nonzero"/></clipPath><clipPath id="b2e08db0b5"><path d="M 418 210 L 590.585938 210 L 590.585938 560 L 418 560 Z M 418 210 " clip-rule="nonzero"/></clipPath><clipPath id="290738ce8d"><path d="M 227 416 L 394 416 L 394 560.582031 L 227 560.582031 Z M 227 416 " clip-rule="nonzero"/></clipPath><clipPath id="20c329fd83"><path d="M 0 559.5 L 622.5 559.5 L 622.5 622.5 L 0 622.5 Z M 0 559.5 " clip-rule="nonzero"/></clipPath><clipPath id="4b47d816d3"><path d="M 381 211 L 400 211 L 400 230 L 381 230 Z M 381 211 " clip-rule="nonzero"/></clipPath><clipPath id="172ce725e9"><path d="M 377.410156 220.015625 L 409.277344 190.484375 L 422.003906 204.21875 L 390.136719 233.75 Z M 377.410156 220.015625 " clip-rule="nonzero"/></clipPath><clipPath id="03858fea59"><path d="M 377.410156 220.015625 L 409.277344 190.484375 L 422.003906 204.21875 L 390.136719 233.75 Z M 377.410156 220.015625 " clip-rule="nonzero"/></clipPath><clipPath id="7e52f4ee63"><path d="M 399 194 L 419 194 L 419 214 L 399 214 Z M 399 194 " clip-rule="nonzero"/></clipPath><clipPath id="58f6084d8b"><path d="M 377.410156 220.015625 L 409.277344 190.484375 L 422.003906 204.21875 L 390.136719 233.75 Z M 377.410156 220.015625 " clip-rule="nonzero"/></clipPath><clipPath id="315a807c43"><path d="M 377.410156 220.015625 L 409.277344 190.484375 L 422.003906 204.21875 L 390.136719 233.75 Z M 377.410156 220.015625 " clip-rule="nonzero"/></clipPath><clipPath id="b52dd8d56a"><path d="M 395 208 L 404 208 L 404 216 L 395 216 Z M 395 208 " clip-rule="nonzero"/></clipPath><clipPath id="44dff11992"><path d="M 377.410156 220.015625 L 409.277344 190.484375 L 422.003906 204.21875 L 390.136719 233.75 Z M 377.410156 220.015625 " clip-rule="nonzero"/></clipPath><clipPath id="1a3e4df27a"><path d="M 377.410156 220.015625 L 409.277344 190.484375 L 422.003906 204.21875 L 390.136719 233.75 Z M 377.410156 220.015625 " clip-rule="nonzero"/></clipPath></defs><g clip-path="url(#479d79eeab)"><path fill="#ffffff" d="M 0 0 L 622.5 0 L 622.5 622.5 L 0 622.5 Z M 0 0 " fill-opacity="1" fill-rule="nonzero"/><path fill="#fafafa" d="M 0 0 L 622.5 0 L 622.5 622.5 L 0 622.5 Z M 0 0 " fill-opacity="1" fill-rule="nonzero"/></g><g clip-path="url(#036343bd9a)"><path fill="#f8becb" d="M -117.222656 -111.082031 C -120.441406 -110.710938 -123.429688 -109.253906 -125.707031 -106.949219 L -492.632812 259.980469 C -498.183594 265.578125 -498.128906 274.617188 -492.527344 280.160156 C -489.863281 282.789062 -486.28125 284.269531 -482.539062 284.285156 L -405.027344 284.285156 L -405.027344 545.265625 C -405.007812 553.101562 -398.65625 559.449219 -390.8125 559.480469 L 159.589844 559.480469 C 167.425781 559.449219 173.777344 553.101562 173.808594 545.265625 L 173.808594 284.292969 L 251.316406 284.292969 C 259.199219 284.261719 265.566406 277.851562 265.535156 269.96875 C 265.519531 266.226562 264.039062 262.640625 261.410156 259.980469 L 171.96875 170.539062 L 171.96875 48.078125 C 171.945312 40.242188 165.589844 33.890625 157.753906 33.859375 L 97.210938 33.859375 C 89.375 33.890625 83.023438 40.242188 82.996094 48.078125 L 82.996094 81.558594 L -105.523438 -106.949219 C -108.585938 -110.039062 -112.902344 -111.5625 -117.222656 -111.082031 Z M -117.222656 -111.082031 " fill-opacity="1" fill-rule="nonzero"/></g><path fill="#9bd2e0" d="M 457.800781 518.566406 C 462.496094 490.636719 472.199219 427.382812 472.480469 426.1875 L 517.230469 412.046875 C 518.257812 412.167969 576.214844 429.21875 576.214844 429.21875 L 575.0625 455.523438 C 575.0625 455.523438 579.164062 457.546875 580.988281 467.820312 C 582.015625 473.632812 585 496.496094 587.40625 518.554688 L 573.621094 530.316406 L 550.15625 518.554688 L 520.203125 433.1875 L 509.425781 457.132812 C 511.058594 468.257812 504.027344 495.085938 496.75 518.554688 L 471.292969 536.855469 Z M 457.800781 518.566406 " fill-opacity="1" fill-rule="nonzero"/><path fill="#14090f" d="M 472.085938 216.347656 C 472.085938 216.347656 436.558594 278.964844 435.195312 280.316406 C 433.84375 281.667969 371.808594 280.316406 371.808594 280.316406 C 371.808594 280.316406 371.808594 233.171875 371.808594 196.125 C 371.816406 176.191406 387.984375 160.023438 407.917969 160.023438 C 416.925781 160.023438 425.445312 163.019531 431.503906 168.789062 C 445.03125 181.691406 472.085938 216.347656 472.085938 216.347656 Z M 472.085938 216.347656 " fill-opacity="1" fill-rule="nonzero"/><path fill="#f8f6b3" d="M 545.234375 309.605469 C 582.5625 349.039062 584.777344 438.53125 584.777344 438.53125 L 462.25 438.53125 L 484.070312 333.945312 C 484.070312 333.945312 507.90625 270.175781 545.234375 309.605469 Z M 545.234375 309.605469 " fill-opacity="1" fill-rule="nonzero"/><g clip-path="url(#4745356766)"><path fill="#9bd2e0" d="M 287.871094 559.894531 L 258.949219 559.894531 C 258.949219 559.894531 247.042969 522.9375 235.023438 485.585938 L 222.042969 542.632812 C 222.042969 542.632812 236.175781 545.867188 234.757812 559.894531 L 201.867188 559.894531 L 201.699219 491.925781 C 201.699219 491.925781 196.945312 483.773438 194.753906 475.871094 L 135.828125 475.871094 C 137.402344 500.441406 139.640625 542.757812 139.640625 542.757812 C 151.066406 547.410156 151.066406 559.894531 151.066406 559.894531 L 124.300781 559.894531 C 124.300781 559.894531 111.222656 512.761719 103.339844 484.265625 L 75.246094 542.757812 C 86.671875 547.410156 86.671875 559.894531 86.671875 559.894531 L 47.542969 559.894531 C 47.855469 558.542969 63.195312 506.34375 68.996094 486.636719 C 65.542969 476.09375 64.972656 464.734375 67.488281 453.777344 L 70.964844 438.675781 C 47.890625 428.402344 31.757812 405.261719 31.757812 378.417969 C 31.757812 343.75 58.644531 315.242188 92.664062 312.660156 C 95.457031 312.445312 97.828125 314.773438 97.695312 317.613281 C 97.582031 320.003906 95.570312 321.894531 93.1875 322.082031 C 64.121094 324.386719 41.179688 348.78125 41.179688 378.417969 C 41.179688 400.878906 54.351562 420.308594 73.367188 429.417969 C 79.460938 412.15625 95.949219 400.453125 114.574219 400.710938 L 201.699219 401.917969 C 201.070312 401.515625 197.886719 387.328125 194.832031 373.195312 C 190.84375 354.113281 191.347656 336.179688 192.238281 325.640625 C 192.609375 321.289062 197.742188 319.199219 201.0625 322.039062 C 205.925781 326.199219 212.105469 332.101562 216.554688 338.472656 C 216.699219 338.4375 216.859375 338.394531 217.003906 338.359375 L 226.203125 336.257812 C 236.320312 333.945312 246.460938 339.511719 250.070312 349.027344 L 262.785156 345.316406 L 266.898438 345.726562 C 267.644531 345.503906 268.050781 346.164062 268.292969 346.902344 C 268.953125 348.902344 270.230469 348.925781 270.328125 350.925781 C 270.765625 359.457031 266.292969 367.585938 258.769531 371.730469 L 264.113281 371.84375 C 264.113281 380.621094 256.835938 387.695312 247.992188 387.394531 C 247.992188 387.394531 247.992188 387.394531 247.980469 387.40625 C 248.765625 386.980469 276.421875 542.746094 276.421875 542.746094 C 287.871094 547.410156 287.871094 559.894531 287.871094 559.894531 Z M 449.335938 280.921875 C 449.28125 283.859375 456.527344 314.804688 456.527344 314.804688 C 456.527344 314.804688 441.523438 331.496094 424.304688 365.503906 L 414.03125 370.121094 C 409.785156 372.035156 407.234375 376.449219 407.714844 381.078125 L 408.085938 384.710938 L 404.070312 393.386719 L 409.402344 400.117188 L 428.542969 397.523438 C 428.542969 397.523438 434.011719 392.703125 437.578125 376.953125 L 472.46875 342.273438 C 479.230469 335.554688 483.246094 326.542969 483.726562 317.019531 L 485.234375 286.921875 Z M 449.335938 280.921875 " fill-opacity="1" fill-rule="nonzero"/></g><g clip-path="url(#b2e08db0b5)"><path fill="#f59cbb" d="M 550.15625 518.566406 L 587.40625 518.566406 C 589.25 535.503906 590.738281 551.957031 590.738281 559.894531 C 590.367188 559.894531 526.65625 559.894531 526.65625 559.894531 C 522.304688 542.757812 554.851562 531.957031 554.851562 531.957031 Z M 496.738281 518.566406 L 457.800781 518.566406 C 456.582031 525.796875 455.710938 530.660156 455.417969 531.464844 C 454.011719 535.378906 419.285156 536.453125 418.527344 559.894531 C 418.527344 559.894531 482.238281 559.894531 482.609375 559.894531 C 482.773438 559.894531 489.863281 540.734375 496.738281 518.566406 Z M 434.824219 229.25 L 422.496094 275.015625 C 426.195312 281.78125 438.707031 289.394531 448.933594 295.253906 L 449.089844 295.554688 C 452.691406 302.40625 460.875 305.472656 468.085938 302.675781 L 484.0625 333.945312 L 545.222656 309.605469 C 545.222656 309.605469 500.5625 206.273438 451.496094 210.445312 C 451.496094 210.445312 433.875 220.40625 433.933594 220.472656 C 434 220.539062 434.824219 229.25 434.824219 229.25 Z M 434.824219 229.25 " fill-opacity="1" fill-rule="nonzero"/></g><g clip-path="url(#290738ce8d)"><path fill="#14090f" d="M 393.863281 559.894531 L 263.332031 559.894531 L 263.332031 560.019531 C 243.542969 560.019531 227.433594 543.921875 227.433594 524.121094 C 227.433594 505.339844 241.933594 489.890625 260.324219 488.347656 C 261.945312 488.210938 263.332031 489.53125 263.332031 491.164062 C 263.332031 492.640625 262.191406 493.835938 260.726562 493.96875 C 245.253906 495.300781 233.066406 508.3125 233.066406 524.121094 C 233.066406 540.589844 246.292969 554.027344 262.695312 554.375 C 262.816406 540.488281 266.226562 504.601562 304.101562 495.46875 L 303.601562 416.785156 L 319.273438 429.84375 L 353.203125 429.84375 L 353.203125 416.785156 C 353.203125 416.785156 384.09375 447.339844 384.09375 546.199219 C 384.09375 546.199219 394.589844 546.011719 393.863281 559.894531 Z M 393.863281 559.894531 " fill-opacity="1" fill-rule="nonzero"/></g><path fill="#9bd2e0" d="M 456.449219 286.242188 C 453.5625 293.375 450.367188 300.484375 446.855469 307.179688 C 428.242188 342.765625 400.503906 368.601562 400.503906 368.601562 C 397.6875 386.164062 389.089844 387.148438 389.089844 387.148438 L 388.417969 388.972656 C 387.257812 392.101562 383.914062 393.84375 380.683594 392.984375 L 380.472656 393.242188 C 377.957031 396.316406 373.5625 397.078125 370.164062 395.019531 C 368.074219 396.761719 365.042969 396.761719 362.953125 395.019531 L 361.265625 393.621094 L 364.910156 370.457031 C 370.835938 358.574219 381.453125 358.273438 383.746094 355.710938 L 415.027344 302.664062 L 422.484375 275.007812 C 430.398438 277.578125 446.25 282.84375 456.449219 286.242188 Z M 377.0625 204.6875 Z M 449.292969 216.761719 C 450.535156 213.273438 451.507812 210.457031 451.507812 210.457031 C 443.703125 210.835938 436.113281 212.421875 426.195312 202.238281 L 426.195312 194.660156 C 426.195312 190.699219 422.988281 187.492188 419.03125 187.492188 C 416.570312 187.492188 414.289062 188.746094 412.96875 190.824219 L 406.394531 201.199219 C 399.902344 211.339844 385.78125 213.027344 377.082031 204.710938 L 399.453125 231.617188 C 405.097656 238.40625 415.171875 239.34375 421.96875 233.699219 L 427.929688 228.746094 C 427.929688 228.746094 431.238281 229.003906 434.859375 229.269531 C 436.503906 222.539062 442.238281 217.441406 449.292969 216.761719 Z M 340 476.070312 C 342.472656 476.070312 344.851562 474.753906 346.09375 472.472656 L 350.117188 465.082031 L 354.097656 470.582031 C 355.285156 472.226562 357.128906 473.253906 359.140625 473.421875 C 361.164062 473.589844 363.140625 472.851562 364.574219 471.421875 L 363.386719 470.234375 C 362.304688 471.320312 360.816406 471.867188 359.273438 471.746094 C 357.742188 471.621094 356.355469 470.839844 355.449219 469.597656 L 350.710938 463.035156 L 352.8125 460.074219 C 353.136719 459.613281 352.8125 458.976562 352.253906 458.976562 L 347.792969 458.976562 C 347.234375 458.976562 346.910156 459.613281 347.234375 460.074219 L 349.335938 463.035156 L 344.640625 471.679688 C 343.34375 474.058594 340.402344 475.066406 337.921875 473.957031 L 334.722656 472.539062 L 334.042969 474.070312 L 337.238281 475.488281 C 338.121094 475.882812 339.074219 476.070312 340 476.070312 Z M 348.542969 547.597656 C 348.585938 542.109375 347.660156 510.839844 321.519531 508.480469 L 321.375 510.148438 C 346.050781 512.371094 346.910156 542.308594 346.863281 547.554688 L 330.742188 547.554688 L 330.742188 549.230469 L 347.691406 549.230469 C 353.574219 549.230469 358.359375 554.015625 358.359375 559.894531 L 360.035156 559.894531 C 360.023438 553.378906 354.949219 548.046875 348.542969 547.597656 Z M 348.542969 547.597656 " fill-opacity="1" fill-rule="nonzero"/><path fill="#14090f" d="M 321.363281 376.796875 L 373.429688 370.03125 C 373.304688 373.589844 367.882812 389.015625 361.253906 393.632812 L 346.304688 396.105469 C 333.964844 398.148438 322.492188 389.261719 321.363281 376.796875 Z M 427.726562 384.03125 L 427.605469 382.015625 L 415.039062 383.214844 L 415.039062 387.214844 C 415.039062 389.453125 413.429688 391.363281 411.214844 391.734375 C 409.917969 391.957031 408.734375 391.039062 408.597656 389.71875 L 408.085938 384.710938 L 380.070312 387.183594 C 380.070312 387.183594 380.070312 387.183594 380.070312 387.195312 C 380.894531 399.46875 391.671875 408.679688 403.925781 407.550781 C 405.234375 407.429688 406.542969 407.316406 407.851562 407.195312 C 419.65625 406.109375 428.453125 395.859375 427.726562 384.03125 Z M 255.75 447.675781 C 255.292969 447.699219 254.945312 448.089844 254.957031 448.546875 C 255.203125 455.722656 253.929688 461.136719 251.949219 465.214844 C 251.191406 462.867188 248.707031 457.660156 241.585938 456.753906 C 240.511719 456.550781 239.417969 456.441406 238.289062 456.441406 C 228.484375 456.441406 220.523438 464.386719 220.523438 474.203125 C 220.523438 482.433594 226.125 489.332031 233.714844 491.355469 L 236.613281 478.609375 C 236.644531 478.609375 236.691406 478.609375 236.722656 478.597656 L 236.800781 479.144531 C 237.015625 479.113281 257.5625 475.644531 256.632812 448.503906 C 256.625 448.023438 256.222656 447.652344 255.75 447.675781 Z M 267.445312 343.972656 L 262.804688 345.324219 C 263.789062 348.558594 266.796875 350.914062 270.351562 350.925781 C 270.25 348.925781 269.882812 346.914062 269.222656 344.914062 C 268.964844 344.175781 268.195312 343.75 267.445312 343.972656 Z M 133.847656 475.03125 L 108.214844 475.03125 C 107.757812 475.03125 107.375 475.410156 107.375 475.871094 C 107.375 476.328125 107.757812 476.707031 108.214844 476.707031 L 133.847656 476.707031 C 134.308594 476.707031 134.6875 476.328125 134.6875 475.871094 C 134.6875 475.402344 134.320312 475.03125 133.847656 475.03125 Z M 245.375 356.382812 C 245.375 347.628906 238.277344 340.53125 229.523438 340.53125 C 220.769531 340.53125 213.671875 347.628906 213.671875 356.382812 C 213.671875 365.136719 220.769531 372.234375 229.523438 372.234375 C 238.277344 372.234375 245.375 365.136719 245.375 356.382812 Z M 122.570312 433.734375 C 122.570312 424.375 114.976562 416.785156 105.621094 416.785156 C 96.261719 416.785156 88.671875 424.375 88.671875 433.734375 C 88.671875 443.089844 96.261719 450.683594 105.621094 450.683594 C 114.976562 450.683594 122.570312 443.089844 122.570312 433.734375 Z M 208.773438 375.152344 C 204.804688 375.152344 201.585938 378.371094 201.585938 382.339844 C 201.585938 386.308594 204.804688 389.53125 208.773438 389.53125 C 212.742188 389.53125 215.964844 386.308594 215.964844 382.339844 C 215.964844 378.371094 212.742188 375.152344 208.773438 375.152344 Z M 208.773438 375.152344 " fill-opacity="1" fill-rule="nonzero"/><g clip-path="url(#20c329fd83)"><path fill="#f8f5b3" d="M -48.871094 559.5 L 671.371094 559.5 L 671.371094 746.253906 L -48.871094 746.253906 Z M -48.871094 559.5 " fill-opacity="1" fill-rule="nonzero"/></g><g clip-path="url(#4b47d816d3)"><g clip-path="url(#172ce725e9)"><g clip-path="url(#03858fea59)"><path fill="#f8f5b3" d="M 383.5 214.480469 C 383.324219 214.679688 383.160156 214.890625 383.003906 215.109375 C 382.953125 215.179688 382.890625 215.257812 382.839844 215.332031 C 382.75 215.453125 382.667969 215.585938 382.589844 215.71875 C 382.316406 216.164062 382.082031 216.644531 381.882812 217.128906 C 381.882812 217.140625 381.875 217.148438 381.867188 217.164062 C 381.808594 217.320312 381.753906 217.464844 381.703125 217.621094 C 381.511719 218.191406 381.390625 218.78125 381.3125 219.371094 C 381.253906 219.808594 381.234375 220.253906 381.238281 220.695312 C 381.242188 220.765625 381.238281 220.839844 381.242188 220.910156 C 381.261719 221.34375 381.308594 221.78125 381.390625 222.207031 C 381.445312 222.539062 381.535156 222.867188 381.632812 223.191406 C 381.722656 223.480469 381.824219 223.757812 381.9375 224.035156 C 382.023438 224.234375 382.109375 224.429688 382.199219 224.617188 C 382.496094 225.21875 382.867188 225.773438 383.28125 226.300781 C 383.386719 226.441406 383.5 226.5625 383.613281 226.699219 C 383.625 226.710938 383.632812 226.71875 383.644531 226.730469 C 384.011719 227.144531 384.429688 227.511719 384.863281 227.851562 C 385.007812 227.96875 385.171875 228.082031 385.328125 228.1875 C 385.582031 228.359375 385.84375 228.511719 386.113281 228.660156 C 386.210938 228.710938 386.3125 228.757812 386.410156 228.8125 C 386.574219 228.886719 386.746094 228.96875 386.90625 229.035156 C 386.949219 229.058594 386.992188 229.078125 387.039062 229.089844 C 387.347656 229.214844 387.664062 229.328125 387.984375 229.414062 C 388.066406 229.433594 388.140625 229.449219 388.214844 229.476562 C 388.710938 229.601562 389.21875 229.683594 389.71875 229.722656 C 390.148438 229.757812 390.570312 229.761719 390.996094 229.738281 C 391.238281 229.730469 391.472656 229.703125 391.71875 229.667969 C 391.824219 229.652344 391.929688 229.636719 392.042969 229.617188 C 392.273438 229.582031 392.5 229.527344 392.730469 229.46875 C 392.730469 229.46875 392.738281 229.464844 392.746094 229.46875 C 393.191406 229.355469 393.617188 229.210938 394.042969 229.035156 C 394.640625 228.789062 395.207031 228.46875 395.742188 228.09375 C 396.316406 227.691406 396.832031 227.238281 397.300781 226.722656 C 397.785156 226.1875 398.199219 225.601562 398.554688 224.972656 C 399.214844 223.785156 399.585938 222.457031 399.675781 221.105469 C 399.726562 220.4375 399.675781 219.761719 399.585938 219.105469 C 399.484375 218.421875 399.289062 217.753906 399.039062 217.109375 C 398.789062 216.464844 398.453125 215.855469 398.058594 215.289062 C 397.644531 214.703125 397.179688 214.160156 396.644531 213.675781 C 395.625 212.753906 394.402344 212.066406 393.078125 211.675781 C 392.464844 211.476562 391.8125 211.367188 391.152344 211.316406 C 390.496094 211.265625 389.84375 211.296875 389.1875 211.378906 C 388.570312 211.460938 387.953125 211.609375 387.363281 211.824219 C 386.742188 212.050781 386.148438 212.324219 385.589844 212.675781 C 385.125 212.964844 384.695312 213.289062 384.289062 213.652344 C 384.277344 213.664062 384.265625 213.675781 384.246094 213.695312 C 384.230469 213.707031 384.226562 213.710938 384.210938 213.722656 C 383.96875 213.964844 383.726562 214.210938 383.5 214.480469 Z M 385.785156 213.871094 C 386.378906 213.464844 387.011719 213.128906 387.683594 212.878906 C 388.351562 212.644531 389.03125 212.492188 389.738281 212.425781 C 390.429688 212.371094 391.125 212.394531 391.8125 212.503906 C 392.507812 212.621094 393.179688 212.828125 393.828125 213.113281 C 394.480469 213.417969 395.09375 213.796875 395.652344 214.257812 C 396.207031 214.726562 396.703125 215.261719 397.132812 215.855469 C 397.539062 216.449219 397.871094 217.089844 398.125 217.765625 C 398.355469 218.425781 398.507812 219.109375 398.574219 219.800781 C 398.628906 220.496094 398.605469 221.191406 398.496094 221.875 C 398.371094 222.566406 398.171875 223.242188 397.890625 223.886719 C 397.585938 224.539062 397.210938 225.152344 396.746094 225.710938 C 396.277344 226.265625 395.75 226.757812 395.164062 227.179688 C 394.605469 227.5625 394.011719 227.878906 393.378906 228.125 C 393.335938 228.144531 393.292969 228.160156 393.253906 228.171875 C 393.101562 228.226562 392.945312 228.277344 392.789062 228.316406 C 392.777344 228.316406 392.769531 228.320312 392.757812 228.320312 C 392.75 228.328125 392.746094 228.320312 392.738281 228.324219 C 392.730469 228.332031 392.726562 228.324219 392.71875 228.332031 C 392.222656 228.46875 391.714844 228.566406 391.199219 228.617188 C 390.695312 228.652344 390.191406 228.652344 389.6875 228.601562 C 389.6875 228.601562 389.6875 228.601562 389.683594 228.59375 C 389.671875 228.59375 389.671875 228.59375 389.65625 228.59375 C 389.644531 228.59375 389.644531 228.59375 389.632812 228.59375 C 389.632812 228.59375 389.628906 228.585938 389.621094 228.59375 C 389.453125 228.582031 389.285156 228.554688 389.121094 228.53125 C 388.457031 228.410156 387.8125 228.21875 387.191406 227.960938 C 387.191406 227.960938 387.183594 227.953125 387.183594 227.953125 C 387.183594 227.953125 387.175781 227.945312 387.171875 227.953125 C 387.152344 227.945312 387.128906 227.933594 387.109375 227.925781 C 387.03125 227.890625 386.964844 227.859375 386.890625 227.816406 C 386.882812 227.8125 386.871094 227.8125 386.867188 227.804688 C 386.867188 227.804688 386.867188 227.804688 386.859375 227.796875 C 386.347656 227.542969 385.875 227.238281 385.421875 226.890625 C 385.421875 226.890625 385.414062 226.886719 385.414062 226.886719 C 385.410156 226.878906 385.402344 226.871094 385.402344 226.871094 C 385.398438 226.867188 385.398438 226.867188 385.390625 226.859375 C 385.390625 226.859375 385.386719 226.851562 385.386719 226.851562 C 385.355469 226.832031 385.324219 226.800781 385.296875 226.78125 C 384.734375 226.304688 384.238281 225.769531 383.8125 225.183594 C 383.597656 224.859375 383.390625 224.519531 383.21875 224.179688 C 383.210938 224.171875 383.214844 224.160156 383.207031 224.152344 C 383.199219 224.148438 383.195312 224.140625 383.203125 224.132812 C 383.203125 224.132812 383.195312 224.128906 383.195312 224.128906 C 383.0625 223.855469 382.941406 223.582031 382.835938 223.300781 C 382.605469 222.640625 382.453125 221.957031 382.386719 221.25 C 382.363281 221.019531 382.359375 220.796875 382.355469 220.558594 C 382.355469 220.546875 382.351562 220.539062 382.355469 220.535156 C 382.355469 220.535156 382.351562 220.527344 382.355469 220.523438 C 382.355469 220.511719 382.355469 220.511719 382.359375 220.496094 C 382.359375 220.496094 382.359375 220.484375 382.359375 220.484375 C 382.359375 220.484375 382.359375 220.472656 382.359375 220.472656 C 382.359375 220.460938 382.359375 220.460938 382.359375 220.449219 C 382.359375 220.449219 382.359375 220.433594 382.359375 220.433594 C 382.359375 220.421875 382.359375 220.421875 382.359375 220.410156 C 382.359375 220.410156 382.359375 220.410156 382.363281 220.398438 C 382.363281 220.386719 382.363281 220.375 382.363281 220.375 C 382.371094 219.996094 382.402344 219.617188 382.453125 219.246094 C 382.457031 219.234375 382.457031 219.222656 382.460938 219.214844 C 382.464844 219.203125 382.46875 219.195312 382.46875 219.183594 C 382.59375 218.492188 382.796875 217.816406 383.074219 217.175781 C 383.113281 217.101562 383.140625 217.027344 383.183594 216.953125 C 383.1875 216.949219 383.1875 216.949219 383.1875 216.9375 C 383.195312 216.929688 383.195312 216.929688 383.195312 216.917969 C 383.429688 216.449219 383.710938 216.011719 384.015625 215.59375 C 384.015625 215.59375 384.023438 215.589844 384.023438 215.589844 C 384.023438 215.589844 384.023438 215.589844 384.03125 215.582031 C 384.089844 215.503906 384.140625 215.429688 384.207031 215.359375 C 384.273438 215.273438 384.347656 215.191406 384.421875 215.113281 C 384.816406 214.648438 385.28125 214.230469 385.785156 213.871094 Z M 398.140625 217.796875 C 398.148438 217.816406 398.152344 217.824219 398.160156 217.839844 C 398.152344 217.824219 398.148438 217.804688 398.140625 217.796875 Z M 398.140625 217.796875 " fill-opacity="1" fill-rule="nonzero"/></g></g></g><g clip-path="url(#7e52f4ee63)"><g clip-path="url(#58f6084d8b)"><g clip-path="url(#315a807c43)"><path fill="#f8f5b3" d="M 401.152344 199.066406 C 400.777344 199.628906 400.480469 200.253906 400.234375 200.890625 C 400.144531 201.117188 400.074219 201.347656 400 201.582031 C 399.988281 201.632812 399.972656 201.695312 399.957031 201.742188 C 399.84375 202.160156 399.765625 202.59375 399.710938 203.027344 C 399.683594 203.28125 399.660156 203.539062 399.648438 203.800781 C 399.625 204.445312 399.675781 205.105469 399.789062 205.746094 C 399.84375 206.066406 399.917969 206.378906 400.007812 206.691406 C 400.015625 206.742188 400.039062 206.792969 400.050781 206.84375 C 400.140625 207.121094 400.234375 207.390625 400.34375 207.664062 C 400.347656 207.667969 400.347656 207.667969 400.347656 207.679688 C 400.59375 208.292969 400.925781 208.871094 401.300781 209.40625 C 401.707031 209.988281 402.171875 210.515625 402.703125 210.996094 C 403.71875 211.910156 404.929688 212.585938 406.230469 212.984375 C 406.863281 213.175781 407.519531 213.285156 408.167969 213.34375 C 408.832031 213.398438 409.503906 213.363281 410.160156 213.28125 C 410.835938 213.195312 411.484375 213.015625 412.121094 212.785156 C 412.75 212.546875 413.34375 212.246094 413.914062 211.875 C 415.105469 211.09375 416.101562 210.050781 416.832031 208.824219 C 417.542969 207.625 417.949219 206.269531 418.074219 204.878906 C 418.1875 203.542969 417.984375 202.1875 417.523438 200.925781 C 417.050781 199.640625 416.273438 198.464844 415.285156 197.503906 C 414.296875 196.539062 413.09375 195.820312 411.785156 195.378906 C 411.160156 195.167969 410.511719 195.039062 409.855469 194.964844 C 409.195312 194.882812 408.527344 194.902344 407.867188 194.964844 C 407.230469 195.027344 406.597656 195.171875 405.988281 195.363281 C 405.339844 195.582031 404.71875 195.855469 404.132812 196.207031 C 403.585938 196.535156 403.082031 196.921875 402.617188 197.351562 C 402.070312 197.859375 401.574219 198.433594 401.152344 199.066406 Z M 404.199219 197.464844 C 404.792969 197.058594 405.425781 196.722656 406.101562 196.46875 C 406.761719 196.238281 407.441406 196.089844 408.132812 196.011719 C 408.832031 195.953125 409.53125 195.984375 410.222656 196.085938 C 410.910156 196.203125 411.578125 196.410156 412.222656 196.691406 C 412.875 196.992188 413.496094 197.378906 414.054688 197.828125 C 414.613281 198.304688 415.109375 198.839844 415.535156 199.425781 C 415.941406 200.019531 416.277344 200.652344 416.53125 201.328125 C 416.761719 201.988281 416.917969 202.671875 416.988281 203.371094 C 417.042969 204.078125 417.015625 204.773438 416.910156 205.457031 C 416.785156 206.148438 416.578125 206.832031 416.300781 207.472656 C 415.996094 208.125 415.617188 208.726562 415.167969 209.289062 C 414.699219 209.84375 414.164062 210.339844 413.570312 210.769531 C 412.980469 211.167969 412.347656 211.507812 411.679688 211.753906 C 411.011719 211.988281 410.328125 212.144531 409.625 212.210938 C 408.917969 212.265625 408.222656 212.238281 407.527344 212.128906 C 406.835938 212.003906 406.171875 211.804688 405.523438 211.519531 C 404.871094 211.214844 404.261719 210.832031 403.703125 210.382812 C 403.140625 209.90625 402.644531 209.371094 402.21875 208.785156 C 401.832031 208.222656 401.511719 207.621094 401.269531 206.984375 C 401.269531 206.984375 401.269531 206.984375 401.265625 206.976562 C 401.265625 206.976562 401.257812 206.96875 401.257812 206.96875 C 401.246094 206.945312 401.234375 206.917969 401.230469 206.886719 C 401.183594 206.761719 401.140625 206.636719 401.109375 206.511719 C 401.109375 206.511719 401.101562 206.503906 401.101562 206.503906 C 401.09375 206.496094 401.097656 206.484375 401.089844 206.480469 C 400.929688 205.945312 400.820312 205.398438 400.765625 204.835938 C 400.710938 204.144531 400.738281 203.4375 400.847656 202.753906 C 400.847656 202.726562 400.855469 202.710938 400.855469 202.683594 C 400.855469 202.683594 400.863281 202.679688 400.855469 202.671875 C 400.863281 202.664062 400.855469 202.660156 400.863281 202.652344 C 400.984375 202.023438 401.171875 201.410156 401.421875 200.816406 C 401.429688 200.808594 401.429688 200.796875 401.4375 200.792969 C 401.4375 200.792969 401.441406 200.785156 401.4375 200.78125 C 401.445312 200.773438 401.4375 200.765625 401.445312 200.761719 C 401.449219 200.753906 401.449219 200.742188 401.449219 200.742188 C 401.464844 200.71875 401.476562 200.695312 401.484375 200.664062 C 401.78125 200.039062 402.152344 199.457031 402.582031 198.914062 C 403.074219 198.386719 403.609375 197.890625 404.199219 197.464844 Z M 404.199219 197.464844 " fill-opacity="1" fill-rule="nonzero"/></g></g></g><g clip-path="url(#b52dd8d56a)"><g clip-path="url(#44dff11992)"><g clip-path="url(#1a3e4df27a)"><path fill="#f8f5b3" d="M 397.171875 210.097656 C 396.964844 210.3125 396.769531 210.554688 396.613281 210.808594 C 396.550781 210.898438 396.5 210.984375 396.445312 211.082031 C 396.304688 211.332031 396.195312 211.613281 396.109375 211.882812 C 396.074219 212 396.046875 212.125 396.023438 212.242188 C 396.023438 212.242188 396.023438 212.253906 396.023438 212.253906 C 396.023438 212.265625 396.019531 212.277344 396.015625 212.296875 C 395.996094 212.40625 395.976562 212.511719 395.964844 212.628906 C 395.90625 213.03125 395.929688 213.429688 395.976562 213.828125 C 396.015625 214.09375 396.074219 214.347656 396.164062 214.601562 C 396.164062 214.601562 396.167969 214.609375 396.164062 214.613281 C 396.164062 214.613281 396.167969 214.621094 396.167969 214.621094 C 396.175781 214.625 396.175781 214.640625 396.175781 214.640625 C 396.183594 214.6875 396.203125 214.734375 396.226562 214.773438 C 396.230469 214.777344 396.222656 214.785156 396.230469 214.789062 C 396.28125 214.921875 396.433594 215.023438 396.554688 215.0625 C 396.691406 215.105469 396.839844 215.085938 396.96875 215.03125 C 397.09375 214.960938 397.199219 214.839844 397.242188 214.703125 C 397.25 214.660156 397.25 214.613281 397.265625 214.5625 C 397.261719 214.46875 397.253906 214.382812 397.210938 214.300781 C 397.125 214.035156 397.066406 213.765625 397.03125 213.484375 C 397.011719 213.203125 397.023438 212.917969 397.0625 212.640625 C 397.117188 212.363281 397.203125 212.09375 397.304688 211.828125 C 397.433594 211.566406 397.582031 211.324219 397.761719 211.09375 C 397.957031 210.867188 398.171875 210.667969 398.414062 210.492188 C 398.5625 210.390625 398.71875 210.304688 398.878906 210.230469 C 398.882812 210.222656 398.882812 210.222656 398.890625 210.21875 C 398.890625 210.21875 398.898438 210.210938 398.898438 210.210938 C 398.984375 210.164062 399.085938 210.121094 399.1875 210.085938 C 399.457031 209.992188 399.742188 209.933594 400.019531 209.898438 C 400.046875 209.902344 400.078125 209.894531 400.101562 209.898438 C 400.359375 209.886719 400.605469 209.898438 400.851562 209.929688 C 401.085938 209.976562 401.328125 210.042969 401.546875 210.125 C 401.546875 210.125 401.554688 210.132812 401.558594 210.125 C 401.597656 210.140625 401.632812 210.152344 401.675781 210.175781 C 401.855469 210.261719 402.019531 210.347656 402.183594 210.460938 C 402.265625 210.515625 402.34375 210.574219 402.429688 210.636719 C 402.488281 210.691406 402.554688 210.75 402.609375 210.804688 C 402.609375 210.804688 402.617188 210.8125 402.617188 210.8125 C 402.621094 210.820312 402.628906 210.824219 402.632812 210.832031 C 402.632812 210.832031 402.640625 210.839844 402.640625 210.839844 C 402.644531 210.84375 402.652344 210.851562 402.65625 210.859375 C 402.65625 210.859375 402.664062 210.863281 402.664062 210.863281 C 402.667969 210.871094 402.675781 210.878906 402.679688 210.882812 C 402.679688 210.882812 402.6875 210.890625 402.6875 210.890625 C 402.695312 210.898438 402.699219 210.902344 402.707031 210.910156 C 402.707031 210.910156 402.707031 210.910156 402.710938 210.914062 C 402.71875 210.921875 402.722656 210.929688 402.734375 210.941406 C 402.742188 210.949219 402.753906 210.960938 402.757812 210.96875 C 402.960938 211.1875 403.320312 211.199219 403.542969 210.996094 C 403.761719 210.792969 403.773438 210.445312 403.570312 210.214844 C 403.285156 209.90625 402.953125 209.625 402.582031 209.40625 C 402.582031 209.40625 402.578125 209.402344 402.578125 209.402344 C 402.496094 209.355469 402.414062 209.300781 402.328125 209.261719 C 402.148438 209.171875 401.964844 209.089844 401.78125 209.035156 C 401.640625 208.984375 401.488281 208.9375 401.339844 208.90625 C 401.113281 208.855469 400.871094 208.8125 400.636719 208.804688 C 400.609375 208.804688 400.578125 208.796875 400.554688 208.796875 C 400.480469 208.792969 400.40625 208.789062 400.324219 208.792969 C 400.082031 208.789062 399.839844 208.8125 399.601562 208.851562 C 399.445312 208.878906 399.292969 208.910156 399.148438 208.960938 C 399.082031 208.976562 399.019531 208.996094 398.949219 209.027344 C 398.921875 209.039062 398.890625 209.042969 398.867188 209.054688 C 398.632812 209.136719 398.40625 209.242188 398.183594 209.363281 C 398.113281 209.40625 398.042969 209.445312 397.96875 209.492188 C 397.808594 209.59375 397.652344 209.710938 397.507812 209.835938 C 397.5 209.839844 397.488281 209.851562 397.480469 209.859375 C 397.441406 209.894531 397.398438 209.9375 397.359375 209.972656 C 397.269531 209.996094 397.21875 210.042969 397.171875 210.097656 Z M 397.171875 210.097656 " fill-opacity="1" fill-rule="nonzero"/></g></g></g></svg>