<svg xmlns="http://www.w3.org/2000/svg" xmlns:xlink="http://www.w3.org/1999/xlink" width="191" zoomAndPan="magnify" viewBox="0 0 143.25 143.249998" height="191" preserveAspectRatio="xMidYMid meet" version="1.0"><defs><clipPath id="c678506cf5"><path d="M 14.25 14.25 L 128.253906 14.25 L 128.253906 128.253906 L 14.25 128.253906 Z M 14.25 14.25 " clip-rule="nonzero"/></clipPath><clipPath id="5c0069cfdf"><path d="M 71.25 14.25 C 39.769531 14.25 14.25 39.769531 14.25 71.25 C 14.25 102.734375 39.769531 128.253906 71.25 128.253906 C 102.734375 128.253906 128.253906 102.734375 128.253906 71.25 C 128.253906 39.769531 102.734375 14.25 71.25 14.25 Z M 71.25 14.25 " clip-rule="nonzero"/></clipPath><clipPath id="2477b1a1de"><path d="M 38.902344 38.902344 L 103.8125 38.902344 L 103.8125 103.8125 L 38.902344 103.8125 Z M 38.902344 38.902344 " clip-rule="nonzero"/></clipPath></defs><g clip-path="url(#c678506cf5)"><g clip-path="url(#5c0069cfdf)"><path fill="#f59cbb" d="M 14.25 14.25 L 128.253906 14.25 L 128.253906 128.253906 L 14.25 128.253906 Z M 14.25 14.25 " fill-opacity="1" fill-rule="nonzero"/></g></g><g clip-path="url(#2477b1a1de)"><path fill="#f8f6b3" d="M 57.921875 38.902344 C 47.484375 38.902344 38.902344 47.472656 38.902344 57.921875 L 38.902344 84.570312 C 38.902344 95.011719 47.472656 103.59375 57.921875 103.59375 L 84.570312 103.59375 C 95.011719 103.59375 103.59375 95.023438 103.59375 84.570312 L 103.59375 57.921875 C 103.59375 47.484375 95.023438 38.902344 84.570312 38.902344 Z M 57.921875 44.785156 L 84.570312 44.785156 C 91.839844 44.785156 97.710938 50.652344 97.710938 57.921875 L 97.710938 84.570312 C 97.710938 91.839844 91.839844 97.710938 84.570312 97.710938 L 57.921875 97.710938 C 50.652344 97.710938 44.785156 91.839844 44.785156 84.570312 L 44.785156 57.921875 C 44.785156 50.652344 50.652344 44.785156 57.921875 44.785156 Z M 88.613281 51.214844 C 87.132812 51.214844 85.949219 52.398438 85.949219 53.878906 C 85.949219 55.363281 87.132812 56.546875 88.613281 56.546875 C 90.097656 56.546875 91.277344 55.363281 91.277344 53.878906 C 91.277344 52.398438 90.097656 51.214844 88.613281 51.214844 Z M 71.246094 53.605469 C 61.542969 53.605469 53.605469 61.542969 53.605469 71.246094 C 53.605469 80.953125 61.542969 88.890625 71.246094 88.890625 C 80.953125 88.890625 88.890625 80.953125 88.890625 71.246094 C 88.890625 61.542969 80.953125 53.605469 71.246094 53.605469 Z M 71.246094 59.484375 C 77.78125 59.484375 83.007812 64.710938 83.007812 71.246094 C 83.007812 77.78125 77.78125 83.007812 71.246094 83.007812 C 64.710938 83.007812 59.484375 77.78125 59.484375 71.246094 C 59.484375 64.710938 64.710938 59.484375 71.246094 59.484375 Z M 71.246094 59.484375 " fill-opacity="1" fill-rule="nonzero"/></g></svg>