<svg xmlns="http://www.w3.org/2000/svg" xmlns:xlink="http://www.w3.org/1999/xlink" width="191" zoomAndPan="magnify" viewBox="0 0 143.25 143.249998" height="191" preserveAspectRatio="xMidYMid meet" version="1.0"><defs><clipPath id="2129733022"><path d="M 0 0 L 142.503906 0 L 142.503906 142.503906 L 0 142.503906 Z M 0 0 " clip-rule="nonzero"/></clipPath><clipPath id="0908059450"><path d="M 14.25 14.25 L 128.253906 14.25 L 128.253906 128.253906 L 14.25 128.253906 Z M 14.25 14.25 " clip-rule="nonzero"/></clipPath><clipPath id="229cd763a0"><path d="M 71.25 14.25 C 39.769531 14.25 14.25 39.769531 14.25 71.25 C 14.25 102.734375 39.769531 128.253906 71.25 128.253906 C 102.734375 128.253906 128.253906 102.734375 128.253906 71.25 C 128.253906 39.769531 102.734375 14.25 71.25 14.25 Z M 71.25 14.25 " clip-rule="nonzero"/></clipPath><clipPath id="b9576df9fd"><path d="M 35.539062 33.964844 L 107 33.964844 L 107 105.589844 L 35.539062 105.589844 Z M 35.539062 33.964844 " clip-rule="nonzero"/></clipPath></defs><g clip-path="url(#2129733022)"><path fill="#ffffff" d="M 0 0 L 142.503906 0 L 142.503906 142.503906 L 0 142.503906 Z M 0 0 " fill-opacity="1" fill-rule="nonzero"/><path fill="#ffffff" d="M 0 0 L 142.503906 0 L 142.503906 142.503906 L 0 142.503906 Z M 0 0 " fill-opacity="1" fill-rule="nonzero"/></g><g clip-path="url(#0908059450)"><g clip-path="url(#229cd763a0)"><path fill="#f8f6b3" d="M 14.25 14.25 L 128.253906 14.25 L 128.253906 128.253906 L 14.25 128.253906 Z M 14.25 14.25 " fill-opacity="1" fill-rule="nonzero"/></g></g><g clip-path="url(#b9576df9fd)"><path fill="#f59cbb" d="M 104.945312 81.429688 C 106.234375 77.722656 106.953125 73.8125 106.953125 69.695312 C 106.953125 65.582031 106.234375 61.621094 104.945312 57.964844 C 104.894531 57.863281 104.894531 57.761719 104.84375 57.65625 C 99.90625 43.867188 86.683594 33.988281 71.246094 33.988281 C 55.8125 33.988281 42.585938 43.867188 37.648438 57.605469 C 37.597656 57.707031 37.546875 57.8125 37.546875 57.914062 C 36.257812 61.621094 35.539062 65.582031 35.539062 69.695312 C 35.539062 73.8125 36.257812 77.773438 37.546875 81.429688 C 37.597656 81.53125 37.597656 81.632812 37.648438 81.738281 C 42.585938 95.527344 55.8125 105.355469 71.246094 105.355469 C 86.683594 105.355469 99.90625 95.476562 104.84375 81.738281 C 104.894531 81.632812 104.894531 81.53125 104.945312 81.429688 Z M 71.246094 100.257812 C 69.910156 100.257812 67.695312 97.789062 65.84375 92.285156 C 64.96875 89.609375 64.25 86.574219 63.734375 83.28125 L 78.707031 83.28125 C 78.191406 86.574219 77.472656 89.660156 76.597656 92.285156 C 74.796875 97.789062 72.582031 100.257812 71.246094 100.257812 Z M 63.117188 78.1875 C 62.859375 75.460938 62.757812 72.628906 62.757812 69.695312 C 62.757812 66.765625 62.910156 63.933594 63.117188 61.207031 L 79.324219 61.207031 C 79.582031 63.933594 79.683594 66.765625 79.683594 69.695312 C 79.683594 72.628906 79.53125 75.460938 79.324219 78.1875 Z M 40.632812 69.695312 C 40.632812 66.765625 41.042969 63.882812 41.816406 61.207031 L 57.972656 61.207031 C 57.714844 63.984375 57.613281 66.867188 57.613281 69.695312 C 57.613281 72.527344 57.714844 75.410156 57.972656 78.1875 L 41.867188 78.1875 C 41.09375 75.460938 40.632812 72.628906 40.632812 69.695312 Z M 71.246094 39.082031 C 72.582031 39.082031 74.796875 41.554688 76.648438 47.058594 C 77.523438 49.734375 78.242188 52.769531 78.757812 56.0625 L 63.734375 56.0625 C 64.25 52.71875 64.96875 49.683594 65.84375 47.058594 C 67.695312 41.554688 69.855469 39.082031 71.246094 39.082031 Z M 84.46875 61.207031 L 100.625 61.207031 C 101.398438 63.882812 101.808594 66.765625 101.808594 69.695312 C 101.808594 72.628906 101.398438 75.511719 100.625 78.1875 L 84.46875 78.1875 C 84.726562 75.410156 84.828125 72.527344 84.828125 69.695312 C 84.828125 66.816406 84.726562 63.984375 84.46875 61.207031 Z M 98.617188 56.0625 L 83.902344 56.0625 C 82.976562 49.785156 81.433594 44.175781 79.222656 40.164062 C 87.710938 42.480469 94.757812 48.34375 98.617188 56.0625 Z M 63.21875 40.164062 C 61.007812 44.175781 59.464844 49.785156 58.539062 56.0625 L 43.875 56.0625 C 47.734375 48.34375 54.730469 42.480469 63.21875 40.164062 Z M 43.875 83.28125 L 58.589844 83.28125 C 59.515625 89.558594 61.058594 95.164062 63.269531 99.179688 C 54.730469 96.914062 47.734375 91.050781 43.875 83.28125 Z M 79.222656 99.230469 C 81.433594 95.21875 82.976562 89.609375 83.902344 83.332031 L 98.617188 83.332031 C 94.757812 91.050781 87.710938 96.914062 79.222656 99.230469 Z M 79.222656 99.230469 " fill-opacity="1" fill-rule="nonzero"/></g></svg>