<svg xmlns="http://www.w3.org/2000/svg" xmlns:xlink="http://www.w3.org/1999/xlink" width="831" zoomAndPan="magnify" viewBox="0 0 623.25 623.249999" height="831" preserveAspectRatio="xMidYMid meet" version="1.0"><defs><clipPath id="9c01bf646a"><path d="M 0 0 L 622.5 0 L 622.5 622.5 L 0 622.5 Z M 0 0 " clip-rule="nonzero"/></clipPath><clipPath id="7992a330ef"><path d="M 0 481.035156 L 622.5 481.035156 L 622.5 622.5 L 0 622.5 Z M 0 481.035156 " clip-rule="nonzero"/></clipPath><clipPath id="98357b72d2"><path d="M 177 526 L 338 526 L 338 582.300781 L 177 582.300781 Z M 177 526 " clip-rule="nonzero"/></clipPath><clipPath id="131d30ab52"><path d="M 116 51.191406 L 529.683594 51.191406 L 529.683594 582.300781 L 116 582.300781 Z M 116 51.191406 " clip-rule="nonzero"/></clipPath><clipPath id="8155081676"><path d="M 235 182 L 529.683594 182 L 529.683594 582.300781 L 235 582.300781 Z M 235 182 " clip-rule="nonzero"/></clipPath><clipPath id="e87a082106"><path d="M 215.390625 86.886719 L 241 86.886719 L 241 112 L 215.390625 112 Z M 215.390625 86.886719 " clip-rule="nonzero"/></clipPath><clipPath id="e81ecfd69d"><path d="M 248 87 L 273.820312 87 L 273.820312 113 L 248 113 Z M 248 87 " clip-rule="nonzero"/></clipPath><clipPath id="af0aa028c2"><path d="M 207.566406 51 L 281.726562 51 L 281.726562 101.492188 L 207.566406 101.492188 Z M 207.566406 51 " clip-rule="nonzero"/></clipPath><clipPath id="4ee3879097"><path d="M 233 40.066406 L 258 40.066406 L 258 65 L 233 65 Z M 233 40.066406 " clip-rule="nonzero"/></clipPath></defs><g clip-path="url(#9c01bf646a)"><path fill="#ffffff" d="M 0 0 L 622.5 0 L 622.5 622.5 L 0 622.5 Z M 0 0 " fill-opacity="1" fill-rule="nonzero"/><path fill="#f2f2f2" d="M 0 0 L 622.5 0 L 622.5 622.5 L 0 622.5 Z M 0 0 " fill-opacity="1" fill-rule="nonzero"/></g><g clip-path="url(#7992a330ef)"><path fill="#f8becb" d="M -31.125 481.035156 L 782.132812 481.035156 L 782.132812 715.875 L -31.125 715.875 Z M -31.125 481.035156 " fill-opacity="1" fill-rule="nonzero"/></g><g clip-path="url(#98357b72d2)"><path fill="#14090f" d="M 254.257812 582.226562 C 254.257812 582.292969 254.269531 582.355469 254.269531 582.429688 L 177.515625 582.429688 C 177.515625 552.828125 187.703125 556.71875 187.703125 535.171875 L 236.324219 536.210938 C 236.324219 549.121094 247.011719 558.542969 251.886719 570.742188 C 254.109375 560.265625 258.773438 552.285156 260.027344 536.210938 C 261.695312 514.867188 305.648438 534.351562 305.648438 534.351562 L 305.648438 534.375 C 306.414062 545.5625 313.085938 555.496094 323.160156 560.414062 C 329.386719 563.464844 333.933594 569.136719 335.546875 575.875 L 337.066406 582.214844 L 254.257812 582.214844 Z M 254.257812 582.226562 " fill-opacity="1" fill-rule="nonzero"/></g><path fill="#9bd2e0" d="M 302.664062 292.054688 L 302.496094 292.054688 L 317.804688 536.488281 L 257.125 536.488281 L 248.265625 394.019531 L 239.40625 536.488281 L 178.738281 536.488281 L 194.046875 292.054688 L 192.167969 292.054688 L 192.167969 218.648438 L 155.851562 190.90625 C 161.34375 178.410156 166.941406 165.671875 171.574219 155.078125 C 178.449219 139.355469 192.964844 128.304688 209.953125 125.839844 L 231.519531 122.714844 L 260.621094 122.714844 L 282.050781 125.957031 C 297.96875 128.367188 311.738281 138.34375 318.972656 152.71875 L 338.351562 191.222656 C 338.351562 191.222656 302.675781 236.082031 302.675781 236.730469 C 302.664062 237.378906 302.664062 292.054688 302.664062 292.054688 Z M 474.191406 458.34375 L 474.191406 484.414062 L 401.859375 484.414062 L 401.859375 458.34375 C 401.859375 447.578125 410.613281 438.8125 421.386719 438.8125 L 454.664062 438.8125 C 465.425781 438.8125 474.191406 447.570312 474.191406 458.34375 Z M 466.328125 458.34375 C 466.328125 451.902344 461.089844 446.675781 454.664062 446.675781 L 421.386719 446.675781 C 414.945312 446.675781 409.71875 451.914062 409.71875 458.34375 L 409.71875 476.554688 L 466.339844 476.554688 L 466.339844 458.34375 Z M 466.328125 458.34375 " fill-opacity="1" fill-rule="nonzero"/><path fill="#f8becb" d="M 262.207031 124.363281 C 262.207031 124.679688 263.480469 126.285156 263.457031 126.605469 C 262.960938 136.335938 254.90625 144.082031 245.046875 144.082031 C 235.089844 144.082031 226.984375 136.199219 226.621094 126.328125 C 226.613281 126.09375 231.511719 122.949219 231.511719 122.714844 C 231.511719 112.527344 234.855469 107.203125 245.046875 107.203125 C 255.234375 107.203125 262.207031 114.171875 262.207031 124.363281 Z M 262.207031 124.363281 " fill-opacity="1" fill-rule="nonzero"/><path fill="#d47d44" d="M 316.230469 248.097656 C 315.328125 249.597656 314.339844 250.9375 313.257812 252.074219 C 316.710938 252.519531 318.8125 256.097656 317.519531 259.328125 L 309.558594 279.101562 L 296.671875 279.101562 L 297.777344 276.582031 C 299.019531 273.757812 301.824219 271.929688 304.917969 271.953125 L 309.515625 259.351562 L 308.933594 259.328125 C 306.234375 259.234375 303.664062 258.640625 301.292969 257.652344 C 301.261719 258.214844 301.144531 258.777344 300.921875 259.328125 L 292.964844 279.101562 L 280.074219 279.101562 L 281.179688 276.582031 C 282.425781 273.757812 285.230469 271.929688 288.320312 271.953125 L 292.921875 259.351562 L 292.335938 259.328125 C 282.988281 259.011719 275.125 252.828125 272.375 244.328125 L 245.066406 254.84375 C 245.066406 254.84375 246.320312 270.335938 242.1875 278.699219 L 232.488281 278.707031 L 232.488281 278.71875 L 221.734375 278.71875 L 221.863281 277.902344 C 222.414062 274.457031 225.378906 271.929688 228.875 271.929688 L 226.410156 257.585938 C 216.859375 257.460938 207.996094 251.710938 204.203125 242.519531 L 198.734375 229.273438 L 243.675781 205.226562 C 243.8125 205.515625 268.578125 200.117188 295.886719 204.84375 L 330.171875 217.445312 L 320.132812 236.464844 C 319.726562 240.429688 318.464844 244.378906 316.230469 248.097656 Z M 316.230469 248.097656 " fill-opacity="1" fill-rule="nonzero"/><g clip-path="url(#131d30ab52)"><path fill="#f59cbb" d="M 300.878906 203.335938 C 297.40625 165.542969 297.714844 165.226562 297.9375 164.992188 L 298.691406 165.734375 L 298.308594 165.363281 L 298.816406 165.492188 C 298.660156 166.671875 300.59375 188.71875 301.921875 203.230469 Z M 244.929688 51.191406 C 226.539062 51.191406 211.621094 66.105469 211.621094 84.5 C 211.621094 107.734375 220.578125 115.128906 220.578125 115.128906 L 229.90625 115.128906 C 227.835938 118.113281 226.601562 121.726562 226.601562 125.636719 C 226.601562 125.871094 226.621094 126.09375 226.632812 126.328125 C 231.648438 130.9375 238.300781 133.734375 245.578125 133.59375 C 252.429688 133.46875 258.667969 130.84375 263.4375 126.605469 C 263.457031 126.285156 263.492188 125.96875 263.492188 125.648438 C 263.492188 121.738281 262.269531 118.113281 260.1875 115.140625 L 269.757812 115.140625 C 269.757812 115.140625 278.238281 109.433594 278.238281 84.507812 C 278.238281 66.105469 263.320312 51.191406 244.929688 51.191406 Z M 264.820312 200.394531 L 270.820312 204.007812 L 269.335938 206.472656 L 263.332031 202.859375 Z M 116.476562 288.929688 L 136.121094 288.929688 L 136.121094 582.226562 L 116.476562 582.226562 Z M 529.332031 488.125 L 529.332031 524.035156 L 493.210938 547.558594 L 388.617188 530.761719 L 388.617188 582.226562 L 368.972656 582.226562 L 368.972656 527.605469 L 346.714844 524.035156 L 346.714844 488.125 C 346.714844 475.832031 356.679688 465.855469 368.972656 465.84375 L 368.972656 288.929688 L 388.617188 288.929688 L 388.617188 465.84375 L 507.054688 465.84375 C 519.355469 465.84375 529.332031 475.820312 529.332031 488.125 Z M 529.332031 488.125 " fill-opacity="1" fill-rule="nonzero"/></g><g clip-path="url(#8155081676)"><path fill="#14090f" d="M 365.394531 284.648438 L 346.714844 279.101562 L 346.714844 272.78125 C 346.714844 272.78125 356.636719 274.066406 346.714844 259.964844 L 346.714844 254.539062 C 346.714844 251.402344 349.265625 248.851562 352.398438 248.851562 L 353.886719 248.851562 L 353.886719 246.527344 L 364.628906 246.527344 L 364.628906 248.851562 L 366.117188 248.851562 C 368.613281 248.851562 370.707031 250.46875 371.46875 252.699219 L 371.800781 259.964844 C 371.800781 259.964844 364.109375 268.976562 371.800781 272.78125 L 371.800781 279.101562 Z M 402.6875 279.101562 L 402.6875 272.78125 C 393.304688 267.105469 402.6875 261.039062 402.6875 259.964844 L 402.6875 254.539062 C 402.6875 251.402344 400.136719 248.851562 397.003906 248.851562 L 395.515625 248.851562 L 395.515625 246.527344 L 384.773438 246.527344 L 384.773438 248.851562 L 383.285156 248.851562 C 380.152344 248.851562 377.601562 251.402344 377.601562 254.539062 L 377.601562 259.964844 C 386.972656 270.664062 377.601562 272.78125 377.601562 272.78125 L 377.601562 279.101562 L 390.136719 286.136719 Z M 238.832031 186.402344 L 240.351562 183.882812 C 240.542969 183.554688 240.445312 183.128906 240.117188 182.9375 L 239.796875 182.746094 C 239.46875 182.554688 239.042969 182.648438 238.851562 182.980469 L 235.8125 188.027344 C 235.621094 188.355469 235.71875 188.78125 236.046875 188.972656 L 236.367188 189.164062 C 236.695312 189.355469 237.121094 189.257812 237.3125 188.929688 L 237.503906 188.609375 L 263.800781 204.460938 L 266.457031 200.054688 L 240.160156 184.203125 Z M 508.191406 524.035156 L 508.191406 465.84375 L 504.824219 465.84375 L 504.824219 524.035156 L 485.359375 524.035156 L 485.359375 465.84375 L 481.988281 465.84375 L 481.988281 524.035156 L 462.523438 524.035156 L 462.523438 465.84375 L 459.15625 465.84375 L 459.15625 524.035156 L 439.691406 524.035156 L 439.691406 465.84375 L 436.324219 465.84375 L 436.324219 524.035156 L 416.859375 524.035156 L 416.859375 465.84375 L 413.492188 465.84375 L 413.492188 524.035156 L 394.027344 524.035156 L 394.027344 465.84375 L 390.660156 465.84375 L 390.660156 524.035156 L 371.195312 524.035156 L 371.195312 465.84375 L 367.824219 465.84375 L 367.824219 524.035156 L 346.683594 524.035156 L 346.683594 559.945312 C 346.683594 572.25 356.660156 582.226562 368.964844 582.226562 L 507.011719 582.226562 C 519.3125 582.226562 529.292969 572.25 529.292969 559.945312 L 529.292969 524.035156 Z M 508.191406 524.035156 " fill-opacity="1" fill-rule="nonzero"/></g><path fill="#9bd2e0" d="M 346.714844 259.976562 L 371.789062 259.976562 L 371.789062 272.789062 L 346.714844 272.789062 Z M 377.613281 259.976562 L 377.613281 272.789062 L 402.6875 272.789062 L 402.6875 259.976562 Z M 377.613281 259.976562 " fill-opacity="1" fill-rule="nonzero"/><path fill="#f8becb" d="M 254.980469 204.613281 C 255.339844 206.535156 255.042969 208.5625 254.011719 210.304688 C 253.214844 211.644531 252.113281 213.070312 250.570312 214.429688 C 243.144531 221.28125 235.644531 222.21875 231.105469 223.226562 C 228.566406 223.789062 197.871094 230.472656 171.320312 236.242188 C 155.011719 239.789062 141.5625 223.34375 148.285156 208.066406 C 150.707031 202.5625 153.257812 196.761719 155.839844 190.90625 L 179.789062 198.9375 L 225.75 191.382812 L 232.988281 185.074219 C 233.890625 184.285156 235.1875 184.136719 236.238281 184.710938 C 237.546875 185.414062 238.097656 187.007812 237.511719 188.367188 L 234.496094 195.421875 L 246.652344 192.765625 C 247.820312 192.511719 248.46875 191.246094 247.980469 190.140625 L 247.117188 188.207031 C 246.566406 186.964844 247.117188 185.507812 248.351562 184.933594 C 249.421875 184.433594 250.699219 184.773438 251.398438 185.730469 L 252.027344 186.601562 C 253.695312 188.898438 254.128906 191.871094 253.183594 194.476562 C 254.164062 196.078125 254.585938 197.929688 254.417969 199.746094 C 255.085938 201.285156 255.289062 202.984375 254.980469 204.613281 Z M 275.039062 88.503906 C 274.234375 88.429688 273.457031 88.523438 272.734375 88.75 L 272.394531 92.902344 C 262.886719 94.304688 254.152344 87.28125 253.578125 77.632812 L 253.480469 76.039062 C 249.09375 88.429688 236.855469 96.515625 223.5 95.410156 L 218.027344 94.953125 L 217.359375 88.75 C 216.636719 88.523438 215.859375 88.429688 215.050781 88.503906 C 212.015625 88.789062 209.78125 91.519531 209.78125 94.570312 C 209.78125 98.992188 213.734375 104.046875 217.699219 106.386719 C 219.8125 119.910156 231.542969 130.578125 245.578125 130.3125 C 259.65625 130.046875 271.171875 119.261719 272.585938 105.492188 C 276.570312 103.433594 280.308594 99.128906 280.308594 94.570312 C 280.308594 91.519531 278.078125 88.800781 275.039062 88.503906 Z M 346.257812 205.367188 C 341.847656 197.292969 338.394531 191.054688 338.332031 191.222656 L 315.667969 201.390625 C 312.492188 200.054688 300.273438 196.027344 289.808594 207.980469 C 289.320312 208.53125 289.191406 209.328125 289.457031 210.019531 C 289.789062 210.890625 290.660156 211.421875 291.59375 211.328125 C 290.46875 211.390625 288.542969 211.550781 287.035156 211.699219 C 285.738281 211.816406 284.707031 212.847656 284.582031 214.140625 C 284.441406 215.617188 285.515625 216.925781 286.992188 217.097656 C 287.621094 217.171875 288.351562 217.222656 289.140625 217.253906 C 289.320312 217.882812 289.660156 218.445312 290.136719 218.890625 C 290.265625 220.027344 290.925781 221.078125 292.007812 221.664062 C 292.910156 222.152344 293.953125 222.695312 295.015625 223.226562 C 296.460938 223.949219 298.03125 224.375 299.605469 224.5 C 299.933594 224.671875 300.261719 224.839844 300.601562 225.011719 C 302.992188 226.210938 305.757812 226.859375 308.273438 226.167969 C 314.097656 224.566406 317.09375 220.558594 317.09375 220.558594 C 319.558594 225.425781 320.671875 230.941406 320.121094 236.464844 L 325.699219 236.933594 C 342.6875 238.355469 354.417969 220.324219 346.257812 205.367188 Z M 346.257812 205.367188 " fill-opacity="1" fill-rule="nonzero"/><path fill="#d47d44" d="M 221.703125 198.800781 L 218.472656 204.707031 L 189.96875 204.101562 L 184.304688 205.558594 C 177.867188 207.214844 171.203125 203.78125 168.824219 197.566406 L 168.25 196.058594 L 168.28125 192.871094 C 167.824219 191.671875 168.238281 191.660156 169.449219 191.214844 L 171.777344 188.292969 L 184.070312 183.777344 L 184.28125 180.109375 C 184.472656 176.796875 186.609375 173.90625 189.710938 172.726562 C 195.671875 170.453125 202.300781 169.539062 206.625 169.179688 C 209.507812 168.933594 212.289062 170.1875 214.03125 172.480469 C 217.058594 173.523438 219.375 176.007812 220.183594 179.113281 L 221.660156 184.753906 L 225.773438 191.375 L 223.660156 195.242188 C 223.359375 196.609375 222.671875 197.84375 221.703125 198.800781 Z M 221.703125 198.800781 " fill-opacity="1" fill-rule="nonzero"/><path fill="#f59cbb" d="M 273.511719 207.851562 L 269.992188 205.726562 L 270.578125 204.769531 L 274.09375 206.894531 C 274.722656 207.257812 274.148438 208.265625 273.511719 207.851562 Z M 245.257812 121.527344 C 249.890625 121.527344 253.664062 117.753906 253.664062 113.121094 L 252.601562 113.121094 C 252.601562 117.167969 249.308594 120.464844 245.257812 120.464844 C 241.210938 120.464844 237.917969 117.167969 237.917969 113.121094 L 236.855469 113.121094 C 236.855469 117.753906 240.625 121.527344 245.257812 121.527344 Z M 402.664062 279.101562 L 102.417969 279.101562 C 97.289062 279.101562 93.121094 283.265625 93.121094 288.398438 L 93.121094 289.449219 C 93.121094 294.582031 97.289062 298.746094 102.417969 298.746094 L 402.664062 298.746094 C 407.796875 298.746094 411.960938 294.582031 411.960938 289.449219 L 411.960938 288.398438 C 411.972656 283.265625 407.808594 279.101562 402.664062 279.101562 Z M 353.492188 246.535156 L 365.425781 246.535156 C 366.273438 246.535156 366.964844 245.847656 366.964844 244.996094 L 366.964844 244.828125 C 366.964844 243.976562 366.273438 243.285156 365.425781 243.285156 L 353.492188 243.285156 C 352.644531 243.285156 351.953125 243.976562 351.953125 244.828125 L 351.953125 244.996094 C 351.964844 245.847656 352.652344 246.535156 353.492188 246.535156 Z M 384.179688 246.535156 L 396.109375 246.535156 C 396.960938 246.535156 397.648438 245.847656 397.648438 244.996094 L 397.648438 244.828125 C 397.648438 243.976562 396.960938 243.285156 396.109375 243.285156 L 384.179688 243.285156 C 383.328125 243.285156 382.636719 243.976562 382.636719 244.828125 L 382.636719 244.996094 C 382.648438 245.847656 383.328125 246.535156 384.179688 246.535156 Z M 168.453125 196.070312 C 170.726562 195.175781 172.339844 192.957031 172.339844 190.363281 C 172.339844 189.640625 172.214844 188.949219 171.980469 188.3125 L 168.484375 189.597656 C 167.273438 190.046875 166.65625 191.394531 167.125 192.59375 Z M 252.675781 186.292969 L 252.046875 185.421875 L 251.1875 186.050781 L 251.8125 186.921875 C 253.695312 189.515625 253.898438 192.902344 252.324219 195.546875 C 251.453125 197.027344 250.328125 198.363281 248.988281 199.542969 L 249.6875 200.339844 C 251.113281 199.085938 252.3125 197.664062 253.238281 196.089844 C 253.324219 195.953125 253.375 195.804688 253.449219 195.664062 C 254.492188 197.992188 254.375 200.648438 253.101562 202.804688 C 252.230469 204.28125 251.101562 205.621094 249.761719 206.800781 L 250.464844 207.597656 C 251.886719 206.34375 253.089844 204.917969 254.011719 203.347656 C 254.300781 202.859375 254.523438 202.347656 254.703125 201.816406 C 255 203.601562 254.683594 205.441406 253.769531 206.992188 C 252.898438 208.46875 251.773438 209.808594 250.433594 210.988281 L 251.132812 211.785156 C 252.558594 210.53125 253.757812 209.105469 254.683594 207.535156 C 256.074219 205.175781 256.253906 202.230469 255.171875 199.628906 C 255.308594 197.855469 254.917969 196.039062 253.980469 194.402344 C 254.863281 191.722656 254.429688 188.695312 252.675781 186.292969 Z M 287.28125 216.566406 L 287.164062 217.617188 C 287.714844 217.679688 288.332031 217.734375 288.992188 217.765625 C 289.191406 218.285156 289.480469 218.753906 289.863281 219.136719 C 290.0625 220.410156 290.839844 221.515625 291.976562 222.132812 C 292.890625 222.621094 293.929688 223.171875 295.003906 223.703125 C 296.863281 224.640625 298.871094 225.105469 300.835938 225.105469 C 302.855469 225.105469 304.84375 224.617188 306.617188 223.640625 C 307.339844 223.246094 307.921875 222.8125 308.378906 222.367188 L 307.625 221.609375 C 307.242188 221.992188 306.734375 222.367188 306.097656 222.714844 C 302.910156 224.480469 298.933594 224.5 295.480469 222.769531 C 294.417969 222.238281 293.390625 221.695312 292.484375 221.207031 C 292.007812 220.953125 291.625 220.582031 291.347656 220.132812 C 292.304688 220.507812 293.390625 220.921875 294.503906 221.324219 C 295.960938 221.84375 297.46875 222.101562 298.945312 222.101562 C 301.496094 222.101562 303.972656 221.335938 306.023438 219.859375 C 306.679688 219.378906 307.222656 218.878906 307.617188 218.382812 L 306.777344 217.722656 C 306.4375 218.148438 305.96875 218.582031 305.382812 218.996094 C 302.429688 221.132812 298.488281 221.632812 294.855469 220.324219 C 293.738281 219.921875 292.644531 219.507812 291.6875 219.136719 C 291.03125 218.878906 290.507812 218.414062 290.160156 217.816406 C 290.296875 217.816406 290.433594 217.828125 290.574219 217.828125 C 294.824219 217.828125 300.421875 216.90625 304.683594 212.867188 L 303.949219 212.089844 C 298.722656 217.042969 291.253906 217.019531 287.28125 216.566406 Z M 283.605469 212.273438 L 291.871094 211.859375 C 294.078125 211.625 298.128906 210.679688 300.476562 206.949219 L 299.574219 206.386719 C 297.46875 209.734375 293.773438 210.59375 291.785156 210.804688 L 291.507812 210.816406 C 291.488281 210.804688 289.074219 210.191406 287.386719 205.824219 L 286.398438 206.207031 C 287.363281 208.722656 288.585938 210.136719 289.5625 210.914062 L 283.550781 211.21875 Z M 288.648438 238.324219 L 288.628906 237.582031 L 272.375 243.839844 L 272.753906 244.828125 L 287.621094 239.101562 C 288.195312 247.992188 294.175781 255.8125 302.695312 258.691406 L 303.035156 257.683594 C 294.707031 254.867188 288.914062 247.078125 288.648438 238.324219 Z M 207.648438 201.316406 L 217.058594 201.316406 C 219.375 201.316406 221.523438 200.265625 222.945312 198.4375 C 224.371094 196.609375 224.859375 194.273438 224.296875 192.019531 L 222.363281 184.636719 L 221.332031 184.902344 L 223.265625 192.277344 C 223.753906 194.199219 223.328125 196.207031 222.105469 197.78125 C 220.886719 199.351562 219.046875 200.246094 217.050781 200.246094 L 207.636719 200.246094 C 205.648438 200.246094 203.800781 199.339844 202.578125 197.78125 C 201.355469 196.207031 200.933594 194.199219 201.421875 192.277344 L 205.148438 177.519531 L 204.121094 177.253906 L 200.390625 192.011719 C 199.816406 194.261719 200.316406 196.601562 201.738281 198.429688 C 203.175781 200.265625 205.320312 201.316406 207.648438 201.316406 Z M 235.324219 272.472656 L 235.953125 272.472656 L 233.261719 256.8125 L 232.210938 256.992188 L 234.6875 271.429688 C 231.203125 271.707031 228.34375 274.308594 227.78125 277.828125 L 228.832031 277.996094 C 229.351562 274.789062 232.082031 272.472656 235.324219 272.472656 Z M 235.324219 272.472656 " fill-opacity="1" fill-rule="nonzero"/><g clip-path="url(#e87a082106)"><path fill="#f59cbb" d="M 226.554688 87 C 226.195312 87.035156 225.839844 87.097656 225.480469 87.167969 C 225.363281 87.191406 225.230469 87.214844 225.113281 87.238281 C 224.910156 87.273438 224.707031 87.335938 224.503906 87.394531 C 223.824219 87.585938 223.144531 87.847656 222.503906 88.144531 C 222.492188 88.15625 222.480469 88.15625 222.453125 88.167969 C 222.253906 88.261719 222.0625 88.359375 221.871094 88.464844 C 221.15625 88.859375 220.488281 89.335938 219.871094 89.847656 C 219.40625 90.230469 218.976562 90.660156 218.570312 91.097656 C 218.511719 91.171875 218.441406 91.242188 218.378906 91.3125 C 218 91.765625 217.640625 92.242188 217.332031 92.742188 C 217.082031 93.125 216.867188 93.53125 216.664062 93.945312 C 216.484375 94.316406 216.332031 94.683594 216.1875 95.066406 C 216.09375 95.339844 215.996094 95.613281 215.914062 95.886719 C 215.652344 96.757812 215.507812 97.652344 215.4375 98.558594 C 215.414062 98.796875 215.414062 99.023438 215.402344 99.261719 C 215.402344 99.285156 215.402344 99.296875 215.402344 99.320312 C 215.390625 100.070312 215.460938 100.820312 215.582031 101.558594 C 215.617188 101.808594 215.675781 102.070312 215.734375 102.324219 C 215.832031 102.726562 215.949219 103.121094 216.082031 103.515625 C 216.128906 103.65625 216.1875 103.800781 216.234375 103.941406 C 216.332031 104.167969 216.425781 104.40625 216.523438 104.621094 C 216.546875 104.679688 216.570312 104.742188 216.605469 104.800781 C 216.796875 105.207031 217.011719 105.609375 217.25 105.992188 C 217.308594 106.085938 217.367188 106.171875 217.414062 106.265625 C 217.796875 106.851562 218.226562 107.398438 218.691406 107.898438 C 219.082031 108.328125 219.5 108.71875 219.941406 109.089844 C 220.191406 109.304688 220.453125 109.496094 220.726562 109.683594 C 220.847656 109.769531 220.964844 109.851562 221.097656 109.9375 C 221.359375 110.113281 221.632812 110.269531 221.917969 110.425781 C 221.917969 110.425781 221.929688 110.425781 221.929688 110.4375 C 222.480469 110.734375 223.039062 110.984375 223.621094 111.199219 C 224.445312 111.507812 225.300781 111.710938 226.183594 111.828125 C 227.125 111.960938 228.054688 111.984375 228.996094 111.902344 C 229.972656 111.816406 230.925781 111.617188 231.855469 111.316406 C 233.605469 110.746094 235.203125 109.769531 236.539062 108.507812 C 237.203125 107.886719 237.777344 107.171875 238.289062 106.433594 C 238.824219 105.660156 239.242188 104.8125 239.585938 103.941406 C 239.933594 103.074219 240.160156 102.15625 240.289062 101.226562 C 240.421875 100.261719 240.457031 99.296875 240.375 98.320312 C 240.207031 96.460938 239.625 94.648438 238.671875 93.042969 C 238.242188 92.277344 237.695312 91.5625 237.085938 90.910156 C 236.476562 90.253906 235.800781 89.679688 235.070312 89.15625 C 234.382812 88.667969 233.628906 88.25 232.84375 87.917969 C 232.023438 87.574219 231.175781 87.296875 230.292969 87.132812 C 229.566406 86.988281 228.839844 86.917969 228.101562 86.90625 C 228.078125 86.90625 228.054688 86.90625 228.019531 86.90625 C 227.996094 86.90625 227.984375 86.90625 227.960938 86.90625 C 227.496094 86.917969 227.03125 86.941406 226.554688 87 Z M 229.390625 88.5 C 230.355469 88.644531 231.296875 88.894531 232.1875 89.265625 C 233.070312 89.644531 233.894531 90.121094 234.65625 90.707031 C 235.394531 91.289062 236.0625 91.957031 236.644531 92.695312 C 237.230469 93.457031 237.707031 94.28125 238.085938 95.160156 C 238.457031 96.066406 238.71875 97.007812 238.847656 97.984375 C 238.96875 98.960938 238.96875 99.953125 238.847656 100.941406 C 238.707031 101.90625 238.445312 102.847656 238.074219 103.753906 C 237.695312 104.621094 237.21875 105.445312 236.644531 106.195312 C 236.0625 106.933594 235.394531 107.601562 234.65625 108.183594 C 233.894531 108.757812 233.070312 109.246094 232.199219 109.625 C 231.296875 109.996094 230.355469 110.257812 229.378906 110.386719 C 228.398438 110.507812 227.421875 110.507812 226.445312 110.386719 C 225.539062 110.257812 224.660156 110.019531 223.800781 109.683594 C 223.742188 109.660156 223.683594 109.636719 223.632812 109.613281 C 223.433594 109.53125 223.230469 109.433594 223.039062 109.328125 C 223.027344 109.316406 223.015625 109.316406 223.003906 109.304688 C 222.992188 109.304688 222.992188 109.292969 222.980469 109.292969 C 222.96875 109.292969 222.96875 109.28125 222.957031 109.28125 C 222.335938 108.957031 221.738281 108.589844 221.179688 108.160156 C 220.644531 107.730469 220.144531 107.265625 219.691406 106.753906 C 219.691406 106.753906 219.691406 106.753906 219.691406 106.742188 C 219.679688 106.730469 219.679688 106.730469 219.667969 106.71875 C 219.65625 106.707031 219.65625 106.707031 219.644531 106.695312 C 219.644531 106.695312 219.644531 106.683594 219.632812 106.683594 C 219.476562 106.515625 219.332031 106.335938 219.191406 106.160156 C 218.640625 105.433594 218.179688 104.644531 217.796875 103.8125 C 217.796875 103.8125 217.796875 103.800781 217.796875 103.800781 C 217.796875 103.800781 217.796875 103.789062 217.785156 103.789062 C 217.773438 103.765625 217.761719 103.726562 217.75 103.703125 C 217.703125 103.597656 217.664062 103.5 217.628906 103.394531 C 217.628906 103.382812 217.617188 103.371094 217.617188 103.359375 C 217.617188 103.359375 217.617188 103.359375 217.617188 103.347656 C 217.34375 102.621094 217.152344 101.882812 217.023438 101.117188 C 217.023438 101.117188 217.023438 101.105469 217.023438 101.105469 C 217.023438 101.09375 217.023438 101.082031 217.023438 101.082031 C 217.023438 101.070312 217.023438 101.070312 217.023438 101.058594 C 217.023438 101.058594 217.023438 101.046875 217.023438 101.046875 C 217.011719 101 217.011719 100.941406 217 100.894531 C 216.878906 99.902344 216.878906 98.914062 217 97.9375 C 217.082031 97.414062 217.1875 96.890625 217.332031 96.390625 C 217.332031 96.378906 217.34375 96.363281 217.34375 96.351562 C 217.34375 96.339844 217.34375 96.328125 217.355469 96.328125 C 217.355469 96.328125 217.355469 96.316406 217.355469 96.316406 C 217.476562 95.925781 217.605469 95.542969 217.761719 95.160156 C 218.140625 94.292969 218.617188 93.46875 219.203125 92.707031 C 219.394531 92.457031 219.59375 92.230469 219.808594 91.992188 C 219.820312 91.980469 219.820312 91.96875 219.832031 91.96875 C 219.832031 91.96875 219.832031 91.957031 219.847656 91.957031 C 219.859375 91.945312 219.859375 91.945312 219.871094 91.933594 C 219.871094 91.933594 219.882812 91.921875 219.882812 91.921875 C 219.882812 91.921875 219.894531 91.910156 219.894531 91.910156 C 219.90625 91.898438 219.90625 91.898438 219.917969 91.886719 C 219.917969 91.886719 219.929688 91.875 219.929688 91.875 C 219.941406 91.863281 219.941406 91.863281 219.953125 91.851562 C 219.953125 91.851562 219.953125 91.851562 219.964844 91.835938 C 219.976562 91.824219 219.988281 91.8125 219.988281 91.8125 C 220.347656 91.445312 220.726562 91.097656 221.121094 90.777344 C 221.132812 90.765625 221.144531 90.753906 221.15625 90.753906 C 221.167969 90.742188 221.179688 90.742188 221.191406 90.730469 C 221.953125 90.15625 222.777344 89.667969 223.644531 89.289062 C 223.753906 89.253906 223.847656 89.203125 223.957031 89.167969 C 223.96875 89.167969 223.96875 89.167969 223.980469 89.15625 C 223.992188 89.15625 223.992188 89.15625 224.003906 89.144531 C 224.671875 88.894531 225.351562 88.714844 226.042969 88.585938 C 226.042969 88.585938 226.054688 88.585938 226.054688 88.585938 C 226.054688 88.585938 226.054688 88.585938 226.066406 88.585938 C 226.195312 88.5625 226.316406 88.539062 226.445312 88.527344 C 226.589844 88.5 226.742188 88.488281 226.886719 88.476562 C 227.710938 88.382812 228.554688 88.394531 229.390625 88.5 Z M 238.0625 103.800781 C 238.050781 103.824219 238.050781 103.835938 238.039062 103.859375 C 238.050781 103.835938 238.0625 103.8125 238.0625 103.800781 Z M 238.0625 103.800781 " fill-opacity="1" fill-rule="nonzero"/></g><g clip-path="url(#e81ecfd69d)"><path fill="#f59cbb" d="M 258.328125 87.941406 C 257.433594 88.15625 256.566406 88.5 255.730469 88.90625 C 255.433594 89.050781 255.148438 89.214844 254.863281 89.382812 C 254.800781 89.417969 254.730469 89.46875 254.671875 89.503906 C 254.171875 89.8125 253.695312 90.167969 253.242188 90.550781 C 252.980469 90.777344 252.71875 91.015625 252.46875 91.265625 C 251.847656 91.886719 251.289062 92.589844 250.8125 93.328125 C 250.574219 93.695312 250.359375 94.078125 250.15625 94.472656 C 250.121094 94.53125 250.097656 94.601562 250.058594 94.660156 C 249.894531 95.019531 249.738281 95.375 249.597656 95.746094 C 249.597656 95.757812 249.597656 95.757812 249.582031 95.769531 C 249.261719 96.601562 249.058594 97.484375 248.941406 98.367188 C 248.808594 99.320312 248.785156 100.273438 248.867188 101.238281 C 249.035156 103.085938 249.621094 104.871094 250.550781 106.46875 C 251 107.242188 251.550781 107.957031 252.144531 108.613281 C 252.753906 109.28125 253.457031 109.863281 254.183594 110.386719 C 254.933594 110.925781 255.742188 111.339844 256.589844 111.699219 C 257.433594 112.042969 258.304688 112.292969 259.210938 112.449219 C 261.117188 112.769531 263.070312 112.652344 264.929688 112.105469 C 266.742188 111.566406 268.398438 110.589844 269.800781 109.328125 C 271.148438 108.101562 272.195312 106.5625 272.898438 104.882812 C 273.613281 103.167969 273.925781 101.285156 273.828125 99.414062 C 273.734375 97.542969 273.199219 95.722656 272.304688 94.078125 C 271.875 93.292969 271.351562 92.566406 270.765625 91.886719 C 270.183594 91.195312 269.503906 90.597656 268.789062 90.050781 C 268.097656 89.527344 267.335938 89.085938 266.550781 88.714844 C 265.703125 88.335938 264.835938 88.035156 263.929688 87.847656 C 263.082031 87.667969 262.226562 87.585938 261.367188 87.585938 C 260.355469 87.585938 259.328125 87.703125 258.328125 87.941406 Z M 262.832031 89.15625 C 263.796875 89.300781 264.738281 89.550781 265.644531 89.917969 C 266.515625 90.300781 267.324219 90.777344 268.085938 91.335938 C 268.835938 91.921875 269.503906 92.601562 270.101562 93.339844 C 270.671875 94.089844 271.148438 94.910156 271.53125 95.78125 C 271.898438 96.6875 272.160156 97.640625 272.304688 98.605469 C 272.421875 99.59375 272.421875 100.582031 272.304688 101.558594 C 272.160156 102.523438 271.910156 103.464844 271.542969 104.371094 C 271.160156 105.242188 270.683594 106.0625 270.113281 106.824219 C 269.515625 107.578125 268.847656 108.242188 268.109375 108.828125 C 267.347656 109.398438 266.515625 109.886719 265.644531 110.269531 C 264.738281 110.636719 263.808594 110.890625 262.84375 111.03125 C 261.867188 111.152344 260.878906 111.152344 259.890625 111.03125 C 258.9375 110.890625 257.996094 110.636719 257.101562 110.269531 C 256.21875 109.886719 255.398438 109.410156 254.636719 108.828125 C 253.886719 108.230469 253.21875 107.566406 252.621094 106.8125 C 252.050781 106.050781 251.574219 105.242188 251.191406 104.359375 C 250.824219 103.453125 250.574219 102.511719 250.429688 101.546875 C 250.3125 100.558594 250.3125 99.570312 250.429688 98.59375 C 250.5625 97.675781 250.800781 96.78125 251.144531 95.925781 C 251.144531 95.925781 251.144531 95.925781 251.144531 95.914062 C 251.144531 95.914062 251.144531 95.902344 251.144531 95.902344 C 251.15625 95.863281 251.167969 95.828125 251.191406 95.792969 C 251.265625 95.625 251.335938 95.460938 251.417969 95.304688 C 251.417969 95.304688 251.417969 95.292969 251.417969 95.292969 C 251.417969 95.28125 251.429688 95.269531 251.429688 95.257812 C 251.765625 94.578125 252.15625 93.933594 252.621094 93.328125 C 253.207031 92.589844 253.886719 91.910156 254.625 91.324219 C 254.648438 91.300781 254.671875 91.289062 254.695312 91.265625 C 254.695312 91.265625 254.707031 91.265625 254.707031 91.253906 C 254.71875 91.253906 254.71875 91.242188 254.730469 91.242188 C 255.433594 90.730469 256.183594 90.289062 256.984375 89.929688 C 256.996094 89.929688 257.007812 89.917969 257.019531 89.917969 C 257.019531 89.917969 257.03125 89.917969 257.03125 89.90625 C 257.042969 89.90625 257.042969 89.894531 257.054688 89.894531 C 257.066406 89.894531 257.078125 89.882812 257.078125 89.882812 C 257.113281 89.871094 257.148438 89.859375 257.183594 89.835938 C 258.054688 89.492188 258.960938 89.253906 259.890625 89.109375 C 260.867188 89.039062 261.855469 89.039062 262.832031 89.15625 Z M 262.832031 89.15625 " fill-opacity="1" fill-rule="nonzero"/></g><path fill="#f59cbb" d="M 244.199219 95.246094 C 243.792969 95.269531 243.375 95.328125 242.984375 95.4375 C 242.839844 95.472656 242.710938 95.507812 242.566406 95.554688 C 242.195312 95.675781 241.828125 95.851562 241.492188 96.042969 C 241.351562 96.125 241.207031 96.222656 241.078125 96.316406 C 241.078125 96.316406 241.066406 96.328125 241.066406 96.328125 C 241.054688 96.339844 241.042969 96.351562 241.015625 96.363281 C 240.898438 96.460938 240.777344 96.542969 240.660156 96.652344 C 240.230469 96.996094 239.886719 97.414062 239.5625 97.855469 C 239.363281 98.152344 239.183594 98.460938 239.039062 98.796875 C 239.039062 98.796875 239.039062 98.808594 239.027344 98.808594 C 239.027344 98.808594 239.027344 98.820312 239.027344 98.820312 C 239.027344 98.832031 239.015625 98.84375 239.015625 98.84375 C 238.980469 98.902344 238.957031 98.960938 238.945312 99.023438 C 238.945312 99.035156 238.933594 99.035156 238.933594 99.046875 C 238.859375 99.226562 238.921875 99.464844 239.003906 99.617188 C 239.097656 99.785156 239.265625 99.902344 239.445312 99.964844 C 239.636719 100.011719 239.851562 99.988281 240.015625 99.890625 C 240.0625 99.855469 240.113281 99.808594 240.171875 99.773438 C 240.253906 99.675781 240.328125 99.582031 240.363281 99.464844 C 240.515625 99.117188 240.707031 98.796875 240.933594 98.484375 C 241.171875 98.1875 241.445312 97.914062 241.746094 97.675781 C 242.054688 97.449219 242.386719 97.257812 242.734375 97.09375 C 243.101562 96.949219 243.472656 96.839844 243.863281 96.78125 C 244.269531 96.734375 244.664062 96.734375 245.070312 96.78125 C 245.308594 96.816406 245.546875 96.878906 245.769531 96.949219 C 245.785156 96.949219 245.785156 96.949219 245.796875 96.949219 C 245.796875 96.949219 245.808594 96.949219 245.808594 96.949219 C 245.9375 96.984375 246.082031 97.03125 246.210938 97.09375 C 246.570312 97.246094 246.902344 97.449219 247.214844 97.675781 C 247.238281 97.699219 247.273438 97.722656 247.296875 97.746094 C 247.558594 97.972656 247.796875 98.210938 248.011719 98.472656 C 248.203125 98.734375 248.378906 99.023438 248.523438 99.308594 C 248.523438 99.308594 248.523438 99.320312 248.535156 99.320312 C 248.558594 99.367188 248.582031 99.414062 248.605469 99.476562 C 248.703125 99.726562 248.785156 99.964844 248.84375 100.226562 C 248.882812 100.355469 248.90625 100.488281 248.929688 100.628906 C 248.941406 100.738281 248.953125 100.855469 248.953125 100.964844 C 248.953125 100.964844 248.953125 100.976562 248.953125 100.976562 C 248.953125 100.988281 248.953125 101 248.953125 101.011719 C 248.953125 101.011719 248.953125 101.023438 248.953125 101.023438 C 248.953125 101.035156 248.953125 101.046875 248.953125 101.058594 C 248.953125 101.058594 248.953125 101.070312 248.953125 101.070312 C 248.953125 101.082031 248.953125 101.09375 248.953125 101.105469 C 248.953125 101.105469 248.953125 101.117188 248.953125 101.117188 C 248.953125 101.132812 248.953125 101.144531 248.953125 101.15625 C 248.953125 101.15625 248.953125 101.15625 248.953125 101.167969 C 248.953125 101.179688 248.953125 101.191406 248.953125 101.214844 C 248.953125 101.226562 248.953125 101.25 248.953125 101.261719 C 248.953125 101.667969 249.296875 102.011719 249.703125 102.011719 C 250.109375 102.011719 250.441406 101.679688 250.453125 101.261719 C 250.453125 100.691406 250.382812 100.105469 250.214844 99.546875 C 250.214844 99.546875 250.214844 99.535156 250.214844 99.535156 C 250.179688 99.414062 250.144531 99.285156 250.097656 99.164062 C 250 98.914062 249.894531 98.664062 249.761719 98.4375 C 249.667969 98.257812 249.558594 98.070312 249.441406 97.902344 C 249.261719 97.640625 249.058594 97.378906 248.832031 97.152344 C 248.808594 97.128906 248.785156 97.09375 248.761719 97.066406 C 248.691406 96.996094 248.617188 96.925781 248.535156 96.855469 C 248.296875 96.628906 248.035156 96.425781 247.761719 96.246094 C 247.582031 96.125 247.402344 96.019531 247.214844 95.9375 C 247.128906 95.886719 247.046875 95.851562 246.949219 95.816406 C 246.914062 95.804688 246.878906 95.78125 246.84375 95.769531 C 246.535156 95.636719 246.210938 95.53125 245.878906 95.449219 C 245.769531 95.425781 245.664062 95.398438 245.546875 95.375 C 245.292969 95.328125 245.03125 95.304688 244.769531 95.292969 C 244.757812 95.292969 244.734375 95.292969 244.722656 95.292969 C 244.652344 95.292969 244.566406 95.292969 244.496094 95.292969 C 244.390625 95.234375 244.292969 95.234375 244.199219 95.246094 Z M 244.199219 95.246094 " fill-opacity="1" fill-rule="nonzero"/><g clip-path="url(#af0aa028c2)"><path fill="#f59cbb" d="M 274.679688 98.136719 C 274.574219 99.207031 274.410156 100.246094 274.183594 101.285156 C 279.285156 95.910156 282.054688 89.335938 282.054688 82.398438 C 282.054688 74.136719 278.140625 66.402344 271.023438 60.59375 C 264.011719 54.875 254.695312 51.730469 244.808594 51.730469 C 234.921875 51.730469 225.625 54.875 218.59375 60.59375 C 211.476562 66.402344 207.566406 74.136719 207.566406 82.398438 C 207.566406 89.09375 210.136719 95.460938 214.925781 100.710938 C 214.726562 99.671875 214.578125 98.621094 214.488281 97.535156 C 214.414062 96.679688 214.382812 95.820312 214.382812 94.949219 C 214.382812 94.765625 214.382812 94.585938 214.382812 94.390625 C 214.382812 94.074219 214.398438 93.773438 214.414062 93.457031 C 215.042969 93.488281 215.691406 93.339844 216.261719 92.976562 C 217.390625 92.253906 217.917969 91.003906 218.386719 89.800781 C 219.527344 86.820312 220.566406 83.78125 221.46875 80.710938 C 221.953125 79.074219 222.402344 77.417969 223.289062 75.957031 C 226.042969 71.429688 231.101562 73.355469 235.433594 73.851562 C 241.933594 74.601562 248.511719 74.511719 255.027344 73.925781 C 257.8125 73.671875 261.105469 72.449219 263.53125 74.152344 C 265.621094 75.609375 267.1875 77.792969 267.878906 80.261719 C 268.433594 82.277344 268.554688 84.398438 269.351562 86.339844 C 270.195312 88.402344 272.226562 92.511719 274.800781 92.828125 C 274.847656 93.535156 274.875 94.242188 274.875 94.949219 L 274.875 95.023438 C 274.847656 96.078125 274.800781 97.113281 274.679688 98.136719 Z M 274.679688 98.136719 " fill-opacity="1" fill-rule="nonzero"/></g><g clip-path="url(#4ee3879097)"><path fill="#f59cbb" d="M 257.675781 52.226562 C 257.675781 53.023438 257.597656 53.808594 257.441406 54.589844 C 257.289062 55.371094 257.058594 56.128906 256.753906 56.863281 C 256.449219 57.597656 256.074219 58.296875 255.632812 58.957031 C 255.191406 59.617188 254.691406 60.230469 254.128906 60.792969 C 253.566406 61.355469 252.953125 61.855469 252.292969 62.296875 C 251.628906 62.742188 250.933594 63.113281 250.199219 63.417969 C 249.460938 63.722656 248.707031 63.953125 247.925781 64.105469 C 247.144531 64.261719 246.355469 64.339844 245.5625 64.339844 C 244.765625 64.339844 243.980469 64.261719 243.199219 64.105469 C 242.417969 63.953125 241.660156 63.722656 240.925781 63.417969 C 240.191406 63.113281 239.492188 62.742188 238.832031 62.296875 C 238.171875 61.855469 237.558594 61.355469 236.996094 60.792969 C 236.433594 60.230469 235.929688 59.617188 235.488281 58.957031 C 235.046875 58.296875 234.675781 57.597656 234.371094 56.863281 C 234.066406 56.128906 233.835938 55.371094 233.679688 54.589844 C 233.527344 53.808594 233.449219 53.023438 233.449219 52.226562 C 233.449219 51.429688 233.527344 50.644531 233.679688 49.863281 C 233.835938 49.082031 234.066406 48.324219 234.371094 47.589844 C 234.675781 46.855469 235.046875 46.15625 235.488281 45.496094 C 235.929688 44.835938 236.433594 44.222656 236.996094 43.660156 C 237.558594 43.097656 238.171875 42.597656 238.832031 42.152344 C 239.492188 41.710938 240.191406 41.339844 240.925781 41.035156 C 241.660156 40.730469 242.417969 40.5 243.199219 40.34375 C 243.980469 40.191406 244.765625 40.113281 245.5625 40.113281 C 246.355469 40.113281 247.144531 40.191406 247.925781 40.34375 C 248.707031 40.5 249.460938 40.730469 250.199219 41.035156 C 250.933594 41.339844 251.628906 41.710938 252.292969 42.152344 C 252.953125 42.597656 253.566406 43.097656 254.128906 43.660156 C 254.691406 44.222656 255.191406 44.835938 255.632812 45.496094 C 256.074219 46.15625 256.449219 46.855469 256.753906 47.589844 C 257.058594 48.324219 257.289062 49.082031 257.441406 49.863281 C 257.597656 50.644531 257.675781 51.429688 257.675781 52.226562 Z M 257.675781 52.226562 " fill-opacity="1" fill-rule="nonzero"/></g></svg>