<svg xmlns="http://www.w3.org/2000/svg" xmlns:xlink="http://www.w3.org/1999/xlink" width="500" zoomAndPan="magnify" viewBox="0 0 375 374.999991" height="500" preserveAspectRatio="xMidYMid meet" version="1.0"><defs><clipPath id="41acf7b48c"><path d="M 159 127 L 311.183594 127 L 311.183594 312 L 159 312 Z M 159 127 " clip-rule="nonzero"/></clipPath><clipPath id="64e8b52b56"><path d="M 66 88 L 287 88 L 287 337.5 L 66 337.5 Z M 66 88 " clip-rule="nonzero"/></clipPath></defs><path fill="#f8becb" d="M 241.292969 129.746094 C 241.335938 129.761719 241.378906 129.773438 241.417969 129.789062 C 238.339844 133.925781 234.769531 142.492188 234.589844 142.925781 C 234.585938 142.9375 234.578125 142.949219 234.578125 142.949219 L 234.011719 143.328125 C 234.628906 140.59375 235.199219 137.546875 235.714844 134.195312 C 236.160156 131.292969 236.921875 127.570312 237.820312 123.5625 C 238.21875 126.589844 239.40625 129.019531 241.292969 129.746094 Z M 215.855469 141.136719 L 215.6875 140.515625 Z M 253.191406 96.304688 C 251.609375 106.203125 242.542969 108.785156 242.542969 108.785156 C 241.96875 109.257812 241.453125 109.804688 240.984375 110.402344 C 241.964844 106.527344 242.914062 102.917969 243.675781 100.0625 C 243.695312 99.992188 243.707031 99.9375 243.722656 99.882812 C 244.652344 98.355469 245.253906 95.96875 244.347656 94.242188 C 243.398438 92.425781 242.132812 92.582031 241.417969 92.871094 C 242.046875 91.609375 242.988281 90.492188 244.214844 89.660156 C 244.582031 89.414062 244.234375 88.8125 243.863281 89.0625 C 240.140625 91.582031 238.8125 96.410156 240.695312 100.488281 C 238.253906 109.703125 234.292969 125.210938 232.976562 133.773438 C 232.234375 138.597656 231.429688 142.476562 230.617188 145.597656 L 219.132812 153.269531 L 216.449219 143.332031 L 215.855469 141.132812 C 223.09375 138.28125 228.605469 125.289062 228.605469 125.289062 C 220.953125 131.75 213.433594 132.132812 213.421875 132.132812 C 211.539062 132.039062 209.765625 131.808594 208.097656 131.464844 C 207.152344 131.265625 206.242188 131.03125 205.367188 130.757812 C 200.414062 129.230469 196.492188 126.570312 193.378906 123.273438 C 185.953125 115.402344 183.167969 103.886719 182.148438 95.386719 C 185.519531 92.890625 187.085938 87.359375 187.085938 87.359375 C 188.570312 93.941406 193.667969 95.640625 197.488281 91.183594 C 201.3125 86.722656 198.742188 74.96875 198.742188 74.96875 C 207.78125 85.882812 223.859375 85.175781 223.859375 85.175781 C 226.089844 91.867188 234.773438 96.445312 234.773438 96.445312 C 234.40625 92.589844 235.890625 86.15625 241.460938 84.492188 C 247.035156 82.832031 254.769531 86.40625 253.191406 96.304688 Z M 194.015625 95.722656 C 194.453125 95.636719 194.269531 94.96875 193.832031 95.054688 C 191.21875 95.574219 189.160156 97.730469 188.78125 100.367188 C 188.757812 100.554688 188.828125 100.738281 189.023438 100.796875 C 189.1875 100.84375 189.425781 100.738281 189.449219 100.554688 C 189.796875 98.128906 191.613281 96.199219 194.015625 95.722656 Z M 196.875 103.386719 C 196.875 102.132812 195.863281 101.121094 194.609375 101.121094 C 193.359375 101.121094 192.34375 102.132812 192.34375 103.386719 C 192.34375 104.636719 193.359375 105.652344 194.609375 105.652344 C 195.863281 105.652344 196.875 104.636719 196.875 103.386719 Z M 202.699219 107.644531 C 204.410156 104.160156 204.648438 100.070312 203.304688 96.421875 C 203.148438 96.003906 202.480469 96.183594 202.636719 96.605469 C 203.914062 100.074219 203.734375 103.972656 202.101562 107.296875 C 201.902344 107.695312 202.5 108.046875 202.699219 107.644531 Z M 214.179688 110.832031 C 214.253906 110.398438 213.585938 110.210938 213.511719 110.648438 C 213.199219 112.53125 211.957031 114.203125 210.195312 114.972656 C 208.34375 115.777344 206.15625 115.449219 204.554688 114.261719 C 204.195312 113.996094 203.851562 114.597656 204.203125 114.859375 C 205.980469 116.175781 208.425781 116.484375 210.460938 115.605469 C 212.40625 114.769531 213.832031 112.917969 214.179688 110.832031 Z M 219.039062 96.824219 C 219.039062 95.574219 218.023438 94.558594 216.773438 94.558594 C 215.523438 94.558594 214.507812 95.574219 214.507812 96.824219 C 214.507812 98.074219 215.523438 99.089844 216.773438 99.089844 C 218.023438 99.089844 219.039062 98.074219 219.039062 96.824219 Z M 219.722656 89.671875 C 217.78125 88.207031 215.078125 88.152344 213.074219 89.519531 C 212.707031 89.769531 213.050781 90.367188 213.421875 90.117188 C 215.246094 88.875 217.609375 88.941406 219.371094 90.269531 C 219.726562 90.539062 220.074219 89.9375 219.722656 89.671875 Z M 192.84375 227.78125 C 192.472656 225.617188 192.214844 223.429688 192.085938 221.234375 C 192.050781 220.625 192.027344 220.015625 192.007812 219.40625 C 186.976562 219.398438 179.300781 219.488281 176.375 220.074219 C 173.695312 220.609375 168.617188 223.71875 164.519531 227.238281 C 161.710938 229.648438 159.363281 232.253906 158.5625 234.355469 C 156.660156 239.355469 160.898438 239.132812 165.5625 236.511719 C 165.679688 236.148438 165.8125 235.789062 165.964844 235.441406 C 167.398438 232.222656 169.988281 229.34375 173.15625 227.769531 C 173.554688 227.570312 173.90625 228.167969 173.503906 228.367188 C 170.753906 229.734375 168.601562 232.035156 167.113281 234.699219 C 166.277344 236.199219 165.632812 237.933594 165.976562 239.671875 C 166.273438 241.171875 167.402344 242.46875 168.957031 242.605469 C 168.953125 242.492188 168.945312 242.375 168.945312 242.261719 C 168.949219 238.617188 171.890625 235.988281 174.449219 233.824219 C 174.785156 233.535156 175.277344 234.023438 174.9375 234.3125 C 172.6875 236.214844 170.109375 238.40625 169.6875 241.511719 C 169.496094 242.90625 169.824219 244.433594 170.804688 245.480469 C 171.675781 246.40625 173 246.816406 174.21875 246.496094 C 173.746094 245.476562 173.578125 244.308594 173.746094 243.160156 C 174.101562 240.773438 175.707031 238.863281 177.644531 237.53125 C 178.011719 237.28125 178.359375 237.878906 177.992188 238.128906 C 176.304688 239.292969 174.898438 240.925781 174.476562 242.976562 C 174.078125 244.949219 174.789062 247.082031 176.5625 248.140625 C 176.605469 248.167969 176.640625 248.199219 176.667969 248.238281 C 177.902344 249.070312 179.800781 248.84375 181.023438 248.128906 C 181.714844 247.726562 182.300781 247.03125 182.316406 246.203125 C 182.332031 245.480469 181.839844 244.824219 181.113281 244.71875 C 180.914062 244.691406 180.847656 244.535156 180.875 244.378906 C 180.847656 244.253906 180.890625 244.117188 181.035156 244.03125 C 181.941406 243.511719 182.488281 242.5 182.457031 241.46875 C 182.441406 241.023438 183.132812 241.027344 183.148438 241.46875 C 183.183594 242.53125 182.695312 243.570312 181.898438 244.257812 C 182.511719 244.589844 182.933594 245.253906 183 245.953125 C 183.0625 246.605469 182.839844 247.230469 182.464844 247.75 C 183.390625 247.894531 190.773438 248.90625 197.199219 244.964844 C 197.5625 244.746094 197.917969 244.503906 198.273438 244.25 C 197.675781 243.0625 197.113281 241.855469 196.597656 240.628906 C 194.863281 236.507812 193.601562 232.1875 192.84375 227.78125 Z M 192.84375 227.78125 " fill-opacity="1" fill-rule="nonzero"/><g clip-path="url(#41acf7b48c)"><path fill="#9bd2e0" d="M 200.460938 249.964844 C 200.707031 249.949219 200.972656 249.9375 201.25 249.929688 C 199.710938 251.757812 197.988281 253.328125 196.136719 254.59375 C 196.324219 252.765625 196.519531 250.96875 196.714844 249.203125 C 197.796875 250.039062 199.148438 250.039062 200.460938 249.964844 Z M 201.800781 249.257812 C 202.558594 248.296875 203.273438 247.277344 203.921875 246.1875 C 204.074219 245.925781 204.230469 245.652344 204.386719 245.363281 C 202.851562 245.765625 201.320312 246.160156 199.777344 246.527344 C 199.628906 246.5625 199.460938 246.503906 199.386719 246.367188 C 199 245.667969 198.632812 244.960938 198.273438 244.25 C 197.921875 244.503906 197.5625 244.746094 197.199219 244.964844 C 197.0625 246.148438 196.925781 247.359375 196.785156 248.585938 C 196.890625 248.554688 197.007812 248.5625 197.113281 248.648438 C 198.386719 249.707031 200.222656 249.226562 201.800781 249.257812 Z M 193.675781 216.148438 C 194.808594 215.5 195.941406 214.847656 197.074219 214.199219 C 198.335938 213.472656 199.601562 212.75 200.863281 212.023438 C 201.089844 209.71875 201.308594 207.417969 201.511719 205.113281 C 202.28125 196.464844 202.902344 187.804688 203.378906 179.136719 C 203.402344 178.695312 204.097656 178.691406 204.070312 179.136719 C 203.9375 181.621094 203.789062 184.101562 203.628906 186.582031 C 203.089844 194.933594 202.40625 203.273438 201.59375 211.601562 C 203.675781 210.40625 205.761719 209.214844 207.84375 208.019531 C 210.324219 206.59375 212.804688 205.171875 215.285156 203.746094 C 215.304688 201.863281 215.328125 200.203125 215.355469 198.808594 C 215.644531 183.917969 215.882812 169.085938 216.394531 158.496094 C 214.265625 157.25 212.140625 155.375 210.617188 152.539062 C 210.003906 151.390625 209.453125 150.21875 208.953125 149.039062 C 208.839844 149.609375 208.730469 150.152344 208.644531 150.609375 C 208.710938 150.683594 208.75 150.785156 208.71875 150.914062 C 207.777344 154.628906 206.832031 158.34375 205.890625 162.058594 C 207.414062 162.058594 208.933594 162.058594 210.457031 162.058594 C 210.695312 162.058594 210.921875 162.363281 210.757812 162.578125 C 208.847656 165.0625 206.933594 167.542969 205.023438 170.027344 C 208.742188 176.636719 212.085938 183.449219 215.039062 190.4375 C 215.210938 190.84375 214.613281 191.195312 214.441406 190.785156 C 211.460938 183.726562 208.078125 176.84375 204.3125 170.171875 C 204.257812 170.074219 204.238281 169.917969 204.3125 169.824219 C 206.128906 167.464844 207.945312 165.109375 209.757812 162.75 C 208.320312 162.75 206.882812 162.753906 205.445312 162.753906 C 205.21875 162.753906 205.058594 162.53125 205.113281 162.316406 C 205.984375 158.882812 206.855469 155.445312 207.726562 152.015625 C 205.273438 152.589844 196.742188 155.113281 193.246094 162.980469 C 189.140625 172.214844 180.726562 197.046875 180.726562 197.046875 L 159.53125 203.710938 C 160.101562 210.441406 161.792969 217.839844 164.363281 227.066406 C 164.417969 227.121094 164.464844 227.183594 164.519531 227.238281 C 168.617188 223.71875 173.695312 220.609375 176.375 220.074219 C 179.300781 219.488281 186.976562 219.398438 192.011719 219.40625 C 191.996094 218.917969 191.988281 218.425781 191.988281 217.9375 C 191.984375 217.59375 191.898438 217.234375 192.1875 217.003906 C 192.613281 216.65625 193.199219 216.421875 193.675781 216.148438 Z M 207.917969 244.425781 C 207.378906 245.625 206.84375 246.699219 206.300781 247.605469 C 205.746094 248.535156 205.148438 249.414062 204.519531 250.261719 C 205.042969 250.828125 205.230469 251.582031 205.277344 252.339844 C 205.40625 254.386719 205.324219 256.460938 205.332031 258.507812 C 205.339844 260.574219 205.335938 262.636719 205.332031 264.699219 C 205.320312 268.902344 205.285156 273.105469 205.246094 277.308594 C 205.226562 279.269531 205.261719 281.238281 205.171875 283.191406 C 205.101562 284.699219 204.851562 286.28125 203.835938 287.457031 C 201.433594 290.234375 197.410156 288.785156 194.625 287.582031 C 194.214844 287.402344 194.570312 286.808594 194.976562 286.984375 C 196.792969 287.769531 198.777344 288.628906 200.808594 288.292969 C 202.6875 287.984375 203.90625 286.710938 204.289062 284.871094 C 204.632812 283.238281 204.511719 281.492188 204.527344 279.832031 C 204.546875 277.921875 204.566406 276.011719 204.582031 274.101562 C 204.617188 270.242188 204.640625 266.382812 204.644531 262.519531 C 204.644531 260.609375 204.644531 258.699219 204.632812 256.789062 C 204.628906 255.832031 204.621094 254.878906 204.613281 253.921875 C 204.605469 253.070312 204.707031 252.09375 204.371094 251.285156 C 204.296875 251.109375 204.203125 250.957031 204.09375 250.824219 C 201.722656 253.867188 198.882812 256.316406 195.78125 258.0625 C 195.769531 258.171875 195.761719 258.285156 195.75 258.398438 C 197.859375 259.101562 200.078125 259.378906 202.300781 259.203125 C 202.746094 259.167969 202.742188 259.859375 202.300781 259.894531 C 200.066406 260.074219 197.808594 259.800781 195.679688 259.105469 C 194.675781 269.378906 193.871094 280.140625 193.703125 289.386719 C 193.867188 288.953125 194.007812 288.507812 194.105469 288.050781 C 194.195312 287.613281 194.863281 287.796875 194.769531 288.234375 C 194.566406 289.234375 194.191406 290.191406 193.679688 291.070312 C 193.660156 292.941406 193.667969 294.75 193.710938 296.460938 C 193.789062 299.753906 193.988281 302.71875 194.332031 305.234375 C 194.332031 305.234375 195.710938 305.804688 197.925781 306.457031 C 202.007812 307.667969 208.929688 309.175781 215.355469 307.988281 C 215.355469 307.988281 215.1875 273.476562 215.167969 242.402344 C 212.757812 243.097656 210.339844 243.773438 207.917969 244.425781 Z M 216.566406 155.273438 C 216.777344 151.6875 217.035156 148.75 217.351562 146.679688 L 216.445312 143.335938 C 214.730469 144.117188 212.726562 144.710938 210.390625 144.996094 C 211.105469 147.117188 211.992188 149.234375 213.0625 151.226562 C 214.003906 152.984375 215.246094 154.289062 216.566406 155.273438 Z M 311.273438 293.800781 C 304.839844 299.300781 297.390625 303.183594 289.605469 305.878906 C 259.078125 316.4375 223.386719 308.714844 223.386719 308.714844 C 221.273438 294.699219 222.585938 264.753906 224.296875 239.65625 C 229.894531 237.902344 235.453125 236.03125 240.945312 233.972656 C 247.355469 231.566406 253.710938 228.933594 259.777344 225.746094 C 262.410156 224.363281 264.992188 222.867188 267.4375 221.175781 C 268.496094 220.441406 269.527344 219.667969 270.519531 218.847656 C 270.996094 218.445312 271.484375 218.039062 271.929688 217.597656 C 272.050781 217.476562 272.117188 217.386719 272.171875 217.238281 C 272.492188 216.335938 272.664062 215.351562 272.898438 214.425781 C 273.421875 212.386719 273.9375 210.34375 274.445312 208.300781 C 275.964844 202.183594 277.425781 196.046875 278.792969 189.894531 C 280.296875 183.144531 281.710938 176.367188 282.835938 169.539062 C 283.863281 163.292969 284.699219 156.984375 284 150.652344 C 283.898438 149.734375 283.765625 148.816406 283.597656 147.90625 C 285.121094 150.65625 292.898438 172.898438 301.40625 201.328125 C 310.125 230.46875 311.273438 293.800781 311.273438 293.800781 Z M 232.25 251.75 C 240.816406 250.613281 249.386719 249.472656 257.953125 248.335938 C 258.386719 248.277344 258.394531 247.582031 257.953125 247.640625 C 249.386719 248.78125 240.816406 249.917969 232.25 251.058594 C 231.8125 251.117188 231.808594 251.808594 232.25 251.75 Z M 237.398438 289.589844 C 236.601562 290.203125 235.53125 289.980469 234.796875 289.371094 C 233.917969 288.644531 233.636719 287.417969 233.484375 286.34375 C 233.121094 283.792969 232.964844 281.195312 232.757812 278.628906 C 232.347656 273.464844 232.070312 268.292969 231.925781 263.121094 C 231.898438 262.121094 231.882812 261.117188 231.863281 260.117188 C 240.753906 260.203125 249.644531 259.355469 258.359375 257.601562 C 258.796875 257.511719 258.613281 256.84375 258.175781 256.933594 C 249.511719 258.679688 240.683594 259.511719 231.847656 259.425781 C 231.820312 257.6875 231.804688 255.949219 231.804688 254.214844 C 231.804688 253.769531 231.113281 253.765625 231.113281 254.214844 C 231.105469 259.921875 231.261719 265.632812 231.574219 271.335938 C 231.730469 274.148438 231.925781 276.957031 232.160156 279.765625 C 232.28125 281.207031 232.410156 282.648438 232.550781 284.089844 C 232.671875 285.3125 232.722656 286.589844 233.074219 287.773438 C 233.378906 288.816406 233.960938 289.789062 234.953125 290.296875 C 235.839844 290.75 236.925781 290.816406 237.746094 290.1875 C 238.09375 289.917969 237.75 289.316406 237.398438 289.589844 Z M 261.0625 281.980469 C 261.003906 279.878906 260.933594 277.777344 260.847656 275.679688 C 260.679688 271.519531 260.460938 267.359375 260.1875 263.207031 C 259.882812 258.515625 259.511719 253.832031 259.078125 249.152344 C 259.039062 248.710938 258.34375 248.707031 258.386719 249.152344 C 259.125 257.101562 259.675781 265.070312 260.042969 273.046875 C 260.132812 275.03125 260.210938 277.015625 260.28125 279 C 260.339844 280.832031 260.480469 282.6875 260.394531 284.523438 C 260.324219 286.03125 259.96875 287.683594 258.589844 288.535156 C 257.875 288.976562 257.019531 289.148438 256.195312 289.273438 C 255.21875 289.417969 254.230469 289.523438 253.246094 289.625 C 248.800781 290.097656 244.332031 290.300781 239.863281 290.25 C 239.414062 290.242188 239.414062 290.9375 239.863281 290.941406 C 243.988281 290.988281 248.121094 290.820312 252.230469 290.421875 C 253.246094 290.324219 254.261719 290.210938 255.277344 290.085938 C 256.140625 289.976562 257.019531 289.886719 257.847656 289.617188 C 259.269531 289.160156 260.277344 288.164062 260.730469 286.746094 C 261.222656 285.21875 261.109375 283.554688 261.0625 281.980469 Z M 286.207031 299.84375 C 285.988281 289.132812 285.277344 278.429688 284.0625 267.78125 C 282.851562 257.179688 281.152344 246.632812 278.96875 236.1875 C 277.734375 230.285156 276.34375 224.417969 274.804688 218.59375 C 274.691406 218.160156 274.023438 218.34375 274.136719 218.777344 C 276.855469 229.0625 279.105469 239.476562 280.863281 249.972656 C 282.632812 260.546875 283.910156 271.203125 284.683594 281.894531 C 285.117188 287.871094 285.394531 293.855469 285.515625 299.84375 C 285.523438 300.289062 286.21875 300.292969 286.207031 299.84375 Z M 237.273438 191.175781 C 237.273438 191.160156 237.277344 191.140625 237.273438 191.128906 C 237.257812 191.132812 237.242188 191.144531 237.226562 191.152344 C 237.253906 191.230469 237.296875 191.285156 237.273438 191.175781 Z M 237.300781 191.113281 C 237.3125 191.109375 237.40625 191.039062 237.417969 191.046875 C 237.347656 191.003906 237.304688 190.996094 237.273438 190.996094 C 237.265625 191.042969 237.269531 191.085938 237.273438 191.128906 C 237.285156 191.125 237.292969 191.117188 237.300781 191.113281 Z M 227.898438 196.507812 C 229.191406 195.769531 230.480469 195.027344 231.773438 194.289062 C 232.996094 193.582031 234.222656 192.878906 235.449219 192.175781 C 236.023438 191.847656 236.613281 191.414062 237.226562 191.152344 C 237.203125 191.082031 237.199219 191 237.273438 190.996094 C 237.292969 190.785156 237.375 190.527344 237.402344 190.359375 C 237.605469 189.050781 237.808594 187.738281 238.015625 186.429688 C 238.738281 181.832031 239.484375 177.234375 240.253906 172.644531 C 241.132812 167.386719 242.042969 162.128906 243.054688 156.894531 C 243.460938 154.785156 243.882812 152.679688 244.359375 150.582031 C 244.667969 149.222656 244.972656 147.847656 245.4375 146.53125 C 245.582031 146.113281 246.253906 146.296875 246.105469 146.71875 C 245.941406 147.179688 245.804688 147.652344 245.675781 148.125 C 244.734375 151.5625 244.09375 155.089844 243.433594 158.589844 C 242.546875 163.285156 241.730469 167.992188 240.941406 172.703125 C 240.234375 176.914062 239.550781 181.128906 238.882812 185.347656 C 238.664062 186.730469 238.445312 188.117188 238.230469 189.5 C 238.136719 190.097656 238.132812 190.8125 237.9375 191.386719 C 237.839844 191.6875 237.476562 191.8125 237.214844 191.964844 C 236.480469 192.382812 235.746094 192.804688 235.015625 193.226562 C 232.621094 194.597656 230.226562 195.972656 227.828125 197.347656 C 227.492188 197.542969 227.152344 197.734375 226.816406 197.929688 C 223.140625 200.039062 219.464844 202.148438 215.789062 204.257812 C 212.082031 206.386719 208.371094 208.515625 204.660156 210.644531 C 203.636719 211.230469 202.609375 211.816406 201.585938 212.40625 C 201.59375 212.429688 201.609375 212.445312 201.613281 212.46875 C 202.042969 214.78125 202.519531 217.085938 203.042969 219.378906 C 204.882812 227.433594 207.296875 235.355469 210.242188 243.074219 C 214.972656 241.769531 219.675781 240.386719 224.355469 238.914062 C 224.664062 238.820312 224.96875 238.726562 225.273438 238.628906 C 231.886719 236.535156 238.449219 234.269531 244.898438 231.707031 C 251.066406 229.261719 257.179688 226.566406 262.914062 223.21875 C 265.28125 221.835938 267.597656 220.335938 269.726562 218.605469 C 270.195312 218.222656 270.652344 217.828125 271.101562 217.421875 C 271.167969 217.359375 271.464844 217.070312 271.492188 217.09375 C 271.492188 217.085938 271.496094 217.078125 271.496094 217.074219 C 271.613281 216.808594 271.65625 216.472656 271.726562 216.191406 C 272.742188 212.300781 273.714844 208.402344 274.667969 204.496094 C 276.238281 198.058594 277.742188 191.601562 279.128906 185.121094 C 280.515625 178.625 281.824219 172.097656 282.757812 165.519531 C 283.679688 159.007812 284.082031 152.335938 282.457031 145.890625 C 282.335938 145.648438 282.21875 145.402344 282.101562 145.152344 C 281.949219 144.433594 281.785156 143.746094 281.605469 143.089844 C 281.019531 141.480469 280.269531 139.925781 279.304688 138.511719 C 278.808594 137.792969 278.25 137.03125 277.558594 136.488281 C 277.394531 136.359375 277.417969 136.1875 277.519531 136.066406 C 271.03125 131.984375 248.839844 127.453125 248.839844 127.453125 C 247.429688 128.929688 244.730469 130.980469 241.417969 129.789062 C 238.339844 133.925781 234.765625 142.492188 234.589844 142.925781 C 234.585938 142.933594 234.582031 142.941406 234.578125 142.949219 C 233.140625 146.945312 230.902344 166.917969 229.261719 182.875 C 231.648438 177.160156 234.75 171.769531 238.523438 166.851562 C 238.515625 166.832031 238.5 166.820312 238.496094 166.796875 C 237.699219 163.402344 236.898438 160.003906 236.101562 156.605469 C 236.082031 156.515625 236.097656 156.4375 236.132812 156.371094 C 236.089844 156.285156 236.082031 156.183594 236.125 156.074219 C 238.898438 149.613281 243.535156 144.039062 249.359375 140.105469 C 249.363281 140.101562 249.363281 140.101562 249.367188 140.101562 C 248.972656 136.324219 248.574219 132.546875 248.175781 128.765625 C 248.128906 128.324219 248.824219 128.328125 248.871094 128.765625 C 249.269531 132.574219 249.667969 136.378906 250.070312 140.1875 C 250.085938 140.367188 249.980469 140.46875 249.847656 140.503906 C 249.828125 140.578125 249.789062 140.648438 249.707031 140.703125 C 243.992188 144.5625 239.472656 150.042969 236.746094 156.375 C 236.753906 156.390625 236.765625 156.402344 236.769531 156.421875 C 237.566406 159.820312 238.367188 163.214844 239.164062 166.613281 C 239.164062 166.617188 239.164062 166.617188 239.164062 166.621094 C 239.300781 166.710938 239.371094 166.875 239.238281 167.042969 C 235.28125 172.171875 232.023438 177.828125 229.597656 183.839844 C 229.515625 184.042969 229.308594 184.101562 229.140625 184.054688 C 228.660156 188.773438 228.234375 193.082031 227.90625 196.453125 L 219.28125 201.457031 C 219.746094 201.1875 220.214844 200.921875 220.679688 200.652344 C 223.085938 199.269531 225.492188 197.890625 227.898438 196.507812 Z M 199.988281 245.765625 C 202.910156 245.050781 205.820312 244.285156 208.726562 243.492188 C 209.007812 243.417969 209.292969 243.335938 209.578125 243.257812 C 208.753906 241.101562 207.96875 238.925781 207.226562 236.738281 C 204.585938 228.929688 202.503906 220.933594 200.980469 212.832031 C 200.957031 212.824219 200.933594 212.808594 200.914062 212.792969 C 199.273438 213.734375 197.632812 214.675781 195.992188 215.617188 C 194.890625 216.25 193.785156 216.882812 192.683594 217.515625 C 192.671875 219.652344 192.773438 221.785156 193 223.910156 C 193.808594 231.566406 196.164062 239.042969 199.863281 245.792969 C 199.90625 245.785156 199.945312 245.773438 199.988281 245.765625 Z M 199.988281 245.765625 " fill-opacity="1" fill-rule="nonzero"/></g><path fill="#f8f6b3" d="M 234.011719 143.328125 L 234.578125 142.949219 C 234.578125 142.949219 234.582031 142.9375 234.589844 142.925781 C 234.585938 142.933594 234.582031 142.941406 234.578125 142.949219 C 233.140625 146.945312 230.902344 166.917969 229.261719 182.875 C 229.152344 183.136719 229.035156 183.394531 228.929688 183.65625 C 228.847656 183.863281 228.972656 184.007812 229.140625 184.054688 C 228.660156 188.769531 228.234375 193.082031 227.90625 196.449219 L 219.28125 201.453125 C 219.207031 201.5 219.128906 201.542969 219.054688 201.585938 C 222.644531 182.605469 225.179688 164.519531 225.730469 160.488281 C 229.082031 158.621094 231.851562 152.871094 234.011719 143.328125 Z M 222.890625 160.785156 C 221.355469 160.542969 218.875 159.949219 216.394531 158.496094 C 215.882812 169.085938 215.644531 183.917969 215.355469 198.808594 C 215.332031 200.203125 215.304688 201.863281 215.285156 203.746094 C 215.476562 203.636719 215.667969 203.527344 215.859375 203.417969 C 219.492188 184.570312 222.167969 165.957031 222.890625 160.785156 Z M 216.566406 155.273438 C 219.683594 157.59375 223.222656 158.070312 224.226562 158.15625 C 225.578125 157.507812 228.152344 154.996094 230.617188 145.597656 L 219.132812 153.273438 L 216.449219 143.332031 C 216.449219 143.332031 216.445312 143.332031 216.445312 143.335938 L 217.351562 146.679688 C 217.035156 148.75 216.777344 151.6875 216.566406 155.273438 Z M 300.964844 332.355469 C 297.105469 324.476562 289.605469 305.878906 289.605469 305.878906 C 259.078125 316.4375 223.386719 308.714844 223.386719 308.714844 C 221.273438 294.699219 222.585938 264.753906 224.296875 239.65625 C 223.3125 239.964844 222.324219 240.277344 221.335938 240.578125 C 219.285156 241.207031 217.230469 241.8125 215.167969 242.40625 C 215.1875 273.480469 215.355469 307.988281 215.355469 307.988281 C 208.929688 309.175781 202.007812 307.667969 197.925781 306.460938 C 198.078125 315.742188 198.476562 332.355469 198.476562 332.355469 L 241.601562 332.355469 L 241.78125 327.949219 C 239.515625 322.882812 237.824219 317.566406 236.761719 312.109375 C 236.675781 311.675781 237.34375 311.488281 237.429688 311.925781 C 238.796875 318.949219 241.195312 325.742188 244.550781 332.058594 C 244.609375 332.164062 244.601562 332.269531 244.5625 332.355469 Z M 165.5625 236.511719 C 165.28125 237.414062 165.132812 238.363281 165.226562 239.292969 C 164.542969 240.21875 163.695312 241.015625 162.722656 241.640625 C 161.949219 242.136719 161.101562 242.519531 160.195312 242.777344 C 159.378906 243.003906 158.523438 243.136719 157.636719 243.136719 C 152.417969 243.136719 148.191406 238.90625 148.191406 233.691406 C 148.191406 228.476562 152.417969 224.25 157.636719 224.25 C 160.269531 224.25 162.648438 225.328125 164.363281 227.066406 C 164.417969 227.121094 164.464844 227.183594 164.519531 227.238281 C 161.710938 229.648438 159.363281 232.253906 158.5625 234.355469 C 156.65625 239.359375 160.898438 239.136719 165.5625 236.511719 Z M 158.011719 238.492188 C 155.621094 238.375 153.753906 236.328125 153.886719 233.9375 C 154.015625 231.527344 156.160156 229.757812 158.527344 229.90625 C 158.972656 229.933594 158.972656 229.242188 158.527344 229.214844 C 155.765625 229.042969 153.347656 231.171875 153.191406 233.9375 C 153.039062 236.71875 155.261719 239.050781 158.011719 239.183594 C 158.457031 239.207031 158.457031 238.515625 158.011719 238.492188 Z M 241.09375 100.671875 C 241.355469 101.125 241.6875 101.425781 242.097656 101.371094 C 242.609375 101.304688 243.214844 100.71875 243.722656 99.882812 C 244.648438 98.355469 245.253906 95.96875 244.347656 94.242188 C 243.398438 92.425781 242.132812 92.582031 241.417969 92.871094 C 240.308594 95.101562 240.195312 97.792969 241.308594 100.175781 C 241.414062 100.398438 241.269531 100.605469 241.09375 100.671875 Z M 241.09375 100.671875 " fill-opacity="1" fill-rule="nonzero"/><path fill="#dd789b" d="M 148.421875 336.609375 C 148.425781 336.632812 148.433594 336.644531 148.441406 336.667969 L 147.914062 336.667969 C 147.914062 336.667969 133.8125 336.335938 126.332031 336.667969 C 124.269531 336.757812 122.417969 336.519531 120.804688 336.140625 C 120.820312 336.097656 120.828125 336.054688 120.828125 336 C 120.789062 334.347656 121.894531 332.75 123.46875 332.238281 C 123.890625 332.097656 123.710938 331.429688 123.285156 331.570312 C 121.429688 332.175781 120.101562 334.019531 120.136719 335.976562 C 118.753906 335.601562 117.578125 335.125 116.632812 334.667969 C 116.714844 334.613281 116.777344 334.527344 116.78125 334.398438 C 116.828125 332.757812 117.988281 331.226562 119.554688 330.738281 C 119.980469 330.605469 119.800781 329.9375 119.371094 330.070312 C 117.507812 330.652344 116.148438 332.4375 116.089844 334.390625 C 115.058594 333.851562 114.394531 333.382812 114.140625 333.195312 C 114.195312 331.625 114.769531 330.089844 115.824219 328.914062 C 116.847656 327.769531 118.207031 327.003906 119.585938 326.371094 C 122.636719 324.96875 125.90625 324.035156 129.222656 323.527344 C 129.417969 323.695312 129.808594 323.613281 129.808594 323.277344 C 129.824219 316.519531 132.71875 309.898438 137.542969 305.183594 C 138.839844 303.917969 140.273438 302.808594 141.816406 301.859375 C 143.5 307.867188 144.914062 313.949219 146.050781 320.085938 C 147.066406 325.558594 147.855469 331.070312 148.421875 336.609375 Z M 188.917969 294.472656 C 191.132812 293.492188 192.855469 291.628906 193.703125 289.386719 C 193.871094 280.140625 194.675781 269.378906 195.679688 259.105469 C 195.480469 259.039062 195.277344 258.976562 195.078125 258.902344 C 194.992188 258.871094 194.9375 258.816406 194.902344 258.75 C 191.238281 268.742188 184.050781 283.292969 172.660156 285.957031 C 172.625 286.871094 172.578125 287.785156 172.511719 288.699219 C 173.183594 288.699219 173.855469 288.734375 174.523438 288.828125 C 176.921875 289.167969 179.113281 290.191406 180.863281 291.871094 C 182.550781 293.496094 183.84375 295.550781 184.886719 297.636719 C 185.777344 299.417969 186.460938 301.289062 186.957031 303.207031 C 188.191406 302.824219 191 301.433594 193.710938 296.460938 C 193.667969 294.75 193.660156 292.941406 193.679688 291.070312 C 192.667969 292.816406 191.121094 294.25 189.265625 295.070312 C 188.863281 295.25 188.511719 294.652344 188.917969 294.472656 Z M 195.75 258.398438 C 195.761719 258.289062 195.769531 258.175781 195.78125 258.0625 C 195.65625 258.132812 195.53125 258.210938 195.402344 258.28125 C 195.519531 258.324219 195.632812 258.359375 195.75 258.398438 Z M 147.359375 150.542969 C 145.132812 149.839844 138.429688 159.722656 136.71875 162.3125 C 141.324219 162.503906 145.84375 163.996094 149.652344 166.613281 C 149.664062 163.230469 149.554688 151.234375 147.359375 150.542969 Z M 165.226562 239.292969 C 164.539062 240.21875 163.695312 241.015625 162.722656 241.640625 C 164.824219 245.777344 167.265625 249.207031 169.976562 251.855469 C 169.582031 248.964844 169.113281 246.074219 168.566406 243.265625 C 167.191406 243.015625 166.070312 242 165.550781 240.683594 C 165.375 240.230469 165.273438 239.765625 165.226562 239.292969 Z M 187.386719 312.226562 C 187.332031 315.460938 186.757812 319.195312 185.03125 322.753906 C 180.601562 331.867188 171.222656 336.664062 171.222656 336.664062 L 170.351562 336.664062 C 171.199219 333.332031 170.523438 329.613281 168.09375 327.085938 C 167.578125 326.550781 166.996094 326.085938 166.375 325.699219 C 166.375 325.683594 166.382812 325.671875 166.382812 325.65625 C 166.203125 316.496094 165.597656 307.34375 164.558594 298.242188 C 163.527344 289.183594 162.078125 280.167969 160.207031 271.246094 C 159.15625 266.214844 157.96875 261.214844 156.652344 256.246094 C 156.539062 255.816406 155.867188 255.996094 155.984375 256.429688 C 158.308594 265.214844 160.230469 274.105469 161.734375 283.066406 C 163.242188 292.074219 164.328125 301.148438 164.984375 310.253906 C 165.347656 315.261719 165.578125 320.28125 165.683594 325.300781 C 163.699219 324.296875 161.371094 324.054688 159.222656 324.878906 C 157.527344 325.527344 156.082031 326.71875 155.222656 328.328125 C 155.011719 328.722656 155.609375 329.070312 155.820312 328.679688 C 157.234375 326.035156 160.382812 324.609375 163.3125 325.1875 C 166.410156 325.800781 168.855469 328.265625 169.679688 331.28125 C 170.164062 333.046875 170.113281 334.90625 169.636719 336.664062 L 167.398438 336.664062 C 167.957031 334.914062 167.398438 332.882812 166.011719 331.667969 C 165.679688 331.375 165.1875 331.863281 165.523438 332.160156 C 166.742188 333.226562 167.226562 334.976562 166.722656 336.519531 C 166.707031 336.570312 166.699219 336.621094 166.707031 336.664062 L 163.144531 336.664062 C 163.246094 334.882812 162.480469 333.085938 161.121094 331.929688 C 160.785156 331.644531 160.292969 332.128906 160.632812 332.421875 C 161.867188 333.46875 162.539062 335.050781 162.453125 336.664062 L 149.109375 336.664062 C 149.109375 336.644531 149.117188 336.628906 149.113281 336.609375 C 148.105469 326.769531 146.402344 317.007812 144.007812 307.414062 C 141.605469 297.78125 138.507812 288.320312 134.753906 279.132812 C 132.664062 274.019531 130.371094 268.992188 127.886719 264.0625 C 127.683594 263.664062 127.085938 264.015625 127.285156 264.414062 C 131.730469 273.21875 135.542969 282.335938 138.6875 291.6875 C 139.742188 294.820312 140.714844 297.984375 141.617188 301.164062 C 135.703125 304.746094 131.402344 310.769531 129.800781 317.488281 C 129.386719 319.242188 129.164062 321.039062 129.128906 322.839844 C 125.542969 323.382812 121.980469 324.417969 118.71875 326.015625 C 117.289062 326.71875 115.921875 327.609375 114.949219 328.890625 C 114.023438 330.105469 113.523438 331.574219 113.453125 333.09375 L 100.15625 332.910156 C 100.164062 332.902344 100.167969 332.898438 100.171875 332.890625 C 105.183594 321.820312 110.230469 310.671875 113.234375 298.859375 C 113.992188 295.882812 114.710938 292.816406 114.589844 289.726562 C 116.054688 291.84375 117.597656 293.902344 119.222656 295.898438 C 121.675781 298.90625 124.3125 301.761719 127.113281 304.445312 C 127.4375 304.753906 127.929688 304.265625 127.605469 303.957031 C 122.710938 299.265625 118.324219 294.054688 114.539062 288.429688 C 110.757812 282.804688 107.5625 276.785156 105.046875 270.492188 C 103.628906 266.945312 102.429688 263.316406 101.453125 259.625 C 101.335938 259.195312 100.667969 259.378906 100.78125 259.8125 C 102.53125 266.390625 104.984375 272.773438 108.082031 278.835938 C 109.808594 282.207031 111.738281 285.472656 113.847656 288.617188 C 113.839844 288.648438 113.832031 288.675781 113.835938 288.710938 C 114.148438 291.800781 113.511719 294.847656 112.777344 297.832031 C 112.0625 300.75 111.214844 303.632812 110.273438 306.484375 C 108.394531 312.167969 106.140625 317.71875 103.75 323.203125 C 102.386719 326.328125 100.980469 329.433594 99.574219 332.539062 C 99.511719 332.679688 99.542969 332.808594 99.617188 332.90625 L 99.414062 332.902344 C 87.539062 336.324219 75.195312 332.847656 75.066406 332.8125 C 75.128906 330.078125 76.289062 327.421875 78.296875 325.554688 C 80.367188 323.632812 83.210938 322.703125 86.011719 322.90625 C 86.453125 322.941406 86.453125 322.25 86.011719 322.214844 C 83.027344 321.996094 80.003906 323.027344 77.808594 325.066406 C 75.65625 327.0625 74.421875 329.933594 74.371094 332.859375 C 74.367188 332.898438 74.378906 332.929688 74.386719 332.960938 C 73.632812 333.121094 72.324219 333.363281 70.90625 333.476562 C 70.902344 333.460938 70.90625 333.445312 70.902344 333.429688 C 70.421875 332.167969 70.605469 330.675781 71.453125 329.605469 C 71.566406 329.460938 71.59375 329.257812 71.453125 329.117188 C 71.332031 328.996094 71.078125 328.96875 70.960938 329.117188 C 69.988281 330.347656 69.675781 332.035156 70.203125 333.519531 C 69.339844 333.558594 68.460938 333.539062 67.667969 333.410156 C 67.671875 333.351562 67.664062 333.285156 67.621094 333.21875 C 66.730469 331.8125 66.835938 329.945312 67.839844 328.628906 C 67.953125 328.480469 67.863281 328.242188 67.714844 328.15625 C 67.539062 328.050781 67.355469 328.132812 67.242188 328.277344 C 66.171875 329.679688 66.046875 331.671875 66.84375 333.226562 C 65.871094 332.941406 65.121094 332.425781 64.84375 331.566406 C 63.695312 328.03125 66.46875 323.253906 71.71875 320.964844 C 72.851562 320.46875 73.917969 320.007812 74.894531 319.585938 C 74.875 319.839844 75.128906 320.105469 75.394531 319.921875 C 77.992188 318.175781 81.027344 317.191406 84.15625 317.101562 C 84.601562 317.089844 84.605469 316.394531 84.15625 316.410156 C 82.992188 316.441406 81.835938 316.597656 80.707031 316.863281 C 73.578125 301.703125 74.1875 286.464844 80.800781 281.15625 C 86.183594 276.824219 91.09375 278.253906 92.753906 278.945312 C 93.046875 289.597656 92.070312 300.273438 89.828125 310.695312 C 89.113281 313.996094 88.277344 317.269531 87.320312 320.511719 C 87.191406 320.941406 87.859375 321.121094 87.988281 320.695312 C 91.402344 309.148438 93.257812 297.148438 93.480469 285.109375 C 93.542969 281.695312 93.472656 278.277344 93.277344 274.871094 C 93.257812 274.539062 92.867188 274.453125 92.679688 274.617188 C 89.339844 247.589844 97.6875 225.894531 102.285156 218.28125 C 104.664062 214.34375 106.339844 209.132812 107.433594 204.832031 L 107.4375 204.832031 L 118.988281 199.167969 C 112.683594 198.71875 109.097656 196.816406 109.097656 196.816406 C 94.546875 189.199219 92.535156 178.453125 93.585938 170.996094 C 95.71875 171.3125 99.675781 171.503906 102.207031 169.269531 C 104.027344 167.664062 103.460938 165.488281 102.457031 163.730469 C 108.753906 165.667969 118.140625 168.988281 118.140625 168.988281 C 124.046875 162.796875 130.691406 162.335938 134.074219 162.59375 C 134.023438 162.792969 134.125 163.03125 134.390625 163.015625 C 139.738281 162.726562 145.070312 164.25 149.460938 167.316406 C 149.527344 167.363281 149.589844 167.375 149.648438 167.375 C 149.648438 167.453125 149.644531 167.507812 149.644531 167.507812 C 149.644531 167.507812 164.859375 154.3125 165.535156 155.253906 C 166.207031 156.199219 162.84375 176.347656 160.285156 189.132812 C 159.320312 193.949219 159.109375 198.640625 159.53125 203.710938 C 160.101562 210.441406 161.792969 217.839844 164.363281 227.066406 C 162.648438 225.328125 160.269531 224.25 157.636719 224.25 C 152.417969 224.25 148.191406 228.476562 148.191406 233.691406 C 148.191406 238.90625 152.417969 243.136719 157.636719 243.136719 C 158.523438 243.136719 159.378906 243.003906 160.195312 242.777344 C 163.367188 249.078125 166.976562 253.253906 170.503906 256 C 171.234375 262.257812 171.667969 268.320312 171.921875 273.339844 C 171.722656 273.308594 171.515625 273.410156 171.542969 273.660156 C 172.085938 278.664062 172.175781 283.703125 171.820312 288.722656 C 169.851562 288.820312 167.898438 289.269531 166.027344 289.890625 C 165.605469 290.03125 165.785156 290.699219 166.210938 290.558594 C 170.789062 289.039062 176.167969 288.605469 180.027344 292.042969 C 181.707031 293.539062 182.976562 295.476562 184.019531 297.453125 C 185.121094 299.546875 185.941406 301.777344 186.476562 304.078125 C 187.066406 306.640625 187.28125 309.277344 187.128906 311.902344 C 187.113281 312.097656 187.242188 312.199219 187.386719 312.226562 Z M 151.667969 170.027344 C 152.703125 171.027344 153.742188 172.027344 154.78125 173.027344 C 154.917969 173.160156 155.136719 173.160156 155.269531 173.027344 C 159.878906 168.535156 163.101562 162.714844 164.453125 156.425781 C 164.546875 155.988281 163.878906 155.804688 163.785156 156.238281 C 162.480469 162.3125 159.421875 167.917969 155.019531 172.296875 C 154.066406 171.375 153.113281 170.457031 152.15625 169.535156 C 151.835938 169.226562 151.347656 169.714844 151.667969 170.027344 Z M 113.835938 186.492188 C 111.800781 188.34375 108.898438 189.109375 106.210938 188.503906 C 105.777344 188.40625 105.59375 189.074219 106.027344 189.171875 C 108.960938 189.835938 112.101562 189.003906 114.324219 186.980469 C 114.65625 186.679688 114.164062 186.191406 113.835938 186.492188 Z M 79.964844 328.636719 C 79.878906 328.488281 79.644531 328.402344 79.492188 328.511719 C 78.082031 329.558594 77.234375 331.257812 77.304688 333.019531 C 77.320312 333.464844 78.015625 333.464844 77.996094 333.019531 C 77.9375 331.519531 78.625 330.011719 79.839844 329.113281 C 79.992188 329 80.066406 328.8125 79.964844 328.636719 Z M 83.429688 329.40625 C 82.070312 330.332031 81.234375 331.910156 81.253906 333.554688 C 81.257812 334 81.953125 334.003906 81.945312 333.554688 C 81.929688 332.164062 82.625 330.792969 83.777344 330.007812 C 84.144531 329.757812 83.796875 329.15625 83.429688 329.40625 Z M 128.363281 177.429688 C 128.363281 176.179688 127.347656 175.167969 126.097656 175.167969 C 124.84375 175.167969 123.832031 176.179688 123.832031 177.429688 C 123.832031 178.683594 124.84375 179.695312 126.097656 179.695312 C 127.347656 179.695312 128.363281 178.683594 128.363281 177.429688 Z M 135.160156 173.0625 C 134.285156 171.742188 132.871094 170.898438 131.3125 170.695312 C 130.871094 170.640625 130.875 171.332031 131.3125 171.390625 C 132.648438 171.5625 133.898438 172.355469 134.617188 173.496094 C 135.425781 174.765625 135.53125 176.359375 134.980469 177.75 C 134.816406 178.164062 135.484375 178.34375 135.648438 177.933594 C 136.273438 176.355469 136.105469 174.480469 135.160156 173.0625 Z M 205.363281 130.757812 C 200.414062 129.230469 196.492188 126.570312 193.378906 123.273438 C 191.09375 124.488281 187.777344 127.21875 188.871094 132.585938 C 190.492188 140.558594 201.027344 135.695312 201.027344 135.695312 C 201.027344 135.695312 197.546875 144.960938 207.511719 145.164062 C 205.757812 139.710938 205.136719 134.410156 205.363281 130.757812 Z M 213.421875 132.132812 C 211.539062 132.042969 209.765625 131.8125 208.097656 131.464844 C 207.972656 135.023438 208.707031 140.023438 210.390625 144.996094 C 212.726562 144.710938 214.730469 144.117188 216.445312 143.335938 C 216.449219 143.335938 216.449219 143.335938 216.449219 143.332031 L 215.6875 140.515625 Z M 279.441406 94.921875 C 279.765625 88.511719 265.339844 77.644531 260.101562 71.433594 C 254.863281 65.226562 253.507812 45.246094 222.855469 41.363281 C 192.203125 37.484375 175.40625 61.242188 175.40625 64.640625 C 175.40625 68.035156 180.5 68.035156 180.5 68.035156 C 169.035156 79.078125 170.945312 95.003906 177.527344 96.445312 C 179.335938 96.839844 180.871094 96.328125 182.148438 95.382812 C 185.519531 92.890625 187.082031 87.359375 187.082031 87.359375 C 188.570312 93.941406 193.664062 95.640625 197.488281 91.183594 C 201.308594 86.722656 198.742188 74.964844 198.742188 74.964844 C 207.78125 85.882812 223.859375 85.175781 223.859375 85.175781 C 226.085938 91.867188 234.773438 96.445312 234.773438 96.445312 C 234.40625 92.589844 235.886719 86.15625 241.460938 84.492188 C 247.035156 82.828125 254.769531 86.40625 253.191406 96.304688 C 251.609375 106.203125 242.542969 108.78125 242.542969 108.78125 C 241.972656 109.257812 241.453125 109.804688 240.984375 110.402344 C 239.902344 114.683594 238.78125 119.285156 237.820312 123.5625 C 238.21875 126.585938 239.40625 129.019531 241.296875 129.746094 C 241.335938 129.761719 241.378906 129.773438 241.421875 129.789062 C 244.734375 130.980469 247.429688 128.929688 248.84375 127.453125 C 249.53125 126.734375 249.914062 126.15625 249.914062 126.15625 C 249.914062 126.15625 254.292969 130.210938 259.566406 127.613281 C 264.839844 125.019531 262.976562 115.734375 262.976562 115.734375 C 266.300781 118.050781 272.789062 118.527344 274.898438 112.523438 C 277.007812 106.523438 272.464844 101.25 272.464844 101.25 C 274.65625 101.898438 279.117188 101.332031 279.441406 94.921875 Z M 279.441406 94.921875 " fill-opacity="1" fill-rule="nonzero"/><g clip-path="url(#64e8b52b56)"><path fill="#353535" d="M 216.773438 99.089844 C 215.523438 99.089844 214.507812 98.074219 214.507812 96.824219 C 214.507812 95.574219 215.523438 94.558594 216.773438 94.558594 C 218.023438 94.558594 219.039062 95.574219 219.039062 96.824219 C 219.039062 98.074219 218.023438 99.089844 216.773438 99.089844 Z M 192.34375 103.386719 C 192.34375 104.636719 193.359375 105.652344 194.609375 105.652344 C 195.863281 105.652344 196.875 104.636719 196.875 103.386719 C 196.875 102.132812 195.863281 101.121094 194.609375 101.121094 C 193.359375 101.121094 192.34375 102.132812 192.34375 103.386719 Z M 202.699219 107.644531 C 204.410156 104.160156 204.648438 100.070312 203.304688 96.421875 C 203.148438 96.003906 202.480469 96.183594 202.636719 96.605469 C 203.914062 100.074219 203.734375 103.972656 202.101562 107.296875 C 201.902344 107.695312 202.5 108.046875 202.699219 107.644531 Z M 213.421875 90.117188 C 215.246094 88.875 217.609375 88.941406 219.371094 90.269531 C 219.726562 90.539062 220.074219 89.9375 219.722656 89.671875 C 217.78125 88.207031 215.082031 88.152344 213.074219 89.519531 C 212.707031 89.769531 213.050781 90.367188 213.421875 90.117188 Z M 189.023438 100.796875 C 189.1875 100.84375 189.425781 100.738281 189.453125 100.554688 C 189.796875 98.128906 191.613281 96.199219 194.015625 95.722656 C 194.453125 95.636719 194.269531 94.96875 193.832031 95.054688 C 191.21875 95.574219 189.160156 97.730469 188.78125 100.367188 C 188.757812 100.554688 188.828125 100.738281 189.023438 100.796875 Z M 204.207031 114.859375 C 205.980469 116.175781 208.425781 116.484375 210.460938 115.605469 C 212.40625 114.769531 213.832031 112.917969 214.179688 110.832031 C 214.253906 110.398438 213.585938 110.210938 213.511719 110.648438 C 213.199219 112.53125 211.957031 114.207031 210.195312 114.972656 C 208.34375 115.777344 206.15625 115.449219 204.554688 114.261719 C 204.195312 113.996094 203.851562 114.597656 204.207031 114.859375 Z M 213.421875 132.132812 L 215.6875 140.515625 L 215.855469 141.136719 C 223.089844 138.285156 228.605469 125.292969 228.605469 125.292969 C 220.953125 131.75 213.433594 132.132812 213.421875 132.132812 Z M 165.554688 240.683594 C 166.070312 242 167.195312 243.015625 168.566406 243.265625 C 168.71875 243.292969 168.875 243.300781 169.035156 243.308594 C 169.230469 244.4375 169.746094 245.519531 170.625 246.261719 C 171.707031 247.179688 173.195312 247.558594 174.558594 247.121094 C 174.914062 247.675781 175.382812 248.160156 175.945312 248.546875 C 175.960938 248.570312 175.976562 248.59375 176 248.613281 C 177.566406 249.867188 180.152344 249.65625 181.722656 248.496094 C 182.003906 248.289062 182.257812 248.035156 182.464844 247.75 C 182.839844 247.230469 183.0625 246.605469 183 245.953125 C 182.933594 245.253906 182.511719 244.589844 181.898438 244.257812 C 182.695312 243.570312 183.183594 242.53125 183.148438 241.46875 C 183.132812 241.027344 182.441406 241.023438 182.457031 241.46875 C 182.488281 242.5 181.941406 243.511719 181.035156 244.03125 C 180.890625 244.117188 180.847656 244.253906 180.875 244.378906 C 180.847656 244.535156 180.914062 244.691406 181.113281 244.71875 C 181.839844 244.824219 182.332031 245.480469 182.316406 246.203125 C 182.300781 247.03125 181.714844 247.726562 181.023438 248.128906 C 179.800781 248.84375 177.902344 249.070312 176.667969 248.238281 C 176.640625 248.199219 176.605469 248.167969 176.5625 248.140625 C 174.789062 247.082031 174.078125 244.949219 174.480469 242.976562 C 174.898438 240.925781 176.304688 239.292969 177.992188 238.128906 C 178.359375 237.878906 178.011719 237.277344 177.644531 237.53125 C 175.707031 238.863281 174.101562 240.773438 173.746094 243.160156 C 173.578125 244.308594 173.746094 245.476562 174.21875 246.496094 C 173 246.816406 171.675781 246.40625 170.804688 245.480469 C 169.824219 244.433594 169.496094 242.90625 169.6875 241.511719 C 170.109375 238.40625 172.6875 236.214844 174.9375 234.3125 C 175.277344 234.023438 174.785156 233.535156 174.449219 233.824219 C 171.890625 235.988281 168.949219 238.621094 168.945312 242.261719 C 168.945312 242.375 168.953125 242.492188 168.957031 242.605469 C 167.402344 242.46875 166.273438 241.171875 165.976562 239.671875 C 165.632812 237.933594 166.277344 236.199219 167.113281 234.699219 C 168.601562 232.035156 170.753906 229.734375 173.503906 228.367188 C 173.90625 228.167969 173.554688 227.570312 173.15625 227.769531 C 169.988281 229.34375 167.398438 232.222656 165.964844 235.441406 C 165.8125 235.789062 165.679688 236.148438 165.5625 236.511719 C 165.28125 237.414062 165.132812 238.359375 165.226562 239.292969 C 165.273438 239.765625 165.375 240.230469 165.554688 240.683594 Z M 155.269531 173.027344 C 159.878906 168.539062 163.101562 162.71875 164.453125 156.425781 C 164.546875 155.988281 163.878906 155.804688 163.785156 156.242188 C 162.480469 162.3125 159.421875 167.917969 155.019531 172.296875 C 154.066406 171.375 153.113281 170.457031 152.15625 169.535156 C 151.835938 169.226562 151.347656 169.714844 151.667969 170.027344 C 152.707031 171.027344 153.742188 172.027344 154.78125 173.027344 C 154.917969 173.160156 155.136719 173.160156 155.269531 173.027344 Z M 149.8125 166.71875 C 149.757812 166.683594 149.707031 166.652344 149.652344 166.613281 C 145.84375 163.996094 141.324219 162.503906 136.71875 162.3125 C 135.945312 162.28125 135.167969 162.28125 134.390625 162.324219 C 134.210938 162.335938 134.105469 162.457031 134.074219 162.59375 C 134.023438 162.792969 134.125 163.03125 134.390625 163.015625 C 139.738281 162.726562 145.070312 164.25 149.460938 167.320312 C 149.527344 167.363281 149.589844 167.375 149.648438 167.375 C 149.925781 167.367188 150.109375 166.929688 149.8125 166.71875 Z M 131.3125 171.390625 C 132.648438 171.5625 133.898438 172.359375 134.617188 173.496094 C 135.425781 174.765625 135.53125 176.359375 134.980469 177.75 C 134.816406 178.164062 135.484375 178.34375 135.648438 177.933594 C 136.273438 176.355469 136.105469 174.480469 135.160156 173.0625 C 134.285156 171.742188 132.871094 170.898438 131.3125 170.699219 C 130.871094 170.640625 130.875 171.332031 131.3125 171.390625 Z M 106.027344 189.171875 C 108.960938 189.835938 112.101562 189.003906 114.328125 186.980469 C 114.65625 186.679688 114.167969 186.191406 113.835938 186.492188 C 111.800781 188.34375 108.898438 189.109375 106.214844 188.503906 C 105.777344 188.40625 105.59375 189.074219 106.027344 189.171875 Z M 107.433594 204.832031 L 107.4375 204.832031 L 118.984375 199.167969 C 112.683594 198.71875 109.09375 196.816406 109.09375 196.816406 C 109.09375 196.816406 108.585938 200.328125 107.433594 204.832031 Z M 102.457031 163.730469 C 99.636719 162.855469 97.441406 162.265625 96.96875 162.367188 C 96.355469 162.496094 94.285156 166.015625 93.585938 170.996094 C 95.71875 171.3125 99.675781 171.503906 102.207031 169.269531 C 104.023438 167.664062 103.460938 165.488281 102.457031 163.730469 Z M 126.097656 179.695312 C 127.347656 179.695312 128.363281 178.683594 128.363281 177.429688 C 128.363281 176.179688 127.347656 175.164062 126.097656 175.164062 C 124.84375 175.164062 123.832031 176.179688 123.832031 177.429688 C 123.832031 178.683594 124.84375 179.695312 126.097656 179.695312 Z M 134.753906 279.132812 C 132.664062 274.019531 130.371094 268.992188 127.886719 264.0625 C 127.683594 263.664062 127.085938 264.015625 127.285156 264.414062 C 131.730469 273.21875 135.542969 282.339844 138.6875 291.6875 C 139.742188 294.820312 140.714844 297.984375 141.617188 301.164062 C 135.703125 304.746094 131.402344 310.773438 129.800781 317.488281 C 129.386719 319.242188 129.164062 321.039062 129.128906 322.839844 C 125.542969 323.382812 121.980469 324.417969 118.71875 326.015625 C 117.289062 326.71875 115.921875 327.609375 114.949219 328.890625 C 114.023438 330.105469 113.523438 331.574219 113.453125 333.09375 C 113.453125 333.148438 113.445312 333.207031 113.445312 333.261719 C 113.433594 333.707031 114.125 333.707031 114.136719 333.261719 C 114.136719 333.238281 114.140625 333.21875 114.140625 333.195312 C 114.195312 331.621094 114.765625 330.089844 115.820312 328.910156 C 116.84375 327.765625 118.207031 327.003906 119.585938 326.371094 C 122.636719 324.96875 125.902344 324.035156 129.222656 323.523438 C 129.414062 323.695312 129.808594 323.613281 129.808594 323.277344 C 129.824219 316.515625 132.71875 309.898438 137.542969 305.183594 C 138.839844 303.917969 140.273438 302.808594 141.816406 301.859375 C 143.5 307.867188 144.914062 313.949219 146.050781 320.082031 C 147.0625 325.558594 147.855469 331.070312 148.421875 336.609375 C 148.421875 336.632812 148.433594 336.644531 148.4375 336.667969 C 148.535156 337.023438 149.085938 337.027344 149.105469 336.667969 C 149.109375 336.648438 149.117188 336.632812 149.113281 336.609375 C 148.105469 326.773438 146.402344 317.007812 144.007812 307.414062 C 141.605469 297.78125 138.507812 288.320312 134.753906 279.132812 Z M 166.375 325.699219 C 166.375 325.683594 166.382812 325.671875 166.382812 325.65625 C 166.203125 316.496094 165.597656 307.34375 164.558594 298.242188 C 163.527344 289.183594 162.078125 280.171875 160.207031 271.246094 C 159.152344 266.214844 157.964844 261.214844 156.648438 256.246094 C 156.535156 255.816406 155.867188 255.996094 155.984375 256.429688 C 158.308594 265.214844 160.230469 274.105469 161.734375 283.066406 C 163.242188 292.074219 164.324219 301.148438 164.984375 310.253906 C 165.347656 315.265625 165.578125 320.28125 165.679688 325.300781 C 163.699219 324.296875 161.371094 324.054688 159.222656 324.878906 C 157.527344 325.527344 156.082031 326.722656 155.222656 328.328125 C 155.011719 328.722656 155.609375 329.070312 155.820312 328.679688 C 157.234375 326.035156 160.382812 324.609375 163.3125 325.1875 C 166.410156 325.800781 168.855469 328.269531 169.679688 331.28125 C 170.164062 333.046875 170.113281 334.90625 169.636719 336.664062 C 169.617188 336.742188 169.601562 336.820312 169.578125 336.894531 C 169.453125 337.324219 170.121094 337.507812 170.246094 337.078125 C 170.285156 336.941406 170.320312 336.804688 170.351562 336.667969 C 171.199219 333.332031 170.523438 329.613281 168.09375 327.085938 C 167.578125 326.550781 166.996094 326.085938 166.375 325.699219 Z M 165.519531 332.160156 C 166.742188 333.226562 167.226562 334.976562 166.71875 336.519531 C 166.703125 336.570312 166.699219 336.621094 166.703125 336.664062 C 166.742188 336.980469 167.265625 337.074219 167.386719 336.703125 C 167.390625 336.691406 167.394531 336.679688 167.398438 336.664062 C 167.953125 334.914062 167.394531 332.882812 166.011719 331.667969 C 165.675781 331.378906 165.1875 331.863281 165.519531 332.160156 Z M 161.121094 331.929688 C 160.78125 331.644531 160.289062 332.132812 160.628906 332.421875 C 161.867188 333.46875 162.539062 335.050781 162.449219 336.664062 C 162.449219 336.695312 162.449219 336.726562 162.449219 336.753906 C 162.417969 337.199219 163.109375 337.195312 163.140625 336.753906 C 163.144531 336.726562 163.140625 336.695312 163.140625 336.664062 C 163.242188 334.886719 162.480469 333.085938 161.121094 331.929688 Z M 184.886719 297.636719 C 183.84375 295.550781 182.550781 293.496094 180.863281 291.871094 C 179.113281 290.191406 176.925781 289.167969 174.523438 288.828125 C 173.855469 288.734375 173.183594 288.699219 172.511719 288.699219 C 172.578125 287.785156 172.625 286.871094 172.660156 285.957031 C 172.816406 281.851562 172.679688 277.742188 172.234375 273.660156 C 172.214844 273.46875 172.070312 273.363281 171.917969 273.339844 C 171.722656 273.304688 171.515625 273.410156 171.542969 273.660156 C 172.085938 278.660156 172.175781 283.703125 171.820312 288.722656 C 169.851562 288.820312 167.898438 289.269531 166.027344 289.890625 C 165.605469 290.03125 165.785156 290.699219 166.210938 290.558594 C 170.789062 289.039062 176.167969 288.605469 180.027344 292.039062 C 181.707031 293.539062 182.976562 295.476562 184.019531 297.453125 C 185.121094 299.542969 185.941406 301.777344 186.476562 304.078125 C 187.066406 306.640625 187.28125 309.273438 187.128906 311.902344 C 187.117188 312.097656 187.242188 312.199219 187.390625 312.222656 C 187.578125 312.257812 187.804688 312.152344 187.820312 311.902344 C 187.992188 308.976562 187.6875 306.035156 186.957031 303.207031 C 186.464844 301.289062 185.777344 299.414062 184.886719 297.636719 Z M 194.105469 288.050781 C 194.007812 288.507812 193.867188 288.953125 193.703125 289.386719 C 192.855469 291.628906 191.132812 293.492188 188.917969 294.472656 C 188.511719 294.652344 188.863281 295.25 189.265625 295.070312 C 191.121094 294.25 192.667969 292.816406 193.679688 291.070312 C 194.191406 290.191406 194.566406 289.234375 194.773438 288.234375 C 194.863281 287.796875 194.195312 287.613281 194.105469 288.050781 Z M 119.371094 330.070312 C 117.507812 330.652344 116.148438 332.4375 116.089844 334.390625 C 116.089844 334.394531 116.089844 334.398438 116.085938 334.398438 C 116.078125 334.71875 116.425781 334.804688 116.632812 334.667969 C 116.714844 334.613281 116.777344 334.527344 116.78125 334.398438 C 116.828125 332.757812 117.988281 331.226562 119.554688 330.738281 C 119.980469 330.605469 119.800781 329.9375 119.371094 330.070312 Z M 123.285156 331.570312 C 121.429688 332.175781 120.101562 334.019531 120.136719 335.976562 C 120.136719 335.984375 120.136719 335.992188 120.136719 336 C 120.144531 336.390625 120.679688 336.4375 120.800781 336.140625 C 120.820312 336.097656 120.828125 336.054688 120.828125 336 C 120.789062 334.347656 121.894531 332.75 123.46875 332.238281 C 123.890625 332.097656 123.710938 331.429688 123.285156 331.570312 Z M 114.59375 289.726562 C 116.054688 291.84375 117.597656 293.902344 119.226562 295.898438 C 121.675781 298.90625 124.3125 301.761719 127.117188 304.449219 C 127.4375 304.757812 127.929688 304.265625 127.605469 303.957031 C 122.710938 299.265625 118.328125 294.054688 114.542969 288.429688 C 110.757812 282.808594 107.5625 276.785156 105.046875 270.492188 C 103.628906 266.945312 102.433594 263.316406 101.453125 259.628906 C 101.335938 259.199219 100.667969 259.378906 100.785156 259.8125 C 102.53125 266.390625 104.984375 272.777344 108.082031 278.835938 C 109.808594 282.207031 111.738281 285.472656 113.847656 288.621094 C 113.839844 288.648438 113.832031 288.679688 113.835938 288.714844 C 114.148438 291.800781 113.511719 294.851562 112.777344 297.835938 C 112.0625 300.75 111.21875 303.632812 110.273438 306.484375 C 108.398438 312.167969 106.140625 317.71875 103.75 323.203125 C 102.386719 326.328125 100.980469 329.433594 99.574219 332.542969 C 99.511719 332.679688 99.546875 332.808594 99.617188 332.90625 C 99.75 333.085938 100.027344 333.148438 100.15625 332.914062 C 100.164062 332.90625 100.167969 332.902344 100.171875 332.890625 C 105.183594 321.824219 110.230469 310.675781 113.234375 298.863281 C 113.996094 295.882812 114.710938 292.816406 114.59375 289.726562 Z M 92.679688 274.617188 C 92.617188 274.671875 92.578125 274.757812 92.582031 274.871094 C 92.664062 276.226562 92.714844 277.585938 92.753906 278.949219 C 93.046875 289.597656 92.070312 300.273438 89.828125 310.695312 C 89.113281 313.996094 88.277344 317.273438 87.320312 320.511719 C 87.191406 320.941406 87.859375 321.121094 87.988281 320.695312 C 91.402344 309.148438 93.257812 297.148438 93.480469 285.109375 C 93.542969 281.695312 93.472656 278.28125 93.277344 274.871094 C 93.257812 274.539062 92.863281 274.453125 92.679688 274.617188 Z M 86.011719 322.214844 C 83.03125 321.996094 80.003906 323.027344 77.808594 325.066406 C 75.65625 327.0625 74.425781 329.933594 74.371094 332.859375 C 74.371094 332.898438 74.378906 332.929688 74.390625 332.960938 C 74.484375 333.296875 75.054688 333.269531 75.0625 332.859375 C 75.0625 332.84375 75.066406 332.828125 75.066406 332.8125 C 75.128906 330.078125 76.289062 327.421875 78.300781 325.554688 C 80.367188 323.636719 83.210938 322.703125 86.011719 322.910156 C 86.457031 322.941406 86.453125 322.25 86.011719 322.214844 Z M 79.492188 328.511719 C 78.082031 329.558594 77.234375 331.257812 77.304688 333.019531 C 77.320312 333.464844 78.015625 333.464844 77.996094 333.019531 C 77.9375 331.519531 78.625 330.011719 79.839844 329.113281 C 79.992188 329 80.066406 328.8125 79.964844 328.636719 C 79.878906 328.488281 79.644531 328.402344 79.492188 328.511719 Z M 83.429688 329.40625 C 82.070312 330.332031 81.234375 331.910156 81.253906 333.554688 C 81.257812 334 81.953125 334.003906 81.945312 333.554688 C 81.929688 332.164062 82.625 330.792969 83.777344 330.007812 C 84.144531 329.757812 83.796875 329.15625 83.429688 329.40625 Z M 75.394531 319.925781 C 77.992188 318.179688 81.027344 317.195312 84.15625 317.101562 C 84.601562 317.089844 84.605469 316.398438 84.15625 316.410156 C 82.992188 316.445312 81.835938 316.601562 80.707031 316.867188 C 78.695312 317.339844 76.773438 318.167969 75.046875 319.328125 C 74.945312 319.394531 74.902344 319.492188 74.894531 319.585938 C 74.875 319.839844 75.128906 320.105469 75.394531 319.925781 Z M 67.714844 328.15625 C 67.539062 328.050781 67.355469 328.132812 67.242188 328.28125 C 66.171875 329.679688 66.046875 331.671875 66.84375 333.226562 C 66.902344 333.339844 66.953125 333.460938 67.023438 333.566406 C 67.21875 333.875 67.652344 333.695312 67.667969 333.410156 C 67.671875 333.351562 67.664062 333.285156 67.621094 333.21875 C 66.730469 331.8125 66.835938 329.945312 67.839844 328.628906 C 67.957031 328.480469 67.863281 328.242188 67.714844 328.15625 Z M 70.960938 329.117188 C 69.988281 330.347656 69.679688 332.035156 70.207031 333.523438 C 70.214844 333.554688 70.222656 333.582031 70.234375 333.613281 C 70.300781 333.789062 70.464844 333.910156 70.660156 333.855469 C 70.8125 333.8125 70.933594 333.640625 70.90625 333.480469 C 70.902344 333.460938 70.90625 333.445312 70.902344 333.429688 C 70.421875 332.167969 70.609375 330.675781 71.453125 329.605469 C 71.566406 329.460938 71.59375 329.261719 71.453125 329.117188 C 71.332031 328.996094 71.078125 328.96875 70.960938 329.117188 Z M 158.011719 238.492188 C 155.621094 238.375 153.753906 236.328125 153.886719 233.9375 C 154.015625 231.527344 156.160156 229.757812 158.527344 229.90625 C 158.972656 229.933594 158.972656 229.242188 158.527344 229.214844 C 155.765625 229.042969 153.347656 231.171875 153.191406 233.9375 C 153.039062 236.71875 155.261719 239.050781 158.011719 239.183594 C 158.457031 239.207031 158.457031 238.515625 158.011719 238.492188 Z M 274.445312 208.300781 C 273.9375 210.34375 273.421875 212.386719 272.902344 214.425781 C 272.664062 215.347656 272.492188 216.335938 272.171875 217.238281 C 272.117188 217.386719 272.050781 217.476562 271.929688 217.597656 C 271.484375 218.039062 271 218.445312 270.519531 218.84375 C 269.53125 219.667969 268.496094 220.441406 267.4375 221.175781 C 264.992188 222.867188 262.410156 224.359375 259.777344 225.746094 C 253.710938 228.929688 247.355469 231.566406 240.945312 233.972656 C 235.457031 236.03125 229.894531 237.902344 224.300781 239.65625 C 223.3125 239.964844 222.324219 240.277344 221.335938 240.578125 C 219.285156 241.203125 217.230469 241.808594 215.171875 242.402344 C 212.757812 243.097656 210.339844 243.773438 207.917969 244.425781 C 207.382812 245.625 206.84375 246.699219 206.300781 247.605469 C 205.746094 248.535156 205.148438 249.414062 204.519531 250.261719 C 205.046875 250.828125 205.230469 251.582031 205.277344 252.339844 C 205.40625 254.386719 205.328125 256.460938 205.332031 258.507812 C 205.339844 260.574219 205.339844 262.636719 205.332031 264.699219 C 205.320312 268.902344 205.285156 273.105469 205.246094 277.308594 C 205.226562 279.269531 205.261719 281.238281 205.171875 283.191406 C 205.101562 284.699219 204.851562 286.28125 203.835938 287.457031 C 201.433594 290.234375 197.410156 288.785156 194.625 287.582031 C 194.21875 287.402344 194.570312 286.808594 194.976562 286.984375 C 196.796875 287.769531 198.78125 288.628906 200.808594 288.292969 C 202.6875 287.984375 203.90625 286.710938 204.289062 284.871094 C 204.632812 283.238281 204.511719 281.492188 204.527344 279.832031 C 204.546875 277.921875 204.566406 276.011719 204.582031 274.101562 C 204.617188 270.242188 204.640625 266.382812 204.644531 262.519531 C 204.644531 260.609375 204.644531 258.699219 204.632812 256.789062 C 204.628906 255.832031 204.621094 254.878906 204.613281 253.921875 C 204.605469 253.070312 204.707031 252.09375 204.371094 251.285156 C 204.296875 251.109375 204.203125 250.957031 204.09375 250.824219 C 201.722656 253.867188 198.882812 256.316406 195.78125 258.0625 C 195.65625 258.132812 195.53125 258.210938 195.402344 258.28125 C 195.519531 258.320312 195.632812 258.359375 195.75 258.398438 C 197.859375 259.101562 200.078125 259.382812 202.300781 259.203125 C 202.746094 259.167969 202.742188 259.859375 202.300781 259.894531 C 200.066406 260.074219 197.8125 259.800781 195.679688 259.105469 C 195.480469 259.039062 195.277344 258.976562 195.078125 258.902344 C 194.992188 258.871094 194.9375 258.8125 194.902344 258.75 C 194.867188 258.691406 194.847656 258.628906 194.847656 258.5625 C 191.621094 260.203125 188.144531 261.097656 184.628906 261.097656 C 184.253906 261.097656 183.878906 261.085938 183.5 261.066406 C 180.28125 260.890625 175.472656 259.859375 170.503906 255.996094 C 166.976562 253.253906 163.367188 249.078125 160.195312 242.773438 C 161.101562 242.519531 161.949219 242.136719 162.722656 241.640625 C 164.824219 245.777344 167.269531 249.203125 169.980469 251.851562 C 174.027344 255.808594 178.671875 258.03125 183.648438 258.296875 C 187.996094 258.53125 192.332031 257.191406 196.136719 254.59375 C 197.988281 253.328125 199.710938 251.757812 201.25 249.929688 C 200.972656 249.9375 200.707031 249.949219 200.460938 249.964844 C 199.148438 250.039062 197.796875 250.039062 196.714844 249.207031 C 196.6875 249.183594 196.65625 249.164062 196.625 249.140625 C 196.386719 248.945312 196.550781 248.65625 196.785156 248.585938 C 196.890625 248.554688 197.007812 248.5625 197.113281 248.648438 C 198.386719 249.703125 200.222656 249.226562 201.800781 249.253906 C 202.558594 248.296875 203.269531 247.273438 203.921875 246.1875 C 204.074219 245.925781 204.230469 245.652344 204.386719 245.363281 C 202.851562 245.765625 201.316406 246.160156 199.777344 246.527344 C 199.628906 246.5625 199.460938 246.503906 199.386719 246.367188 C 199 245.667969 198.632812 244.960938 198.273438 244.25 C 197.675781 243.058594 197.113281 241.855469 196.597656 240.628906 C 194.863281 236.503906 193.601562 232.1875 192.84375 227.78125 C 192.472656 225.617188 192.214844 223.429688 192.085938 221.234375 C 192.050781 220.625 192.027344 220.015625 192.007812 219.40625 C 191.996094 218.917969 191.988281 218.425781 191.984375 217.9375 C 191.984375 217.589844 191.898438 217.234375 192.1875 217.003906 C 192.613281 216.65625 193.199219 216.421875 193.675781 216.148438 C 194.808594 215.496094 195.941406 214.847656 197.074219 214.195312 C 198.335938 213.472656 199.601562 212.746094 200.863281 212.023438 C 201.089844 209.71875 201.308594 207.417969 201.511719 205.109375 C 202.28125 196.464844 202.902344 187.804688 203.378906 179.136719 C 203.402344 178.695312 204.097656 178.691406 204.070312 179.136719 C 203.9375 181.621094 203.789062 184.101562 203.628906 186.582031 C 203.089844 194.933594 202.40625 203.273438 201.59375 211.601562 C 203.675781 210.40625 205.761719 209.210938 207.84375 208.015625 C 210.324219 206.59375 212.804688 205.171875 215.285156 203.746094 C 215.476562 203.636719 215.667969 203.527344 215.859375 203.417969 C 219.492188 184.570312 222.167969 165.957031 222.890625 160.78125 C 221.355469 160.542969 218.875 159.949219 216.394531 158.496094 C 214.265625 157.25 212.140625 155.375 210.617188 152.539062 C 210.003906 151.390625 209.453125 150.21875 208.953125 149.035156 C 208.410156 147.75 207.925781 146.453125 207.511719 145.164062 C 205.757812 139.707031 205.136719 134.410156 205.363281 130.757812 C 206.242188 131.027344 207.152344 131.265625 208.097656 131.460938 C 207.972656 135.019531 208.707031 140.023438 210.386719 144.996094 C 211.105469 147.117188 211.992188 149.230469 213.0625 151.226562 C 214.003906 152.984375 215.246094 154.289062 216.566406 155.269531 C 219.679688 157.59375 223.21875 158.070312 224.226562 158.15625 C 225.578125 157.503906 228.152344 154.992188 230.617188 145.597656 C 231.429688 142.476562 232.234375 138.597656 232.976562 133.773438 C 234.292969 125.210938 238.25 109.703125 240.695312 100.488281 C 238.8125 96.410156 240.140625 91.582031 243.863281 89.0625 C 244.234375 88.8125 244.578125 89.414062 244.210938 89.660156 C 242.984375 90.492188 242.042969 91.609375 241.417969 92.871094 C 240.308594 95.101562 240.195312 97.792969 241.308594 100.175781 C 241.414062 100.398438 241.269531 100.601562 241.09375 100.671875 C 241.355469 101.125 241.683594 101.425781 242.097656 101.371094 C 242.609375 101.300781 243.214844 100.71875 243.722656 99.882812 C 243.707031 99.9375 243.691406 99.992188 243.675781 100.058594 C 242.910156 102.917969 241.964844 106.527344 240.984375 110.402344 C 239.898438 114.683594 238.777344 119.285156 237.816406 123.5625 C 236.917969 127.570312 236.160156 131.292969 235.714844 134.191406 C 235.195312 137.542969 234.628906 140.59375 234.007812 143.324219 C 231.851562 152.871094 229.082031 158.621094 225.726562 160.488281 C 225.175781 164.519531 222.640625 182.605469 219.050781 201.585938 C 219.128906 201.542969 219.203125 201.5 219.277344 201.453125 C 219.746094 201.1875 220.210938 200.917969 220.675781 200.652344 C 223.082031 199.269531 225.492188 197.890625 227.898438 196.507812 C 229.1875 195.769531 230.476562 195.027344 231.769531 194.289062 C 232.996094 193.582031 234.222656 192.878906 235.449219 192.175781 C 236.019531 191.847656 236.609375 191.414062 237.222656 191.152344 C 237.25 191.230469 237.292969 191.285156 237.273438 191.175781 C 237.269531 191.160156 237.273438 191.144531 237.273438 191.128906 C 237.28125 191.125 237.289062 191.117188 237.300781 191.113281 C 237.3125 191.109375 237.40625 191.039062 237.417969 191.046875 C 237.347656 191.003906 237.304688 190.996094 237.269531 190.996094 C 237.289062 190.785156 237.371094 190.527344 237.398438 190.359375 C 237.601562 189.050781 237.804688 187.738281 238.011719 186.429688 C 238.738281 181.832031 239.480469 177.234375 240.25 172.644531 C 241.132812 167.386719 242.039062 162.128906 243.050781 156.894531 C 243.457031 154.785156 243.878906 152.679688 244.355469 150.582031 C 244.664062 149.222656 244.972656 147.847656 245.433594 146.53125 C 245.582031 146.113281 246.25 146.296875 246.101562 146.71875 C 245.9375 147.179688 245.800781 147.652344 245.671875 148.125 C 244.734375 151.5625 244.089844 155.089844 243.429688 158.589844 C 242.542969 163.285156 241.730469 167.992188 240.9375 172.703125 C 240.230469 176.914062 239.546875 181.128906 238.878906 185.347656 C 238.660156 186.730469 238.441406 188.117188 238.226562 189.5 C 238.132812 190.097656 238.128906 190.8125 237.9375 191.386719 C 237.835938 191.6875 237.476562 191.8125 237.210938 191.964844 C 236.476562 192.382812 235.746094 192.804688 235.011719 193.226562 C 232.617188 194.597656 230.222656 195.972656 227.828125 197.347656 C 227.488281 197.542969 227.152344 197.734375 226.8125 197.929688 C 223.136719 200.039062 219.464844 202.148438 215.789062 204.257812 C 212.078125 206.386719 208.367188 208.515625 204.65625 210.644531 C 203.632812 211.230469 202.609375 211.816406 201.585938 212.40625 C 201.59375 212.429688 201.605469 212.445312 201.609375 212.46875 C 202.042969 214.78125 202.519531 217.085938 203.042969 219.378906 C 204.882812 227.433594 207.292969 235.355469 210.242188 243.074219 C 214.96875 241.769531 219.675781 240.386719 224.351562 238.914062 C 224.660156 238.820312 224.96875 238.726562 225.273438 238.628906 C 231.886719 236.535156 238.449219 234.269531 244.894531 231.707031 C 251.0625 229.261719 257.175781 226.566406 262.914062 223.21875 C 265.28125 221.835938 267.597656 220.335938 269.722656 218.605469 C 270.191406 218.222656 270.652344 217.828125 271.097656 217.421875 C 271.164062 217.359375 271.464844 217.070312 271.492188 217.09375 C 271.492188 217.085938 271.492188 217.078125 271.496094 217.074219 C 271.613281 216.808594 271.652344 216.472656 271.726562 216.191406 C 272.738281 212.300781 273.714844 208.402344 274.667969 204.496094 C 276.238281 198.058594 277.738281 191.601562 279.125 185.121094 C 280.515625 178.625 281.824219 172.097656 282.753906 165.519531 C 283.679688 159.007812 284.082031 152.335938 282.453125 145.890625 C 282.4375 145.816406 282.421875 145.742188 282.402344 145.667969 C 282.175781 144.796875 281.910156 143.9375 281.601562 143.089844 C 281.015625 141.480469 280.269531 139.925781 279.300781 138.511719 C 278.808594 137.792969 278.246094 137.035156 277.554688 136.488281 C 277.390625 136.359375 277.414062 136.1875 277.519531 136.066406 C 277.636719 135.925781 277.859375 135.851562 278.042969 135.996094 C 278.21875 136.136719 278.378906 136.300781 278.535156 136.460938 C 279.738281 137.707031 280.660156 139.238281 281.394531 140.796875 C 282.457031 143.050781 283.152344 145.457031 283.597656 147.90625 C 283.761719 148.816406 283.894531 149.734375 283.996094 150.652344 C 284.695312 156.984375 283.859375 163.292969 282.832031 169.539062 C 281.710938 176.363281 280.292969 183.144531 278.789062 189.894531 C 277.425781 196.046875 275.964844 202.183594 274.445312 208.300781 Z M 209.578125 243.257812 C 208.753906 241.101562 207.96875 238.925781 207.226562 236.738281 C 204.585938 228.929688 202.503906 220.933594 200.980469 212.832031 C 200.957031 212.824219 200.933594 212.808594 200.914062 212.792969 C 199.273438 213.734375 197.632812 214.675781 195.992188 215.617188 C 194.890625 216.25 193.785156 216.882812 192.683594 217.515625 C 192.671875 219.652344 192.773438 221.785156 193 223.910156 C 193.808594 231.566406 196.164062 239.042969 199.863281 245.792969 C 199.90625 245.785156 199.945312 245.773438 199.988281 245.765625 C 202.910156 245.050781 205.820312 244.285156 208.726562 243.492188 C 209.007812 243.417969 209.292969 243.335938 209.578125 243.257812 Z M 237.273438 190.996094 C 237.199219 190.996094 237.199219 191.082031 237.226562 191.152344 C 237.242188 191.144531 237.257812 191.132812 237.273438 191.128906 C 237.269531 191.085938 237.265625 191.042969 237.273438 190.996094 Z M 249.359375 140.105469 C 243.535156 144.039062 238.898438 149.613281 236.125 156.074219 C 236.078125 156.183594 236.089844 156.285156 236.132812 156.371094 C 236.097656 156.4375 236.082031 156.515625 236.101562 156.605469 C 236.898438 160.003906 237.699219 163.398438 238.496094 166.796875 C 238.5 166.820312 238.515625 166.835938 238.523438 166.851562 C 234.75 171.769531 231.648438 177.160156 229.261719 182.875 C 229.152344 183.136719 229.035156 183.394531 228.929688 183.65625 C 228.847656 183.863281 228.972656 184.007812 229.140625 184.054688 C 229.308594 184.101562 229.515625 184.042969 229.597656 183.839844 C 232.023438 177.828125 235.28125 172.171875 239.238281 167.039062 C 239.371094 166.875 239.300781 166.710938 239.164062 166.621094 C 239.164062 166.617188 239.164062 166.613281 239.164062 166.613281 C 238.367188 163.214844 237.566406 159.816406 236.769531 156.421875 C 236.765625 156.402344 236.753906 156.390625 236.746094 156.371094 C 239.472656 150.042969 243.992188 144.558594 249.707031 140.703125 C 249.789062 140.648438 249.828125 140.578125 249.847656 140.5 C 249.980469 140.46875 250.085938 140.367188 250.070312 140.183594 C 249.667969 136.378906 249.269531 132.574219 248.871094 128.765625 C 248.824219 128.328125 248.128906 128.320312 248.175781 128.765625 C 248.574219 132.542969 248.972656 136.320312 249.367188 140.101562 C 249.367188 140.101562 249.363281 140.101562 249.359375 140.105469 Z M 284.0625 267.78125 C 282.851562 257.179688 281.152344 246.632812 278.96875 236.183594 C 277.734375 230.285156 276.34375 224.417969 274.804688 218.59375 C 274.691406 218.160156 274.023438 218.34375 274.136719 218.777344 C 276.855469 229.0625 279.105469 239.476562 280.863281 249.96875 C 282.632812 260.546875 283.910156 271.203125 284.683594 281.894531 C 285.117188 287.871094 285.394531 293.855469 285.515625 299.84375 C 285.523438 300.289062 286.21875 300.289062 286.207031 299.84375 C 285.988281 289.132812 285.277344 278.429688 284.0625 267.78125 Z M 257.953125 248.335938 C 258.386719 248.277344 258.394531 247.582031 257.953125 247.640625 C 249.386719 248.78125 240.816406 249.917969 232.25 251.058594 C 231.8125 251.117188 231.808594 251.808594 232.25 251.75 C 240.816406 250.613281 249.386719 249.472656 257.953125 248.335938 Z M 237.398438 289.589844 C 236.601562 290.203125 235.53125 289.980469 234.796875 289.371094 C 233.917969 288.644531 233.636719 287.417969 233.484375 286.34375 C 233.121094 283.792969 232.964844 281.195312 232.757812 278.628906 C 232.347656 273.464844 232.070312 268.292969 231.925781 263.121094 C 231.898438 262.121094 231.882812 261.117188 231.863281 260.117188 C 240.753906 260.203125 249.644531 259.355469 258.359375 257.601562 C 258.796875 257.511719 258.613281 256.84375 258.175781 256.933594 C 249.511719 258.679688 240.683594 259.511719 231.847656 259.425781 C 231.820312 257.6875 231.804688 255.949219 231.804688 254.214844 C 231.804688 253.769531 231.113281 253.765625 231.113281 254.214844 C 231.105469 259.921875 231.261719 265.632812 231.574219 271.335938 C 231.730469 274.148438 231.925781 276.957031 232.160156 279.765625 C 232.28125 281.207031 232.410156 282.648438 232.550781 284.089844 C 232.671875 285.3125 232.722656 286.589844 233.074219 287.773438 C 233.378906 288.816406 233.960938 289.789062 234.953125 290.296875 C 235.839844 290.75 236.925781 290.816406 237.746094 290.1875 C 238.09375 289.917969 237.75 289.316406 237.398438 289.589844 Z M 260.847656 275.679688 C 260.679688 271.519531 260.460938 267.359375 260.1875 263.203125 C 259.882812 258.515625 259.511719 253.832031 259.078125 249.152344 C 259.039062 248.710938 258.34375 248.707031 258.386719 249.152344 C 259.125 257.101562 259.675781 265.070312 260.042969 273.046875 C 260.132812 275.03125 260.210938 277.015625 260.28125 279 C 260.339844 280.832031 260.480469 282.6875 260.394531 284.519531 C 260.324219 286.027344 259.96875 287.683594 258.589844 288.535156 C 257.875 288.976562 257.019531 289.148438 256.195312 289.273438 C 255.21875 289.417969 254.230469 289.523438 253.246094 289.625 C 248.800781 290.097656 244.332031 290.300781 239.863281 290.25 C 239.414062 290.242188 239.414062 290.9375 239.863281 290.941406 C 243.988281 290.988281 248.121094 290.820312 252.230469 290.421875 C 253.246094 290.324219 254.261719 290.210938 255.277344 290.085938 C 256.140625 289.976562 257.019531 289.886719 257.847656 289.617188 C 259.269531 289.160156 260.277344 288.164062 260.730469 286.746094 C 261.222656 285.21875 261.109375 283.554688 261.0625 281.980469 C 261.003906 279.878906 260.933594 277.777344 260.847656 275.679688 Z M 208.644531 150.609375 C 208.480469 150.429688 208.128906 150.425781 208.050781 150.730469 C 207.941406 151.15625 207.832031 151.585938 207.726562 152.015625 C 206.855469 155.445312 205.984375 158.882812 205.113281 162.3125 C 205.054688 162.53125 205.21875 162.753906 205.445312 162.753906 C 206.882812 162.753906 208.320312 162.75 209.757812 162.75 C 207.941406 165.109375 206.128906 167.464844 204.3125 169.824219 C 204.238281 169.917969 204.257812 170.074219 204.3125 170.171875 C 208.078125 176.84375 211.460938 183.726562 214.4375 190.785156 C 214.613281 191.195312 215.207031 190.84375 215.039062 190.4375 C 212.085938 183.449219 208.742188 176.636719 205.023438 170.027344 C 206.933594 167.542969 208.84375 165.0625 210.757812 162.578125 C 210.921875 162.363281 210.695312 162.058594 210.457031 162.058594 C 208.933594 162.058594 207.410156 162.058594 205.890625 162.058594 C 206.832031 158.34375 207.773438 154.628906 208.71875 150.914062 C 208.75 150.785156 208.710938 150.683594 208.644531 150.609375 Z M 237.429688 311.925781 C 237.34375 311.488281 236.675781 311.675781 236.761719 312.109375 C 237.824219 317.566406 239.515625 322.878906 241.78125 327.949219 C 242.457031 329.457031 243.175781 330.945312 243.953125 332.410156 C 244.105469 332.695312 244.460938 332.585938 244.5625 332.355469 C 244.601562 332.269531 244.609375 332.167969 244.550781 332.058594 C 241.195312 325.742188 238.796875 318.949219 237.429688 311.925781 Z M 237.429688 311.925781 " fill-opacity="1" fill-rule="nonzero"/></g></svg>