<svg xmlns="http://www.w3.org/2000/svg" xmlns:xlink="http://www.w3.org/1999/xlink" width="1080" zoomAndPan="magnify" viewBox="0 0 810 809.999993" height="1080" preserveAspectRatio="xMidYMid meet" version="1.0"><defs><clipPath id="b49544b019"><path d="M 356 283 L 663.996094 283 L 663.996094 656 L 356 656 Z M 356 283 " clip-rule="nonzero"/></clipPath><clipPath id="2dc2440dba"><path d="M 168 204 L 614 204 L 614 708.246094 L 168 708.246094 Z M 168 204 " clip-rule="nonzero"/></clipPath><clipPath id="bf13dd00c1"><path d="M 392 213 L 436 213 L 436 258 L 392 258 Z M 392 213 " clip-rule="nonzero"/></clipPath><clipPath id="e95af64b78"><path d="M 386.75 221.1875 L 485.019531 191.171875 L 498.164062 234.210938 L 399.894531 264.222656 Z M 386.75 221.1875 " clip-rule="nonzero"/></clipPath><clipPath id="8a892cc0ae"><path d="M 386.75 221.1875 L 485.019531 191.171875 L 498.164062 234.210938 L 399.894531 264.222656 Z M 386.75 221.1875 " clip-rule="nonzero"/></clipPath><clipPath id="9af36db2c9"><path d="M 448 197 L 493 197 L 493 242 L 448 242 Z M 448 197 " clip-rule="nonzero"/></clipPath><clipPath id="2ada621b7a"><path d="M 386.75 221.1875 L 485.019531 191.171875 L 498.164062 234.210938 L 399.894531 264.222656 Z M 386.75 221.1875 " clip-rule="nonzero"/></clipPath><clipPath id="66220241fd"><path d="M 386.75 221.1875 L 485.019531 191.171875 L 498.164062 234.210938 L 399.894531 264.222656 Z M 386.75 221.1875 " clip-rule="nonzero"/></clipPath><clipPath id="6a78589454"><path d="M 432 219 L 453 219 L 453 231 L 432 231 Z M 432 219 " clip-rule="nonzero"/></clipPath><clipPath id="22031e7297"><path d="M 386.75 221.1875 L 485.019531 191.171875 L 498.164062 234.210938 L 399.894531 264.222656 Z M 386.75 221.1875 " clip-rule="nonzero"/></clipPath><clipPath id="ac6b377810"><path d="M 386.75 221.1875 L 485.019531 191.171875 L 498.164062 234.210938 L 399.894531 264.222656 Z M 386.75 221.1875 " clip-rule="nonzero"/></clipPath><clipPath id="08959213d1"><path d="M 477.40625 60.503906 L 518.398438 60.503906 L 518.398438 101.496094 L 477.40625 101.496094 Z M 477.40625 60.503906 " clip-rule="nonzero"/></clipPath><clipPath id="05b1005e2a"><path d="M 497.902344 60.503906 C 486.585938 60.503906 477.40625 69.679688 477.40625 81 C 477.40625 92.320312 486.585938 101.496094 497.902344 101.496094 C 509.222656 101.496094 518.398438 92.320312 518.398438 81 C 518.398438 69.679688 509.222656 60.503906 497.902344 60.503906 Z M 497.902344 60.503906 " clip-rule="nonzero"/></clipPath></defs><path fill="#f8becb" d="M 522.371094 288.136719 C 522.453125 288.171875 522.539062 288.195312 522.621094 288.222656 C 516.390625 296.601562 509.164062 313.933594 508.800781 314.804688 C 508.792969 314.828125 508.78125 314.851562 508.78125 314.851562 L 507.632812 315.617188 C 508.886719 310.085938 510.035156 303.921875 511.082031 297.136719 C 511.984375 291.273438 513.519531 283.738281 515.339844 275.628906 C 516.148438 281.75 518.542969 286.671875 522.371094 288.136719 Z M 470.894531 311.183594 L 470.558594 309.929688 Z M 546.4375 220.480469 C 543.238281 240.507812 524.894531 245.726562 524.894531 245.726562 C 523.738281 246.683594 522.6875 247.789062 521.742188 249 C 523.726562 241.164062 525.640625 233.859375 527.1875 228.078125 C 527.222656 227.941406 527.25 227.832031 527.28125 227.714844 C 529.160156 224.625 530.382812 219.796875 528.550781 216.300781 C 526.625 212.628906 524.070312 212.945312 522.621094 213.527344 C 523.886719 210.976562 525.792969 208.714844 528.277344 207.035156 C 529.019531 206.535156 528.316406 205.320312 527.570312 205.824219 C 520.039062 210.921875 517.351562 220.6875 521.15625 228.9375 C 516.210938 247.585938 508.203125 278.964844 505.539062 296.285156 C 504.035156 306.046875 502.410156 313.898438 500.765625 320.210938 L 477.53125 335.738281 L 472.097656 315.628906 L 470.894531 311.179688 C 485.539062 305.414062 496.695312 279.125 496.695312 279.125 C 481.214844 292.191406 465.996094 292.96875 465.976562 292.96875 C 462.164062 292.78125 458.578125 292.316406 455.203125 291.613281 C 453.289062 291.214844 451.449219 290.734375 449.671875 290.1875 C 439.652344 287.097656 431.71875 281.714844 425.421875 275.046875 C 410.390625 259.121094 404.757812 235.820312 402.695312 218.617188 C 409.515625 213.574219 412.683594 202.378906 412.683594 202.378906 C 415.691406 215.695312 426.003906 219.132812 433.738281 210.113281 C 441.46875 201.089844 436.277344 177.304688 436.277344 177.304688 C 454.558594 199.386719 487.089844 197.964844 487.089844 197.964844 C 491.601562 211.496094 509.171875 220.757812 509.171875 220.757812 C 508.429688 212.960938 511.433594 199.945312 522.707031 196.582031 C 533.984375 193.214844 549.632812 200.449219 546.4375 220.480469 Z M 426.710938 219.300781 C 427.597656 219.125 427.222656 217.773438 426.339844 217.949219 C 421.054688 218.996094 416.886719 223.359375 416.121094 228.699219 C 416.066406 229.078125 416.214844 229.449219 416.609375 229.5625 C 416.9375 229.65625 417.417969 229.449219 417.472656 229.074219 C 418.175781 224.171875 421.847656 220.265625 426.710938 219.300781 Z M 432.496094 234.804688 C 432.496094 232.273438 430.441406 230.21875 427.910156 230.21875 C 425.378906 230.21875 423.328125 232.273438 423.328125 234.804688 C 423.328125 237.335938 425.378906 239.386719 427.910156 239.386719 C 430.441406 239.386719 432.496094 237.335938 432.496094 234.804688 Z M 444.277344 243.425781 C 447.742188 236.375 448.21875 228.09375 445.5 220.710938 C 445.191406 219.871094 443.835938 220.234375 444.148438 221.082031 C 446.734375 228.109375 446.371094 235.988281 443.066406 242.71875 C 442.667969 243.523438 443.878906 244.234375 444.277344 243.425781 Z M 467.511719 249.871094 C 467.65625 248.988281 466.308594 248.609375 466.160156 249.5 C 465.523438 253.308594 463.011719 256.695312 459.445312 258.246094 C 455.703125 259.875 451.277344 259.214844 448.03125 256.8125 C 447.308594 256.273438 446.605469 257.488281 447.324219 258.019531 C 450.917969 260.683594 455.867188 261.308594 459.984375 259.53125 C 463.917969 257.835938 466.804688 254.085938 467.511719 249.871094 Z M 477.339844 221.527344 C 477.339844 218.996094 475.285156 216.945312 472.753906 216.945312 C 470.222656 216.945312 468.171875 218.996094 468.171875 221.527344 C 468.171875 224.058594 470.222656 226.109375 472.753906 226.109375 C 475.285156 226.109375 477.339844 224.058594 477.339844 221.527344 Z M 478.71875 207.058594 C 474.792969 204.09375 469.328125 203.984375 465.265625 206.746094 C 464.523438 207.253906 465.226562 208.46875 465.972656 207.957031 C 469.667969 205.441406 474.449219 205.578125 478.011719 208.265625 C 478.730469 208.808594 479.429688 207.59375 478.71875 207.058594 Z M 424.335938 486.496094 C 423.582031 482.117188 423.066406 477.691406 422.804688 473.253906 C 422.730469 472.019531 422.683594 470.785156 422.648438 469.550781 C 412.464844 469.535156 396.9375 469.714844 391.011719 470.902344 C 385.589844 471.984375 375.316406 478.277344 367.023438 485.398438 C 361.347656 490.273438 356.597656 495.542969 354.980469 499.796875 C 351.125 509.917969 359.703125 509.46875 369.140625 504.164062 C 369.371094 503.425781 369.640625 502.699219 369.953125 502 C 372.855469 495.480469 378.09375 489.65625 384.503906 486.472656 C 385.308594 486.070312 386.015625 487.28125 385.210938 487.683594 C 379.644531 490.449219 375.289062 495.105469 372.28125 500.496094 C 370.585938 503.523438 369.277344 507.039062 369.976562 510.558594 C 370.574219 513.589844 372.859375 516.21875 376.011719 516.492188 C 376 516.257812 375.980469 516.023438 375.980469 515.792969 C 375.992188 508.421875 381.941406 503.101562 387.117188 498.71875 C 387.800781 498.140625 388.796875 499.128906 388.109375 499.710938 C 383.554688 503.5625 378.339844 507.992188 377.484375 514.28125 C 377.101562 517.097656 377.761719 520.191406 379.75 522.308594 C 381.511719 524.183594 384.183594 525.007812 386.65625 524.359375 C 385.699219 522.296875 385.355469 519.9375 385.699219 517.613281 C 386.414062 512.78125 389.664062 508.917969 393.582031 506.226562 C 394.328125 505.714844 395.027344 506.929688 394.289062 507.4375 C 390.871094 509.785156 388.027344 513.09375 387.179688 517.246094 C 386.367188 521.230469 387.808594 525.546875 391.390625 527.6875 C 391.484375 527.742188 391.554688 527.8125 391.609375 527.882812 C 394.105469 529.574219 397.945312 529.109375 400.425781 527.664062 C 401.816406 526.855469 403.003906 525.449219 403.039062 523.765625 C 403.066406 522.304688 402.074219 520.984375 400.605469 520.769531 C 400.199219 520.707031 400.066406 520.390625 400.117188 520.078125 C 400.066406 519.824219 400.148438 519.546875 400.445312 519.378906 C 402.277344 518.320312 403.386719 516.277344 403.320312 514.195312 C 403.289062 513.289062 404.691406 513.292969 404.71875 514.195312 C 404.789062 516.339844 403.808594 518.441406 402.191406 519.832031 C 403.429688 520.503906 404.285156 521.847656 404.417969 523.261719 C 404.542969 524.582031 404.09375 525.84375 403.335938 526.894531 C 405.207031 527.195312 420.144531 529.238281 433.152344 521.265625 C 433.882812 520.820312 434.605469 520.332031 435.324219 519.816406 C 434.117188 517.414062 432.976562 514.972656 431.933594 512.492188 C 428.425781 504.148438 425.871094 495.414062 424.335938 486.496094 Z M 424.335938 486.496094 " fill-opacity="1" fill-rule="nonzero"/><g clip-path="url(#b49544b019)"><path fill="#ffffff" d="M 439.75 531.382812 C 440.246094 531.351562 440.785156 531.324219 441.34375 531.3125 C 438.230469 535.011719 434.746094 538.1875 431 540.746094 C 431.382812 537.050781 431.777344 533.410156 432.171875 529.84375 C 434.355469 531.53125 437.09375 531.535156 439.75 531.382812 Z M 442.460938 529.945312 C 443.996094 528.003906 445.4375 525.941406 446.75 523.734375 C 447.0625 523.210938 447.375 522.652344 447.691406 522.070312 C 444.589844 522.882812 441.484375 523.679688 438.367188 524.425781 C 438.070312 524.496094 437.730469 524.378906 437.574219 524.101562 C 436.792969 522.6875 436.050781 521.257812 435.324219 519.816406 C 434.609375 520.332031 433.882812 520.816406 433.152344 521.265625 C 432.871094 523.664062 432.59375 526.109375 432.316406 528.589844 C 432.527344 528.527344 432.765625 528.542969 432.980469 528.71875 C 435.550781 530.855469 439.265625 529.886719 442.460938 529.945312 Z M 426.019531 462.960938 C 428.308594 461.644531 430.601562 460.328125 432.894531 459.011719 C 435.453125 457.546875 438.007812 456.078125 440.5625 454.613281 C 441.019531 449.953125 441.460938 445.292969 441.878906 440.628906 C 443.4375 423.132812 444.691406 405.613281 445.65625 388.074219 C 445.703125 387.179688 447.105469 387.175781 447.054688 388.074219 C 446.78125 393.097656 446.480469 398.117188 446.15625 403.136719 C 445.066406 420.035156 443.6875 436.910156 442.042969 453.761719 C 446.257812 451.34375 450.472656 448.925781 454.683594 446.507812 C 459.703125 443.628906 464.722656 440.75 469.742188 437.867188 C 469.785156 434.058594 469.832031 430.699219 469.886719 427.875 C 470.46875 397.742188 470.949219 367.734375 471.984375 346.3125 C 467.679688 343.789062 463.382812 339.992188 460.300781 334.257812 C 459.058594 331.933594 457.945312 329.5625 456.933594 327.171875 C 456.703125 328.328125 456.484375 329.425781 456.304688 330.351562 C 456.441406 330.5 456.523438 330.707031 456.457031 330.964844 C 454.550781 338.484375 452.640625 346.003906 450.734375 353.519531 C 453.816406 353.519531 456.894531 353.519531 459.976562 353.519531 C 460.457031 353.519531 460.917969 354.136719 460.582031 354.570312 C 456.714844 359.59375 452.847656 364.617188 448.980469 369.640625 C 456.507812 383.011719 463.273438 396.800781 469.242188 410.933594 C 469.589844 411.757812 468.382812 412.46875 468.035156 411.640625 C 462.003906 397.363281 455.164062 383.4375 447.542969 369.9375 C 447.433594 369.738281 447.394531 369.421875 447.542969 369.230469 C 451.21875 364.460938 454.890625 359.691406 458.5625 354.917969 C 455.652344 354.921875 452.742188 354.921875 449.835938 354.921875 C 449.371094 354.921875 449.046875 354.476562 449.160156 354.035156 C 450.921875 347.089844 452.683594 340.140625 454.449219 333.195312 C 449.488281 334.359375 432.222656 339.464844 425.148438 355.382812 C 416.84375 374.070312 399.820312 424.3125 399.820312 424.3125 L 356.9375 437.792969 C 358.085938 451.410156 361.515625 466.382812 366.710938 485.050781 C 366.820312 485.164062 366.917969 485.285156 367.027344 485.398438 C 375.316406 478.277344 385.59375 471.988281 391.015625 470.902344 C 396.9375 469.71875 412.46875 469.535156 422.652344 469.554688 C 422.625 468.5625 422.605469 467.570312 422.601562 466.578125 C 422.601562 465.878906 422.425781 465.15625 423.007812 464.6875 C 423.871094 463.988281 425.058594 463.511719 426.019531 462.960938 Z M 454.835938 520.175781 C 453.75 522.601562 452.660156 524.769531 451.566406 526.605469 C 450.445312 528.488281 449.230469 530.269531 447.960938 531.980469 C 449.023438 533.128906 449.398438 534.648438 449.496094 536.191406 C 449.757812 540.324219 449.59375 544.527344 449.605469 548.667969 C 449.617188 552.84375 449.617188 557.019531 449.605469 561.195312 C 449.578125 569.699219 449.507812 578.203125 449.429688 586.710938 C 449.390625 590.671875 449.460938 594.652344 449.28125 598.613281 C 449.140625 601.65625 448.632812 604.855469 446.574219 607.238281 C 441.71875 612.859375 433.574219 609.929688 427.941406 607.488281 C 427.113281 607.132812 427.828125 605.925781 428.648438 606.277344 C 432.332031 607.875 436.347656 609.609375 440.453125 608.933594 C 444.25 608.308594 446.71875 605.726562 447.496094 602.007812 C 448.1875 598.699219 447.945312 595.167969 447.980469 591.8125 C 448.015625 587.945312 448.054688 584.082031 448.089844 580.214844 C 448.15625 572.40625 448.207031 564.597656 448.210938 556.785156 C 448.214844 552.921875 448.210938 549.054688 448.191406 545.1875 C 448.179688 543.253906 448.167969 541.324219 448.148438 539.390625 C 448.136719 537.660156 448.339844 535.683594 447.65625 534.054688 C 447.507812 533.699219 447.320312 533.390625 447.101562 533.117188 C 442.300781 539.277344 436.558594 544.234375 430.285156 547.761719 C 430.261719 547.988281 430.238281 548.21875 430.214844 548.445312 C 434.484375 549.871094 438.972656 550.433594 443.46875 550.074219 C 444.371094 550 444.363281 551.402344 443.46875 551.472656 C 438.949219 551.835938 434.386719 551.28125 430.078125 549.875 C 428.046875 570.660156 426.417969 592.4375 426.074219 611.144531 C 426.40625 610.261719 426.695312 609.367188 426.886719 608.4375 C 427.070312 607.554688 428.417969 607.929688 428.238281 608.808594 C 427.820312 610.835938 427.0625 612.769531 426.03125 614.550781 C 425.992188 618.335938 426.003906 621.996094 426.089844 625.457031 C 426.25 632.121094 426.652344 638.117188 427.351562 643.210938 C 427.351562 643.210938 430.140625 644.359375 434.621094 645.683594 C 442.875 648.128906 456.886719 651.183594 469.886719 648.777344 C 469.886719 648.777344 469.546875 578.953125 469.507812 516.082031 C 464.628906 517.488281 459.738281 518.851562 454.835938 520.175781 Z M 472.335938 339.785156 C 472.765625 332.535156 473.285156 326.59375 473.925781 322.40625 L 472.09375 315.632812 C 468.621094 317.214844 464.5625 318.417969 459.835938 318.996094 C 461.289062 323.289062 463.082031 327.566406 465.246094 331.601562 C 467.148438 335.15625 469.667969 337.800781 472.335938 339.785156 Z M 663.957031 620.074219 C 650.9375 631.207031 635.867188 639.058594 620.113281 644.507812 C 558.355469 665.871094 486.136719 650.25 486.136719 650.25 C 481.855469 621.890625 484.515625 561.304688 487.980469 510.523438 C 499.300781 506.976562 510.554688 503.191406 521.660156 499.023438 C 534.632812 494.15625 547.488281 488.824219 559.761719 482.375 C 565.089844 479.578125 570.316406 476.554688 575.265625 473.128906 C 577.40625 471.644531 579.496094 470.082031 581.496094 468.417969 C 582.46875 467.609375 583.449219 466.785156 584.351562 465.894531 C 584.597656 465.648438 584.734375 465.46875 584.839844 465.164062 C 585.492188 463.34375 585.835938 461.34375 586.316406 459.472656 C 587.375 455.347656 588.417969 451.21875 589.445312 447.082031 C 592.519531 434.703125 595.46875 422.289062 598.242188 409.839844 C 601.28125 396.179688 604.148438 382.464844 606.417969 368.65625 C 608.496094 356.015625 610.191406 343.253906 608.773438 330.4375 C 608.570312 328.582031 608.300781 326.726562 607.964844 324.886719 C 611.046875 330.445312 626.78125 375.449219 643.992188 432.96875 C 661.636719 491.929688 663.957031 620.074219 663.957031 620.074219 Z M 504.066406 534.992188 C 521.402344 532.6875 538.738281 530.386719 556.074219 528.082031 C 556.957031 527.964844 556.96875 526.5625 556.074219 526.679688 C 538.738281 528.984375 521.402344 531.289062 504.066406 533.59375 C 503.183594 533.707031 503.171875 535.113281 504.066406 534.992188 Z M 514.480469 611.550781 C 512.871094 612.792969 510.710938 612.34375 509.21875 611.109375 C 507.441406 609.640625 506.875 607.160156 506.566406 604.984375 C 505.832031 599.824219 505.511719 594.570312 505.097656 589.375 C 504.269531 578.933594 503.707031 568.46875 503.410156 557.996094 C 503.355469 555.972656 503.320312 553.945312 503.285156 551.921875 C 521.277344 552.09375 539.261719 550.382812 556.898438 546.828125 C 557.78125 546.652344 557.40625 545.300781 556.523438 545.476562 C 539 549.011719 521.136719 550.695312 503.257812 550.519531 C 503.199219 547.003906 503.164062 543.492188 503.167969 539.976562 C 503.167969 539.074219 501.765625 539.074219 501.765625 539.976562 C 501.757812 551.53125 502.066406 563.085938 502.703125 574.621094 C 503.019531 580.3125 503.410156 585.996094 503.882812 591.679688 C 504.128906 594.59375 504.390625 597.507812 504.675781 600.421875 C 504.917969 602.898438 505.027344 605.480469 505.734375 607.878906 C 506.351562 609.988281 507.53125 611.960938 509.539062 612.984375 C 511.335938 613.902344 513.53125 614.039062 515.1875 612.761719 C 515.894531 612.21875 515.195312 611 514.480469 611.550781 Z M 562.367188 596.15625 C 562.25 591.90625 562.105469 587.65625 561.929688 583.410156 C 561.589844 574.992188 561.144531 566.578125 560.597656 558.171875 C 559.980469 548.683594 559.230469 539.203125 558.351562 529.738281 C 558.269531 528.847656 556.867188 528.835938 556.953125 529.738281 C 558.445312 545.824219 559.5625 561.945312 560.300781 578.082031 C 560.484375 582.097656 560.644531 586.113281 560.78125 590.128906 C 560.90625 593.835938 561.1875 597.59375 561.011719 601.300781 C 560.867188 604.351562 560.152344 607.699219 557.363281 609.421875 C 555.914062 610.316406 554.183594 610.664062 552.519531 610.914062 C 550.539062 611.210938 548.542969 611.417969 546.550781 611.628906 C 537.558594 612.582031 528.511719 612.992188 519.46875 612.890625 C 518.566406 612.878906 518.566406 614.28125 519.46875 614.289062 C 527.824219 614.386719 536.175781 614.042969 544.492188 613.238281 C 546.550781 613.039062 548.609375 612.8125 550.664062 612.558594 C 552.40625 612.339844 554.183594 612.15625 555.863281 611.613281 C 558.734375 610.6875 560.773438 608.671875 561.695312 605.796875 C 562.691406 602.707031 562.457031 599.347656 562.367188 596.15625 Z M 613.242188 632.304688 C 612.800781 610.625 611.355469 588.972656 608.898438 567.433594 C 606.453125 545.976562 603.019531 524.636719 598.597656 503.5 C 596.101562 491.5625 593.285156 479.695312 590.167969 467.902344 C 589.9375 467.03125 588.585938 467.402344 588.820312 468.277344 C 594.324219 489.09375 598.867188 510.15625 602.425781 531.394531 C 606.011719 552.789062 608.59375 574.351562 610.164062 595.988281 C 611.039062 608.074219 611.597656 620.1875 611.84375 632.304688 C 611.859375 633.203125 613.261719 633.207031 613.242188 632.304688 Z M 514.234375 412.429688 C 514.230469 412.402344 514.238281 412.363281 514.234375 412.332031 C 514.203125 412.347656 514.167969 412.367188 514.136719 412.382812 C 514.191406 412.539062 514.28125 412.65625 514.234375 412.429688 Z M 514.289062 412.308594 C 514.3125 412.296875 514.503906 412.15625 514.523438 412.171875 C 514.382812 412.085938 514.296875 412.066406 514.230469 412.066406 C 514.21875 412.164062 514.226562 412.25 514.234375 412.332031 C 514.253906 412.324219 514.269531 412.3125 514.289062 412.308594 Z M 495.265625 423.222656 C 497.878906 421.722656 500.488281 420.226562 503.101562 418.726562 C 505.582031 417.304688 508.0625 415.878906 510.542969 414.457031 C 511.703125 413.789062 512.898438 412.917969 514.136719 412.382812 C 514.085938 412.238281 514.082031 412.074219 514.230469 412.066406 C 514.269531 411.640625 514.4375 411.121094 514.492188 410.78125 C 514.902344 408.128906 515.316406 405.480469 515.730469 402.828125 C 517.199219 393.523438 518.703125 384.226562 520.257812 374.933594 C 522.042969 364.296875 523.882812 353.660156 525.925781 343.070312 C 526.75 338.800781 527.601562 334.539062 528.566406 330.300781 C 529.191406 327.550781 529.8125 324.769531 530.75 322.105469 C 531.046875 321.257812 532.398438 321.625 532.101562 322.476562 C 531.769531 323.414062 531.492188 324.371094 531.230469 325.328125 C 529.332031 332.28125 528.03125 339.417969 526.695312 346.496094 C 524.902344 355.996094 523.25 365.523438 521.652344 375.058594 C 520.222656 383.578125 518.839844 392.105469 517.488281 400.640625 C 517.042969 403.441406 516.605469 406.242188 516.167969 409.042969 C 515.980469 410.25 515.96875 411.691406 515.578125 412.855469 C 515.375 413.46875 514.644531 413.71875 514.113281 414.023438 C 512.628906 414.875 511.144531 415.726562 509.664062 416.578125 C 504.816406 419.359375 499.972656 422.140625 495.125 424.917969 C 494.441406 425.3125 493.757812 425.703125 493.070312 426.097656 C 485.636719 430.367188 478.203125 434.632812 470.765625 438.898438 C 463.257812 443.207031 455.753906 447.511719 448.246094 451.820312 C 446.171875 453.007812 444.101562 454.199219 442.027344 455.390625 C 442.042969 455.433594 442.070312 455.464844 442.078125 455.515625 C 442.953125 460.195312 443.917969 464.855469 444.976562 469.492188 C 448.699219 485.792969 453.578125 501.820312 459.542969 517.433594 C 469.109375 514.796875 478.628906 512 488.097656 509.023438 C 488.714844 508.828125 489.335938 508.640625 489.957031 508.445312 C 503.335938 504.207031 516.613281 499.621094 529.660156 494.441406 C 542.136719 489.492188 554.507812 484.035156 566.113281 477.261719 C 570.90625 474.46875 575.59375 471.433594 579.894531 467.925781 C 580.84375 467.15625 581.773438 466.359375 582.675781 465.535156 C 582.808594 465.410156 583.414062 464.824219 583.46875 464.871094 C 583.472656 464.855469 583.472656 464.84375 583.480469 464.832031 C 583.714844 464.292969 583.796875 463.617188 583.945312 463.046875 C 585.992188 455.175781 587.96875 447.285156 589.898438 439.382812 C 593.074219 426.355469 596.113281 413.292969 598.917969 400.179688 C 601.726562 387.035156 604.375 373.832031 606.261719 360.523438 C 608.128906 347.34375 608.941406 333.84375 605.652344 320.804688 C 605.410156 320.3125 605.167969 319.8125 604.933594 319.3125 C 604.628906 317.859375 604.292969 316.46875 603.925781 315.136719 C 602.742188 311.878906 601.230469 308.738281 599.273438 305.875 C 598.277344 304.421875 597.140625 302.882812 595.738281 301.777344 C 595.410156 301.519531 595.457031 301.171875 595.664062 300.925781 C 582.539062 292.667969 537.636719 283.5 537.636719 283.5 C 534.78125 286.484375 529.324219 290.640625 522.621094 288.222656 C 516.390625 296.597656 509.160156 313.929688 508.800781 314.804688 C 508.792969 314.820312 508.785156 314.835938 508.78125 314.855469 C 505.875 322.9375 501.339844 363.351562 498.023438 395.636719 C 502.847656 384.070312 509.128906 373.164062 516.757812 363.21875 C 516.742188 363.179688 516.71875 363.152344 516.707031 363.105469 C 515.089844 356.234375 513.476562 349.359375 511.863281 342.484375 C 511.816406 342.300781 511.855469 342.148438 511.921875 342.011719 C 511.839844 341.835938 511.816406 341.628906 511.910156 341.410156 C 517.519531 328.335938 526.898438 317.054688 538.683594 309.097656 C 538.691406 309.097656 538.695312 309.097656 538.703125 309.09375 C 537.902344 301.449219 537.097656 293.804688 536.292969 286.15625 C 536.199219 285.261719 537.601562 285.269531 537.695312 286.15625 C 538.503906 293.859375 539.3125 301.5625 540.121094 309.265625 C 540.160156 309.628906 539.945312 309.839844 539.675781 309.902344 C 539.636719 310.054688 539.554688 310.199219 539.390625 310.308594 C 527.828125 318.117188 518.6875 329.207031 513.167969 342.015625 C 513.179688 342.050781 513.203125 342.074219 513.214844 342.113281 C 514.828125 348.988281 516.441406 355.859375 518.058594 362.734375 C 518.058594 362.738281 518.058594 362.742188 518.058594 362.75 C 518.332031 362.933594 518.472656 363.261719 518.210938 363.601562 C 510.199219 373.980469 503.613281 385.425781 498.703125 397.589844 C 498.539062 398.003906 498.117188 398.117188 497.777344 398.027344 C 496.800781 407.566406 495.945312 416.292969 495.277344 423.105469 L 477.828125 433.230469 C 478.769531 432.691406 479.714844 432.148438 480.65625 431.609375 C 485.527344 428.8125 490.398438 426.015625 495.265625 423.222656 Z M 438.789062 522.878906 C 444.707031 521.441406 450.597656 519.886719 456.46875 518.289062 C 457.042969 518.132812 457.617188 517.96875 458.195312 517.8125 C 456.527344 513.445312 454.9375 509.046875 453.441406 504.617188 C 448.097656 488.816406 443.882812 472.644531 440.800781 456.25 C 440.75 456.230469 440.703125 456.203125 440.664062 456.171875 C 437.34375 458.074219 434.027344 459.980469 430.707031 461.882812 C 428.476562 463.164062 426.242188 464.445312 424.007812 465.726562 C 423.992188 470.046875 424.195312 474.363281 424.652344 478.660156 C 426.292969 494.15625 431.054688 509.28125 438.542969 522.941406 C 438.625 522.921875 438.707031 522.902344 438.789062 522.878906 Z M 438.789062 522.878906 " fill-opacity="1" fill-rule="nonzero"/></g><path fill="#9ed2df" d="M 507.632812 315.617188 L 508.78125 314.851562 C 508.78125 314.851562 508.789062 314.828125 508.800781 314.804688 C 508.792969 314.820312 508.785156 314.835938 508.78125 314.855469 C 505.875 322.9375 501.339844 363.351562 498.023438 395.636719 C 497.800781 396.164062 497.566406 396.683594 497.351562 397.214844 C 497.183594 397.632812 497.4375 397.933594 497.777344 398.023438 C 496.800781 407.566406 495.945312 416.289062 495.277344 423.101562 L 477.828125 433.230469 C 477.675781 433.316406 477.523438 433.40625 477.371094 433.492188 C 484.632812 395.089844 489.761719 358.496094 490.878906 350.339844 C 497.660156 346.5625 503.265625 334.929688 507.632812 315.617188 Z M 485.132812 350.9375 C 482.027344 350.453125 477.007812 349.253906 471.988281 346.3125 C 470.949219 367.734375 470.46875 397.742188 469.890625 427.875 C 469.835938 430.699219 469.785156 434.058594 469.746094 437.867188 C 470.132812 437.644531 470.519531 437.421875 470.90625 437.203125 C 478.253906 399.066406 483.671875 361.40625 485.132812 350.9375 Z M 472.335938 339.785156 C 478.640625 344.484375 485.800781 345.449219 487.835938 345.625 C 490.574219 344.308594 495.777344 339.226562 500.765625 320.214844 L 477.53125 335.742188 L 472.09375 315.632812 L 473.921875 322.402344 C 473.285156 326.59375 472.765625 332.535156 472.335938 339.785156 Z M 643.105469 698.082031 C 635.289062 682.144531 620.113281 644.507812 620.113281 644.507812 C 558.355469 665.871094 486.136719 650.25 486.136719 650.25 C 481.855469 621.890625 484.515625 561.304688 487.980469 510.523438 C 485.980469 511.148438 483.988281 511.78125 481.984375 512.390625 C 477.835938 513.65625 473.675781 514.882812 469.507812 516.082031 C 469.546875 578.957031 469.886719 648.78125 469.886719 648.78125 C 456.886719 651.183594 442.875 648.132812 434.621094 645.6875 C 434.929688 664.472656 435.734375 698.082031 435.734375 698.082031 L 522.992188 698.082031 L 523.355469 689.164062 C 518.773438 678.914062 515.347656 668.160156 513.199219 657.121094 C 513.027344 656.238281 514.375 655.867188 514.550781 656.75 C 517.316406 670.957031 522.171875 684.699219 528.957031 697.480469 C 529.074219 697.699219 529.0625 697.90625 528.984375 698.082031 Z M 369.140625 504.164062 C 368.566406 505.988281 368.273438 507.902344 368.457031 509.789062 C 367.074219 511.664062 365.359375 513.273438 363.394531 514.535156 C 361.828125 515.539062 360.109375 516.320312 358.277344 516.835938 C 356.628906 517.296875 354.894531 517.5625 353.097656 517.5625 C 342.546875 517.5625 333.992188 509.007812 333.992188 498.457031 C 333.992188 487.902344 342.546875 479.347656 353.097656 479.347656 C 358.429688 479.347656 363.242188 481.535156 366.710938 485.050781 C 366.820312 485.164062 366.917969 485.285156 367.023438 485.402344 C 361.347656 490.277344 356.597656 495.542969 354.980469 499.796875 C 351.121094 509.917969 359.703125 509.46875 369.140625 504.164062 Z M 353.863281 508.167969 C 349.023438 507.933594 345.246094 503.792969 345.511719 498.949219 C 345.777344 494.078125 350.113281 490.496094 354.90625 490.796875 C 355.808594 490.855469 355.804688 489.453125 354.90625 489.398438 C 349.316406 489.046875 344.421875 493.351562 344.109375 498.949219 C 343.796875 504.578125 348.300781 509.300781 353.863281 509.570312 C 354.765625 509.613281 354.761719 508.210938 353.863281 508.167969 Z M 521.960938 229.316406 C 522.492188 230.226562 523.160156 230.839844 523.996094 230.726562 C 525.027344 230.589844 526.25 229.410156 527.28125 227.714844 C 529.15625 224.625 530.378906 219.796875 528.546875 216.300781 C 526.625 212.628906 524.066406 212.945312 522.617188 213.527344 C 520.371094 218.046875 520.148438 223.488281 522.398438 228.304688 C 522.609375 228.761719 522.320312 229.175781 521.960938 229.316406 Z M 521.960938 229.316406 " fill-opacity="1" fill-rule="nonzero"/><path fill="#d47e9c" d="M 334.457031 706.691406 C 334.464844 706.734375 334.484375 706.765625 334.496094 706.804688 L 333.429688 706.804688 C 333.429688 706.804688 304.898438 706.132812 289.761719 706.804688 C 285.589844 706.988281 281.839844 706.511719 278.574219 705.738281 C 278.609375 705.65625 278.628906 705.566406 278.625 705.457031 C 278.546875 702.117188 280.785156 698.886719 283.972656 697.84375 C 284.824219 697.566406 284.460938 696.210938 283.597656 696.492188 C 279.84375 697.722656 277.152344 701.449219 277.226562 705.414062 C 274.429688 704.652344 272.046875 703.6875 270.136719 702.765625 C 270.304688 702.652344 270.429688 702.480469 270.4375 702.21875 C 270.535156 698.898438 272.878906 695.800781 276.054688 694.8125 C 276.910156 694.542969 276.542969 693.191406 275.679688 693.460938 C 271.90625 694.636719 269.160156 698.253906 269.039062 702.203125 C 266.953125 701.109375 265.605469 700.164062 265.097656 699.785156 C 265.207031 696.601562 266.367188 693.503906 268.5 691.117188 C 270.570312 688.804688 273.320312 687.257812 276.113281 685.976562 C 282.289062 683.140625 288.898438 681.25 295.609375 680.21875 C 296.003906 680.5625 296.796875 680.394531 296.796875 679.714844 C 296.828125 666.039062 302.683594 652.644531 312.449219 643.109375 C 315.070312 640.542969 317.972656 638.300781 321.09375 636.382812 C 324.5 648.539062 327.363281 660.84375 329.660156 673.257812 C 331.714844 684.328125 333.308594 695.484375 334.457031 706.691406 Z M 416.394531 621.433594 C 420.875 619.453125 424.359375 615.683594 426.074219 611.144531 C 426.417969 592.4375 428.046875 570.664062 430.078125 549.875 C 429.667969 549.742188 429.261719 549.613281 428.859375 549.464844 C 428.6875 549.402344 428.574219 549.285156 428.5 549.160156 C 421.085938 569.371094 406.546875 598.8125 383.5 604.203125 C 383.429688 606.054688 383.332031 607.90625 383.203125 609.757812 C 384.558594 609.75 385.914062 609.828125 387.273438 610.015625 C 392.125 610.699219 396.554688 612.769531 400.09375 616.175781 C 403.511719 619.460938 406.128906 623.617188 408.238281 627.835938 C 410.039062 631.4375 411.425781 635.222656 412.425781 639.109375 C 414.921875 638.332031 420.605469 635.523438 426.089844 625.460938 C 426.003906 621.996094 425.992188 618.335938 426.027344 614.550781 C 423.980469 618.082031 420.851562 620.984375 417.097656 622.648438 C 416.28125 623.007812 415.570312 621.800781 416.394531 621.433594 Z M 430.214844 548.445312 C 430.238281 548.21875 430.261719 547.992188 430.285156 547.765625 C 430.027344 547.910156 429.773438 548.066406 429.515625 548.207031 C 429.746094 548.292969 429.984375 548.367188 430.214844 548.445312 Z M 332.308594 330.214844 C 327.800781 328.792969 314.238281 348.792969 310.777344 354.035156 C 320.097656 354.421875 329.238281 357.4375 336.949219 362.738281 C 336.972656 355.886719 336.75 331.617188 332.308594 330.214844 Z M 368.457031 509.789062 C 367.070312 511.664062 365.359375 513.273438 363.390625 514.535156 C 367.640625 522.910156 372.585938 529.84375 378.074219 535.203125 C 377.269531 529.359375 376.324219 523.511719 375.21875 517.824219 C 372.4375 517.316406 370.167969 515.265625 369.117188 512.601562 C 368.757812 511.683594 368.550781 510.742188 368.457031 509.789062 Z M 413.300781 657.351562 C 413.183594 663.894531 412.023438 671.453125 408.527344 678.65625 C 399.566406 697.097656 380.589844 706.804688 380.589844 706.804688 L 378.832031 706.804688 C 380.542969 700.058594 379.175781 692.539062 374.257812 687.417969 C 373.214844 686.335938 372.042969 685.398438 370.785156 684.613281 C 370.785156 684.582031 370.800781 684.558594 370.800781 684.527344 C 370.433594 665.992188 369.207031 647.476562 367.109375 629.058594 C 365.023438 610.730469 362.085938 592.496094 358.304688 574.4375 C 356.175781 564.261719 353.769531 554.140625 351.109375 544.085938 C 350.878906 543.21875 349.523438 543.585938 349.757812 544.460938 C 354.464844 562.234375 358.351562 580.222656 361.390625 598.359375 C 364.445312 616.578125 366.636719 634.941406 367.972656 653.367188 C 368.703125 663.5 369.167969 673.652344 369.378906 683.8125 C 365.367188 681.777344 360.65625 681.289062 356.3125 682.953125 C 352.878906 684.265625 349.957031 686.683594 348.21875 689.933594 C 347.792969 690.730469 349 691.4375 349.425781 690.640625 C 352.289062 685.296875 358.65625 682.410156 364.582031 683.582031 C 370.855469 684.824219 375.800781 689.8125 377.472656 695.90625 C 378.449219 699.480469 378.351562 703.242188 377.382812 706.804688 L 372.855469 706.804688 C 373.980469 703.257812 372.851562 699.148438 370.050781 696.695312 C 369.375 696.101562 368.378906 697.089844 369.058594 697.683594 C 371.527344 699.847656 372.507812 703.382812 371.484375 706.507812 C 371.453125 706.613281 371.441406 706.710938 371.453125 706.804688 L 364.246094 706.804688 C 364.449219 703.199219 362.90625 699.5625 360.15625 697.222656 C 359.472656 696.640625 358.476562 697.628906 359.164062 698.214844 C 361.660156 700.335938 363.023438 703.535156 362.84375 706.804688 L 335.847656 706.804688 C 335.847656 706.765625 335.863281 706.730469 335.859375 706.6875 C 333.820312 686.78125 330.375 667.027344 325.527344 647.617188 C 320.660156 628.128906 314.402344 608.988281 306.804688 590.394531 C 302.578125 580.050781 297.9375 569.882812 292.90625 559.90625 C 292.5 559.101562 291.289062 559.808594 291.695312 560.613281 C 300.6875 578.429688 308.402344 596.882812 314.761719 615.796875 C 316.894531 622.140625 318.863281 628.535156 320.691406 634.972656 C 308.722656 642.21875 300.019531 654.410156 296.785156 668.003906 C 295.941406 671.550781 295.496094 675.1875 295.425781 678.832031 C 288.164062 679.929688 280.957031 682.019531 274.355469 685.257812 C 271.46875 686.675781 268.699219 688.480469 266.730469 691.070312 C 264.859375 693.527344 263.847656 696.503906 263.707031 699.574219 L 236.804688 699.210938 C 236.8125 699.191406 236.828125 699.183594 236.835938 699.164062 C 246.972656 676.769531 257.183594 654.210938 263.265625 630.3125 C 264.796875 624.285156 266.25 618.078125 266.007812 611.828125 C 268.964844 616.113281 272.09375 620.28125 275.382812 624.316406 C 280.34375 630.402344 285.679688 636.179688 291.347656 641.613281 C 292 642.238281 292.992188 641.25 292.339844 640.625 C 282.4375 631.128906 273.5625 620.585938 265.90625 609.203125 C 258.25 597.828125 251.78125 585.644531 246.695312 572.910156 C 243.828125 565.738281 241.402344 558.394531 239.421875 550.929688 C 239.191406 550.058594 237.835938 550.429688 238.070312 551.304688 C 241.605469 564.613281 246.570312 577.53125 252.839844 589.796875 C 256.328125 596.617188 260.234375 603.222656 264.5 609.589844 C 264.488281 609.648438 264.472656 609.707031 264.480469 609.78125 C 265.113281 616.027344 263.820312 622.195312 262.339844 628.234375 C 260.890625 634.132812 259.179688 639.96875 257.273438 645.734375 C 253.472656 657.234375 248.90625 668.464844 244.070312 679.5625 C 241.3125 685.886719 238.46875 692.171875 235.625 698.457031 C 235.5 698.734375 235.5625 698.996094 235.710938 699.195312 L 235.300781 699.191406 C 211.269531 706.113281 186.300781 699.082031 186.03125 699.007812 C 186.160156 693.476562 188.507812 688.097656 192.574219 684.324219 C 196.757812 680.4375 202.511719 678.550781 208.179688 678.96875 C 209.078125 679.035156 209.074219 677.632812 208.179688 677.566406 C 202.148438 677.121094 196.027344 679.207031 191.582031 683.332031 C 187.226562 687.375 184.734375 693.183594 184.625 699.105469 C 184.625 699.183594 184.644531 699.246094 184.664062 699.308594 C 183.136719 699.632812 180.488281 700.125 177.617188 700.351562 C 177.613281 700.320312 177.617188 700.289062 177.605469 700.253906 C 176.636719 697.703125 177.011719 694.683594 178.722656 692.519531 C 178.957031 692.222656 179.011719 691.820312 178.722656 691.53125 C 178.476562 691.285156 177.96875 691.230469 177.730469 691.53125 C 175.761719 694.023438 175.132812 697.433594 176.199219 700.441406 C 174.445312 700.519531 172.671875 700.476562 171.066406 700.21875 C 171.078125 700.09375 171.058594 699.964844 170.972656 699.828125 C 169.171875 696.984375 169.378906 693.207031 171.417969 690.542969 C 171.648438 690.238281 171.460938 689.761719 171.164062 689.585938 C 170.808594 689.371094 170.433594 689.535156 170.207031 689.835938 C 168.042969 692.664062 167.78125 696.703125 169.402344 699.847656 C 167.433594 699.269531 165.914062 698.230469 165.347656 696.488281 C 163.03125 689.332031 168.636719 679.671875 179.261719 675.039062 C 181.558594 674.035156 183.710938 673.101562 185.6875 672.246094 C 185.652344 672.761719 186.160156 673.292969 186.703125 672.929688 C 191.953125 669.394531 198.097656 667.402344 204.429688 667.21875 C 205.328125 667.191406 205.332031 665.792969 204.429688 665.816406 C 202.070312 665.886719 199.730469 666.203125 197.445312 666.742188 C 183.023438 636.066406 184.261719 605.230469 197.636719 594.488281 C 208.53125 585.730469 218.46875 588.621094 221.824219 590.019531 C 222.414062 611.570312 220.4375 633.171875 215.898438 654.253906 C 214.460938 660.9375 212.765625 667.5625 210.824219 674.117188 C 210.570312 674.984375 211.921875 675.355469 212.175781 674.492188 C 219.085938 651.128906 222.839844 626.847656 223.292969 602.492188 C 223.421875 595.582031 223.28125 588.667969 222.882812 581.769531 C 222.84375 581.101562 222.050781 580.929688 221.675781 581.261719 C 214.914062 526.578125 231.804688 482.679688 241.109375 467.269531 C 245.921875 459.3125 249.3125 448.765625 251.527344 440.066406 L 251.535156 440.066406 L 274.902344 428.601562 C 262.148438 427.695312 254.890625 423.847656 254.890625 423.847656 C 225.449219 408.433594 221.378906 386.691406 223.507812 371.601562 C 227.824219 372.238281 235.828125 372.628906 240.949219 368.109375 C 244.628906 364.859375 243.492188 360.457031 241.453125 356.898438 C 254.195312 360.820312 273.191406 367.539062 273.191406 367.539062 C 285.140625 355.011719 298.582031 354.078125 305.425781 354.601562 C 305.324219 355.007812 305.535156 355.484375 306.066406 355.453125 C 316.890625 354.867188 327.679688 357.949219 336.5625 364.160156 C 336.691406 364.25 336.820312 364.273438 336.9375 364.269531 C 336.9375 364.433594 336.933594 364.539062 336.933594 364.539062 C 336.933594 364.539062 367.71875 337.847656 369.082031 339.753906 C 370.445312 341.660156 363.636719 382.429688 358.460938 408.300781 C 356.507812 418.046875 356.078125 427.539062 356.9375 437.796875 C 358.085938 451.410156 361.515625 466.382812 366.710938 485.054688 C 363.242188 481.53125 358.429688 479.347656 353.101562 479.347656 C 342.546875 479.347656 333.992188 487.902344 333.992188 498.457031 C 333.992188 509.007812 342.546875 517.5625 353.101562 517.5625 C 354.898438 517.5625 356.628906 517.296875 358.277344 516.835938 C 364.699219 529.585938 372 538.039062 379.140625 543.589844 C 380.617188 556.253906 381.488281 568.519531 382.003906 578.675781 C 381.605469 578.609375 381.183594 578.816406 381.238281 579.324219 C 382.339844 589.445312 382.523438 599.644531 381.800781 609.800781 C 377.816406 609.996094 373.867188 610.90625 370.078125 612.164062 C 369.226562 612.445312 369.589844 613.800781 370.449219 613.515625 C 379.71875 610.4375 390.601562 609.5625 398.402344 616.515625 C 401.804688 619.546875 404.371094 623.464844 406.480469 627.46875 C 408.710938 631.699219 410.375 636.214844 411.453125 640.871094 C 412.652344 646.058594 413.082031 651.386719 412.773438 656.699219 C 412.746094 657.09375 413 657.304688 413.300781 657.351562 Z M 341.023438 369.640625 C 343.125 371.664062 345.226562 373.6875 347.324219 375.710938 C 347.601562 375.976562 348.039062 375.980469 348.316406 375.710938 C 357.640625 366.625 364.160156 354.847656 366.894531 342.117188 C 367.085938 341.238281 365.734375 340.863281 365.546875 341.746094 C 362.90625 354.03125 356.710938 365.371094 347.808594 374.230469 C 345.878906 372.371094 343.945312 370.507812 342.015625 368.644531 C 341.367188 368.023438 340.375 369.011719 341.023438 369.640625 Z M 264.480469 402.953125 C 260.363281 406.703125 254.484375 408.25 249.054688 407.023438 C 248.175781 406.824219 247.800781 408.175781 248.679688 408.375 C 254.617188 409.71875 260.972656 408.039062 265.472656 403.945312 C 266.140625 403.335938 265.144531 402.347656 264.480469 402.953125 Z M 195.949219 690.5625 C 195.773438 690.261719 195.296875 690.085938 194.988281 690.308594 C 192.136719 692.421875 190.421875 695.863281 190.5625 699.425781 C 190.601562 700.324219 192 700.328125 191.964844 699.425781 C 191.84375 696.386719 193.238281 693.335938 195.695312 691.519531 C 196 691.296875 196.152344 690.914062 195.949219 690.5625 Z M 202.953125 692.121094 C 200.210938 693.992188 198.511719 697.179688 198.554688 700.511719 C 198.566406 701.414062 199.96875 701.414062 199.957031 700.511719 C 199.921875 697.691406 201.324219 694.921875 203.660156 693.328125 C 204.402344 692.824219 203.703125 691.609375 202.953125 692.121094 Z M 293.871094 384.621094 C 293.871094 382.089844 291.816406 380.039062 289.285156 380.039062 C 286.753906 380.039062 284.703125 382.089844 284.703125 384.621094 C 284.703125 387.152344 286.753906 389.207031 289.285156 389.207031 C 291.816406 389.203125 293.871094 387.152344 293.871094 384.621094 Z M 307.628906 375.777344 C 305.859375 373.113281 302.992188 371.40625 299.835938 370.996094 C 298.945312 370.882812 298.953125 372.28125 299.835938 372.398438 C 302.539062 372.75 305.070312 374.355469 306.53125 376.65625 C 308.160156 379.226562 308.371094 382.457031 307.261719 385.265625 C 306.929688 386.101562 308.285156 386.46875 308.613281 385.636719 C 309.875 382.445312 309.535156 378.652344 307.628906 375.777344 Z M 449.671875 290.1875 C 439.652344 287.097656 431.714844 281.71875 425.421875 275.046875 C 420.800781 277.503906 414.085938 283.027344 416.296875 293.886719 C 419.578125 310.015625 440.898438 300.175781 440.898438 300.175781 C 440.898438 300.175781 433.855469 318.925781 454.015625 319.332031 C 450.464844 308.296875 449.207031 297.578125 449.671875 290.1875 Z M 465.972656 292.972656 C 462.160156 292.785156 458.574219 292.316406 455.203125 291.613281 C 454.945312 298.8125 456.433594 308.9375 459.835938 318.996094 C 464.5625 318.417969 468.621094 317.214844 472.09375 315.632812 C 472.09375 315.632812 472.09375 315.632812 472.097656 315.632812 L 470.558594 309.929688 Z M 599.554688 217.679688 C 600.207031 204.710938 571.023438 182.71875 560.421875 170.15625 C 549.824219 157.597656 547.078125 117.167969 485.058594 109.316406 C 423.039062 101.464844 389.054688 149.535156 389.054688 156.410156 C 389.054688 163.28125 399.363281 163.28125 399.363281 163.28125 C 376.164062 185.621094 380.03125 217.847656 393.347656 220.757812 C 397.007812 221.558594 400.113281 220.527344 402.695312 218.613281 C 409.515625 213.570312 412.683594 202.378906 412.683594 202.378906 C 415.691406 215.695312 426 219.132812 433.734375 210.113281 C 441.46875 201.089844 436.273438 177.304688 436.273438 177.304688 C 454.558594 199.386719 487.089844 197.960938 487.089844 197.960938 C 491.601562 211.496094 509.171875 220.757812 509.171875 220.757812 C 508.429688 212.957031 511.429688 199.945312 522.707031 196.578125 C 533.984375 193.210938 549.636719 200.449219 546.4375 220.480469 C 543.242188 240.507812 524.894531 245.722656 524.894531 245.722656 C 523.738281 246.683594 522.691406 247.789062 521.742188 249 C 519.550781 257.660156 517.28125 266.972656 515.335938 275.625 C 516.148438 281.75 518.546875 286.671875 522.371094 288.136719 C 522.457031 288.167969 522.539062 288.191406 522.625 288.222656 C 529.328125 290.636719 534.785156 286.484375 537.640625 283.5 C 539.03125 282.046875 539.808594 280.871094 539.808594 280.871094 C 539.808594 280.871094 548.671875 289.078125 559.339844 283.828125 C 570.011719 278.574219 566.234375 259.789062 566.234375 259.789062 C 572.964844 264.476562 586.097656 265.441406 590.363281 253.296875 C 594.628906 241.148438 585.4375 230.480469 585.4375 230.480469 C 589.867188 231.792969 598.894531 230.644531 599.554688 217.679688 Z M 599.554688 217.679688 " fill-opacity="1" fill-rule="nonzero"/><g clip-path="url(#2dc2440dba)"><path fill="#353535" d="M 472.753906 226.109375 C 470.222656 226.109375 468.171875 224.058594 468.171875 221.527344 C 468.171875 218.996094 470.222656 216.945312 472.753906 216.945312 C 475.285156 216.945312 477.339844 218.996094 477.339844 221.527344 C 477.339844 224.058594 475.285156 226.109375 472.753906 226.109375 Z M 423.328125 234.804688 C 423.328125 237.335938 425.378906 239.386719 427.910156 239.386719 C 430.441406 239.386719 432.496094 237.335938 432.496094 234.804688 C 432.496094 232.273438 430.441406 230.21875 427.910156 230.21875 C 425.378906 230.21875 423.328125 232.273438 423.328125 234.804688 Z M 444.277344 243.425781 C 447.742188 236.375 448.21875 228.09375 445.5 220.710938 C 445.191406 219.871094 443.835938 220.234375 444.148438 221.082031 C 446.734375 228.109375 446.371094 235.988281 443.066406 242.71875 C 442.667969 243.523438 443.878906 244.234375 444.277344 243.425781 Z M 465.972656 207.957031 C 469.667969 205.441406 474.449219 205.578125 478.011719 208.265625 C 478.730469 208.808594 479.429688 207.59375 478.71875 207.058594 C 474.792969 204.09375 469.328125 203.984375 465.269531 206.746094 C 464.523438 207.253906 465.226562 208.46875 465.972656 207.957031 Z M 416.609375 229.5625 C 416.9375 229.65625 417.417969 229.449219 417.472656 229.074219 C 418.175781 224.171875 421.847656 220.265625 426.710938 219.300781 C 427.597656 219.125 427.222656 217.773438 426.339844 217.949219 C 421.054688 218.996094 416.886719 223.359375 416.121094 228.699219 C 416.066406 229.078125 416.214844 229.449219 416.609375 229.5625 Z M 447.324219 258.019531 C 450.917969 260.683594 455.867188 261.308594 459.984375 259.53125 C 463.917969 257.835938 466.804688 254.085938 467.511719 249.875 C 467.65625 248.992188 466.308594 248.613281 466.160156 249.5 C 465.523438 253.308594 463.011719 256.695312 459.445312 258.246094 C 455.703125 259.875 451.277344 259.214844 448.03125 256.8125 C 447.308594 256.273438 446.609375 257.488281 447.324219 258.019531 Z M 465.972656 292.972656 L 470.554688 309.929688 L 470.894531 311.183594 C 485.535156 305.414062 496.691406 279.125 496.691406 279.125 C 481.210938 292.195312 465.996094 292.96875 465.972656 292.972656 Z M 369.121094 512.605469 C 370.167969 515.265625 372.4375 517.320312 375.21875 517.824219 C 375.527344 517.878906 375.84375 517.898438 376.164062 517.917969 C 376.558594 520.195312 377.605469 522.382812 379.382812 523.890625 C 381.574219 525.742188 384.585938 526.511719 387.339844 525.628906 C 388.058594 526.75 389.003906 527.726562 390.148438 528.515625 C 390.183594 528.558594 390.207031 528.609375 390.257812 528.648438 C 393.425781 531.1875 398.65625 530.753906 401.835938 528.410156 C 402.40625 527.992188 402.914062 527.476562 403.335938 526.894531 C 404.09375 525.84375 404.542969 524.582031 404.417969 523.261719 C 404.285156 521.847656 403.429688 520.503906 402.191406 519.832031 C 403.808594 518.441406 404.789062 516.339844 404.71875 514.195312 C 404.691406 513.292969 403.289062 513.289062 403.320312 514.195312 C 403.386719 516.277344 402.277344 518.320312 400.445312 519.378906 C 400.148438 519.546875 400.066406 519.824219 400.117188 520.078125 C 400.066406 520.390625 400.199219 520.707031 400.605469 520.769531 C 402.074219 520.984375 403.070312 522.304688 403.039062 523.765625 C 403.003906 525.449219 401.816406 526.855469 400.425781 527.667969 C 397.945312 529.109375 394.105469 529.574219 391.609375 527.882812 C 391.554688 527.8125 391.484375 527.742188 391.390625 527.6875 C 387.8125 525.550781 386.367188 521.230469 387.179688 517.246094 C 388.027344 513.09375 390.871094 509.785156 394.289062 507.4375 C 395.027344 506.929688 394.328125 505.714844 393.582031 506.226562 C 389.664062 508.917969 386.414062 512.78125 385.699219 517.613281 C 385.355469 519.9375 385.699219 522.296875 386.65625 524.359375 C 384.183594 525.007812 381.511719 524.183594 379.75 522.308594 C 377.761719 520.191406 377.101562 517.097656 377.484375 514.28125 C 378.339844 507.992188 383.554688 503.5625 388.109375 499.710938 C 388.796875 499.128906 387.800781 498.140625 387.117188 498.722656 C 381.945312 503.101562 375.992188 508.425781 375.980469 515.792969 C 375.980469 516.023438 376 516.257812 376.011719 516.492188 C 372.859375 516.21875 370.578125 513.589844 369.976562 510.558594 C 369.28125 507.039062 370.585938 503.527344 372.28125 500.496094 C 375.289062 495.105469 379.644531 490.449219 385.210938 487.683594 C 386.019531 487.28125 385.308594 486.070312 384.503906 486.472656 C 378.09375 489.65625 372.855469 495.480469 369.953125 502 C 369.640625 502.699219 369.375 503.421875 369.140625 504.164062 C 368.566406 505.988281 368.273438 507.902344 368.457031 509.789062 C 368.550781 510.742188 368.757812 511.683594 369.121094 512.605469 Z M 348.316406 375.714844 C 357.640625 366.625 364.160156 354.851562 366.894531 342.117188 C 367.085938 341.238281 365.734375 340.863281 365.546875 341.746094 C 362.90625 354.03125 356.710938 365.371094 347.808594 374.230469 C 345.878906 372.371094 343.945312 370.507812 342.015625 368.648438 C 341.367188 368.023438 340.375 369.011719 341.023438 369.636719 C 343.125 371.664062 345.226562 373.6875 347.324219 375.710938 C 347.601562 375.976562 348.039062 375.980469 348.316406 375.714844 Z M 337.269531 362.949219 C 337.164062 362.878906 337.054688 362.808594 336.949219 362.738281 C 329.238281 357.4375 320.097656 354.421875 310.777344 354.035156 C 309.210938 353.96875 307.640625 353.96875 306.066406 354.054688 C 305.703125 354.074219 305.492188 354.320312 305.425781 354.601562 C 305.324219 355.007812 305.535156 355.484375 306.066406 355.457031 C 316.890625 354.867188 327.679688 357.949219 336.5625 364.160156 C 336.691406 364.253906 336.820312 364.273438 336.9375 364.273438 C 337.5 364.257812 337.871094 363.375 337.269531 362.949219 Z M 299.835938 372.398438 C 302.539062 372.75 305.070312 374.355469 306.53125 376.660156 C 308.160156 379.230469 308.371094 382.457031 307.261719 385.265625 C 306.929688 386.105469 308.285156 386.46875 308.613281 385.640625 C 309.875 382.449219 309.535156 378.652344 307.628906 375.78125 C 305.859375 373.113281 302.992188 371.40625 299.835938 370.996094 C 298.945312 370.882812 298.953125 372.285156 299.835938 372.398438 Z M 248.683594 408.375 C 254.621094 409.71875 260.972656 408.039062 265.472656 403.945312 C 266.140625 403.335938 265.148438 402.347656 264.480469 402.953125 C 260.363281 406.703125 254.488281 408.25 249.054688 407.023438 C 248.175781 406.824219 247.800781 408.175781 248.683594 408.375 Z M 251.523438 440.066406 L 251.535156 440.066406 L 274.898438 428.601562 C 262.144531 427.695312 254.886719 423.847656 254.886719 423.847656 C 254.886719 423.847656 253.859375 430.945312 251.523438 440.066406 Z M 241.453125 356.898438 C 235.753906 355.132812 231.308594 353.933594 230.355469 354.140625 C 229.109375 354.402344 224.925781 361.523438 223.503906 371.601562 C 227.820312 372.238281 235.828125 372.628906 240.949219 368.109375 C 244.628906 364.859375 243.488281 360.457031 241.453125 356.898438 Z M 289.285156 389.203125 C 291.816406 389.203125 293.871094 387.152344 293.871094 384.621094 C 293.871094 382.089844 291.816406 380.039062 289.285156 380.039062 C 286.753906 380.039062 284.703125 382.089844 284.703125 384.621094 C 284.703125 387.152344 286.753906 389.203125 289.285156 389.203125 Z M 306.804688 590.394531 C 302.578125 580.054688 297.9375 569.882812 292.90625 559.90625 C 292.5 559.101562 291.289062 559.808594 291.695312 560.613281 C 300.6875 578.429688 308.402344 596.882812 314.761719 615.796875 C 316.894531 622.140625 318.863281 628.535156 320.691406 634.972656 C 308.722656 642.222656 300.019531 654.414062 296.785156 668.003906 C 295.941406 671.554688 295.496094 675.1875 295.425781 678.832031 C 288.164062 679.929688 280.957031 682.019531 274.355469 685.257812 C 271.46875 686.675781 268.699219 688.484375 266.730469 691.070312 C 264.859375 693.53125 263.847656 696.507812 263.707031 699.578125 C 263.703125 699.691406 263.691406 699.804688 263.6875 699.917969 C 263.664062 700.820312 265.066406 700.820312 265.085938 699.917969 C 265.089844 699.871094 265.09375 699.828125 265.09375 699.78125 C 265.203125 696.597656 266.363281 693.5 268.496094 691.113281 C 270.566406 688.800781 273.320312 687.253906 276.109375 685.972656 C 282.289062 683.136719 288.894531 681.246094 295.609375 680.214844 C 296 680.558594 296.792969 680.390625 296.796875 679.710938 C 296.828125 666.035156 302.683594 652.644531 312.445312 643.105469 C 315.066406 640.542969 317.96875 638.296875 321.089844 636.378906 C 324.496094 648.535156 327.363281 660.839844 329.660156 673.253906 C 331.710938 684.328125 333.308594 695.484375 334.453125 706.691406 C 334.460938 706.734375 334.480469 706.765625 334.492188 706.804688 C 334.683594 707.527344 335.800781 707.535156 335.84375 706.804688 C 335.847656 706.765625 335.863281 706.734375 335.855469 706.691406 C 333.816406 686.785156 330.371094 667.03125 325.523438 647.617188 C 320.660156 628.128906 314.402344 608.988281 306.804688 590.394531 Z M 370.78125 684.613281 C 370.785156 684.585938 370.800781 684.5625 370.796875 684.527344 C 370.433594 665.992188 369.207031 647.480469 367.109375 629.0625 C 365.023438 610.730469 362.085938 592.496094 358.304688 574.441406 C 356.171875 564.261719 353.769531 554.140625 351.105469 544.089844 C 350.875 543.21875 349.523438 543.585938 349.757812 544.460938 C 354.464844 562.234375 358.351562 580.222656 361.390625 598.359375 C 364.441406 616.578125 366.636719 634.941406 367.96875 653.367188 C 368.703125 663.5 369.167969 673.65625 369.378906 683.8125 C 365.367188 681.78125 360.65625 681.289062 356.308594 682.953125 C 352.878906 684.265625 349.957031 686.683594 348.214844 689.9375 C 347.789062 690.730469 349 691.441406 349.425781 690.644531 C 352.285156 685.296875 358.65625 682.410156 364.582031 683.582031 C 370.855469 684.824219 375.800781 689.8125 377.46875 695.90625 C 378.449219 699.484375 378.347656 703.242188 377.382812 706.804688 C 377.339844 706.957031 377.308594 707.113281 377.261719 707.269531 C 377.007812 708.136719 378.359375 708.503906 378.613281 707.640625 C 378.695312 707.363281 378.761719 707.085938 378.832031 706.804688 C 380.542969 700.058594 379.175781 692.539062 374.257812 687.417969 C 373.214844 686.335938 372.039062 685.398438 370.78125 684.613281 Z M 369.054688 697.6875 C 371.523438 699.847656 372.503906 703.386719 371.480469 706.507812 C 371.445312 706.613281 371.4375 706.714844 371.449219 706.804688 C 371.523438 707.4375 372.589844 707.628906 372.832031 706.878906 C 372.839844 706.855469 372.84375 706.828125 372.851562 706.804688 C 373.976562 703.257812 372.847656 699.148438 370.046875 696.695312 C 369.371094 696.105469 368.375 697.089844 369.054688 697.6875 Z M 360.152344 697.222656 C 359.46875 696.644531 358.472656 697.628906 359.160156 698.214844 C 361.660156 700.339844 363.019531 703.535156 362.839844 706.804688 C 362.835938 706.863281 362.84375 706.921875 362.835938 706.984375 C 362.773438 707.882812 364.175781 707.878906 364.238281 706.984375 C 364.242188 706.921875 364.238281 706.863281 364.242188 706.804688 C 364.445312 703.203125 362.902344 699.5625 360.152344 697.222656 Z M 408.242188 627.835938 C 406.128906 623.617188 403.515625 619.460938 400.09375 616.171875 C 396.554688 612.769531 392.128906 610.699219 387.273438 610.015625 C 385.917969 609.824219 384.558594 609.75 383.203125 609.753906 C 383.332031 607.90625 383.429688 606.054688 383.5 604.199219 C 383.816406 595.898438 383.535156 587.585938 382.636719 579.320312 C 382.597656 578.933594 382.304688 578.726562 382 578.675781 C 381.605469 578.609375 381.183594 578.816406 381.238281 579.320312 C 382.335938 589.445312 382.519531 599.644531 381.800781 609.800781 C 377.816406 609.996094 373.867188 610.902344 370.078125 612.160156 C 369.226562 612.445312 369.589844 613.800781 370.449219 613.515625 C 379.714844 610.4375 390.597656 609.5625 398.402344 616.511719 C 401.804688 619.542969 404.367188 623.460938 406.480469 627.46875 C 408.710938 631.695312 410.375 636.210938 411.449219 640.867188 C 412.652344 646.054688 413.082031 651.382812 412.769531 656.699219 C 412.746094 657.089844 413.003906 657.300781 413.300781 657.351562 C 413.683594 657.417969 414.140625 657.203125 414.171875 656.699219 C 414.519531 650.777344 413.90625 644.832031 412.429688 639.105469 C 411.429688 635.222656 410.039062 631.4375 408.242188 627.835938 Z M 426.886719 608.4375 C 426.695312 609.367188 426.40625 610.265625 426.074219 611.144531 C 424.359375 615.679688 420.875 619.453125 416.394531 621.4375 C 415.570312 621.800781 416.285156 623.007812 417.101562 622.644531 C 420.855469 620.984375 423.984375 618.082031 426.03125 614.550781 C 427.0625 612.769531 427.824219 610.835938 428.238281 608.808594 C 428.417969 607.929688 427.070312 607.554688 426.886719 608.4375 Z M 275.679688 693.457031 C 271.90625 694.636719 269.160156 698.25 269.039062 702.203125 C 269.039062 702.207031 269.035156 702.214844 269.035156 702.21875 C 269.015625 702.863281 269.71875 703.039062 270.136719 702.761719 C 270.304688 702.652344 270.429688 702.476562 270.4375 702.21875 C 270.535156 698.894531 272.878906 695.800781 276.054688 694.808594 C 276.910156 694.542969 276.542969 693.1875 275.679688 693.457031 Z M 283.597656 696.492188 C 279.84375 697.71875 277.152344 701.449219 277.226562 705.414062 C 277.226562 705.425781 277.226562 705.441406 277.226562 705.457031 C 277.242188 706.25 278.328125 706.34375 278.574219 705.738281 C 278.609375 705.65625 278.628906 705.566406 278.625 705.457031 C 278.546875 702.117188 280.785156 698.886719 283.972656 697.84375 C 284.824219 697.5625 284.460938 696.210938 283.597656 696.492188 Z M 266.007812 611.832031 C 268.96875 616.117188 272.09375 620.28125 275.382812 624.320312 C 280.34375 630.40625 285.679688 636.183594 291.347656 641.617188 C 292 642.242188 292.992188 641.25 292.339844 640.625 C 282.4375 631.132812 273.566406 620.585938 265.90625 609.207031 C 258.25 597.832031 251.785156 585.648438 246.699219 572.914062 C 243.832031 565.742188 241.40625 558.398438 239.421875 550.933594 C 239.191406 550.0625 237.839844 550.429688 238.070312 551.304688 C 241.605469 564.617188 246.570312 577.535156 252.839844 589.796875 C 256.328125 596.621094 260.234375 603.226562 264.5 609.589844 C 264.488281 609.652344 264.472656 609.710938 264.480469 609.78125 C 265.113281 616.03125 263.820312 622.195312 262.339844 628.238281 C 260.890625 634.136719 259.179688 639.96875 257.273438 645.738281 C 253.472656 657.238281 248.90625 668.46875 244.070312 679.566406 C 241.3125 685.890625 238.46875 692.175781 235.625 698.460938 C 235.5 698.738281 235.566406 699 235.710938 699.195312 C 235.980469 699.5625 236.542969 699.6875 236.804688 699.210938 C 236.8125 699.195312 236.828125 699.1875 236.835938 699.167969 C 246.972656 676.773438 257.183594 654.214844 263.265625 630.3125 C 264.800781 624.285156 266.25 618.082031 266.007812 611.832031 Z M 221.671875 581.261719 C 221.546875 581.375 221.464844 581.542969 221.480469 581.769531 C 221.636719 584.519531 221.75 587.269531 221.824219 590.023438 C 222.414062 611.570312 220.4375 633.175781 215.898438 654.257812 C 214.460938 660.9375 212.765625 667.5625 210.824219 674.121094 C 210.570312 674.988281 211.921875 675.355469 212.175781 674.492188 C 219.085938 651.128906 222.839844 626.847656 223.292969 602.492188 C 223.421875 595.582031 223.28125 588.671875 222.882812 581.773438 C 222.839844 581.101562 222.046875 580.929688 221.671875 581.261719 Z M 208.179688 677.566406 C 202.148438 677.121094 196.027344 679.210938 191.585938 683.332031 C 187.230469 687.375 184.738281 693.183594 184.628906 699.105469 C 184.628906 699.183594 184.648438 699.246094 184.667969 699.3125 C 184.855469 699.992188 186.015625 699.929688 186.03125 699.105469 C 186.03125 699.074219 186.035156 699.039062 186.035156 699.007812 C 186.164062 693.476562 188.511719 688.097656 192.578125 684.324219 C 196.761719 680.4375 202.515625 678.550781 208.183594 678.96875 C 209.082031 679.035156 209.078125 677.632812 208.179688 677.566406 Z M 194.988281 690.308594 C 192.136719 692.421875 190.421875 695.863281 190.5625 699.425781 C 190.601562 700.324219 192 700.328125 191.964844 699.425781 C 191.84375 696.386719 193.238281 693.335938 195.695312 691.519531 C 196 691.292969 196.152344 690.914062 195.949219 690.5625 C 195.773438 690.261719 195.296875 690.085938 194.988281 690.308594 Z M 202.953125 692.121094 C 200.210938 693.992188 198.511719 697.179688 198.554688 700.511719 C 198.566406 701.414062 199.96875 701.414062 199.957031 700.511719 C 199.921875 697.691406 201.324219 694.921875 203.660156 693.328125 C 204.402344 692.824219 203.703125 691.609375 202.953125 692.121094 Z M 186.703125 672.933594 C 191.957031 669.398438 198.097656 667.40625 204.429688 667.222656 C 205.328125 667.195312 205.332031 665.796875 204.429688 665.820312 C 202.070312 665.890625 199.730469 666.207031 197.445312 666.746094 C 193.378906 667.699219 189.488281 669.375 185.996094 671.722656 C 185.789062 671.863281 185.703125 672.054688 185.6875 672.25 C 185.648438 672.761719 186.160156 673.296875 186.703125 672.933594 Z M 171.164062 689.585938 C 170.808594 689.371094 170.433594 689.539062 170.207031 689.835938 C 168.042969 692.667969 167.785156 696.703125 169.402344 699.847656 C 169.519531 700.078125 169.625 700.316406 169.761719 700.535156 C 170.15625 701.160156 171.03125 700.792969 171.066406 700.21875 C 171.078125 700.09375 171.058594 699.964844 170.972656 699.828125 C 169.171875 696.984375 169.378906 693.207031 171.417969 690.542969 C 171.648438 690.242188 171.460938 689.761719 171.164062 689.585938 Z M 177.730469 691.53125 C 175.765625 694.023438 175.132812 697.433594 176.199219 700.441406 C 176.222656 700.503906 176.234375 700.566406 176.257812 700.628906 C 176.390625 700.984375 176.730469 701.226562 177.117188 701.121094 C 177.425781 701.035156 177.675781 700.6875 177.617188 700.355469 C 177.613281 700.324219 177.621094 700.289062 177.609375 700.257812 C 176.636719 697.703125 177.015625 694.6875 178.722656 692.523438 C 178.957031 692.226562 179.011719 691.820312 178.722656 691.53125 C 178.480469 691.289062 177.96875 691.234375 177.730469 691.53125 Z M 353.863281 508.167969 C 349.023438 507.933594 345.246094 503.792969 345.511719 498.949219 C 345.777344 494.078125 350.113281 490.496094 354.90625 490.796875 C 355.808594 490.855469 355.804688 489.453125 354.90625 489.398438 C 349.316406 489.046875 344.421875 493.351562 344.109375 498.949219 C 343.796875 504.578125 348.300781 509.300781 353.863281 509.570312 C 354.765625 509.613281 354.761719 508.210938 353.863281 508.167969 Z M 589.445312 447.082031 C 588.417969 451.214844 587.375 455.347656 586.316406 459.46875 C 585.839844 461.34375 585.492188 463.339844 584.84375 465.164062 C 584.734375 465.464844 584.597656 465.648438 584.351562 465.894531 C 583.453125 466.785156 582.46875 467.605469 581.496094 468.417969 C 579.496094 470.082031 577.40625 471.644531 575.269531 473.128906 C 570.316406 476.554688 565.089844 479.578125 559.761719 482.375 C 547.488281 488.824219 534.632812 494.15625 521.664062 499.023438 C 510.554688 503.191406 499.304688 506.976562 487.980469 510.519531 C 485.984375 511.144531 483.988281 511.78125 481.988281 512.390625 C 477.839844 513.65625 473.675781 514.878906 469.511719 516.082031 C 464.632812 517.488281 459.738281 518.855469 454.835938 520.175781 C 453.75 522.601562 452.660156 524.769531 451.566406 526.605469 C 450.445312 528.488281 449.234375 530.269531 447.960938 531.980469 C 449.023438 533.128906 449.398438 534.648438 449.496094 536.191406 C 449.757812 540.324219 449.59375 544.527344 449.605469 548.667969 C 449.621094 552.84375 449.617188 557.019531 449.605469 561.195312 C 449.578125 569.699219 449.511719 578.203125 449.429688 586.710938 C 449.390625 590.671875 449.460938 594.652344 449.28125 598.613281 C 449.140625 601.65625 448.632812 604.855469 446.574219 607.238281 C 441.71875 612.863281 433.574219 609.929688 427.941406 607.488281 C 427.117188 607.132812 427.832031 605.925781 428.648438 606.28125 C 432.332031 607.875 436.347656 609.609375 440.453125 608.933594 C 444.253906 608.308594 446.71875 605.726562 447.496094 602.007812 C 448.1875 598.699219 447.945312 595.167969 447.980469 591.8125 C 448.019531 587.945312 448.054688 584.082031 448.089844 580.214844 C 448.15625 572.40625 448.207031 564.597656 448.214844 556.785156 C 448.21875 552.921875 448.210938 549.054688 448.191406 545.1875 C 448.179688 543.253906 448.167969 541.324219 448.152344 539.390625 C 448.136719 537.660156 448.339844 535.683594 447.660156 534.054688 C 447.507812 533.699219 447.320312 533.390625 447.101562 533.117188 C 442.300781 539.277344 436.558594 544.234375 430.285156 547.765625 C 430.027344 547.910156 429.777344 548.066406 429.515625 548.207031 C 429.75 548.289062 429.984375 548.367188 430.21875 548.445312 C 434.484375 549.871094 438.972656 550.433594 443.472656 550.074219 C 444.371094 550 444.363281 551.402344 443.472656 551.472656 C 438.949219 551.835938 434.386719 551.28125 430.078125 549.875 C 429.671875 549.742188 429.261719 549.609375 428.859375 549.464844 C 428.6875 549.398438 428.578125 549.285156 428.5 549.15625 C 428.429688 549.039062 428.390625 548.910156 428.390625 548.777344 C 421.863281 552.09375 414.832031 553.902344 407.714844 553.902344 C 406.957031 553.902344 406.195312 553.882812 405.433594 553.839844 C 398.917969 553.488281 389.1875 551.398438 379.140625 543.585938 C 372 538.039062 364.699219 529.585938 358.277344 516.832031 C 360.109375 516.316406 361.828125 515.539062 363.394531 514.535156 C 367.644531 522.90625 372.589844 529.84375 378.074219 535.203125 C 386.265625 543.203125 395.660156 547.699219 405.734375 548.242188 C 414.53125 548.71875 423.304688 546 431 540.746094 C 434.746094 538.1875 438.230469 535.011719 441.34375 531.3125 C 440.789062 531.324219 440.246094 531.351562 439.75 531.382812 C 437.09375 531.535156 434.355469 531.53125 432.171875 529.84375 C 432.113281 529.796875 432.046875 529.761719 431.988281 529.710938 C 431.507812 529.3125 431.835938 528.730469 432.3125 528.589844 C 432.523438 528.527344 432.765625 528.542969 432.976562 528.71875 C 435.550781 530.855469 439.265625 529.886719 442.460938 529.945312 C 443.992188 528.003906 445.433594 525.9375 446.75 523.734375 C 447.0625 523.210938 447.375 522.652344 447.6875 522.070312 C 444.585938 522.882812 441.484375 523.679688 438.367188 524.421875 C 438.066406 524.492188 437.726562 524.378906 437.574219 524.101562 C 436.792969 522.6875 436.046875 521.253906 435.324219 519.816406 C 434.117188 517.410156 432.976562 514.972656 431.933594 512.488281 C 428.425781 504.148438 425.871094 495.410156 424.335938 486.496094 C 423.582031 482.113281 423.066406 477.691406 422.804688 473.25 C 422.730469 472.019531 422.683594 470.785156 422.648438 469.550781 C 422.621094 468.558594 422.601562 467.566406 422.601562 466.574219 C 422.601562 465.878906 422.425781 465.15625 423.003906 464.6875 C 423.871094 463.988281 425.058594 463.507812 426.019531 462.957031 C 428.308594 461.640625 430.601562 460.328125 432.894531 459.011719 C 435.453125 457.542969 438.007812 456.078125 440.5625 454.613281 C 441.019531 449.953125 441.460938 445.292969 441.878906 440.628906 C 443.4375 423.132812 444.691406 405.613281 445.65625 388.074219 C 445.703125 387.175781 447.105469 387.175781 447.054688 388.074219 C 446.78125 393.097656 446.480469 398.117188 446.15625 403.136719 C 445.066406 420.03125 443.6875 436.910156 442.042969 453.761719 C 446.257812 451.34375 450.472656 448.925781 454.683594 446.507812 C 459.703125 443.625 464.722656 440.746094 469.742188 437.867188 C 470.128906 437.644531 470.515625 437.421875 470.902344 437.199219 C 478.253906 399.066406 483.671875 361.402344 485.132812 350.9375 C 482.027344 350.449219 477.003906 349.25 471.984375 346.3125 C 467.679688 343.789062 463.382812 339.992188 460.300781 334.253906 C 459.058594 331.933594 457.945312 329.558594 456.933594 327.171875 C 455.832031 324.566406 454.851562 321.941406 454.011719 319.332031 C 450.464844 308.296875 449.207031 297.578125 449.667969 290.183594 C 451.445312 290.734375 453.285156 291.210938 455.199219 291.613281 C 454.945312 298.8125 456.433594 308.933594 459.835938 318.996094 C 461.285156 323.285156 463.078125 327.5625 465.242188 331.597656 C 467.148438 335.15625 469.664062 337.796875 472.332031 339.785156 C 478.636719 344.480469 485.800781 345.445312 487.832031 345.625 C 490.570312 344.304688 495.773438 339.222656 500.765625 320.210938 C 502.410156 313.894531 504.035156 306.046875 505.539062 296.285156 C 508.199219 278.964844 516.210938 247.585938 521.152344 228.9375 C 517.347656 220.6875 520.03125 210.921875 527.566406 205.828125 C 528.3125 205.320312 529.015625 206.535156 528.273438 207.035156 C 525.789062 208.714844 523.882812 210.976562 522.617188 213.527344 C 520.371094 218.046875 520.144531 223.488281 522.394531 228.304688 C 522.609375 228.761719 522.320312 229.175781 521.960938 229.316406 C 522.492188 230.226562 523.160156 230.835938 523.996094 230.726562 C 525.027344 230.589844 526.25 229.40625 527.28125 227.714844 C 527.25 227.828125 527.21875 227.9375 527.183594 228.074219 C 525.640625 233.859375 523.722656 241.160156 521.738281 249 C 519.546875 257.660156 517.277344 266.972656 515.332031 275.625 C 513.511719 283.738281 511.980469 291.269531 511.074219 297.136719 C 510.027344 303.917969 508.878906 310.085938 507.628906 315.617188 C 503.261719 334.929688 497.65625 346.558594 490.871094 350.339844 C 489.757812 358.496094 484.625 395.089844 477.363281 433.492188 C 477.515625 433.40625 477.671875 433.316406 477.824219 433.230469 C 478.765625 432.6875 479.710938 432.148438 480.652344 431.605469 C 485.523438 428.8125 490.394531 426.015625 495.261719 423.222656 C 497.875 421.722656 500.484375 420.226562 503.097656 418.726562 C 505.578125 417.304688 508.058594 415.878906 510.539062 414.457031 C 511.699219 413.789062 512.894531 412.917969 514.132812 412.382812 C 514.183594 412.539062 514.277344 412.65625 514.234375 412.429688 C 514.226562 412.402344 514.234375 412.363281 514.230469 412.332031 C 514.25 412.324219 514.265625 412.3125 514.285156 412.308594 C 514.308594 412.296875 514.5 412.15625 514.523438 412.171875 C 514.378906 412.085938 514.292969 412.066406 514.226562 412.066406 C 514.265625 411.640625 514.433594 411.125 514.488281 410.78125 C 514.894531 408.128906 515.308594 405.480469 515.726562 402.828125 C 517.191406 393.523438 518.699219 384.226562 520.253906 374.933594 C 522.039062 364.296875 523.875 353.660156 525.921875 343.070312 C 526.746094 338.800781 527.597656 334.539062 528.5625 330.300781 C 529.1875 327.550781 529.808594 324.769531 530.746094 322.105469 C 531.042969 321.257812 532.394531 321.625 532.097656 322.476562 C 531.765625 323.414062 531.488281 324.371094 531.226562 325.328125 C 529.328125 332.28125 528.023438 339.417969 526.6875 346.496094 C 524.894531 355.996094 523.246094 365.523438 521.648438 375.058594 C 520.21875 383.578125 518.832031 392.105469 517.480469 400.640625 C 517.039062 403.441406 516.597656 406.242188 516.164062 409.042969 C 515.976562 410.25 515.964844 411.691406 515.574219 412.855469 C 515.371094 413.46875 514.640625 413.71875 514.109375 414.023438 C 512.625 414.875 511.140625 415.726562 509.660156 416.578125 C 504.8125 419.359375 499.964844 422.140625 495.121094 424.917969 C 494.4375 425.3125 493.75 425.703125 493.066406 426.097656 C 485.632812 430.367188 478.195312 434.632812 470.761719 438.898438 C 463.253906 443.207031 455.75 447.511719 448.242188 451.820312 C 446.167969 453.007812 444.09375 454.199219 442.023438 455.390625 C 442.039062 455.433594 442.066406 455.464844 442.074219 455.515625 C 442.949219 460.195312 443.910156 464.855469 444.972656 469.492188 C 448.691406 485.792969 453.574219 501.820312 459.539062 517.433594 C 469.101562 514.796875 478.625 512 488.089844 509.023438 C 488.710938 508.828125 489.332031 508.640625 489.953125 508.445312 C 503.332031 504.207031 516.609375 499.621094 529.65625 494.441406 C 542.132812 489.492188 554.503906 484.035156 566.109375 477.261719 C 570.898438 474.46875 575.585938 471.433594 579.890625 467.925781 C 580.839844 467.15625 581.765625 466.359375 582.671875 465.535156 C 582.804688 465.414062 583.410156 464.824219 583.464844 464.871094 C 583.46875 464.855469 583.46875 464.84375 583.472656 464.832031 C 583.710938 464.292969 583.792969 463.617188 583.941406 463.046875 C 585.988281 455.175781 587.964844 447.285156 589.890625 439.382812 C 593.070312 426.355469 596.109375 413.292969 598.914062 400.179688 C 601.722656 387.035156 604.371094 373.832031 606.257812 360.523438 C 608.125 347.34375 608.9375 333.84375 605.648438 320.804688 C 605.609375 320.65625 605.578125 320.503906 605.539062 320.351562 C 605.085938 318.597656 604.546875 316.851562 603.921875 315.136719 C 602.738281 311.878906 601.226562 308.738281 599.265625 305.878906 C 598.269531 304.421875 597.136719 302.882812 595.734375 301.78125 C 595.40625 301.519531 595.453125 301.175781 595.660156 300.925781 C 595.898438 300.644531 596.351562 300.492188 596.726562 300.789062 C 597.082031 301.070312 597.402344 301.398438 597.714844 301.722656 C 600.152344 304.25 602.015625 307.347656 603.503906 310.503906 C 605.65625 315.0625 607.058594 319.929688 607.960938 324.882812 C 608.292969 326.726562 608.566406 328.582031 608.769531 330.4375 C 610.183594 343.253906 608.492188 356.015625 606.414062 368.652344 C 604.144531 382.464844 601.273438 396.179688 598.234375 409.835938 C 595.472656 422.289062 592.519531 434.703125 589.445312 447.082031 Z M 458.195312 517.8125 C 456.527344 513.445312 454.9375 509.046875 453.441406 504.617188 C 448.097656 488.816406 443.882812 472.644531 440.800781 456.25 C 440.75 456.230469 440.703125 456.203125 440.664062 456.171875 C 437.34375 458.074219 434.027344 459.980469 430.707031 461.882812 C 428.476562 463.164062 426.242188 464.445312 424.007812 465.726562 C 423.992188 470.046875 424.195312 474.363281 424.652344 478.660156 C 426.292969 494.15625 431.054688 509.28125 438.542969 522.941406 C 438.625 522.921875 438.707031 522.902344 438.789062 522.878906 C 444.707031 521.441406 450.597656 519.886719 456.46875 518.289062 C 457.046875 518.132812 457.617188 517.96875 458.195312 517.8125 Z M 514.230469 412.066406 C 514.082031 412.070312 514.085938 412.238281 514.136719 412.382812 C 514.167969 412.367188 514.203125 412.347656 514.234375 412.332031 C 514.226562 412.25 514.21875 412.164062 514.230469 412.066406 Z M 538.683594 309.097656 C 526.898438 317.054688 517.519531 328.335938 511.910156 341.410156 C 511.816406 341.628906 511.839844 341.835938 511.921875 342.011719 C 511.855469 342.148438 511.820312 342.300781 511.863281 342.484375 C 513.476562 349.359375 515.089844 356.230469 516.707031 363.105469 C 516.71875 363.152344 516.742188 363.179688 516.761719 363.21875 C 509.128906 373.164062 502.847656 384.070312 498.023438 395.636719 C 497.800781 396.164062 497.566406 396.683594 497.351562 397.214844 C 497.183594 397.632812 497.4375 397.933594 497.777344 398.023438 C 498.117188 398.117188 498.539062 398 498.703125 397.585938 C 503.613281 385.425781 510.199219 373.980469 518.210938 363.597656 C 518.472656 363.261719 518.332031 362.929688 518.058594 362.746094 C 518.058594 362.742188 518.058594 362.738281 518.058594 362.730469 C 516.441406 355.859375 514.828125 348.984375 513.214844 342.109375 C 513.203125 342.070312 513.183594 342.046875 513.167969 342.011719 C 518.6875 329.203125 527.828125 318.113281 539.390625 310.308594 C 539.554688 310.199219 539.636719 310.054688 539.675781 309.902344 C 539.945312 309.835938 540.160156 309.628906 540.121094 309.261719 C 539.3125 301.558594 538.503906 293.859375 537.695312 286.15625 C 537.601562 285.269531 536.199219 285.257812 536.296875 286.15625 C 537.097656 293.800781 537.902344 301.445312 538.703125 309.089844 C 538.699219 309.097656 538.691406 309.09375 538.683594 309.097656 Z M 608.898438 567.429688 C 606.453125 545.976562 603.019531 524.636719 598.597656 503.5 C 596.101562 491.5625 593.285156 479.691406 590.167969 467.902344 C 589.9375 467.03125 588.585938 467.402344 588.820312 468.277344 C 594.324219 489.089844 598.867188 510.15625 602.425781 531.390625 C 606.011719 552.789062 608.59375 574.351562 610.164062 595.988281 C 611.039062 608.074219 611.597656 620.1875 611.84375 632.304688 C 611.863281 633.203125 613.265625 633.207031 613.246094 632.304688 C 612.800781 610.625 611.355469 588.972656 608.898438 567.429688 Z M 556.074219 528.082031 C 556.957031 527.964844 556.96875 526.5625 556.074219 526.679688 C 538.738281 528.984375 521.402344 531.289062 504.066406 533.59375 C 503.183594 533.710938 503.171875 535.113281 504.066406 534.992188 C 521.402344 532.6875 538.738281 530.386719 556.074219 528.082031 Z M 514.480469 611.550781 C 512.871094 612.792969 510.710938 612.34375 509.21875 611.109375 C 507.441406 609.640625 506.875 607.160156 506.566406 604.984375 C 505.832031 599.824219 505.511719 594.570312 505.097656 589.375 C 504.269531 578.933594 503.707031 568.46875 503.410156 557.996094 C 503.355469 555.972656 503.320312 553.945312 503.285156 551.921875 C 521.277344 552.09375 539.261719 550.382812 556.898438 546.828125 C 557.78125 546.652344 557.40625 545.300781 556.523438 545.476562 C 539 549.011719 521.136719 550.695312 503.257812 550.519531 C 503.199219 547.003906 503.164062 543.492188 503.167969 539.976562 C 503.167969 539.074219 501.765625 539.074219 501.765625 539.976562 C 501.757812 551.53125 502.066406 563.085938 502.703125 574.621094 C 503.019531 580.3125 503.410156 585.996094 503.882812 591.679688 C 504.128906 594.59375 504.390625 597.507812 504.675781 600.421875 C 504.917969 602.898438 505.027344 605.480469 505.734375 607.878906 C 506.351562 609.988281 507.53125 611.960938 509.539062 612.984375 C 511.335938 613.902344 513.53125 614.039062 515.1875 612.761719 C 515.894531 612.21875 515.195312 611 514.480469 611.550781 Z M 561.929688 583.410156 C 561.589844 574.992188 561.144531 566.574219 560.597656 558.167969 C 559.980469 548.683594 559.230469 539.203125 558.351562 529.734375 C 558.269531 528.847656 556.867188 528.835938 556.953125 529.734375 C 558.445312 545.820312 559.5625 561.941406 560.300781 578.078125 C 560.484375 582.09375 560.644531 586.113281 560.78125 590.128906 C 560.90625 593.835938 561.1875 597.589844 561.011719 601.300781 C 560.867188 604.347656 560.152344 607.695312 557.363281 609.417969 C 555.914062 610.316406 554.183594 610.660156 552.519531 610.910156 C 550.539062 611.207031 548.542969 611.417969 546.550781 611.628906 C 537.558594 612.578125 528.511719 612.992188 519.46875 612.886719 C 518.566406 612.875 518.566406 614.277344 519.46875 614.289062 C 527.824219 614.382812 536.175781 614.042969 544.492188 613.238281 C 546.550781 613.039062 548.609375 612.8125 550.660156 612.554688 C 552.40625 612.339844 554.183594 612.152344 555.863281 611.613281 C 558.734375 610.6875 560.773438 608.667969 561.695312 605.796875 C 562.6875 602.707031 562.457031 599.347656 562.367188 596.15625 C 562.25 591.90625 562.105469 587.65625 561.929688 583.410156 Z M 456.304688 330.351562 C 455.972656 329.988281 455.265625 329.976562 455.105469 330.59375 C 454.886719 331.460938 454.667969 332.328125 454.445312 333.195312 C 452.683594 340.140625 450.921875 347.089844 449.160156 354.035156 C 449.046875 354.476562 449.371094 354.921875 449.835938 354.921875 C 452.742188 354.921875 455.652344 354.921875 458.5625 354.917969 C 454.886719 359.691406 451.214844 364.460938 447.542969 369.230469 C 447.394531 369.421875 447.433594 369.738281 447.542969 369.9375 C 455.160156 383.4375 462.003906 397.363281 468.03125 411.640625 C 468.382812 412.46875 469.589844 411.757812 469.242188 410.933594 C 463.273438 396.800781 456.507812 383.011719 448.980469 369.640625 C 452.847656 364.617188 456.714844 359.59375 460.582031 354.570312 C 460.917969 354.136719 460.457031 353.519531 459.976562 353.519531 C 456.894531 353.519531 453.8125 353.519531 450.734375 353.519531 C 452.640625 346.003906 454.546875 338.484375 456.457031 330.964844 C 456.523438 330.707031 456.445312 330.5 456.304688 330.351562 Z M 514.546875 656.75 C 514.375 655.867188 513.023438 656.238281 513.195312 657.121094 C 515.34375 668.160156 518.769531 678.914062 523.355469 689.164062 C 524.722656 692.21875 526.175781 695.234375 527.75 698.191406 C 528.054688 698.769531 528.777344 698.550781 528.984375 698.082031 C 529.058594 697.90625 529.074219 697.699219 528.957031 697.484375 C 522.167969 684.699219 517.316406 670.957031 514.546875 656.75 Z M 514.546875 656.75 " fill-opacity="1" fill-rule="nonzero"/></g><g clip-path="url(#bf13dd00c1)"><g clip-path="url(#e95af64b78)"><g clip-path="url(#8a892cc0ae)"><path fill="#d47e9c" d="M 405.480469 215.675781 C 404.902344 215.917969 404.335938 216.199219 403.773438 216.5 C 403.585938 216.601562 403.378906 216.707031 403.191406 216.808594 C 402.871094 216.972656 402.5625 217.175781 402.253906 217.378906 C 401.214844 218.042969 400.214844 218.828125 399.289062 219.65625 C 399.277344 219.683594 399.257812 219.6875 399.222656 219.722656 C 398.933594 219.984375 398.664062 220.242188 398.398438 220.515625 C 397.402344 221.539062 396.53125 222.679688 395.757812 223.851562 C 395.175781 224.726562 394.675781 225.664062 394.222656 226.609375 C 394.160156 226.757812 394.078125 226.914062 394.015625 227.0625 C 393.605469 228.015625 393.253906 228.996094 392.992188 229.992188 C 392.765625 230.757812 392.613281 231.542969 392.488281 232.34375 C 392.378906 233.054688 392.308594 233.75 392.265625 234.460938 C 392.246094 234.96875 392.226562 235.476562 392.226562 235.976562 C 392.230469 237.566406 392.449219 239.132812 392.792969 240.683594 C 392.875 241.09375 392.988281 241.472656 393.089844 241.878906 C 393.105469 241.917969 393.109375 241.9375 393.121094 241.976562 C 393.484375 243.238281 393.988281 244.457031 394.566406 245.632812 C 394.753906 246.03125 394.984375 246.441406 395.214844 246.828125 C 395.582031 247.457031 395.980469 248.054688 396.398438 248.644531 C 396.554688 248.859375 396.726562 249.070312 396.878906 249.285156 C 397.152344 249.613281 397.433594 249.964844 397.703125 250.273438 C 397.773438 250.359375 397.84375 250.449219 397.933594 250.53125 C 398.460938 251.109375 399.027344 251.679688 399.621094 252.195312 C 399.769531 252.324219 399.910156 252.433594 400.039062 252.566406 C 400.972656 253.347656 401.972656 254.046875 403.003906 254.644531 C 403.882812 255.164062 404.78125 255.609375 405.707031 256 C 406.234375 256.230469 406.769531 256.414062 407.324219 256.59375 C 407.566406 256.671875 407.808594 256.753906 408.070312 256.824219 C 408.601562 256.988281 409.136719 257.109375 409.695312 257.222656 C 409.695312 257.222656 409.714844 257.214844 409.722656 257.234375 C 410.789062 257.453125 411.855469 257.585938 412.941406 257.648438 C 414.472656 257.746094 416.011719 257.644531 417.546875 257.394531 C 419.191406 257.132812 420.757812 256.699219 422.289062 256.078125 C 423.878906 255.4375 425.371094 254.613281 426.773438 253.640625 C 429.410156 251.789062 431.582031 249.339844 433.167969 246.542969 C 433.96875 245.167969 434.558594 243.679688 435.039062 242.183594 C 435.539062 240.613281 435.804688 238.984375 435.9375 237.355469 C 436.074219 235.722656 435.984375 234.074219 435.726562 232.449219 C 435.453125 230.769531 435.019531 229.136719 434.382812 227.546875 C 433.152344 224.523438 431.25 221.792969 428.835938 219.585938 C 427.726562 218.53125 426.445312 217.617188 425.09375 216.828125 C 423.742188 216.042969 422.316406 215.433594 420.832031 214.929688 C 419.425781 214.464844 417.957031 214.152344 416.472656 213.996094 C 414.921875 213.835938 413.367188 213.8125 411.804688 213.980469 C 410.515625 214.113281 409.265625 214.367188 408.023438 214.722656 C 407.984375 214.734375 407.945312 214.746094 407.882812 214.765625 C 407.84375 214.777344 407.824219 214.785156 407.785156 214.796875 C 407.011719 215.054688 406.25 215.332031 405.480469 215.675781 Z M 410.992188 216.738281 C 412.679688 216.484375 414.382812 216.421875 416.0625 216.582031 C 417.734375 216.769531 419.351562 217.144531 420.925781 217.734375 C 422.460938 218.332031 423.917969 219.105469 425.269531 220.042969 C 426.636719 221.023438 427.855469 222.152344 428.941406 223.433594 C 430.023438 224.757812 430.941406 226.199219 431.660156 227.765625 C 432.359375 229.339844 432.863281 230.996094 433.167969 232.710938 C 433.421875 234.398438 433.464844 236.105469 433.3125 237.808594 C 433.117188 239.457031 432.738281 241.078125 432.167969 242.625 C 431.566406 244.15625 430.792969 245.613281 429.855469 246.96875 C 428.871094 248.316406 427.746094 249.550781 426.488281 250.632812 C 425.160156 251.714844 423.71875 252.632812 422.152344 253.351562 C 420.578125 254.050781 418.945312 254.550781 417.25 254.847656 C 415.667969 255.09375 414.074219 255.144531 412.46875 255.023438 C 412.355469 255.015625 412.242188 255.003906 412.152344 254.988281 C 411.769531 254.953125 411.382812 254.898438 411.007812 254.816406 C 410.984375 254.800781 410.964844 254.808594 410.9375 254.792969 C 410.917969 254.800781 410.910156 254.78125 410.890625 254.785156 C 410.871094 254.792969 410.863281 254.773438 410.84375 254.777344 C 409.644531 254.558594 408.460938 254.242188 407.304688 253.8125 C 406.1875 253.367188 405.113281 252.847656 404.09375 252.222656 C 404.09375 252.222656 404.09375 252.222656 404.089844 252.203125 C 404.0625 252.1875 404.0625 252.1875 404.035156 252.175781 C 404.011719 252.160156 404.011719 252.160156 403.984375 252.148438 C 403.984375 252.148438 403.976562 252.125 403.957031 252.132812 C 403.613281 251.933594 403.285156 251.707031 402.953125 251.480469 C 401.664062 250.546875 400.484375 249.46875 399.421875 248.265625 C 399.421875 248.265625 399.417969 248.246094 399.417969 248.246094 C 399.417969 248.246094 399.410156 248.226562 399.390625 248.234375 C 399.359375 248.199219 399.320312 248.144531 399.289062 248.113281 C 399.152344 247.957031 399.042969 247.816406 398.929688 247.65625 C 398.925781 247.636719 398.898438 247.621094 398.890625 247.601562 C 398.890625 247.601562 398.890625 247.601562 398.886719 247.582031 C 398.054688 246.503906 397.359375 245.367188 396.75 244.160156 C 396.75 244.160156 396.746094 244.140625 396.746094 244.140625 C 396.738281 244.117188 396.734375 244.097656 396.734375 244.097656 C 396.726562 244.078125 396.726562 244.078125 396.722656 244.058594 C 396.722656 244.058594 396.714844 244.039062 396.714844 244.039062 C 396.671875 243.964844 396.640625 243.867188 396.597656 243.792969 C 395.890625 242.199219 395.386719 240.546875 395.085938 238.851562 C 394.957031 237.929688 394.871094 237 394.851562 236.089844 C 394.847656 236.070312 394.859375 236.042969 394.855469 236.023438 C 394.847656 236.003906 394.84375 235.984375 394.863281 235.976562 C 394.863281 235.976562 394.855469 235.957031 394.855469 235.957031 C 394.855469 235.238281 394.878906 234.535156 394.945312 233.816406 C 395.136719 232.167969 395.515625 230.550781 396.101562 228.976562 C 396.292969 228.460938 396.515625 227.976562 396.753906 227.46875 C 396.765625 227.441406 396.761719 227.421875 396.78125 227.417969 C 396.78125 227.417969 396.773438 227.398438 396.792969 227.390625 C 396.808594 227.363281 396.808594 227.363281 396.820312 227.339844 C 396.820312 227.339844 396.835938 227.3125 396.835938 227.3125 C 396.835938 227.3125 396.847656 227.285156 396.847656 227.285156 C 396.863281 227.261719 396.863281 227.261719 396.875 227.234375 C 396.875 227.234375 396.890625 227.210938 396.890625 227.210938 C 396.90625 227.183594 396.90625 227.183594 396.917969 227.15625 C 396.917969 227.15625 396.917969 227.15625 396.933594 227.132812 C 396.945312 227.105469 396.960938 227.078125 396.960938 227.078125 C 397.367188 226.277344 397.832031 225.503906 398.324219 224.765625 C 398.335938 224.742188 398.351562 224.714844 398.371094 224.707031 C 398.386719 224.683594 398.40625 224.675781 398.417969 224.652344 C 399.402344 223.304688 400.527344 222.066406 401.789062 220.984375 C 401.949219 220.871094 402.082031 220.742188 402.246094 220.628906 C 402.265625 220.621094 402.265625 220.621094 402.277344 220.597656 C 402.296875 220.589844 402.296875 220.589844 402.3125 220.5625 C 403.300781 219.804688 404.34375 219.160156 405.433594 218.585938 C 405.433594 218.585938 405.453125 218.582031 405.453125 218.582031 C 405.453125 218.582031 405.453125 218.582031 405.472656 218.574219 C 405.679688 218.46875 405.867188 218.367188 406.082031 218.28125 C 406.308594 218.167969 406.5625 218.066406 406.792969 217.976562 C 408.121094 217.394531 409.542969 216.984375 410.992188 216.738281 Z M 433.316406 237.894531 C 433.308594 237.941406 433.3125 237.960938 433.304688 238.003906 C 433.3125 237.960938 433.320312 237.914062 433.316406 237.894531 Z M 433.316406 237.894531 " fill-opacity="1" fill-rule="nonzero"/></g></g></g><g clip-path="url(#9af36db2c9)"><g clip-path="url(#2ada621b7a)"><g clip-path="url(#66220241fd)"><path fill="#d47e9c" d="M 459.113281 201.015625 C 457.726562 201.832031 456.449219 202.851562 455.261719 203.957031 C 454.835938 204.347656 454.441406 204.773438 454.050781 205.199219 C 453.96875 205.289062 453.875 205.40625 453.792969 205.496094 C 453.113281 206.269531 452.5 207.109375 451.9375 207.980469 C 451.613281 208.492188 451.296875 209.023438 451.003906 209.570312 C 450.285156 210.921875 449.707031 212.382812 449.289062 213.863281 C 449.078125 214.601562 448.914062 215.351562 448.777344 216.113281 C 448.746094 216.230469 448.746094 216.363281 448.714844 216.480469 C 448.617188 217.164062 448.542969 217.839844 448.492188 218.53125 C 448.496094 218.550781 448.496094 218.550781 448.484375 218.574219 C 448.371094 220.136719 448.484375 221.714844 448.734375 223.25 C 449.003906 224.910156 449.449219 226.515625 450.082031 228.089844 C 451.304688 231.09375 453.195312 233.785156 455.5625 235.980469 C 456.714844 237.042969 458 237.957031 459.328125 238.75 C 460.6875 239.554688 462.160156 240.171875 463.644531 240.679688 C 465.175781 241.191406 466.742188 241.476562 468.339844 241.640625 C 469.929688 241.789062 471.515625 241.761719 473.109375 241.558594 C 476.460938 241.121094 479.667969 239.925781 482.496094 238.058594 C 485.253906 236.238281 487.523438 233.757812 489.230469 230.925781 C 490.855469 228.1875 491.824219 225.078125 492.140625 221.910156 C 492.460938 218.675781 492.015625 215.367188 490.902344 212.289062 C 489.785156 209.207031 487.957031 206.433594 485.625 204.140625 C 484.503906 203.042969 483.257812 202.09375 481.933594 201.257812 C 480.601562 200.398438 479.164062 199.75 477.6875 199.199219 C 476.265625 198.675781 474.761719 198.328125 473.257812 198.109375 C 471.648438 197.90625 470.042969 197.851562 468.429688 197.996094 C 466.925781 198.128906 465.445312 198.425781 464.011719 198.867188 C 462.316406 199.382812 460.664062 200.105469 459.113281 201.015625 Z M 467.265625 200.746094 C 468.953125 200.492188 470.65625 200.429688 472.359375 200.585938 C 474.007812 200.78125 475.609375 201.164062 477.167969 201.710938 C 478.722656 202.304688 480.1875 203.097656 481.558594 204.03125 C 482.898438 204.992188 484.117188 206.125 485.199219 207.382812 C 486.277344 208.710938 487.203125 210.171875 487.9375 211.710938 C 488.640625 213.304688 489.144531 214.960938 489.445312 216.652344 C 489.699219 218.339844 489.761719 220.042969 489.605469 221.746094 C 489.414062 223.398438 489.035156 225.015625 488.46875 226.582031 C 487.855469 228.144531 487.082031 229.597656 486.144531 230.953125 C 485.160156 232.300781 484.015625 233.542969 482.753906 234.625 C 481.429688 235.703125 480.003906 236.597656 478.460938 237.332031 C 476.886719 238.027344 475.234375 238.535156 473.519531 238.839844 C 471.851562 239.085938 470.148438 239.148438 468.464844 238.988281 C 466.796875 238.800781 465.179688 238.425781 463.605469 237.835938 C 462.042969 237.222656 460.585938 236.449219 459.207031 235.496094 C 457.863281 234.515625 456.652344 233.402344 455.5625 232.125 C 454.480469 230.796875 453.582031 229.351562 452.851562 227.808594 C 452.144531 226.214844 451.640625 224.5625 451.339844 222.867188 C 451.09375 221.265625 451.035156 219.648438 451.171875 218.039062 C 451.171875 218.039062 451.171875 218.039062 451.167969 218.019531 C 451.167969 218.019531 451.160156 217.996094 451.160156 217.996094 C 451.164062 217.933594 451.164062 217.867188 451.1875 217.792969 C 451.222656 217.480469 451.253906 217.164062 451.316406 216.863281 C 451.316406 216.863281 451.308594 216.839844 451.308594 216.839844 C 451.304688 216.820312 451.316406 216.796875 451.3125 216.777344 C 451.523438 215.46875 451.851562 214.191406 452.316406 212.9375 C 452.917969 211.40625 453.707031 209.921875 454.644531 208.566406 C 454.671875 208.515625 454.703125 208.484375 454.734375 208.433594 C 454.734375 208.433594 454.753906 208.425781 454.746094 208.40625 C 454.765625 208.398438 454.761719 208.378906 454.78125 208.375 C 455.695312 207.15625 456.722656 206.035156 457.878906 205.03125 C 457.898438 205.023438 457.910156 205 457.929688 204.992188 C 457.929688 204.992188 457.949219 204.988281 457.945312 204.96875 C 457.964844 204.960938 457.957031 204.941406 457.976562 204.933594 C 458 204.929688 458.011719 204.902344 458.011719 204.902344 C 458.066406 204.863281 458.121094 204.828125 458.167969 204.769531 C 459.445312 203.746094 460.839844 202.886719 462.320312 202.171875 C 463.917969 201.550781 465.570312 201.046875 467.265625 200.746094 Z M 467.265625 200.746094 " fill-opacity="1" fill-rule="nonzero"/></g></g></g><g clip-path="url(#6a78589454)"><g clip-path="url(#22031e7297)"><g clip-path="url(#ac6b377810)"><path fill="#d47e9c" d="M 439.207031 220.449219 C 438.542969 220.695312 437.875 221.011719 437.273438 221.390625 C 437.050781 221.523438 436.851562 221.648438 436.636719 221.800781 C 436.078125 222.191406 435.554688 222.679688 435.09375 223.167969 C 434.894531 223.378906 434.707031 223.613281 434.535156 223.839844 C 434.535156 223.839844 434.519531 223.863281 434.519531 223.863281 C 434.507812 223.890625 434.492188 223.917969 434.460938 223.949219 C 434.308594 224.167969 434.152344 224.371094 434.007812 224.609375 C 433.464844 225.40625 433.101562 226.28125 432.789062 227.183594 C 432.601562 227.785156 432.460938 228.394531 432.394531 229.023438 C 432.394531 229.023438 432.398438 229.042969 432.378906 229.050781 C 432.378906 229.050781 432.386719 229.070312 432.386719 229.070312 C 432.390625 229.089844 432.378906 229.117188 432.378906 229.117188 C 432.347656 229.234375 432.339844 229.347656 432.347656 229.453125 C 432.355469 229.472656 432.335938 229.476562 432.339844 229.496094 C 432.3125 229.832031 432.535156 230.203125 432.753906 230.417969 C 432.996094 230.648438 433.335938 230.761719 433.667969 230.769531 C 434.011719 230.753906 434.355469 230.605469 434.585938 230.359375 C 434.648438 230.273438 434.703125 230.171875 434.785156 230.082031 C 434.875 229.878906 434.945312 229.683594 434.945312 229.464844 C 435.027344 228.808594 435.183594 228.171875 435.402344 227.539062 C 435.648438 226.917969 435.96875 226.320312 436.34375 225.769531 C 436.746094 225.234375 437.207031 224.742188 437.699219 224.289062 C 438.246094 223.859375 438.808594 223.492188 439.433594 223.191406 C 440.089844 222.90625 440.746094 222.703125 441.449219 222.578125 C 441.863281 222.515625 442.292969 222.492188 442.710938 222.496094 C 442.730469 222.492188 442.730469 222.492188 442.75 222.484375 C 442.75 222.484375 442.769531 222.476562 442.769531 222.476562 C 443.007812 222.472656 443.269531 222.476562 443.519531 222.511719 C 444.195312 222.585938 444.859375 222.753906 445.492188 222.976562 C 445.542969 223.003906 445.617188 223.023438 445.667969 223.054688 C 446.222656 223.296875 446.742188 223.574219 447.234375 223.902344 C 447.6875 224.246094 448.132812 224.632812 448.519531 225.035156 C 448.519531 225.035156 448.523438 225.054688 448.542969 225.050781 C 448.609375 225.117188 448.671875 225.1875 448.742188 225.273438 C 449.03125 225.644531 449.292969 226 449.523438 226.40625 C 449.652344 226.609375 449.757812 226.816406 449.871094 227.042969 C 449.945312 227.214844 450.027344 227.410156 450.082031 227.585938 C 450.082031 227.585938 450.085938 227.609375 450.085938 227.609375 C 450.09375 227.628906 450.101562 227.648438 450.105469 227.667969 C 450.105469 227.667969 450.113281 227.6875 450.113281 227.6875 C 450.117188 227.707031 450.125 227.726562 450.128906 227.746094 C 450.128906 227.746094 450.136719 227.765625 450.136719 227.765625 C 450.140625 227.785156 450.148438 227.808594 450.15625 227.828125 C 450.15625 227.828125 450.160156 227.847656 450.160156 227.847656 C 450.167969 227.867188 450.171875 227.886719 450.179688 227.90625 C 450.179688 227.90625 450.179688 227.90625 450.183594 227.925781 C 450.191406 227.945312 450.195312 227.964844 450.210938 228.007812 C 450.214844 228.027344 450.226562 228.066406 450.234375 228.085938 C 450.441406 228.761719 451.195312 229.164062 451.871094 228.957031 C 452.550781 228.75 452.9375 228.023438 452.746094 227.320312 C 452.453125 226.363281 452.035156 225.421875 451.46875 224.570312 C 451.46875 224.570312 451.464844 224.550781 451.464844 224.550781 C 451.34375 224.371094 451.214844 224.167969 451.074219 223.992188 C 450.789062 223.625 450.480469 223.261719 450.144531 222.949219 C 449.894531 222.699219 449.617188 222.433594 449.335938 222.214844 C 448.902344 221.871094 448.429688 221.535156 447.933594 221.269531 C 447.882812 221.242188 447.824219 221.195312 447.773438 221.167969 C 447.617188 221.085938 447.460938 221.003906 447.285156 220.925781 C 446.769531 220.667969 446.226562 220.464844 445.679688 220.304688 C 445.320312 220.195312 444.964844 220.109375 444.601562 220.066406 C 444.4375 220.027344 444.28125 220.011719 444.105469 220 C 444.039062 220 443.964844 219.976562 443.898438 219.976562 C 443.316406 219.914062 442.722656 219.898438 442.121094 219.929688 C 441.929688 219.945312 441.738281 219.960938 441.527344 219.980469 C 441.085938 220.03125 440.632812 220.125 440.1875 220.238281 C 440.167969 220.242188 440.128906 220.257812 440.109375 220.261719 C 439.988281 220.296875 439.851562 220.339844 439.730469 220.378906 C 439.519531 220.332031 439.363281 220.382812 439.207031 220.449219 Z M 439.207031 220.449219 " fill-opacity="1" fill-rule="nonzero"/></g></g></g><g clip-path="url(#08959213d1)"><g clip-path="url(#05b1005e2a)"><path fill="#d47e9c" d="M 477.40625 60.503906 L 518.398438 60.503906 L 518.398438 101.496094 L 477.40625 101.496094 Z M 477.40625 60.503906 " fill-opacity="1" fill-rule="nonzero"/></g></g></svg>