<svg xmlns="http://www.w3.org/2000/svg" xmlns:xlink="http://www.w3.org/1999/xlink" width="191" zoomAndPan="magnify" viewBox="0 0 143.25 143.249998" height="191" preserveAspectRatio="xMidYMid meet" version="1.0"><defs><clipPath id="82a5954225"><path d="M 14.25 14.25 L 128.253906 14.25 L 128.253906 128.253906 L 14.25 128.253906 Z M 14.25 14.25 " clip-rule="nonzero"/></clipPath><clipPath id="56f696dc66"><path d="M 71.25 14.25 C 39.769531 14.25 14.25 39.769531 14.25 71.25 C 14.25 102.734375 39.769531 128.253906 71.25 128.253906 C 102.734375 128.253906 128.253906 102.734375 128.253906 71.25 C 128.253906 39.769531 102.734375 14.25 71.25 14.25 Z M 71.25 14.25 " clip-rule="nonzero"/></clipPath><clipPath id="6dd0eaa77c"><path d="M 40.066406 38.65625 L 107.214844 38.65625 L 107.214844 105.804688 L 40.066406 105.804688 Z M 40.066406 38.65625 " clip-rule="nonzero"/></clipPath></defs><g clip-path="url(#82a5954225)"><g clip-path="url(#56f696dc66)"><path fill="#f8f6b3" d="M 14.25 14.25 L 128.253906 14.25 L 128.253906 128.253906 L 14.25 128.253906 Z M 14.25 14.25 " fill-opacity="1" fill-rule="nonzero"/></g></g><g clip-path="url(#6dd0eaa77c)"><path fill="#9bd2e0" d="M 106.582031 88.09375 C 107.074219 89.40625 107.359375 90.820312 107.402344 92.292969 C 107.414062 92.433594 107.414062 92.574219 107.414062 92.722656 C 107.414062 100.054688 101.464844 106 94.136719 106 C 64.273438 106 40.066406 81.792969 40.066406 51.933594 C 40.066406 44.601562 46.015625 38.65625 53.347656 38.65625 C 53.492188 38.65625 53.632812 38.65625 53.773438 38.664062 C 55.25 38.707031 56.667969 38.996094 57.980469 39.488281 L 62.964844 61.070312 C 62.964844 61.082031 62.960938 61.085938 62.949219 61.09375 L 53.804688 65.203125 L 53.78125 65.210938 C 57.976562 77.988281 68.082031 88.09375 80.855469 92.289062 L 80.867188 92.261719 L 84.980469 83.113281 L 106.582031 88.09375 " fill-opacity="1" fill-rule="nonzero"/></g></svg>