<svg xmlns="http://www.w3.org/2000/svg" xmlns:xlink="http://www.w3.org/1999/xlink" width="500" zoomAndPan="magnify" viewBox="0 0 375 374.999991" height="500" preserveAspectRatio="xMidYMid meet" version="1.0"><defs><clipPath id="47fd86dfc1"><path d="M 113.265625 57.710938 L 261.730469 57.710938 L 261.730469 299.960938 L 113.265625 299.960938 Z M 113.265625 57.710938 " clip-rule="nonzero"/></clipPath></defs><g clip-path="url(#47fd86dfc1)"><path fill="#f59cbb" d="M 120.398438 256.117188 L 122.539062 253.976562 C 122.710938 253.824219 122.90625 253.71875 123.078125 253.574219 L 197.78125 178.878906 L 124.027344 105.125 C 123.988281 105.097656 120.613281 102.136719 119.265625 100.40625 C 119.234375 100.363281 119.207031 100.320312 119.179688 100.269531 C 115.746094 95.816406 113.675781 90.246094 113.675781 84.183594 C 113.675781 77.425781 116.226562 71.285156 120.398438 66.609375 L 122.539062 64.457031 C 127.214844 60.296875 133.363281 57.734375 140.121094 57.734375 C 147.070312 57.734375 153.382812 60.441406 158.101562 64.824219 L 158.410156 65.132812 C 158.417969 65.117188 158.417969 65.109375 158.425781 65.101562 C 158.425781 65.101562 255.546875 162.082031 256.035156 162.707031 C 259.503906 167.179688 261.585938 172.78125 261.585938 178.878906 C 261.585938 184.96875 259.503906 190.5625 256.035156 195.03125 C 254.664062 196.8125 160.3125 290.753906 160.3125 290.753906 L 157.183594 293.882812 C 152.578125 297.777344 146.632812 300.144531 140.121094 300.144531 C 134 300.144531 128.378906 298.042969 123.902344 294.550781 C 122.171875 293.203125 120.613281 291.644531 119.265625 289.914062 C 115.773438 285.4375 113.675781 279.816406 113.675781 273.695312 C 113.675781 267.175781 116.089844 261.265625 119.996094 256.65625 C 120.140625 256.488281 120.253906 256.289062 120.398438 256.117188 " fill-opacity="1" fill-rule="nonzero"/></g></svg>