<svg xmlns="http://www.w3.org/2000/svg" xmlns:xlink="http://www.w3.org/1999/xlink" width="500" zoomAndPan="magnify" viewBox="0 0 375 374.999991" height="500" preserveAspectRatio="xMidYMid meet" version="1.0"><defs><clipPath id="c893e9caf2"><path d="M 113.230469 57.710938 L 261.730469 57.710938 L 261.730469 299.960938 L 113.230469 299.960938 Z M 113.230469 57.710938 " clip-rule="nonzero"/></clipPath></defs><g clip-path="url(#c893e9caf2)"><path fill="#f59cbb" d="M 254.59375 256.117188 L 252.453125 253.976562 C 252.28125 253.824219 252.085938 253.71875 251.914062 253.574219 L 177.210938 178.878906 L 250.964844 105.125 C 251.007812 105.097656 254.382812 102.136719 255.726562 100.40625 C 255.761719 100.363281 255.785156 100.320312 255.8125 100.269531 C 259.246094 95.816406 261.320312 90.246094 261.320312 84.183594 C 261.320312 77.425781 258.765625 71.285156 254.59375 66.609375 L 252.453125 64.457031 C 247.777344 60.296875 241.628906 57.734375 234.871094 57.734375 C 227.921875 57.734375 221.609375 60.441406 216.890625 64.824219 L 216.582031 65.132812 C 216.574219 65.117188 216.574219 65.109375 216.566406 65.101562 C 216.566406 65.101562 119.445312 162.082031 118.957031 162.707031 C 115.488281 167.179688 113.410156 172.78125 113.410156 178.878906 C 113.410156 184.96875 115.488281 190.5625 118.957031 195.03125 C 120.328125 196.8125 214.683594 290.753906 214.683594 290.753906 L 217.808594 293.882812 C 222.417969 297.777344 228.359375 300.144531 234.871094 300.144531 C 240.992188 300.144531 246.613281 298.042969 251.09375 294.550781 C 252.820312 293.203125 254.382812 291.644531 255.726562 289.914062 C 259.21875 285.4375 261.320312 279.816406 261.320312 273.695312 C 261.320312 267.175781 258.902344 261.265625 254.996094 256.65625 C 254.851562 256.488281 254.742188 256.289062 254.59375 256.117188 " fill-opacity="1" fill-rule="nonzero"/></g></svg>