<svg xmlns="http://www.w3.org/2000/svg" xmlns:xlink="http://www.w3.org/1999/xlink" width="500" zoomAndPan="magnify" viewBox="0 0 375 374.999991" height="500" preserveAspectRatio="xMidYMid meet" version="1.0"><defs><clipPath id="5462aeb8a2"><path d="M 42.820312 37.5 L 342.820312 37.5 L 342.820312 337.5 L 42.820312 337.5 Z M 42.820312 37.5 " clip-rule="nonzero"/></clipPath><clipPath id="4f3a2e1c64"><path d="M 192.820312 37.5 C 109.976562 37.5 42.820312 104.65625 42.820312 187.5 C 42.820312 270.34375 109.976562 337.5 192.820312 337.5 C 275.664062 337.5 342.820312 270.34375 342.820312 187.5 C 342.820312 104.65625 275.664062 37.5 192.820312 37.5 Z M 192.820312 37.5 " clip-rule="nonzero"/></clipPath><clipPath id="904b48cc48"><path d="M 53 284 L 150 284 L 150 314.3125 L 53 314.3125 Z M 53 284 " clip-rule="nonzero"/></clipPath><clipPath id="8edb24534d"><path d="M 147 284 L 244 284 L 244 314.3125 L 147 314.3125 Z M 147 284 " clip-rule="nonzero"/></clipPath><clipPath id="71f2d20e0e"><path d="M 240 284 L 338 284 L 338 314.3125 L 240 314.3125 Z M 240 284 " clip-rule="nonzero"/></clipPath><clipPath id="0a300cff45"><path d="M 71 49.5625 L 122 49.5625 L 122 100 L 71 100 Z M 71 49.5625 " clip-rule="nonzero"/></clipPath></defs><g clip-path="url(#5462aeb8a2)"><g clip-path="url(#4f3a2e1c64)"><path fill="#9bd2df" d="M 42.820312 37.5 L 342.820312 37.5 L 342.820312 337.5 L 42.820312 337.5 Z M 42.820312 37.5 " fill-opacity="1" fill-rule="nonzero"/></g></g><g clip-path="url(#904b48cc48)"><path fill="#f8f6b3" d="M 148.121094 303.589844 L 134.941406 306.316406 L 148.574219 298.589844 L 135.394531 303.589844 L 149.9375 291.320312 L 131.304688 301.773438 L 133.578125 298.589844 L 118.582031 307.226562 C 117.671875 304.5 136.757812 295.863281 136.757812 295.863281 C 132.214844 296.320312 110.855469 301.773438 110.855469 301.773438 C 112.671875 300.410156 120.398438 284.503906 120.398438 284.503906 C 115.855469 285.414062 102.675781 299.046875 102.675781 299.046875 C 98.585938 296.320312 98.132812 299.5 98.132812 299.5 L 89.042969 294.5 L 94.949219 303.589844 C 89.953125 302.226562 82.679688 303.136719 82.679688 303.136719 C 90.40625 304.5 95.40625 308.589844 95.40625 308.589844 C 88.589844 308.589844 89.042969 305.410156 89.042969 305.410156 C 83.136719 304.953125 80.863281 309.5 80.863281 309.5 L 64.503906 299.5 L 70.410156 306.316406 L 58.140625 298.589844 L 66.777344 306.316406 L 56.777344 302.683594 C 59.503906 304.046875 67.683594 308.589844 67.683594 308.589844 C 65.867188 307.226562 54.960938 306.316406 54.503906 305.863281 C 50.414062 304.953125 69.503906 313.132812 69.503906 313.132812 C 64.503906 311.769531 55.867188 310.40625 55.867188 310.40625 C 59.960938 311.316406 65.867188 314.042969 65.867188 314.042969 L 134.03125 314.042969 L 147.210938 309.042969 L 130.851562 312.226562 Z M 148.121094 303.589844 " fill-opacity="1" fill-rule="nonzero"/></g><g clip-path="url(#8edb24534d)"><path fill="#f8f6b3" d="M 241.734375 303.589844 L 228.554688 306.316406 L 242.1875 298.589844 L 229.007812 303.589844 L 243.550781 291.320312 L 224.917969 301.773438 L 227.191406 298.589844 L 212.195312 307.226562 C 211.285156 304.5 230.371094 295.863281 230.371094 295.863281 C 225.828125 296.320312 204.46875 301.773438 204.46875 301.773438 C 206.285156 300.410156 214.011719 284.503906 214.011719 284.503906 C 209.46875 285.414062 196.289062 299.046875 196.289062 299.046875 C 192.199219 296.320312 191.746094 299.5 191.746094 299.5 L 182.65625 294.5 L 188.5625 303.589844 C 183.566406 302.226562 176.292969 303.136719 176.292969 303.136719 C 184.019531 304.5 189.019531 308.589844 189.019531 308.589844 C 182.203125 308.589844 182.65625 305.410156 182.65625 305.410156 C 176.75 304.953125 174.476562 309.5 174.476562 309.5 L 158.117188 299.5 L 164.023438 306.316406 L 151.753906 298.589844 L 160.390625 306.316406 L 150.390625 302.683594 C 153.117188 304.046875 161.296875 308.589844 161.296875 308.589844 C 159.480469 307.226562 148.574219 306.316406 148.121094 305.863281 C 144.027344 304.953125 163.117188 313.132812 163.117188 313.132812 C 158.117188 311.769531 149.484375 310.40625 149.484375 310.40625 C 153.574219 311.316406 159.480469 314.042969 159.480469 314.042969 L 227.644531 314.042969 L 240.824219 308.589844 L 224.464844 311.769531 Z M 241.734375 303.589844 " fill-opacity="1" fill-rule="nonzero"/></g><g clip-path="url(#71f2d20e0e)"><path fill="#f8f6b3" d="M 318.078125 302.226562 L 320.347656 299.046875 L 305.351562 307.679688 C 304.445312 304.953125 323.53125 296.320312 323.53125 296.320312 C 318.984375 296.773438 297.628906 302.226562 297.628906 302.226562 C 299.445312 300.863281 307.171875 284.957031 307.171875 284.957031 C 302.625 285.867188 289.449219 299.5 289.449219 299.5 C 285.359375 296.773438 284.902344 299.953125 284.902344 299.953125 L 275.816406 294.957031 L 281.722656 304.046875 C 276.722656 302.683594 269.453125 303.589844 269.453125 303.589844 C 277.179688 304.953125 282.175781 309.042969 282.175781 309.042969 C 275.359375 309.042969 275.816406 305.863281 275.816406 305.863281 C 269.90625 305.410156 267.636719 309.953125 267.636719 309.953125 L 251.277344 299.5 L 257.183594 306.316406 L 244.914062 298.589844 L 253.546875 306.316406 L 243.550781 302.683594 C 246.277344 304.046875 254.457031 308.589844 254.457031 308.589844 C 252.640625 307.226562 241.734375 306.316406 241.277344 305.863281 C 237.1875 304.953125 256.273438 313.132812 256.273438 313.132812 C 251.277344 311.769531 242.640625 310.40625 242.640625 310.40625 C 246.730469 311.316406 252.640625 314.042969 252.640625 314.042969 L 320.804688 314.042969 L 333.984375 309.042969 L 318.078125 312.226562 L 335.347656 304.046875 L 322.167969 306.773438 L 335.800781 299.046875 L 322.621094 304.046875 L 337.164062 291.773438 Z M 318.078125 302.226562 " fill-opacity="1" fill-rule="nonzero"/></g><path fill="#f8f6b3" d="M 66.320312 183.164062 L 83.589844 154.535156 L 87.226562 149.539062 L 99.039062 198.617188 C 100.402344 204.523438 103.585938 209.066406 107.675781 212.703125 C 107.675781 213.15625 103.128906 225.429688 103.585938 224.972656 L 73.136719 275.871094 C 69.503906 282.230469 71.320312 290.410156 77.683594 294.046875 C 83.589844 297.683594 91.769531 295.863281 95.859375 289.503906 C 129.03125 233.609375 127.214844 236.789062 128.125 234.515625 L 129.941406 228.609375 L 152.664062 284.957031 C 155.390625 291.773438 163.117188 294.957031 169.933594 292.230469 C 176.75 289.503906 179.929688 281.777344 177.203125 274.960938 C 174.476562 267.691406 187.65625 301.316406 148.574219 203.160156 C 150.847656 197.707031 151.753906 191.800781 150.390625 185.890625 L 139.03125 138.632812 L 134.941406 122.269531 C 131.304688 107.730469 116.761719 99.550781 103.128906 102.730469 C 94.042969 105.003906 86.769531 111.820312 84.042969 120 C 39.054688 193.617188 54.503906 168.625 51.324219 174.078125 C 48.597656 178.167969 49.960938 183.621094 54.050781 185.890625 C 58.140625 188.617188 63.59375 187.253906 66.320312 183.164062 Z M 66.320312 183.164062 " fill-opacity="1" fill-rule="nonzero"/><g clip-path="url(#0a300cff45)"><path fill="#f8f6b3" d="M 101.765625 99.09375 C 112.21875 97.277344 121.761719 87.28125 121.761719 74.554688 C 121.761719 60.46875 110.402344 49.5625 96.769531 49.5625 C 82.679688 49.5625 71.773438 60.921875 71.773438 74.554688 C 71.773438 90.007812 85.863281 102.277344 101.765625 99.09375 Z M 101.765625 99.09375 " fill-opacity="1" fill-rule="nonzero"/></g><path fill="#f8f6b3" d="M 340.34375 187.253906 L 333.074219 183.621094 C 328.53125 181.800781 327.621094 177.710938 327.621094 177.710938 C 322.621094 171.351562 315.804688 171.351562 315.804688 171.351562 C 307.625 169.988281 301.261719 171.351562 301.261719 171.351562 C 295.355469 169.988281 295.355469 171.804688 295.355469 171.804688 C 289.902344 170.894531 290.355469 176.804688 290.355469 176.804688 C 288.992188 179.984375 293.082031 178.621094 293.082031 178.621094 L 294.445312 179.984375 L 288.085938 186.800781 L 310.804688 200.433594 C 311.261719 200.433594 311.714844 200.433594 311.714844 200.433594 C 313.988281 201.34375 315.351562 199.980469 315.351562 199.980469 C 316.714844 201.796875 318.53125 199.980469 318.53125 199.980469 L 325.804688 203.613281 C 334.4375 206.339844 332.621094 200.433594 332.621094 200.433594 C 338.074219 202.707031 326.710938 193.617188 326.710938 193.617188 L 334.4375 194.070312 C 340.34375 194.527344 339.890625 190.4375 339.890625 190.4375 C 341.253906 188.164062 340.34375 187.253906 340.34375 187.253906 Z M 321.257812 180.894531 C 321.257812 180.894531 324.441406 177.257812 326.257812 181.347656 C 326.257812 181.347656 324.894531 184.527344 321.257812 180.894531 Z M 321.257812 180.894531 " fill-opacity="1" fill-rule="nonzero"/><path fill="#f8f6b3" d="M 144.027344 142.265625 C 154.9375 149.082031 166.296875 154.992188 177.203125 158.625 C 180.382812 159.988281 184.929688 158.625 187.199219 154.992188 L 285.359375 190.4375 C 282.175781 193.617188 259.457031 199.980469 259.457031 199.980469 C 236.734375 194.980469 214.921875 205.433594 214.921875 205.433594 C 208.105469 205.886719 202.652344 199.523438 202.652344 199.523438 C 189.472656 186.347656 179.929688 189.074219 179.929688 189.074219 C 183.566406 190.4375 193.5625 199.980469 193.5625 199.980469 L 208.105469 212.703125 L 208.105469 218.15625 C 204.921875 226.335938 214.464844 242.242188 214.464844 242.242188 C 216.285156 248.605469 208.558594 258.148438 208.558594 258.148438 C 204.921875 260.875 208.105469 265.871094 208.105469 265.871094 L 219.917969 281.324219 C 226.28125 285.414062 235.371094 281.777344 235.371094 281.777344 L 236.28125 281.777344 C 235.824219 278.597656 230.824219 275.871094 230.824219 275.871094 C 219.917969 274.507812 218.101562 264.507812 218.101562 264.507812 L 222.644531 258.601562 C 237.644531 252.695312 239.460938 234.972656 239.460938 234.972656 C 243.097656 237.242188 274.453125 240.878906 274.453125 240.878906 L 281.269531 251.785156 L 276.722656 252.695312 C 262.636719 249.96875 265.363281 260.875 265.363281 260.875 L 285.8125 258.148438 C 293.082031 258.148438 291.71875 249.058594 291.71875 249.058594 L 288.085938 239.0625 L 308.078125 247.695312 L 303.082031 254.058594 C 295.355469 256.328125 298.082031 262.238281 298.082031 262.238281 C 310.351562 264.964844 315.351562 250.875 315.351562 250.875 C 321.257812 242.242188 307.625 235.878906 307.625 235.878906 C 299.898438 231.335938 303.535156 227.699219 303.535156 227.699219 C 310.804688 219.066406 308.988281 215.886719 308.988281 215.886719 C 307.171875 210.429688 307.171875 207.25 308.078125 205.433594 C 269.90625 182.710938 317.167969 210.886719 285.8125 192.253906 L 284.902344 190.4375 L 287.175781 186.800781 L 189.019531 151.355469 C 189.472656 147.265625 187.199219 143.628906 183.109375 142.265625 C 168.570312 137.269531 152.210938 127.269531 137.667969 116.816406 C 138.574219 118.179688 139.03125 120 139.484375 121.816406 Z M 144.027344 142.265625 " fill-opacity="1" fill-rule="nonzero"/></svg>