<svg xmlns="http://www.w3.org/2000/svg" xmlns:xlink="http://www.w3.org/1999/xlink" width="500" zoomAndPan="magnify" viewBox="0 0 375 374.999991" height="500" preserveAspectRatio="xMidYMid meet" version="1.0"><defs><clipPath id="2c54084cc9"><path d="M 37.5 37.5 L 337.5 37.5 L 337.5 337.5 L 37.5 337.5 Z M 37.5 37.5 " clip-rule="nonzero"/></clipPath><clipPath id="889712d6c4"><path d="M 187.5 37.5 C 104.65625 37.5 37.5 104.65625 37.5 187.5 C 37.5 270.34375 104.65625 337.5 187.5 337.5 C 270.34375 337.5 337.5 270.34375 337.5 187.5 C 337.5 104.65625 270.34375 37.5 187.5 37.5 Z M 187.5 37.5 " clip-rule="nonzero"/></clipPath><clipPath id="8242e6b23b"><path d="M 71.472656 65 L 303.222656 65 L 303.222656 298.902344 L 71.472656 298.902344 Z M 71.472656 65 " clip-rule="nonzero"/></clipPath></defs><g clip-path="url(#2c54084cc9)"><g clip-path="url(#889712d6c4)"><path fill="#faf6b3" d="M 37.5 37.5 L 337.5 37.5 L 337.5 337.5 L 37.5 337.5 Z M 37.5 37.5 " fill-opacity="1" fill-rule="nonzero"/></g></g><g clip-path="url(#8242e6b23b)"><path fill="#f8becb" d="M 302.269531 164.636719 L 189.578125 65.988281 C 188.394531 64.902344 186.503906 64.902344 185.320312 65.988281 L 72.722656 164.492188 C 71.871094 165.203125 71.542969 166.289062 71.636719 167.238281 L 72.960938 180.574219 C 73.195312 183.171875 76.414062 184.496094 78.304688 182.699219 L 91.261719 171.398438 C 93.152344 169.742188 96.132812 170.6875 96.605469 173.195312 L 120.390625 282.339844 C 120.863281 284.375 119.304688 286.265625 117.175781 286.265625 L 113.015625 286.265625 C 111.21875 286.265625 109.703125 287.683594 109.703125 289.574219 L 109.703125 295.390625 C 109.703125 297.1875 111.121094 298.703125 113.015625 298.703125 L 261.597656 298.703125 C 263.394531 298.703125 264.910156 297.285156 264.910156 295.390625 L 264.910156 289.574219 C 264.910156 287.777344 263.492188 286.265625 261.597656 286.265625 L 258.855469 286.265625 C 256.726562 286.265625 255.167969 284.230469 255.640625 282.246094 L 282.644531 174.09375 C 283.257812 171.730469 286.09375 170.785156 287.988281 172.4375 L 297.632812 180.621094 C 299.761719 182.417969 302.976562 180.996094 302.976562 178.253906 L 303.355469 167.1875 C 303.449219 166.289062 303.121094 165.34375 302.269531 164.636719 Z M 200.074219 109.402344 C 202.15625 105.238281 205.5625 102.734375 207.6875 103.773438 C 209.816406 104.8125 209.863281 109.070312 207.785156 113.230469 C 205.703125 117.394531 202.296875 119.898438 200.167969 118.859375 C 198.042969 117.820312 197.996094 113.609375 200.074219 109.402344 Z M 189.671875 102.542969 C 190.332031 97.910156 192.792969 94.457031 195.15625 94.789062 C 197.519531 95.121094 198.894531 99.140625 198.230469 103.726562 C 197.570312 108.359375 195.109375 111.8125 192.746094 111.480469 C 190.378906 111.199219 189.007812 107.179688 189.671875 102.542969 Z M 188.820312 113.515625 C 193.550781 113.421875 197.570312 117.25 197.617188 122.121094 C 201.871094 122.640625 205.183594 126.1875 205.277344 130.539062 C 205.371094 135.363281 201.589844 139.335938 196.8125 139.429688 C 193.976562 139.523438 191.421875 138.199219 189.765625 136.074219 C 188.207031 138.246094 185.746094 139.714844 182.910156 139.761719 C 178.179688 139.855469 174.160156 136.023438 174.066406 131.203125 C 174.019531 127.183594 176.621094 123.730469 180.308594 122.640625 C 180.308594 122.546875 180.308594 122.453125 180.261719 122.359375 C 180.214844 117.628906 183.996094 113.65625 188.820312 113.515625 Z M 178.84375 95.734375 C 181.113281 95.074219 184.042969 98.144531 185.320312 102.640625 C 186.597656 107.132812 185.792969 111.292969 183.523438 111.953125 C 181.253906 112.617188 178.320312 109.542969 177.042969 105.050781 C 175.722656 100.558594 176.523438 96.398438 178.84375 95.734375 Z M 166.6875 107.132812 C 168.578125 105.664062 172.410156 107.414062 175.296875 111.054688 C 178.179688 114.699219 179.03125 118.859375 177.140625 120.371094 C 175.246094 121.839844 171.417969 120.089844 168.53125 116.449219 C 165.648438 112.804688 164.796875 108.644531 166.6875 107.132812 Z M 224.996094 262.953125 C 224.996094 267.347656 221.449219 270.941406 217.003906 270.941406 L 161.390625 270.941406 C 156.992188 270.941406 153.398438 267.394531 153.398438 262.953125 L 153.398438 184.96875 C 151.601562 146.476562 223.765625 147.28125 224.949219 184.96875 L 224.949219 262.953125 Z M 224.996094 262.953125 " fill-opacity="1" fill-rule="nonzero"/></g></svg>