<svg xmlns="http://www.w3.org/2000/svg" xmlns:xlink="http://www.w3.org/1999/xlink" width="500" zoomAndPan="magnify" viewBox="0 0 375 374.999991" height="500" preserveAspectRatio="xMidYMid meet" version="1.0"><defs><clipPath id="00c9bb3ce8"><path d="M 37.5 37.5 L 337.5 37.5 L 337.5 337.5 L 37.5 337.5 Z M 37.5 37.5 " clip-rule="nonzero"/></clipPath><clipPath id="d5aab0ed25"><path d="M 187.5 37.5 C 104.65625 37.5 37.5 104.65625 37.5 187.5 C 37.5 270.34375 104.65625 337.5 187.5 337.5 C 270.34375 337.5 337.5 270.34375 337.5 187.5 C 337.5 104.65625 270.34375 37.5 187.5 37.5 Z M 187.5 37.5 " clip-rule="nonzero"/></clipPath><clipPath id="02d8855031"><path d="M 301 62.269531 L 329.160156 62.269531 L 329.160156 91 L 301 91 Z M 301 62.269531 " clip-rule="nonzero"/></clipPath></defs><g clip-path="url(#00c9bb3ce8)"><g clip-path="url(#d5aab0ed25)"><path fill="#9bd2df" d="M 37.5 37.5 L 337.5 37.5 L 337.5 337.5 L 37.5 337.5 Z M 37.5 37.5 " fill-opacity="1" fill-rule="nonzero"/></g></g><path fill="#f59cba" d="M 132.835938 237.796875 L 73.859375 295.367188 C 81.582031 308.707031 69.644531 315.027344 69.644531 315.027344 C 69.644531 315.027344 60.519531 303.792969 52.09375 293.964844 C 47.179688 288.347656 47.179688 280.625 55.605469 272.898438 L 104.75 223.753906 L 139.855469 237.796875 Z M 315.382812 140.203125 C 315.382812 140.203125 300.640625 135.988281 294.320312 145.820312 C 294.320312 145.820312 294.320312 146.519531 294.320312 146.519531 L 229.726562 153.542969 L 232.535156 181.625 L 287.300781 174.605469 C 287.300781 174.605469 296.425781 175.308594 301.339844 167.585938 C 306.257812 159.859375 315.382812 140.203125 315.382812 140.203125 Z M 104.050781 212.519531 C 105.453125 209.007812 103.347656 204.796875 99.835938 203.390625 C 98.433594 202.691406 68.945312 191.457031 68.945312 159.859375 C 68.945312 155.648438 66.136719 152.839844 61.921875 152.839844 C 57.710938 152.839844 54.902344 155.648438 54.902344 159.859375 C 54.902344 201.285156 90.007812 217.433594 92.113281 218.136719 C 92.816406 218.136719 97.027344 217.433594 97.730469 217.433594 C 100.539062 216.730469 103.347656 215.328125 104.050781 212.519531 Z M 217.089844 83.332031 C 217.089844 83.332031 198.132812 68.585938 181.984375 83.332031 C 181.984375 83.332031 196.027344 98.074219 203.046875 111.414062 C 233.9375 96.671875 217.089844 83.332031 217.089844 83.332031 Z M 217.089844 83.332031 " fill-opacity="1" fill-rule="nonzero"/><g clip-path="url(#02d8855031)"><path fill="#000000" d="M 329.425781 76.308594 C 329.425781 77.230469 329.335938 78.144531 329.15625 79.050781 C 328.976562 79.953125 328.710938 80.832031 328.355469 81.683594 C 328.003906 82.535156 327.570312 83.34375 327.058594 84.113281 C 326.546875 84.878906 325.964844 85.585938 325.3125 86.238281 C 324.660156 86.890625 323.953125 87.472656 323.183594 87.984375 C 322.417969 88.496094 321.609375 88.929688 320.757812 89.285156 C 319.90625 89.636719 319.027344 89.902344 318.125 90.082031 C 317.21875 90.261719 316.304688 90.351562 315.382812 90.351562 C 314.460938 90.351562 313.546875 90.261719 312.644531 90.082031 C 311.738281 89.902344 310.863281 89.636719 310.011719 89.285156 C 309.160156 88.929688 308.347656 88.496094 307.582031 87.984375 C 306.816406 87.472656 306.105469 86.890625 305.453125 86.238281 C 304.800781 85.585938 304.21875 84.878906 303.707031 84.113281 C 303.195312 83.34375 302.761719 82.535156 302.410156 81.683594 C 302.058594 80.832031 301.792969 79.953125 301.613281 79.050781 C 301.429688 78.144531 301.339844 77.230469 301.339844 76.308594 C 301.339844 75.386719 301.429688 74.476562 301.613281 73.570312 C 301.792969 72.667969 302.058594 71.789062 302.410156 70.9375 C 302.761719 70.085938 303.195312 69.273438 303.707031 68.507812 C 304.21875 67.742188 304.800781 67.03125 305.453125 66.378906 C 306.105469 65.730469 306.816406 65.148438 307.582031 64.632812 C 308.347656 64.121094 309.160156 63.691406 310.011719 63.335938 C 310.863281 62.984375 311.738281 62.71875 312.644531 62.539062 C 313.546875 62.359375 314.460938 62.269531 315.382812 62.269531 C 316.304688 62.269531 317.21875 62.359375 318.125 62.539062 C 319.027344 62.71875 319.90625 62.984375 320.757812 63.335938 C 321.609375 63.691406 322.417969 64.121094 323.183594 64.632812 C 323.953125 65.148438 324.660156 65.730469 325.3125 66.378906 C 325.964844 67.03125 326.546875 67.742188 327.058594 68.507812 C 327.570312 69.273438 328.003906 70.085938 328.355469 70.9375 C 328.710938 71.789062 328.976562 72.667969 329.15625 73.570312 C 329.335938 74.476562 329.425781 75.386719 329.425781 76.308594 Z M 329.425781 76.308594 " fill-opacity="1" fill-rule="nonzero"/></g><path fill="#f9bfcb" d="M 322.40625 188.648438 C 322.40625 188.648438 306.957031 206.199219 300.640625 213.921875 C 295.023438 219.539062 285.191406 215.328125 285.191406 215.328125 L 236.746094 199.882812 C 232.535156 205.496094 226.214844 211.113281 217.089844 216.730469 C 203.75 225.859375 181.984375 233.582031 160.21875 238.496094 L 132.835938 279.921875 L 118.792969 322.046875 C 131.429688 322.75 132.835938 336.089844 132.835938 336.089844 C 132.835938 336.089844 112.472656 337.496094 104.75 336.089844 C 97.027344 334.6875 87.902344 325.558594 90.710938 315.027344 L 108.964844 254.644531 C 106.859375 250.433594 103.347656 244.816406 97.730469 237.796875 C 78.070312 213.222656 104.75 195.667969 104.75 195.667969 C 104.75 195.667969 172.855469 151.4375 189.003906 139.5 C 199.535156 131.777344 202.34375 119.136719 203.046875 111.414062 C 233.9375 96.671875 217.089844 83.332031 217.089844 83.332031 C 217.089844 83.332031 216.386719 82.628906 215.683594 82.628906 C 219.898438 79.820312 224.8125 77.714844 231.132812 76.308594 C 247.28125 72.097656 247.28125 83.332031 280.277344 83.332031 C 296.425781 83.332031 283.789062 110.714844 266.234375 118.4375 C 254.300781 123.351562 238.152344 134.585938 238.152344 146.519531 C 238.152344 152.136719 243.769531 161.265625 245.171875 173.199219 L 300.640625 189.347656 C 300.640625 189.347656 301.339844 187.945312 302.042969 187.945312 C 313.277344 179.519531 322.40625 188.648438 322.40625 188.648438 Z M 192.515625 95.265625 C 200.238281 88.949219 208.664062 81.925781 215.683594 81.925781 C 214.28125 81.226562 212.875 80.523438 211.472656 79.820312 C 204.449219 76.308594 192.515625 73.5 181.984375 83.332031 C 181.984375 83.332031 170.75 98.074219 176.367188 103.691406 C 179.175781 106.5 185.492188 101.585938 192.515625 95.265625 Z M 192.515625 95.265625 " fill-opacity="1" fill-rule="nonzero"/><path fill="#5d4037" d="M 280.277344 83.332031 C 277.46875 83.332031 275.363281 83.332031 273.257812 83.332031 C 273.257812 83.332031 276.769531 94.566406 285.894531 97.375 C 288.703125 89.648438 288 83.332031 280.277344 83.332031 Z M 280.277344 83.332031 " fill-opacity="1" fill-rule="nonzero"/><path fill="#3e2723" d="M 252.195312 90.351562 C 252.195312 94.566406 249.386719 97.375 245.171875 97.375 C 240.960938 97.375 238.152344 90.351562 238.152344 90.351562 C 238.152344 90.351562 240.960938 83.332031 245.171875 83.332031 C 249.386719 83.332031 252.195312 86.140625 252.195312 90.351562 Z M 252.195312 90.351562 " fill-opacity="1" fill-rule="nonzero"/></svg>