<svg xmlns="http://www.w3.org/2000/svg" xmlns:xlink="http://www.w3.org/1999/xlink" width="500" zoomAndPan="magnify" viewBox="0 0 375 374.999991" height="500" preserveAspectRatio="xMidYMid meet" version="1.0"><defs><clipPath id="33c19bead9"><path d="M 42.183594 42.183594 L 332.816406 42.183594 L 332.816406 332.816406 L 42.183594 332.816406 Z M 42.183594 42.183594 " clip-rule="nonzero"/></clipPath><clipPath id="a44742259d"><path d="M 187.5 42.183594 C 107.242188 42.183594 42.183594 107.242188 42.183594 187.5 C 42.183594 267.757812 107.242188 332.816406 187.5 332.816406 C 267.757812 332.816406 332.816406 267.757812 332.816406 187.5 C 332.816406 107.242188 267.757812 42.183594 187.5 42.183594 Z M 187.5 42.183594 " clip-rule="nonzero"/></clipPath><clipPath id="d1c4f35f89"><path d="M 236 126 L 297 126 L 297 307 L 236 307 Z M 236 126 " clip-rule="nonzero"/></clipPath><clipPath id="e5b24067ce"><path d="M 101.105469 37.5 L 314.609375 70.246094 L 273.675781 337.125 L 60.171875 304.378906 Z M 101.105469 37.5 " clip-rule="nonzero"/></clipPath><clipPath id="e54c740410"><path d="M 101.105469 37.5 L 314.609375 70.246094 L 273.675781 337.125 L 60.171875 304.378906 Z M 101.105469 37.5 " clip-rule="nonzero"/></clipPath><clipPath id="dd91067800"><path d="M 127 97 L 208 97 L 208 126 L 127 126 Z M 127 97 " clip-rule="nonzero"/></clipPath><clipPath id="a97092de99"><path d="M 101.105469 37.5 L 314.609375 70.246094 L 273.675781 337.125 L 60.171875 304.378906 Z M 101.105469 37.5 " clip-rule="nonzero"/></clipPath><clipPath id="b1967b1d3a"><path d="M 101.105469 37.5 L 314.609375 70.246094 L 273.675781 337.125 L 60.171875 304.378906 Z M 101.105469 37.5 " clip-rule="nonzero"/></clipPath><clipPath id="6838ddd487"><path d="M 120 142 L 201 142 L 201 170 L 120 170 Z M 120 142 " clip-rule="nonzero"/></clipPath><clipPath id="ce4082765c"><path d="M 101.105469 37.5 L 314.609375 70.246094 L 273.675781 337.125 L 60.171875 304.378906 Z M 101.105469 37.5 " clip-rule="nonzero"/></clipPath><clipPath id="3ed6b6e8c0"><path d="M 101.105469 37.5 L 314.609375 70.246094 L 273.675781 337.125 L 60.171875 304.378906 Z M 101.105469 37.5 " clip-rule="nonzero"/></clipPath><clipPath id="796c9a3e5b"><path d="M 112 195 L 193 195 L 193 224 L 112 224 Z M 112 195 " clip-rule="nonzero"/></clipPath><clipPath id="0ddd9ade80"><path d="M 101.105469 37.5 L 314.609375 70.246094 L 273.675781 337.125 L 60.171875 304.378906 Z M 101.105469 37.5 " clip-rule="nonzero"/></clipPath><clipPath id="060db36054"><path d="M 101.105469 37.5 L 314.609375 70.246094 L 273.675781 337.125 L 60.171875 304.378906 Z M 101.105469 37.5 " clip-rule="nonzero"/></clipPath><clipPath id="3d75a7be8e"><path d="M 105 240 L 213 240 L 213 272 L 105 272 Z M 105 240 " clip-rule="nonzero"/></clipPath><clipPath id="17be933a58"><path d="M 101.105469 37.5 L 314.609375 70.246094 L 273.675781 337.125 L 60.171875 304.378906 Z M 101.105469 37.5 " clip-rule="nonzero"/></clipPath><clipPath id="a83fb76992"><path d="M 101.105469 37.5 L 314.609375 70.246094 L 273.675781 337.125 L 60.171875 304.378906 Z M 101.105469 37.5 " clip-rule="nonzero"/></clipPath><clipPath id="10cd23af92"><path d="M 61 38 L 306 38 L 306 334 L 61 334 Z M 61 38 " clip-rule="nonzero"/></clipPath><clipPath id="b40a2d2c3f"><path d="M 101.105469 37.5 L 314.609375 70.246094 L 273.675781 337.125 L 60.171875 304.378906 Z M 101.105469 37.5 " clip-rule="nonzero"/></clipPath><clipPath id="3daa61185f"><path d="M 101.105469 37.5 L 314.609375 70.246094 L 273.675781 337.125 L 60.171875 304.378906 Z M 101.105469 37.5 " clip-rule="nonzero"/></clipPath></defs><g clip-path="url(#33c19bead9)"><g clip-path="url(#a44742259d)"><path fill="#f9bfcb" d="M 42.183594 42.183594 L 332.816406 42.183594 L 332.816406 332.816406 L 42.183594 332.816406 Z M 42.183594 42.183594 " fill-opacity="1" fill-rule="nonzero"/></g></g><g clip-path="url(#d1c4f35f89)"><g clip-path="url(#e5b24067ce)"><g clip-path="url(#e54c740410)"><path fill="#f8becb" d="M 260.683594 126.398438 L 236.65625 283.074219 L 251.269531 306.671875 L 272.28125 288.535156 L 296.3125 131.863281 Z M 260.683594 126.398438 " fill-opacity="1" fill-rule="nonzero"/></g></g></g><g clip-path="url(#dd91067800)"><g clip-path="url(#a97092de99)"><g clip-path="url(#b1967b1d3a)"><path fill="#f59cbb" d="M 134.714844 115.585938 L 197.0625 125.148438 C 208.523438 126.90625 211.277344 109.09375 199.792969 107.335938 L 137.445312 97.773438 C 125.984375 96.011719 123.234375 113.824219 134.714844 115.585938 Z M 134.714844 115.585938 " fill-opacity="1" fill-rule="nonzero"/></g></g></g><g clip-path="url(#6838ddd487)"><g clip-path="url(#ce4082765c)"><g clip-path="url(#3ed6b6e8c0)"><path fill="#f59cbb" d="M 127.882812 160.121094 L 190.230469 169.683594 C 201.695312 171.441406 204.445312 153.628906 192.964844 151.867188 L 130.617188 142.304688 C 119.152344 140.546875 116.402344 158.359375 127.882812 160.121094 Z M 127.882812 160.121094 " fill-opacity="1" fill-rule="nonzero"/></g></g></g><g clip-path="url(#796c9a3e5b)"><g clip-path="url(#0ddd9ade80)"><g clip-path="url(#060db36054)"><path fill="#f59cbb" d="M 119.6875 213.558594 L 182.035156 223.121094 C 193.5 224.878906 196.25 207.070312 184.769531 205.308594 L 122.421875 195.746094 C 110.957031 193.988281 108.207031 211.800781 119.6875 213.558594 Z M 119.6875 213.558594 " fill-opacity="1" fill-rule="nonzero"/></g></g></g><g clip-path="url(#3d75a7be8e)"><g clip-path="url(#17be933a58)"><g clip-path="url(#a83fb76992)"><path fill="#f59cbb" d="M 204.65625 253.941406 L 115.589844 240.28125 C 104.125 238.523438 101.375 256.332031 112.859375 258.09375 L 201.925781 271.753906 C 213.386719 273.511719 216.140625 255.703125 204.65625 253.941406 Z M 204.65625 253.941406 " fill-opacity="1" fill-rule="nonzero"/></g></g></g><g clip-path="url(#10cd23af92)"><g clip-path="url(#b40a2d2c3f)"><g clip-path="url(#3daa61185f)"><path fill="#f59cbb" d="M 297.679688 122.953125 L 299.503906 111.046875 C 300.484375 104.667969 297.644531 98.621094 292.777344 95.476562 L 295.691406 76.460938 C 296.449219 71.539062 293.070312 66.941406 288.152344 66.1875 L 110.015625 38.867188 C 105.097656 38.113281 100.5 41.484375 99.742188 46.40625 L 61.492188 295.796875 C 60.738281 300.71875 64.113281 305.316406 69.035156 306.070312 L 247.167969 333.390625 C 252.089844 334.144531 256.6875 330.773438 257.441406 325.851562 L 259.671875 311.324219 L 278.171875 295.359375 C 279.792969 293.953125 280.863281 292.027344 281.1875 289.902344 L 305.21875 133.226562 C 305.972656 128.300781 302.597656 123.707031 297.679688 122.953125 Z M 246.789062 282.320312 C 250.933594 280.527344 257.105469 279.519531 262.898438 284.730469 L 253.371094 292.953125 Z M 248.808594 263.273438 L 268.316406 136.078125 L 286.128906 138.808594 L 266.660156 265.753906 C 260.710938 263.019531 254.535156 262.449219 248.808594 263.273438 Z M 80.671875 289.621094 L 116.191406 58.046875 L 276.511719 82.636719 L 274.964844 92.730469 C 269.355469 94.253906 264.8125 99.179688 263.828125 105.574219 L 262.09375 116.890625 L 248.78125 114.847656 C 236.503906 112.964844 224.984375 121.417969 223.101562 133.699219 L 214.179688 191.847656 C 212.421875 203.308594 230.234375 206.058594 231.996094 194.578125 L 240.914062 136.433594 C 241.289062 133.980469 243.59375 132.285156 246.050781 132.660156 L 250.503906 133.34375 L 227.746094 281.707031 C 227.421875 283.828125 227.867188 285.988281 228.992188 287.816406 L 241.855469 308.59375 L 240.996094 314.210938 Z M 80.671875 289.621094 " fill-opacity="1" fill-rule="nonzero"/></g></g></g></svg>