<svg xmlns="http://www.w3.org/2000/svg" xmlns:xlink="http://www.w3.org/1999/xlink" width="500" zoomAndPan="magnify" viewBox="0 0 375 374.999991" height="500" preserveAspectRatio="xMidYMid meet" version="1.0"><defs><clipPath id="c9faa82bd0"><path d="M 37.5 37.5 L 337.5 37.5 L 337.5 337.5 L 37.5 337.5 Z M 37.5 37.5 " clip-rule="nonzero"/></clipPath><clipPath id="96228f2817"><path d="M 187.5 37.5 C 104.65625 37.5 37.5 104.65625 37.5 187.5 C 37.5 270.34375 104.65625 337.5 187.5 337.5 C 270.34375 337.5 337.5 270.34375 337.5 187.5 C 337.5 104.65625 270.34375 37.5 187.5 37.5 Z M 187.5 37.5 " clip-rule="nonzero"/></clipPath><clipPath id="d724806b2e"><path d="M 73 115 L 302 115 L 302 261 L 73 261 Z M 73 115 " clip-rule="nonzero"/></clipPath><clipPath id="f0bc03ba70"><path d="M 84.300781 108.605469 L 308.621094 139.953125 L 290.765625 267.710938 L 66.445312 236.363281 Z M 84.300781 108.605469 " clip-rule="nonzero"/></clipPath><clipPath id="3100fff26f"><path d="M 84.300781 108.605469 L 308.621094 139.953125 L 290.765625 267.710938 L 66.445312 236.363281 Z M 84.300781 108.605469 " clip-rule="nonzero"/></clipPath></defs><g clip-path="url(#c9faa82bd0)"><g clip-path="url(#96228f2817)"><path fill="#9bd2df" d="M 37.5 37.5 L 337.5 37.5 L 337.5 337.5 L 37.5 337.5 Z M 37.5 37.5 " fill-opacity="1" fill-rule="nonzero"/></g></g><g clip-path="url(#d724806b2e)"><g clip-path="url(#f0bc03ba70)"><g clip-path="url(#3100fff26f)"><path fill="#faf6b3" d="M 284.285156 201.703125 C 285.332031 201.085938 286.347656 200.414062 287.324219 199.6875 C 288.304688 198.964844 289.242188 198.1875 290.140625 197.367188 C 291.039062 196.542969 291.890625 195.675781 292.699219 194.765625 C 293.503906 193.851562 294.261719 192.902344 294.96875 191.910156 C 295.675781 190.917969 296.332031 189.890625 296.929688 188.832031 C 297.53125 187.773438 298.074219 186.683594 298.5625 185.570312 C 299.046875 184.453125 299.476562 183.3125 299.84375 182.152344 C 300.210938 180.992188 300.515625 179.8125 300.761719 178.621094 C 301.003906 177.429688 301.1875 176.226562 301.304688 175.011719 C 301.421875 173.800781 301.476562 172.585938 301.46875 171.367188 C 301.460938 170.152344 301.390625 168.9375 301.253906 167.726562 C 301.117188 166.515625 300.921875 165.316406 300.660156 164.125 C 300.398438 162.9375 300.078125 161.765625 299.691406 160.609375 C 299.308594 159.453125 298.867188 158.320312 298.363281 157.210938 C 297.863281 156.101562 297.304688 155.019531 296.6875 153.96875 C 296.074219 152.917969 295.40625 151.902344 294.683594 150.921875 C 293.964844 149.9375 293.195312 149 292.375 148.097656 C 291.554688 147.195312 290.691406 146.339844 289.78125 145.53125 C 288.871094 144.71875 287.921875 143.960938 286.933594 143.25 C 285.945312 142.535156 284.921875 141.878906 283.867188 141.273438 C 282.808594 140.671875 281.722656 140.125 280.609375 139.632812 C 279.492188 139.140625 278.355469 138.710938 277.195312 138.339844 C 276.035156 137.96875 274.859375 137.65625 273.667969 137.410156 C 272.476562 137.160156 271.273438 136.972656 270.0625 136.851562 C 268.851562 136.726562 267.636719 136.667969 266.417969 136.671875 C 265.199219 136.675781 263.984375 136.742188 262.773438 136.875 C 261.566406 137.003906 260.363281 137.199219 259.171875 137.457031 C 257.984375 137.710938 256.808594 138.03125 255.652344 138.410156 C 254.496094 138.789062 253.359375 139.226562 252.25 139.726562 C 251.136719 140.222656 250.054688 140.777344 249 141.386719 C 247.949219 142 246.929688 142.664062 245.945312 143.382812 C 244.960938 144.097656 244.015625 144.867188 243.113281 145.683594 C 242.246094 146.464844 241.304688 147.144531 240.289062 147.722656 C 239.273438 148.300781 238.207031 148.761719 237.089844 149.101562 C 235.972656 149.445312 234.832031 149.664062 233.664062 149.757812 C 232.5 149.851562 231.339844 149.816406 230.183594 149.65625 L 156.820312 139.402344 C 155.699219 139.246094 154.605469 138.972656 153.542969 138.578125 C 152.480469 138.179688 151.476562 137.671875 150.527344 137.054688 C 149.574219 136.4375 148.703125 135.722656 147.914062 134.914062 C 147.121094 134.101562 146.425781 133.214844 145.828125 132.25 C 145.1875 131.214844 144.496094 130.210938 143.75 129.246094 C 143.003906 128.277344 142.210938 127.355469 141.371094 126.46875 C 140.527344 125.585938 139.640625 124.75 138.710938 123.960938 C 137.78125 123.171875 136.8125 122.429688 135.808594 121.742188 C 134.800781 121.054688 133.757812 120.417969 132.6875 119.839844 C 131.613281 119.257812 130.511719 118.738281 129.382812 118.273438 C 128.253906 117.808594 127.105469 117.402344 125.933594 117.058594 C 124.765625 116.714844 123.578125 116.433594 122.378906 116.214844 C 121.179688 115.992188 119.96875 115.835938 118.753906 115.742188 C 117.535156 115.652344 116.316406 115.621094 115.097656 115.65625 C 113.878906 115.691406 112.664062 115.789062 111.453125 115.949219 C 110.246094 116.109375 109.046875 116.335938 107.863281 116.621094 C 106.675781 116.910156 105.507812 117.257812 104.359375 117.667969 C 103.207031 118.074219 102.085938 118.542969 100.984375 119.070312 C 99.882812 119.597656 98.8125 120.183594 97.773438 120.820312 C 96.734375 121.460938 95.730469 122.152344 94.765625 122.898438 C 93.796875 123.640625 92.871094 124.433594 91.988281 125.273438 C 91.105469 126.117188 90.265625 127 89.476562 127.929688 C 88.683594 128.859375 87.945312 129.828125 87.253906 130.832031 C 86.566406 131.839844 85.929688 132.878906 85.347656 133.953125 C 84.769531 135.027344 84.246094 136.125 83.78125 137.253906 C 83.316406 138.382812 82.910156 139.53125 82.5625 140.703125 C 82.21875 141.871094 81.9375 143.058594 81.714844 144.257812 C 81.496094 145.457031 81.335938 146.664062 81.242188 147.882812 C 81.148438 149.097656 81.117188 150.316406 81.152344 151.535156 C 81.183594 152.757812 81.28125 153.972656 81.441406 155.179688 C 81.601562 156.390625 81.824219 157.589844 82.109375 158.773438 C 82.398438 159.960938 82.742188 161.128906 83.152344 162.277344 C 83.558594 163.429688 84.027344 164.554688 84.554688 165.65625 C 85.082031 166.753906 85.664062 167.824219 86.300781 168.867188 C 86.9375 169.90625 87.628906 170.910156 88.375 171.875 C 89.117188 172.84375 89.910156 173.769531 90.75 174.65625 C 89.667969 175.289062 88.625 175.980469 87.621094 176.730469 C 86.613281 177.476562 85.652344 178.273438 84.730469 179.125 C 83.8125 179.976562 82.941406 180.875 82.117188 181.820312 C 81.292969 182.761719 80.523438 183.75 79.808594 184.777344 C 79.089844 185.804688 78.429688 186.867188 77.828125 187.964844 C 77.222656 189.066406 76.683594 190.191406 76.199219 191.347656 C 75.71875 192.507812 75.300781 193.683594 74.945312 194.886719 C 74.59375 196.089844 74.304688 197.304688 74.078125 198.539062 C 73.855469 199.773438 73.699219 201.011719 73.609375 202.261719 C 73.519531 203.511719 73.496094 204.765625 73.539062 206.015625 C 73.585938 207.269531 73.695312 208.515625 73.875 209.753906 C 74.054688 210.996094 74.300781 212.222656 74.609375 213.4375 C 74.921875 214.648438 75.296875 215.84375 75.734375 217.015625 C 76.171875 218.191406 76.675781 219.335938 77.238281 220.457031 C 77.800781 221.578125 78.417969 222.664062 79.097656 223.714844 C 79.777344 224.769531 80.511719 225.78125 81.300781 226.757812 C 82.089844 227.730469 82.925781 228.660156 83.816406 229.542969 C 84.703125 230.425781 85.636719 231.261719 86.613281 232.042969 C 87.59375 232.828125 88.609375 233.554688 89.667969 234.230469 C 90.722656 234.902344 91.8125 235.519531 92.933594 236.074219 C 94.058594 236.632812 95.207031 237.125 96.382812 237.558594 C 97.558594 237.992188 98.753906 238.363281 99.96875 238.664062 C 101.183594 238.96875 102.414062 239.207031 103.652344 239.382812 C 104.894531 239.554688 106.140625 239.660156 107.394531 239.695312 C 108.648438 239.734375 109.898438 239.707031 111.148438 239.609375 C 112.394531 239.511719 113.636719 239.347656 114.867188 239.121094 C 116.101562 238.890625 117.316406 238.59375 118.515625 238.234375 C 119.714844 237.871094 120.894531 237.449219 122.046875 236.960938 C 123.203125 236.472656 124.328125 235.925781 125.421875 235.316406 C 126.515625 234.710938 127.578125 234.042969 128.601562 233.320312 C 129.625 232.597656 130.605469 231.824219 131.546875 230.996094 C 132.488281 230.167969 133.382812 229.292969 134.226562 228.367188 C 134.917969 227.621094 135.6875 226.964844 136.535156 226.402344 C 137.386719 225.84375 138.289062 225.390625 139.25 225.046875 C 140.207031 224.707031 141.195312 224.484375 142.207031 224.382812 C 143.21875 224.277344 144.230469 224.296875 145.238281 224.441406 L 217.25 234.503906 C 218.378906 234.65625 219.476562 234.9375 220.539062 235.347656 C 221.601562 235.761719 222.601562 236.289062 223.539062 236.941406 C 224.472656 237.589844 225.320312 238.339844 226.078125 239.191406 C 226.835938 240.042969 227.484375 240.972656 228.023438 241.976562 C 228.597656 243.082031 229.234375 244.152344 229.925781 245.191406 C 230.617188 246.226562 231.359375 247.226562 232.160156 248.183594 C 232.957031 249.140625 233.804688 250.054688 234.699219 250.921875 C 235.597656 251.789062 236.535156 252.605469 237.519531 253.371094 C 238.5 254.136719 239.523438 254.851562 240.582031 255.507812 C 241.640625 256.164062 242.734375 256.761719 243.859375 257.304688 C 244.980469 257.84375 246.128906 258.324219 247.304688 258.738281 C 248.480469 259.15625 249.675781 259.511719 250.886719 259.800781 C 252.097656 260.089844 253.324219 260.3125 254.5625 260.472656 C 255.796875 260.628906 257.039062 260.722656 258.285156 260.746094 C 259.53125 260.773438 260.777344 260.730469 262.019531 260.625 C 263.261719 260.515625 264.492188 260.34375 265.71875 260.105469 C 266.941406 259.863281 268.148438 259.558594 269.339844 259.191406 C 270.53125 258.820312 271.699219 258.390625 272.84375 257.894531 C 273.988281 257.402344 275.101562 256.847656 276.1875 256.234375 C 277.273438 255.621094 278.324219 254.953125 279.335938 254.226562 C 280.351562 253.5 281.324219 252.722656 282.253906 251.894531 C 283.183594 251.0625 284.066406 250.1875 284.902344 249.261719 C 285.742188 248.339844 286.527344 247.371094 287.257812 246.363281 C 287.992188 245.355469 288.667969 244.308594 289.289062 243.230469 C 289.910156 242.148438 290.472656 241.039062 290.976562 239.894531 C 291.480469 238.753906 291.917969 237.589844 292.296875 236.402344 C 292.675781 235.214844 292.988281 234.007812 293.238281 232.789062 C 293.484375 231.566406 293.667969 230.335938 293.785156 229.09375 C 293.902344 227.851562 293.953125 226.609375 293.9375 225.359375 C 293.917969 224.113281 293.835938 222.871094 293.6875 221.632812 C 293.539062 220.398438 293.324219 219.171875 293.042969 217.957031 C 292.761719 216.742188 292.417969 215.542969 292.007812 214.367188 C 291.601562 213.1875 291.128906 212.035156 290.597656 210.90625 C 290.066406 209.78125 289.476562 208.683594 288.828125 207.621094 C 288.175781 206.554688 287.472656 205.527344 286.714844 204.539062 C 285.953125 203.550781 285.144531 202.605469 284.285156 201.703125 Z M 284.285156 201.703125 " fill-opacity="1" fill-rule="nonzero"/></g></g></g></svg>