<svg xmlns="http://www.w3.org/2000/svg" xmlns:xlink="http://www.w3.org/1999/xlink" width="500" zoomAndPan="magnify" viewBox="0 0 375 374.999991" height="500" preserveAspectRatio="xMidYMid meet" version="1.0"><defs><clipPath id="ea3aa1e56c"><path d="M 43.511719 43.511719 L 331.488281 43.511719 L 331.488281 331.488281 L 43.511719 331.488281 Z M 43.511719 43.511719 " clip-rule="nonzero"/></clipPath><clipPath id="c127527ff3"><path d="M 187.5 43.511719 C 107.976562 43.511719 43.511719 107.976562 43.511719 187.5 C 43.511719 267.023438 107.976562 331.488281 187.5 331.488281 C 267.023438 331.488281 331.488281 267.023438 331.488281 187.5 C 331.488281 107.976562 267.023438 43.511719 187.5 43.511719 Z M 187.5 43.511719 " clip-rule="nonzero"/></clipPath><clipPath id="c624587aa4"><path d="M 176 86.355469 L 226 86.355469 L 226 162 L 176 162 Z M 176 86.355469 " clip-rule="nonzero"/></clipPath><clipPath id="73d2c8acd6"><path d="M 240 124 L 286.785156 124 L 286.785156 185 L 240 185 Z M 240 124 " clip-rule="nonzero"/></clipPath></defs><g clip-path="url(#ea3aa1e56c)"><g clip-path="url(#c127527ff3)"><path fill="#f59cbb" d="M 43.511719 43.511719 L 331.488281 43.511719 L 331.488281 331.488281 L 43.511719 331.488281 Z M 43.511719 43.511719 " fill-opacity="1" fill-rule="nonzero"/></g></g><path fill="#faf6b3" d="M 175.265625 177.03125 C 192.386719 168.230469 213.558594 169.011719 231.085938 176.980469 C 248.609375 184.949219 262.621094 199.523438 272.121094 216.269531 C 275.324219 221.910156 278.121094 228.140625 277.726562 234.613281 C 277.363281 240.507812 274.265625 246.078125 269.796875 249.9375 C 265.328125 253.800781 259.578125 256.023438 253.71875 256.753906 C 248.851562 257.363281 243.554688 256.863281 239.6875 253.847656 C 233.378906 248.925781 225.746094 244.667969 217.804688 245.636719 C 213.480469 246.160156 209.460938 248.21875 205.972656 250.828125 C 199.550781 255.632812 194.644531 262.441406 192.121094 270.058594 C 191.417969 272.1875 190.882812 274.398438 189.785156 276.351562 C 188.425781 278.777344 186.261719 280.679688 183.867188 282.089844 C 176.097656 286.660156 165.894531 286.074219 158.046875 281.636719 C 150.199219 277.199219 144.636719 269.339844 141.816406 260.777344 C 139 252.214844 138.734375 242.984375 139.738281 234.027344 C 142.328125 210.847656 154.519531 187.691406 175.265625 177.03125 Z M 175.265625 177.03125 " fill-opacity="1" fill-rule="nonzero"/><path fill="#faf6b3" d="M 155.902344 175.425781 C 151.246094 178.453125 145.238281 178.953125 139.863281 177.558594 C 134.492188 176.160156 129.703125 173.019531 125.609375 169.269531 C 115.945312 160.414062 109.785156 147.835938 108.703125 134.773438 C 108.339844 130.339844 108.546875 125.804688 109.898438 121.566406 C 111.246094 117.328125 113.808594 113.390625 117.488281 110.890625 C 122.167969 107.714844 128.300781 107.128906 133.78125 108.527344 C 139.261719 109.921875 144.140625 113.132812 148.292969 116.972656 C 157.800781 125.761719 163.882812 138.164062 165.011719 151.0625 C 165.410156 155.605469 165.207031 160.253906 163.804688 164.59375 C 162.402344 168.929688 159.722656 172.945312 155.902344 175.425781 Z M 155.902344 175.425781 " fill-opacity="1" fill-rule="nonzero"/><g clip-path="url(#c624587aa4)"><path fill="#faf6b3" d="M 199.878906 86.515625 C 204.429688 86.351562 208.914062 88.175781 212.460938 91.03125 C 216.003906 93.886719 218.667969 97.714844 220.683594 101.796875 C 224.816406 110.164062 226.351562 119.703125 225.6875 129.011719 C 225.160156 136.414062 223.230469 143.804688 219.320312 150.109375 C 215.6875 155.972656 209.871094 161.003906 202.996094 161.566406 C 197.914062 161.984375 192.828125 159.871094 188.976562 156.527344 C 185.125 153.1875 182.40625 148.703125 180.425781 144.003906 C 175.222656 131.65625 174.925781 117.320312 179.605469 104.765625 C 181.292969 100.246094 183.644531 95.894531 187.0625 92.488281 C 190.480469 89.085938 195.058594 86.6875 199.878906 86.515625 Z M 199.878906 86.515625 " fill-opacity="1" fill-rule="nonzero"/></g><g clip-path="url(#73d2c8acd6)"><path fill="#faf6b3" d="M 276.847656 174.300781 C 273.703125 178.132812 269.789062 181.453125 265.152344 183.214844 C 260.519531 184.972656 255.109375 185.03125 250.738281 182.691406 C 248.960938 181.742188 247.390625 180.425781 246.070312 178.898438 C 242.238281 174.460938 240.664062 168.441406 240.449219 162.582031 C 240.074219 152.460938 243.527344 142.242188 249.964844 134.425781 C 252.925781 130.835938 256.550781 127.699219 260.839844 125.898438 C 265.128906 124.09375 270.125 123.714844 274.4375 125.464844 C 278.339844 127.046875 281.445312 130.269531 283.375 134.011719 C 285.304688 137.757812 286.125 141.996094 286.285156 146.203125 C 286.671875 156.292969 283.246094 166.488281 276.847656 174.300781 Z M 276.847656 174.300781 " fill-opacity="1" fill-rule="nonzero"/></g><path fill="#faf6b3" d="M 103.835938 230.832031 C 95.8125 227.765625 88.960938 221.746094 84.878906 214.1875 C 81.078125 207.144531 79.777344 198.328125 83.273438 191.128906 C 84.109375 189.414062 85.199219 187.820312 86.496094 186.417969 C 89.941406 182.691406 94.816406 180.417969 99.847656 179.753906 C 104.878906 179.089844 110.050781 179.972656 114.753906 181.878906 C 120.585938 184.242188 125.753906 188.167969 129.726562 193.050781 C 133.40625 197.582031 136.097656 203.027344 136.789062 208.828125 C 137.480469 214.625 136.050781 220.769531 132.347656 225.285156 C 129.070312 229.285156 124.175781 231.8125 119.070312 232.644531 C 113.964844 233.472656 108.667969 232.679688 103.835938 230.832031 Z M 103.835938 230.832031 " fill-opacity="1" fill-rule="nonzero"/></svg>