<svg xmlns="http://www.w3.org/2000/svg" xmlns:xlink="http://www.w3.org/1999/xlink" width="500" zoomAndPan="magnify" viewBox="0 0 375 374.999991" height="500" preserveAspectRatio="xMidYMid meet" version="1.0"><defs><clipPath id="7e38418dbe"><path d="M 38.941406 38.941406 L 336.058594 38.941406 L 336.058594 336.058594 L 38.941406 336.058594 Z M 38.941406 38.941406 " clip-rule="nonzero"/></clipPath><clipPath id="3f3a9783a8"><path d="M 187.5 38.941406 C 105.453125 38.941406 38.941406 105.453125 38.941406 187.5 C 38.941406 269.546875 105.453125 336.058594 187.5 336.058594 C 269.546875 336.058594 336.058594 269.546875 336.058594 187.5 C 336.058594 105.453125 269.546875 38.941406 187.5 38.941406 Z M 187.5 38.941406 " clip-rule="nonzero"/></clipPath><clipPath id="a82ddba5d5"><path d="M 94.546875 94.546875 L 283.546875 94.546875 L 283.546875 283.546875 L 94.546875 283.546875 Z M 94.546875 94.546875 " clip-rule="nonzero"/></clipPath></defs><g clip-path="url(#7e38418dbe)"><g clip-path="url(#3f3a9783a8)"><path fill="#9bd2e0" d="M 38.941406 38.941406 L 336.058594 38.941406 L 336.058594 336.058594 L 38.941406 336.058594 Z M 38.941406 38.941406 " fill-opacity="1" fill-rule="nonzero"/></g></g><g clip-path="url(#a82ddba5d5)"><path fill="#faf6b3" d="M 189.03125 94.546875 C 136.800781 94.546875 94.546875 136.847656 94.546875 189.078125 C 94.546875 241.304688 136.800781 283.605469 189.03125 283.605469 C 241.257812 283.605469 283.605469 241.304688 283.605469 189.078125 C 283.605469 136.847656 241.257812 94.546875 189.03125 94.546875 Z M 189.078125 264.699219 C 147.296875 264.699219 113.453125 230.859375 113.453125 189.078125 C 113.453125 147.296875 147.296875 113.453125 189.078125 113.453125 C 230.859375 113.453125 264.699219 147.296875 264.699219 189.078125 C 264.699219 230.859375 230.859375 264.699219 189.078125 264.699219 Z M 189.078125 264.699219 " fill-opacity="1" fill-rule="nonzero"/></g><path fill="#faf6b3" d="M 193.804688 141.8125 L 179.625 141.8125 L 179.625 198.53125 L 229.203125 228.304688 L 236.339844 216.679688 L 193.804688 191.441406 Z M 193.804688 141.8125 " fill-opacity="1" fill-rule="nonzero"/></svg>