<svg xmlns="http://www.w3.org/2000/svg" xmlns:xlink="http://www.w3.org/1999/xlink" width="500" zoomAndPan="magnify" viewBox="0 0 375 374.999991" height="500" preserveAspectRatio="xMidYMid meet" version="1.0"><defs><clipPath id="5e052335d9"><path d="M 29.789062 29.789062 L 345.210938 29.789062 L 345.210938 345.210938 L 29.789062 345.210938 Z M 29.789062 29.789062 " clip-rule="nonzero"/></clipPath><clipPath id="c798db3a4d"><path d="M 187.5 29.789062 C 100.398438 29.789062 29.789062 100.398438 29.789062 187.5 C 29.789062 274.601562 100.398438 345.210938 187.5 345.210938 C 274.601562 345.210938 345.210938 274.601562 345.210938 187.5 C 345.210938 100.398438 274.601562 29.789062 187.5 29.789062 Z M 187.5 29.789062 " clip-rule="nonzero"/></clipPath><clipPath id="eb7b6e0195"><path d="M 76.398438 89.730469 L 250 89.730469 L 250 251 L 76.398438 251 Z M 76.398438 89.730469 " clip-rule="nonzero"/></clipPath><clipPath id="1b177422a4"><path d="M 145 124 L 298.398438 124 L 298.398438 285 L 145 285 Z M 145 124 " clip-rule="nonzero"/></clipPath></defs><g clip-path="url(#5e052335d9)"><g clip-path="url(#c798db3a4d)"><path fill="#f8f5b3" d="M 29.789062 29.789062 L 345.210938 29.789062 L 345.210938 345.210938 L 29.789062 345.210938 Z M 29.789062 29.789062 " fill-opacity="1" fill-rule="nonzero"/></g></g><g clip-path="url(#eb7b6e0195)"><path fill="#9bd2e0" d="M 249.902344 147 C 249.902344 115.441406 224.25 89.769531 192.722656 89.769531 L 133.578125 89.769531 C 102.050781 89.769531 76.398438 115.441406 76.398438 147 L 76.398438 162.628906 C 76.398438 187.246094 92.039062 209.039062 115.320312 216.855469 L 117.605469 217.621094 L 116.398438 219.710938 C 113.292969 225.074219 109.074219 233.492188 103.503906 245.453125 C 102.835938 246.886719 103.136719 248.605469 104.25 249.730469 C 105.359375 250.839844 107.125 251.148438 108.511719 250.507812 L 175.507812 219.859375 L 192.722656 219.859375 C 224.25 219.859375 249.902344 194.1875 249.902344 162.628906 Z M 242.3125 162.628906 C 242.3125 190.003906 220.066406 212.273438 192.722656 212.273438 L 174.679688 212.273438 C 174.140625 212.273438 173.59375 212.394531 173.101562 212.617188 L 114.832031 239.273438 L 117.355469 234.261719 C 119.660156 229.679688 123.824219 221.609375 125.828125 218.996094 L 126.054688 218.699219 L 126.371094 218.507812 C 127.367188 217.902344 128.019531 216.898438 128.167969 215.746094 C 128.425781 213.730469 127.0625 211.875 125.0625 211.523438 C 101.261719 207.355469 83.984375 186.792969 83.984375 162.628906 L 83.984375 147 C 83.984375 119.628906 106.230469 97.355469 133.574219 97.355469 L 192.722656 97.355469 C 220.066406 97.355469 242.3125 119.625 242.3125 147 Z M 242.3125 162.628906 " fill-opacity="1" fill-rule="nonzero"/></g><path fill="#9bd2e0" d="M 118.457031 145.355469 C 112.511719 145.355469 107.679688 150.1875 107.679688 156.128906 C 107.679688 162.074219 112.515625 166.910156 118.457031 166.910156 C 124.398438 166.910156 129.234375 162.074219 129.234375 156.128906 C 129.234375 150.1875 124.398438 145.355469 118.457031 145.355469 Z M 118.457031 145.355469 " fill-opacity="1" fill-rule="nonzero"/><path fill="#9bd2e0" d="M 207.84375 145.355469 C 201.902344 145.355469 197.066406 150.1875 197.066406 156.128906 C 197.066406 162.074219 201.902344 166.910156 207.84375 166.910156 C 213.785156 166.910156 218.621094 162.074219 218.621094 156.128906 C 218.621094 150.1875 213.785156 145.355469 207.84375 145.355469 Z M 207.84375 145.355469 " fill-opacity="1" fill-rule="nonzero"/><path fill="#9bd2e0" d="M 163.148438 145.355469 C 157.207031 145.355469 152.371094 150.1875 152.371094 156.128906 C 152.371094 162.074219 157.207031 166.910156 163.148438 166.910156 C 169.09375 166.910156 173.925781 162.074219 173.925781 156.128906 C 173.925781 150.1875 169.09375 145.355469 163.148438 145.355469 Z M 163.148438 145.355469 " fill-opacity="1" fill-rule="nonzero"/><g clip-path="url(#1b177422a4)"><path fill="#9bd2e0" d="M 153.246094 236.832031 L 145.4375 240.402344 C 155.394531 248.835938 168.234375 253.960938 182.273438 253.960938 L 199.488281 253.960938 L 266.484375 284.605469 C 267.871094 285.25 269.636719 284.9375 270.746094 283.828125 C 271.859375 282.707031 272.160156 280.988281 271.488281 279.554688 C 265.921875 267.59375 261.703125 259.171875 258.597656 253.8125 L 257.386719 251.722656 L 259.675781 250.953125 C 282.957031 243.136719 298.597656 221.347656 298.597656 196.730469 L 298.597656 181.101562 C 298.597656 153.210938 278.539062 129.980469 252.117188 124.945312 C 253.128906 127.667969 253.949219 130.476562 254.582031 133.359375 C 254.597656 133.363281 254.609375 133.371094 254.625 133.371094 C 254.609375 133.367188 254.59375 133.363281 254.578125 133.359375 C 255.539062 137.753906 256.082031 142.320312 256.082031 147.011719 L 256.082031 162.640625 C 256.082031 197.597656 227.664062 226.039062 192.730469 226.039062 L 176.855469 226.039062 M 246.824219 249.84375 L 246.824219 249.839844 " fill-opacity="1" fill-rule="nonzero"/></g></svg>