<svg xmlns="http://www.w3.org/2000/svg" xmlns:xlink="http://www.w3.org/1999/xlink" width="500" zoomAndPan="magnify" viewBox="0 0 375 374.999991" height="500" preserveAspectRatio="xMidYMid meet" version="1.0"><defs><clipPath id="c7234ad6e3"><path d="M 36.648438 36.648438 L 338.351562 36.648438 L 338.351562 338.351562 L 36.648438 338.351562 Z M 36.648438 36.648438 " clip-rule="nonzero"/></clipPath><clipPath id="9d1fa7fcd2"><path d="M 187.5 36.648438 C 104.1875 36.648438 36.648438 104.1875 36.648438 187.5 C 36.648438 270.8125 104.1875 338.351562 187.5 338.351562 C 270.8125 338.351562 338.351562 270.8125 338.351562 187.5 C 338.351562 104.1875 270.8125 36.648438 187.5 36.648438 Z M 187.5 36.648438 " clip-rule="nonzero"/></clipPath><clipPath id="d35e629ee3"><path d="M 88 77.460938 L 297.480469 77.460938 L 297.480469 280 L 88 280 Z M 88 77.460938 " clip-rule="nonzero"/></clipPath><clipPath id="8610af40fc"><path d="M 65.75 153.839844 L 234.542969 153.839844 L 234.542969 306.597656 L 65.75 306.597656 Z M 65.75 153.839844 " clip-rule="nonzero"/></clipPath></defs><g clip-path="url(#c7234ad6e3)"><g clip-path="url(#9d1fa7fcd2)"><path fill="#f59cbb" d="M 36.648438 36.648438 L 338.351562 36.648438 L 338.351562 338.351562 L 36.648438 338.351562 Z M 36.648438 36.648438 " fill-opacity="1" fill-rule="nonzero"/></g></g><g clip-path="url(#d35e629ee3)"><path fill="#f8f6b3" d="M 297.160156 185.46875 C 297.160156 125.914062 248.707031 77.460938 189.148438 77.460938 C 143.253906 77.460938 103.957031 106.238281 88.34375 146.695312 C 92.121094 146.789062 95.773438 148.160156 98.667969 150.609375 L 104.367188 155.429688 C 116.757812 120.5625 150.082031 95.523438 189.148438 95.523438 C 238.746094 95.523438 279.097656 135.875 279.097656 185.46875 C 279.097656 219.238281 260.386719 248.714844 232.796875 264.09375 L 235.84375 266.671875 C 239.839844 270.054688 241.832031 274.933594 241.707031 279.800781 C 274.761719 261.308594 297.160156 225.960938 297.160156 185.46875 " fill-opacity="1" fill-rule="nonzero"/></g><g clip-path="url(#8610af40fc)"><path fill="#f8f6b3" d="M 231.179688 272.1875 L 208.046875 252.617188 C 206.945312 251.6875 205.492188 250.457031 202.4375 250.457031 C 199.175781 250.457031 194.089844 251.859375 185.65625 256.523438 C 183.550781 257.691406 181.234375 258.332031 178.9375 258.332031 C 176.945312 258.332031 174.964844 257.847656 173.148438 256.800781 C 152.410156 244.863281 133.992188 229.28125 118.785156 210.804688 C 115.921875 207.332031 115.488281 202.667969 116.988281 198.421875 C 123.195312 180.824219 119.40625 177.621094 117.132812 175.695312 L 94.003906 156.125 C 92.238281 154.632812 90.082031 153.902344 87.9375 153.902344 C 85.269531 153.902344 82.621094 155.03125 80.765625 157.226562 L 70.878906 168.910156 C 66.320312 174.300781 60.609375 190.265625 74.507812 212.425781 C 102.09375 249.453125 137.800781 279.660156 178.878906 300.738281 L 178.882812 300.738281 C 188.125 305.023438 195.589844 306.597656 201.589844 306.597656 C 213.238281 306.597656 219.386719 300.664062 222.398438 297.109375 L 232.28125 285.425781 C 235.632812 281.46875 235.140625 275.539062 231.179688 272.1875 " fill-opacity="1" fill-rule="nonzero"/></g><path fill="#f8f6b3" d="M 166.566406 181.5625 C 165.429688 180.445312 164.085938 179.496094 162.578125 178.738281 C 161.210938 178.058594 159.761719 177.476562 158.269531 177.015625 C 156.855469 176.578125 155.382812 176.191406 153.890625 175.871094 C 152.488281 175.566406 151.109375 175.277344 149.789062 175 C 147.691406 174.566406 145.933594 174.101562 144.570312 173.617188 C 143.386719 173.195312 142.460938 172.734375 141.816406 172.242188 C 141.347656 171.886719 141.03125 171.527344 140.875 171.171875 C 140.675781 170.710938 140.574219 170.113281 140.574219 169.394531 C 140.574219 167.882812 141.109375 166.824219 142.3125 165.964844 C 143.808594 164.894531 146.25 164.351562 149.574219 164.351562 C 151.183594 164.351562 152.605469 164.523438 153.804688 164.863281 C 154.945312 165.1875 155.921875 165.628906 156.703125 166.171875 C 157.449219 166.691406 158.035156 167.285156 158.496094 167.984375 C 158.972656 168.710938 159.324219 169.511719 159.535156 170.355469 C 159.902344 171.816406 161.210938 172.839844 162.71875 172.839844 L 165.890625 172.839844 C 166.835938 172.839844 167.734375 172.429688 168.359375 171.71875 C 168.980469 171.007812 169.265625 170.058594 169.140625 169.121094 C 168.832031 166.835938 168.105469 164.742188 166.976562 162.898438 C 165.851562 161.066406 164.367188 159.496094 162.566406 158.226562 C 160.824219 156.996094 158.785156 156.050781 156.511719 155.417969 C 154.308594 154.804688 151.878906 154.496094 149.285156 154.496094 C 146.664062 154.496094 144.21875 154.832031 142.011719 155.5 C 139.730469 156.1875 137.730469 157.1875 136.058594 158.46875 C 134.316406 159.808594 132.941406 161.445312 131.980469 163.332031 C 131.007812 165.246094 130.511719 167.367188 130.511719 169.640625 C 130.511719 171.722656 130.886719 173.609375 131.625 175.25 C 132.378906 176.933594 133.546875 178.429688 135.089844 179.695312 C 136.496094 180.851562 138.261719 181.859375 140.332031 182.695312 C 142.261719 183.472656 144.574219 184.164062 147.214844 184.75 L 147.226562 184.753906 L 147.230469 184.753906 L 147.238281 184.757812 L 147.25 184.757812 C 150.140625 185.371094 152.582031 185.96875 154.503906 186.546875 C 156.234375 187.0625 157.609375 187.636719 158.59375 188.25 C 159.308594 188.691406 159.792969 189.164062 160.039062 189.644531 C 160.324219 190.207031 160.46875 190.992188 160.46875 191.972656 C 160.46875 192.867188 160.296875 193.625 159.941406 194.289062 C 159.578125 194.980469 159.046875 195.5625 158.324219 196.078125 C 157.511719 196.65625 156.480469 197.113281 155.265625 197.433594 C 153.941406 197.785156 152.398438 197.964844 150.683594 197.964844 C 148.980469 197.964844 147.359375 197.816406 145.871094 197.53125 C 144.550781 197.273438 143.375 196.84375 142.378906 196.246094 C 141.457031 195.695312 140.695312 194.964844 140.054688 194.015625 C 139.421875 193.070312 138.972656 191.804688 138.71875 190.253906 C 138.460938 188.65625 137.097656 187.5 135.480469 187.5 L 132.226562 187.5 C 131.324219 187.5 130.449219 187.875 129.832031 188.535156 C 129.214844 189.195312 128.894531 190.089844 128.953125 190.992188 C 129.117188 193.523438 129.710938 195.855469 130.71875 197.921875 C 131.765625 200.0625 133.28125 201.910156 135.230469 203.410156 C 137.109375 204.855469 139.414062 205.972656 142.085938 206.730469 C 144.648438 207.453125 147.636719 207.820312 150.972656 207.820312 C 153.640625 207.820312 156.164062 207.441406 158.472656 206.691406 C 160.839844 205.925781 162.929688 204.820312 164.679688 203.402344 C 166.476562 201.945312 167.902344 200.1875 168.921875 198.167969 C 169.960938 196.105469 170.488281 193.828125 170.488281 191.394531 C 170.488281 189.273438 170.125 187.367188 169.410156 185.734375 C 168.707031 184.132812 167.75 182.730469 166.566406 181.5625 " fill-opacity="1" fill-rule="nonzero"/><path fill="#f8f6b3" d="M 210.738281 181.011719 C 210.738281 183.84375 210.355469 186.367188 209.601562 188.519531 C 208.875 190.597656 207.855469 192.355469 206.578125 193.75 C 205.316406 195.113281 203.808594 196.164062 202.082031 196.867188 C 200.304688 197.59375 198.316406 197.964844 196.175781 197.964844 C 194.03125 197.964844 192.042969 197.59375 190.269531 196.867188 C 188.546875 196.164062 187.046875 195.121094 185.804688 193.757812 C 184.53125 192.367188 183.519531 190.601562 182.789062 188.523438 C 182.035156 186.371094 181.65625 183.84375 181.65625 181.011719 C 181.65625 178.195312 182.039062 175.699219 182.800781 173.597656 C 183.535156 171.5625 184.554688 169.84375 185.828125 168.492188 C 187.085938 167.160156 188.601562 166.128906 190.332031 165.429688 C 192.117188 164.714844 194.125 164.347656 196.300781 164.347656 C 198.421875 164.347656 200.386719 164.707031 202.144531 165.410156 C 203.839844 166.09375 205.332031 167.113281 206.574219 168.441406 C 207.839844 169.792969 208.855469 171.515625 209.59375 173.558594 C 210.351562 175.660156 210.738281 178.167969 210.738281 181.011719 Z M 213.890625 161.890625 C 211.695312 159.523438 209.050781 157.675781 206.019531 156.398438 C 203.015625 155.132812 199.714844 154.492188 196.214844 154.492188 C 192.6875 154.492188 189.378906 155.136719 186.386719 156.402344 C 183.378906 157.675781 180.738281 159.507812 178.539062 161.851562 C 176.347656 164.183594 174.628906 167.015625 173.421875 170.273438 C 172.238281 173.484375 171.632812 177.097656 171.632812 181.011719 C 171.632812 184.894531 172.226562 188.5 173.394531 191.730469 C 174.582031 195.007812 176.28125 197.871094 178.445312 200.242188 C 180.628906 202.636719 183.269531 204.519531 186.292969 205.835938 C 189.308594 207.152344 192.644531 207.820312 196.214844 207.820312 C 199.789062 207.820312 203.125 207.152344 206.125 205.835938 C 209.132812 204.511719 211.765625 202.621094 213.953125 200.214844 C 216.113281 197.832031 217.808594 194.964844 218.996094 191.6875 C 220.164062 188.457031 220.757812 184.867188 220.757812 181.011719 C 220.757812 177.125 220.15625 173.527344 218.96875 170.316406 C 217.765625 167.066406 216.054688 164.234375 213.890625 161.890625 " fill-opacity="1" fill-rule="nonzero"/><path fill="#f8f6b3" d="M 261.996094 185.734375 C 261.292969 184.132812 260.335938 182.730469 259.152344 181.5625 C 258.015625 180.445312 256.671875 179.496094 255.164062 178.738281 C 253.796875 178.058594 252.347656 177.476562 250.855469 177.015625 C 249.4375 176.578125 247.96875 176.191406 246.476562 175.871094 C 245.074219 175.566406 243.695312 175.277344 242.375 175 C 240.277344 174.566406 238.519531 174.101562 237.15625 173.617188 C 235.972656 173.195312 235.046875 172.734375 234.398438 172.242188 C 233.933594 171.886719 233.617188 171.527344 233.460938 171.171875 C 233.261719 170.710938 233.160156 170.113281 233.160156 169.394531 C 233.160156 167.878906 233.695312 166.824219 234.898438 165.964844 C 236.394531 164.894531 238.835938 164.351562 242.160156 164.351562 C 243.769531 164.351562 245.191406 164.523438 246.390625 164.863281 C 247.53125 165.191406 248.503906 165.628906 249.289062 166.175781 C 250.035156 166.695312 250.621094 167.285156 251.078125 167.984375 C 251.558594 168.710938 251.910156 169.511719 252.121094 170.355469 C 252.488281 171.816406 253.796875 172.839844 255.304688 172.839844 L 258.476562 172.839844 C 259.421875 172.839844 260.320312 172.429688 260.941406 171.71875 C 261.566406 171.007812 261.851562 170.058594 261.726562 169.121094 C 261.417969 166.835938 260.691406 164.742188 259.5625 162.902344 C 258.4375 161.066406 256.953125 159.496094 255.152344 158.226562 C 253.410156 156.996094 251.371094 156.050781 249.09375 155.417969 C 246.894531 154.804688 244.464844 154.496094 241.871094 154.496094 C 239.253906 154.496094 236.804688 154.832031 234.597656 155.5 C 232.316406 156.1875 230.3125 157.1875 228.644531 158.46875 C 226.902344 159.808594 225.527344 161.445312 224.566406 163.332031 C 223.59375 165.246094 223.097656 167.367188 223.097656 169.640625 C 223.097656 171.722656 223.472656 173.609375 224.210938 175.253906 C 224.964844 176.933594 226.128906 178.425781 227.675781 179.695312 C 229.082031 180.851562 230.847656 181.859375 232.917969 182.695312 C 234.847656 183.472656 237.160156 184.164062 239.800781 184.75 L 239.808594 184.753906 L 239.816406 184.753906 L 239.835938 184.757812 C 242.726562 185.367188 245.167969 185.96875 247.089844 186.546875 C 248.820312 187.0625 250.195312 187.636719 251.179688 188.25 C 251.894531 188.691406 252.378906 189.160156 252.625 189.644531 C 252.910156 190.207031 253.050781 190.988281 253.050781 191.972656 C 253.050781 192.867188 252.878906 193.625 252.527344 194.289062 C 252.164062 194.976562 251.632812 195.5625 250.910156 196.078125 C 250.097656 196.65625 249.066406 197.113281 247.851562 197.433594 C 246.523438 197.785156 244.984375 197.964844 243.269531 197.964844 C 241.566406 197.964844 239.945312 197.816406 238.457031 197.53125 C 237.132812 197.273438 235.960938 196.84375 234.964844 196.246094 C 234.039062 195.695312 233.28125 194.964844 232.640625 194.015625 C 232.003906 193.070312 231.554688 191.804688 231.304688 190.253906 C 231.046875 188.65625 229.683594 187.5 228.066406 187.5 L 224.8125 187.5 C 223.90625 187.5 223.035156 187.875 222.417969 188.535156 C 221.800781 189.195312 221.480469 190.089844 221.539062 190.992188 C 221.703125 193.523438 222.296875 195.855469 223.304688 197.921875 C 224.351562 200.0625 225.867188 201.910156 227.816406 203.410156 C 229.695312 204.855469 232 205.972656 234.671875 206.726562 C 237.234375 207.453125 240.222656 207.820312 243.558594 207.820312 C 246.226562 207.820312 248.75 207.441406 251.058594 206.691406 C 253.425781 205.925781 255.515625 204.820312 257.261719 203.402344 C 259.0625 201.949219 260.488281 200.1875 261.507812 198.167969 C 262.546875 196.105469 263.074219 193.828125 263.074219 191.398438 C 263.074219 189.273438 262.710938 187.367188 261.996094 185.734375 " fill-opacity="1" fill-rule="nonzero"/></svg>