<svg xmlns="http://www.w3.org/2000/svg" xmlns:xlink="http://www.w3.org/1999/xlink" width="500" zoomAndPan="magnify" viewBox="0 0 375 374.999991" height="500" preserveAspectRatio="xMidYMid meet" version="1.0"><defs><clipPath id="41e3731fa1"><path d="M 37.5 37.5 L 337.5 37.5 L 337.5 337.5 L 37.5 337.5 Z M 37.5 37.5 " clip-rule="nonzero"/></clipPath><clipPath id="ed7f62ffab"><path d="M 187.5 37.5 C 104.65625 37.5 37.5 104.65625 37.5 187.5 C 37.5 270.34375 104.65625 337.5 187.5 337.5 C 270.34375 337.5 337.5 270.34375 337.5 187.5 C 337.5 104.65625 270.34375 37.5 187.5 37.5 Z M 187.5 37.5 " clip-rule="nonzero"/></clipPath><clipPath id="a195c2a90c"><path d="M 182 244 L 258 244 L 258 300.890625 L 182 300.890625 Z M 182 244 " clip-rule="nonzero"/></clipPath></defs><g clip-path="url(#41e3731fa1)"><g clip-path="url(#ed7f62ffab)"><path fill="#f59cba" d="M 37.5 37.5 L 337.5 37.5 L 337.5 337.5 L 37.5 337.5 Z M 37.5 37.5 " fill-opacity="1" fill-rule="nonzero"/></g></g><path fill="#dddddd" d="M 219.757812 126.953125 C 217.355469 126.953125 214.953125 126.035156 213.125 124.203125 C 209.453125 120.535156 209.453125 114.601562 213.125 110.933594 L 245.976562 78.082031 C 249.644531 74.410156 255.578125 74.410156 259.246094 78.082031 C 262.917969 81.75 262.917969 87.683594 259.246094 91.351562 L 226.394531 124.203125 C 224.566406 126.035156 222.164062 126.953125 219.757812 126.953125 Z M 219.757812 126.953125 " fill-opacity="1" fill-rule="nonzero"/><path fill="#f2f2f2" d="M 137.628906 244.28125 C 135.828125 244.28125 134.027344 243.597656 132.65625 242.214844 L 95.109375 204.671875 C 92.359375 201.921875 92.359375 197.464844 95.109375 194.714844 L 182.738281 107.082031 C 192.484375 97.332031 209.5 97.332031 219.242188 107.082031 L 230.242188 118.085938 C 235.125 122.957031 237.800781 129.441406 237.800781 136.332031 C 237.800781 143.21875 235.113281 149.707031 230.242188 154.578125 L 142.605469 242.214844 C 141.234375 243.597656 139.433594 244.28125 137.628906 244.28125 Z M 137.628906 244.28125 " fill-opacity="1" fill-rule="nonzero"/><path fill="#dddddd" d="M 144.667969 253.667969 C 142.265625 253.667969 139.863281 252.746094 138.035156 250.917969 L 86.410156 199.292969 C 82.738281 195.625 82.738281 189.691406 86.410156 186.023438 C 90.078125 182.351562 96.011719 182.351562 99.683594 186.023438 L 151.304688 237.644531 C 154.976562 241.316406 154.976562 247.246094 151.304688 250.917969 C 149.476562 252.746094 147.074219 253.667969 144.667969 253.667969 Z M 144.667969 253.667969 " fill-opacity="1" fill-rule="nonzero"/><path fill="#dddddd" d="M 79.367188 244.683594 L 112.222656 211.832031 L 125.496094 225.105469 L 92.644531 257.960938 Z M 79.367188 244.683594 " fill-opacity="1" fill-rule="nonzero"/><path fill="#dddddd" d="M 97.738281 272.441406 C 95.335938 272.441406 92.933594 271.519531 91.101562 269.691406 L 67.636719 246.226562 C 63.96875 242.554688 63.96875 236.621094 67.636719 232.953125 C 71.308594 229.28125 77.238281 229.28125 80.910156 232.953125 L 104.375 256.417969 C 108.046875 260.089844 108.046875 266.019531 104.375 269.691406 C 102.542969 271.519531 100.140625 272.441406 97.738281 272.441406 Z M 97.738281 272.441406 " fill-opacity="1" fill-rule="nonzero"/><path fill="#dddddd" d="M 188.878906 133.617188 C 187 135.402344 184.65625 136.339844 182.214844 136.339844 C 179.773438 136.339844 177.425781 135.402344 175.550781 133.617188 L 165.882812 123.949219 L 179.210938 110.621094 L 188.878906 120.289062 C 192.539062 123.949219 192.539062 129.957031 188.878906 133.617188 Z M 188.878906 133.617188 " fill-opacity="1" fill-rule="nonzero"/><path fill="#dddddd" d="M 170.105469 171.164062 C 168.230469 172.945312 165.882812 173.886719 163.441406 173.886719 C 161 173.886719 158.65625 172.945312 156.777344 171.164062 L 137.722656 152.109375 L 151.050781 138.78125 L 170.105469 157.835938 C 173.765625 161.496094 173.765625 167.503906 170.105469 171.164062 Z M 170.105469 171.164062 " fill-opacity="1" fill-rule="nonzero"/><path fill="#dddddd" d="M 132.5625 189.9375 C 130.683594 191.71875 128.335938 192.65625 125.898438 192.65625 C 123.457031 192.65625 121.109375 191.71875 119.234375 189.9375 L 109.566406 180.269531 L 122.894531 166.941406 L 132.5625 176.605469 C 136.222656 180.269531 136.222656 186.273438 132.5625 189.9375 Z M 132.5625 189.9375 " fill-opacity="1" fill-rule="nonzero"/><g clip-path="url(#a195c2a90c)"><path fill="#faf6b3" d="M 219.757812 300.597656 C 209.828125 300.597656 199.90625 298.214844 190.050781 293.445312 C 190.042969 293.445312 190.042969 293.445312 190.042969 293.445312 C 185.285156 291.148438 182.214844 286.210938 182.214844 280.886719 C 182.214844 260.707031 199.054688 244.28125 219.757812 244.28125 C 240.464844 244.28125 257.304688 260.707031 257.304688 280.886719 C 257.304688 286.210938 254.234375 291.148438 249.476562 293.445312 C 239.609375 298.222656 229.691406 300.597656 219.757812 300.597656 Z M 219.757812 300.597656 " fill-opacity="1" fill-rule="nonzero"/></g><path fill="#faf6b3" d="M 203.992188 236.164062 C 201.824219 236.164062 199.625 235.570312 197.570312 234.40625 C 192.332031 231.433594 188.183594 224.710938 186.457031 216.441406 C 184.09375 205.058594 186.699219 191.792969 196.265625 188.480469 C 199.617188 187.308594 203.277344 187.710938 206.5625 189.578125 C 211.808594 192.554688 215.957031 199.273438 217.695312 207.554688 C 217.695312 207.554688 217.695312 207.554688 217.695312 207.5625 C 220.058594 218.949219 217.449219 232.203125 207.886719 235.515625 C 206.628906 235.945312 205.3125 236.164062 203.992188 236.164062 Z M 203.992188 236.164062 " fill-opacity="1" fill-rule="nonzero"/><path fill="#faf6b3" d="M 236.269531 236.164062 C 234.957031 236.164062 233.652344 235.945312 232.382812 235.515625 C 222.820312 232.210938 220.210938 218.949219 222.574219 207.5625 C 224.300781 199.285156 228.449219 192.5625 233.699219 189.589844 C 236.984375 187.730469 240.625 187.328125 243.996094 188.488281 C 253.558594 191.804688 256.167969 205.058594 253.804688 216.453125 C 252.074219 224.730469 247.925781 231.449219 242.679688 234.425781 C 240.632812 235.582031 238.4375 236.164062 236.269531 236.164062 Z M 236.269531 236.164062 " fill-opacity="1" fill-rule="nonzero"/><path fill="#faf6b3" d="M 174.988281 253.527344 C 168.625 253.527344 161.828125 249.460938 157.59375 242.515625 C 154.328125 237.15625 153.25 231.132812 154.628906 225.988281 C 155.652344 222.160156 158.015625 219.0625 161.285156 217.277344 C 168.96875 213.0625 179.503906 217.175781 185.265625 226.636719 C 188.53125 231.996094 189.609375 238.019531 188.230469 243.164062 C 187.207031 246.996094 184.84375 250.089844 181.578125 251.875 C 179.539062 252.992188 177.296875 253.527344 174.988281 253.527344 Z M 174.988281 253.527344 " fill-opacity="1" fill-rule="nonzero"/><path fill="#faf6b3" d="M 264.53125 253.527344 C 262.230469 253.527344 259.988281 252.992188 257.933594 251.867188 C 254.675781 250.082031 252.3125 246.984375 251.289062 243.15625 C 249.917969 238.011719 250.996094 231.984375 254.253906 226.625 C 259.996094 217.164062 270.527344 213.054688 278.234375 217.269531 C 281.5 219.050781 283.867188 222.148438 284.890625 225.980469 C 286.261719 231.121094 285.179688 237.148438 281.925781 242.507812 C 277.691406 249.460938 270.886719 253.527344 264.53125 253.527344 Z M 264.53125 253.527344 " fill-opacity="1" fill-rule="nonzero"/></svg>