<svg xmlns="http://www.w3.org/2000/svg" xmlns:xlink="http://www.w3.org/1999/xlink" width="200" zoomAndPan="magnify" viewBox="0 0 150 30.000001" height="40" preserveAspectRatio="xMidYMid meet" version="1.0"><defs><clipPath id="446e5c91b2"><path d="M 7.210938 2.710938 L 142.9375 2.710938 L 142.9375 25.9375 L 7.210938 25.9375 Z M 7.210938 2.710938 " clip-rule="nonzero"/></clipPath></defs><g clip-path="url(#446e5c91b2)"><path fill="#ffce38" d="M 20.253906 3.324219 L 23.332031 9.523438 C 23.433594 9.769531 23.679688 9.941406 23.960938 9.976562 L 30.882812 10.980469 C 31.546875 11.085938 31.828125 11.917969 31.335938 12.367188 L 26.335938 17.183594 C 26.128906 17.355469 26.058594 17.632812 26.09375 17.910156 L 27.28125 24.738281 C 27.386719 25.394531 26.6875 25.914062 26.09375 25.601562 L 19.902344 22.378906 C 19.660156 22.242188 19.378906 22.242188 19.136719 22.378906 L 12.945312 25.601562 C 12.351562 25.914062 11.652344 25.394531 11.757812 24.738281 L 12.945312 17.910156 C 12.980469 17.632812 12.910156 17.390625 12.703125 17.183594 L 7.703125 12.367188 C 7.210938 11.882812 7.492188 11.085938 8.15625 10.980469 L 15.078125 9.976562 C 15.359375 9.941406 15.570312 9.769531 15.707031 9.523438 L 18.785156 3.324219 C 19.101562 2.734375 19.972656 2.734375 20.253906 3.324219 Z M 46.546875 3.324219 L 43.46875 9.523438 C 43.363281 9.769531 43.121094 9.941406 42.839844 9.976562 L 35.917969 10.980469 C 35.253906 11.085938 34.972656 11.917969 35.460938 12.367188 L 40.460938 17.183594 C 40.671875 17.355469 40.742188 17.632812 40.707031 17.910156 L 39.519531 24.738281 C 39.414062 25.394531 40.113281 25.914062 40.707031 25.601562 L 46.894531 22.378906 C 47.140625 22.242188 47.417969 22.242188 47.664062 22.378906 L 53.851562 25.601562 C 54.449219 25.914062 55.179688 25.394531 55.042969 24.738281 L 53.851562 17.910156 C 53.816406 17.632812 53.886719 17.390625 54.097656 17.183594 L 59.097656 12.367188 C 59.585938 11.882812 59.308594 11.085938 58.644531 10.980469 L 51.71875 9.976562 C 51.441406 9.941406 51.230469 9.769531 51.089844 9.523438 L 48.015625 3.324219 C 47.734375 2.734375 46.859375 2.734375 46.546875 3.324219 Z M 74.339844 3.324219 L 71.265625 9.523438 C 71.160156 9.769531 70.914062 9.941406 70.636719 9.976562 L 63.710938 10.980469 C 63.046875 11.085938 62.769531 11.917969 63.257812 12.367188 L 68.257812 17.183594 C 68.46875 17.355469 68.539062 17.632812 68.503906 17.910156 L 67.3125 24.738281 C 67.207031 25.394531 67.90625 25.914062 68.503906 25.601562 L 74.691406 22.378906 C 74.933594 22.242188 75.214844 22.242188 75.460938 22.378906 L 81.648438 25.601562 C 82.242188 25.914062 82.976562 25.394531 82.835938 24.738281 L 81.648438 17.910156 C 81.613281 17.632812 81.683594 17.390625 81.894531 17.183594 L 86.894531 12.367188 C 87.382812 11.882812 87.101562 11.085938 86.4375 10.980469 L 79.515625 9.976562 C 79.234375 9.941406 79.027344 9.769531 78.886719 9.523438 L 75.808594 3.324219 C 75.496094 2.734375 74.621094 2.734375 74.339844 3.324219 Z M 102.101562 3.324219 L 99.023438 9.523438 C 98.921875 9.769531 98.675781 9.941406 98.394531 9.976562 L 91.472656 10.980469 C 90.808594 11.085938 90.527344 11.917969 91.019531 12.367188 L 96.019531 17.183594 C 96.226562 17.355469 96.296875 17.632812 96.261719 17.910156 L 95.074219 24.738281 C 94.96875 25.394531 95.667969 25.914062 96.261719 25.601562 L 102.453125 22.378906 C 102.695312 22.242188 102.976562 22.242188 103.21875 22.378906 L 109.410156 25.601562 C 110.003906 25.914062 110.738281 25.394531 110.597656 24.738281 L 109.410156 17.910156 C 109.375 17.632812 109.445312 17.390625 109.652344 17.183594 L 114.652344 12.367188 C 115.144531 11.882812 114.863281 11.085938 114.199219 10.980469 L 107.277344 9.976562 C 106.996094 9.941406 106.785156 9.769531 106.648438 9.523438 L 103.570312 3.324219 C 103.289062 2.734375 102.417969 2.734375 102.101562 3.324219 Z M 129.898438 3.324219 L 126.820312 9.523438 C 126.714844 9.769531 126.472656 9.941406 126.191406 9.976562 L 119.269531 10.980469 C 118.605469 11.085938 118.324219 11.917969 118.8125 12.367188 L 123.8125 17.183594 C 124.023438 17.355469 124.09375 17.632812 124.058594 17.910156 L 122.871094 24.738281 C 122.765625 25.394531 123.464844 25.914062 124.058594 25.601562 L 130.246094 22.378906 C 130.492188 22.242188 130.769531 22.242188 131.015625 22.378906 L 137.203125 25.601562 C 137.796875 25.914062 138.53125 25.394531 138.394531 24.738281 L 137.203125 17.910156 C 137.167969 17.632812 137.238281 17.390625 137.449219 17.183594 L 142.449219 12.367188 C 142.9375 11.882812 142.660156 11.085938 141.996094 10.980469 L 135.070312 9.976562 C 134.792969 9.941406 134.582031 9.769531 134.441406 9.523438 L 131.367188 3.324219 C 131.050781 2.734375 130.175781 2.734375 129.898438 3.324219 Z M 129.898438 3.324219 " fill-opacity="1" fill-rule="nonzero"/></g></svg>